<?xml version="1.0" encoding="UTF-8" standalone="no"?><svg xmlns="http://www.w3.org/2000/svg" xmlns:xlink="http://www.w3.org/1999/xlink" clip-rule="evenodd" stroke-miterlimit="4.00" viewBox="0 0 177 38"><desc>SVG generated by Keynote</desc><defs></defs><g transform="matrix(1.00, 0.00, -0.00, -1.00, 0.0, 38.0)"><path d="M 10.2 36.1 L 167.1 36.1 C 169.5 36.1 170.8 36.1 172.1 35.7 C 173.5 35.1 174.6 34.0 175.1 32.6 C 175.5 31.3 175.5 30.1 175.5 27.6 L 175.5 10.2 C 175.5 7.8 175.5 6.6 175.1 5.3 C 174.6 3.9 173.5 2.7 172.1 2.2 C 170.8 1.8 169.5 1.8 167.1 1.8 L 10.2 1.8 C 7.8 1.8 6.5 1.8 5.2 2.2 C 3.8 2.7 2.7 3.9 2.2 5.3 C 1.8 6.6 1.8 7.8 1.8 10.2 L 1.8 27.7 C 1.8 30.1 1.8 31.3 2.2 32.6 C 2.7 34.0 3.8 35.1 5.2 35.7 C 6.5 36.1 7.8 36.1 10.2 36.1 Z M 10.2 36.1 " fill="#5F834B"></path><g><clipPath id="clip-4644"><path d="M 1.8 0.9 L 175.5 0.9 L 175.5 38.2 L 1.8 38.2 Z M 1.8 0.9 "></path></clipPath><g clip-path="url(#clip-4644)"><text xml:space="preserve" font-family="Avenir-Heavy" font-weight="bold" font-size="18.0" fill="#FEFFFE" transform="matrix(1.00, 0.00, -0.00, -1.00, 30.0, 14.0)">F</text><text xml:space="preserve" font-family="Avenir-Heavy" font-weight="bold" font-size="18.0" fill="#FEFFFE" transform="matrix(1.00, 0.00, -0.00, -1.00, 40.3, 14.0)">I</text><text xml:space="preserve" font-family="Avenir-Heavy" font-weight="bold" font-size="18.0" fill="#FEFFFE" transform="matrix(1.00, 0.00, -0.00, -1.00, 45.3, 14.0)">N</text><text xml:space="preserve" font-family="Avenir-Heavy" font-weight="bold" font-size="18.0" fill="#FEFFFE" transform="matrix(1.00, 0.00, -0.00, -1.00, 59.7, 14.0)">I</text><text xml:space="preserve" font-family="Avenir-Heavy" font-weight="bold" font-size="18.0" fill="#FEFFFE" transform="matrix(1.00, 0.00, -0.00, -1.00, 64.7, 14.0)">S</text><text xml:space="preserve" font-family="Avenir-Heavy" font-weight="bold" font-size="18.0" fill="#FEFFFE" transform="matrix(1.00, 0.00, -0.00, -1.00, 75.0, 14.0)">H</text><text xml:space="preserve" font-family="Avenir-Heavy" font-weight="bold" font-size="18.0" fill="#FEFFFE" transform="matrix(1.00, 0.00, -0.00, -1.00, 88.3, 14.0)"> </text><text xml:space="preserve" font-family="Avenir-Heavy" font-weight="bold" font-size="18.0" fill="#FEFFFE" transform="matrix(1.00, 0.00, -0.00, -1.00, 93.7, 14.0)">B</text><text xml:space="preserve" font-family="Avenir-Heavy" font-weight="bold" font-size="18.0" fill="#FEFFFE" transform="matrix(1.00, 0.00, -0.00, -1.00, 105.3, 14.0)">U</text><text xml:space="preserve" font-family="Avenir-Heavy" font-weight="bold" font-size="18.0" fill="#FEFFFE" transform="matrix(1.00, 0.00, -0.00, -1.00, 118.3, 14.0)">I</text><text xml:space="preserve" font-family="Avenir-Heavy" font-weight="bold" font-size="18.0" fill="#FEFFFE" transform="matrix(1.00, 0.00, -0.00, -1.00, 123.3, 14.0)">L</text><text xml:space="preserve" font-family="Avenir-Heavy" font-weight="bold" font-size="18.0" fill="#FEFFFE" transform="matrix(1.00, 0.00, -0.00, -1.00, 132.7, 14.0)">D</text></g></g></g></svg>