<?xml version="1.0" encoding="UTF-8" standalone="no"?><svg xmlns="http://www.w3.org/2000/svg" xmlns:xlink="http://www.w3.org/1999/xlink" clip-rule="evenodd" stroke-miterlimit="4.00" viewBox="0 0 1920 1080"><desc>SVG generated by Keynote</desc><defs></defs><g transform="matrix(1.00, 0.00, -0.00, -1.00, 0.0, 1080.0)"><path d="M 0.0 1080.0 L 1920.0 1080.0 L 1920.0 0.0 L 0.0 0.0 Z M 0.0 1080.0 " fill="#000000"></path><text xml:space="preserve" font-family="Helvetica-Bold" font-weight="bold" font-size="44.0" fill="#FEFFFF" transform="matrix(1.00, 0.00, -0.00, -1.00, 716.0, 981.0)">M</text><text xml:space="preserve" font-family="Helvetica-Bold" font-weight="bold" font-size="44.0" fill="#FEFFFF" transform="matrix(1.00, 0.00, -0.00, -1.00, 752.7, 981.0)">A</text><text xml:space="preserve" font-family="Helvetica-Bold" font-weight="bold" font-size="44.0" fill="#FEFFFF" transform="matrix(1.00, 0.00, -0.00, -1.00, 784.4, 981.0)">K</text><text xml:space="preserve" font-family="Helvetica-Bold" font-weight="bold" font-size="44.0" fill="#FEFFFF" transform="matrix(1.00, 0.00, -0.00, -1.00, 816.2, 981.0)">E</text><text xml:space="preserve" font-family="Helvetica-Bold" font-weight="bold" font-size="44.0" fill="#FEFFFF" transform="matrix(1.00, 0.00, -0.00, -1.00, 845.6, 981.0)"> </text><text xml:space="preserve" font-family="Helvetica-Bold" font-weight="bold" font-size="44.0" fill="#FEFFFF" transform="matrix(1.00, 0.00, -0.00, -1.00, 857.0, 981.0)">Y</text><text xml:space="preserve" font-family="Helvetica-Bold" font-weight="bold" font-size="44.0" fill="#FEFFFF" transform="matrix(1.00, 0.00, -0.00, -1.00, 886.4, 981.0)">O</text><text xml:space="preserve" font-family="Helvetica-Bold" font-weight="bold" font-size="44.0" fill="#FEFFFF" transform="matrix(1.00, 0.00, -0.00, -1.00, 920.6, 981.0)">U</text><text xml:space="preserve" font-family="Helvetica-Bold" font-weight="bold" font-size="44.0" fill="#FEFFFF" transform="matrix(1.00, 0.00, -0.00, -1.00, 952.4, 981.0)">R</text><text xml:space="preserve" font-family="Helvetica-Bold" font-weight="bold" font-size="44.0" fill="#FEFFFF" transform="matrix(1.00, 0.00, -0.00, -1.00, 984.1, 981.0)"> </text><text xml:space="preserve" font-family="Helvetica-Bold" font-weight="bold" font-size="44.0" fill="#FEFFFF" transform="matrix(1.00, 0.00, -0.00, -1.00, 996.4, 981.0)">P</text><text xml:space="preserve" font-family="Helvetica-Bold" font-weight="bold" font-size="44.0" fill="#FEFFFF" transform="matrix(1.00, 0.00, -0.00, -1.00, 1025.7, 981.0)">C</text><text xml:space="preserve" font-family="Helvetica-Bold" font-weight="bold" font-size="44.0" fill="#FEFFFF" transform="matrix(1.00, 0.00, -0.00, -1.00, 1057.5, 981.0)"> </text><text xml:space="preserve" font-family="Helvetica-Bold" font-weight="bold" font-size="44.0" fill="#FEFFFF" transform="matrix(1.00, 0.00, -0.00, -1.00, 1069.7, 981.0)">B</text><text xml:space="preserve" font-family="Helvetica-Bold" font-weight="bold" font-size="44.0" fill="#FEFFFF" transform="matrix(1.00, 0.00, -0.00, -1.00, 1101.5, 981.0)">U</text><text xml:space="preserve" font-family="Helvetica-Bold" font-weight="bold" font-size="44.0" fill="#FEFFFF" transform="matrix(1.00, 0.00, -0.00, -1.00, 1133.3, 981.0)">I</text><text xml:space="preserve" font-family="Helvetica-Bold" font-weight="bold" font-size="44.0" fill="#FEFFFF" transform="matrix(1.00, 0.00, -0.00, -1.00, 1145.5, 981.0)">L</text><text xml:space="preserve" font-family="Helvetica-Bold" font-weight="bold" font-size="44.0" fill="#FEFFFF" transform="matrix(1.00, 0.00, -0.00, -1.00, 1172.4, 981.0)">D</text><g><clipPath id="clip-2165"><path d="M 1207.3 88.9 L 1619.1 88.9 L 1619.1 176.6 L 1207.3 176.6 Z M 1207.3 88.9 "></path></clipPath><g clip-path="url(#clip-2165)"><path d="M 1208.3 175.6 L 1618.1 175.6 L 1618.1 89.9 L 1208.3 89.9 Z M 1208.3 175.6 " fill="#5F834B"></path></g></g><g><clipPath id="clip-2166"><path d="M 1605.9 121.3 L 1605.9 144.3 L 1582.9 144.3 L 1582.9 121.3 Z M 1605.9 121.3 "></path></clipPath><g clip-path="url(#clip-2166)"><path d="M 1604.9 132.8 L 1583.9 143.3 L 1583.9 122.3 Z M 1604.9 132.8 " fill="#FEFFFE"></path></g></g><g><clipPath id="clip-2167"><path d="M 1214.8 101.2 L 1571.7 101.2 L 1571.7 164.4 L 1214.8 164.4 Z M 1214.8 101.2 "></path></clipPath><g clip-path="url(#clip-2167)"><text xml:space="preserve" font-family="Avenir-Heavy" font-weight="bold" font-size="31.0" fill="#FEFFFE" transform="matrix(1.00, 0.00, -0.00, -1.00, 1226.0, 123.0)">S</text><text xml:space="preserve" font-family="Avenir-Heavy" font-weight="bold" font-size="31.0" fill="#FEFFFE" transform="matrix(1.00, 0.00, -0.00, -1.00, 1243.8, 123.0)">k</text><text xml:space="preserve" font-family="Avenir-Heavy" font-weight="bold" font-size="31.0" fill="#FEFFFE" transform="matrix(1.00, 0.00, -0.00, -1.00, 1260.4, 123.0)">i</text><text xml:space="preserve" font-family="Avenir-Heavy" font-weight="bold" font-size="31.0" fill="#FEFFFE" transform="matrix(1.00, 0.00, -0.00, -1.00, 1268.5, 123.0)">p</text><text xml:space="preserve" font-family="Avenir-Heavy" font-weight="bold" font-size="31.0" fill="#FEFFFE" transform="matrix(1.00, 0.00, -0.00, -1.00, 1288.0, 123.0)"> </text><text xml:space="preserve" font-family="Avenir-Heavy" font-weight="bold" font-size="31.0" fill="#FEFFFE" transform="matrix(1.00, 0.00, -0.00, -1.00, 1297.2, 123.0)">S</text><text xml:space="preserve" font-family="Avenir-Heavy" font-weight="bold" font-size="31.0" fill="#FEFFFE" transform="matrix(1.00, 0.00, -0.00, -1.00, 1315.0, 123.0)">h</text><text xml:space="preserve" font-family="Avenir-Heavy" font-weight="bold" font-size="31.0" fill="#FEFFFE" transform="matrix(1.00, 0.00, -0.00, -1.00, 1332.8, 123.0)">o</text><text xml:space="preserve" font-family="Avenir-Heavy" font-weight="bold" font-size="31.0" fill="#FEFFFE" transform="matrix(1.00, 0.00, -0.00, -1.00, 1351.7, 123.0)">p</text><text xml:space="preserve" font-family="Avenir-Heavy" font-weight="bold" font-size="31.0" fill="#FEFFFE" transform="matrix(1.00, 0.00, -0.00, -1.00, 1371.2, 123.0)">p</text><text xml:space="preserve" font-family="Avenir-Heavy" font-weight="bold" font-size="31.0" fill="#FEFFFE" transform="matrix(1.00, 0.00, -0.00, -1.00, 1390.8, 123.0)">i</text><text xml:space="preserve" font-family="Avenir-Heavy" font-weight="bold" font-size="31.0" fill="#FEFFFE" transform="matrix(1.00, 0.00, -0.00, -1.00, 1398.8, 123.0)">n</text><text xml:space="preserve" font-family="Avenir-Heavy" font-weight="bold" font-size="31.0" fill="#FEFFFE" transform="matrix(1.00, 0.00, -0.00, -1.00, 1416.6, 123.0)">g</text><text xml:space="preserve" font-family="Avenir-Heavy" font-weight="bold" font-size="31.0" fill="#FEFFFE" transform="matrix(1.00, 0.00, -0.00, -1.00, 1436.1, 123.0)"> </text><text xml:space="preserve" font-family="Avenir-Heavy" font-weight="bold" font-size="31.0" fill="#FEFFFE" transform="matrix(1.00, 0.00, -0.00, -1.00, 1445.3, 123.0)">&amp;</text><text xml:space="preserve" font-family="Avenir-Heavy" font-weight="bold" font-size="31.0" fill="#FEFFFE" transform="matrix(1.00, 0.00, -0.00, -1.00, 1468.3, 123.0)"> </text><text xml:space="preserve" font-family="Avenir-Heavy" font-weight="bold" font-size="31.0" fill="#FEFFFE" transform="matrix(1.00, 0.00, -0.00, -1.00, 1477.5, 123.0)">F</text><text xml:space="preserve" font-family="Avenir-Heavy" font-weight="bold" font-size="31.0" fill="#FEFFFE" transform="matrix(1.00, 0.00, -0.00, -1.00, 1495.3, 123.0)">i</text><text xml:space="preserve" font-family="Avenir-Heavy" font-weight="bold" font-size="31.0" fill="#FEFFFE" transform="matrix(1.00, 0.00, -0.00, -1.00, 1503.3, 123.0)">n</text><text xml:space="preserve" font-family="Avenir-Heavy" font-weight="bold" font-size="31.0" fill="#FEFFFE" transform="matrix(1.00, 0.00, -0.00, -1.00, 1521.1, 123.0)">i</text><text xml:space="preserve" font-family="Avenir-Heavy" font-weight="bold" font-size="31.0" fill="#FEFFFE" transform="matrix(1.00, 0.00, -0.00, -1.00, 1529.2, 123.0)">s</text><text xml:space="preserve" font-family="Avenir-Heavy" font-weight="bold" font-size="31.0" fill="#FEFFFE" transform="matrix(1.00, 0.00, -0.00, -1.00, 1542.9, 123.0)">h</text></g></g></g></svg>