<?xml version="1.0" encoding="UTF-8" standalone="no"?><svg xmlns="http://www.w3.org/2000/svg" xmlns:xlink="http://www.w3.org/1999/xlink" clip-rule="evenodd" stroke-miterlimit="4.00" viewBox="0 0 131 161"><desc>SVG generated by Keynote</desc><defs></defs><g transform="matrix(1.00, 0.00, -0.00, -1.00, 0.0, 161.0)"><image xlink:href="../../86C23161-7833-4B5D-970E-9F70E31A29CD/assets/18DE1BD482873673E795B15FA43E9765.png" width="128.00" height="158.00" transform="matrix(1.00, 0.00, -0.00, -1.00, 1.0, 159.0)"></image><g><clipPath id="clip-4622"><path d="M 1.0 1.0 L 129.0 1.0 L 129.0 159.0 L 1.0 159.0 Z M 1.0 1.0 "></path></clipPath><g clip-path="url(#clip-4622)"><path d="M -311.0 151.0 C -311.0 154.3 -308.3 157.0 -305.0 157.0 L -197.0 157.0 C -193.7 157.0 -191.0 154.3 -191.0 151.0 L -191.0 13.0 C -191.0 9.7 -193.7 7.0 -197.0 7.0 L -305.0 7.0 C -308.3 7.0 -311.0 9.7 -311.0 13.0 L -311.0 151.0 Z M -311.0 151.0 " fill="#FFFFFF"></path></g></g><g><clipPath id="clip-4623"><path d="M 5.0 151.0 C 5.0 154.3 7.7 157.0 11.0 157.0 L 119.0 157.0 C 122.3 157.0 125.0 154.3 125.0 151.0 L 125.0 13.0 C 125.0 9.7 122.3 7.0 119.0 7.0 L 11.0 7.0 C 7.7 7.0 5.0 9.7 5.0 13.0 L 5.0 151.0 Z M 5.0 151.0 "></path></clipPath><g clip-path="url(#clip-4623)"><g><clipPath id="clip-4624"><path d="M 1.0 1.0 L 129.0 1.0 L 129.0 159.0 L 1.0 159.0 Z M 1.0 1.0 "></path></clipPath><g clip-path="url(#clip-4624)"><g><image xlink:href="../../86C23161-7833-4B5D-970E-9F70E31A29CD/assets/CDD4FF2E63A3344F9A4D76899336AC4A.png" width="120.00" height="150.00" transform="matrix(1.00, 0.00, -0.00, -1.00, 5.0, 157.0)"></image><g><clipPath id="clip-4625"><path d="M 5.0 7.0 L 125.0 7.0 L 125.0 157.0 L 5.0 157.0 Z M 5.0 7.0 "></path></clipPath><g clip-path="url(#clip-4625)"><path d="M -311.0 151.0 C -311.0 154.3 -308.3 157.0 -305.0 157.0 L -197.0 157.0 C -193.7 157.0 -191.0 154.3 -191.0 151.0 L -191.0 13.0 C -191.0 9.7 -193.7 7.0 -197.0 7.0 L -305.0 7.0 C -308.3 7.0 -311.0 9.7 -311.0 13.0 L -311.0 151.0 Z M -311.0 151.0 " fill="#FFFFFF"></path></g></g><g><clipPath id="clip-4626"><path d="M 5.0 7.0 L 125.0 7.0 L 125.0 157.0 L 5.0 157.0 Z M 5.0 7.0 "></path></clipPath><g clip-path="url(#clip-4626)"><path d="M 0.0 162.0 L 130.0 162.0 L 130.0 2.0 L 0.0 2.0 Z M 0.0 162.0 " fill="#FFE291"></path><image xlink:href="../../70862D9C-4EC8-4A94-B80E-D61C74B7CCE9/assets/5801563D3CBBB6951C910EE4819B6457.png" width="1800.00" height="1187.00" transform="matrix(0.06, 0.00, -0.00, -0.06, 1.0, 116.0)"></image></g></g><image xlink:href="../../4CB14B03-340A-4341-8442-49BC340847BB/assets/B28F6707EBB20E85E68686A3F4BF1B52.png" width="120.00" height="31.00" transform="matrix(1.00, 0.00, -0.00, -1.00, 5.0, 58.0)"></image><g><clipPath id="clip-4627"><path d="M 5.0 11.0 L 125.0 11.0 L 125.0 66.0 L 5.0 66.0 Z M 5.0 11.0 "></path></clipPath><g clip-path="url(#clip-4627)"><path d="M -299.0 53.0 L -179.0 53.0 L -179.0 28.0 L -299.0 28.0 L -299.0 53.0 Z M -299.0 53.0 " fill="#FFFFFF"></path></g></g><g><clipPath id="clip-4628"><path d="M 5.0 53.0 L 125.0 53.0 L 125.0 28.0 L 5.0 28.0 L 5.0 53.0 Z M 5.0 53.0 "></path></clipPath><g clip-path="url(#clip-4628)"><g><clipPath id="clip-4629"><path d="M 5.0 7.0 L 125.0 7.0 L 125.0 157.0 L 5.0 157.0 Z M 5.0 7.0 "></path></clipPath><g clip-path="url(#clip-4629)"><path d="M 0.0 58.0 L 130.0 58.0 L 130.0 23.0 L 0.0 23.0 Z M 0.0 58.0 " fill="#D7BD71"></path></g></g></g></g><image xlink:href="../../CDFF3822-1C65-4E12-8D71-C5207BD9EB3A/assets/87FA84CBE3A59BB9BBFDE11604C6E201.png" width="27.00" height="20.00" transform="matrix(1.00, 0.00, -0.00, -1.00, 94.0, 153.0)"></image><g><clipPath id="clip-4630"><path d="M 88.0 125.0 L 125.0 125.0 L 125.0 157.0 L 88.0 157.0 Z M 88.0 125.0 "></path></clipPath><g clip-path="url(#clip-4630)"><image xlink:href="../../CDFF3822-1C65-4E12-8D71-C5207BD9EB3A/assets/E4AE272883F2879D7D4BBA961C568CB6.png" width="800.00" height="588.00" transform="matrix(0.03, 0.00, -0.00, -0.03, 13.0, 152.0)"></image></g></g><g><clipPath id="clip-4631"><path d="M 5.0 7.0 L 125.0 7.0 L 125.0 157.0 L 5.0 157.0 Z M 5.0 7.0 "></path></clipPath><g clip-path="url(#clip-4631)"><image xlink:href="../../CDFF3822-1C65-4E12-8D71-C5207BD9EB3A/assets/E4AE272883F2879D7D4BBA961C568CB6.png" width="800.00" height="588.00" transform="matrix(0.03, 0.00, -0.00, -0.03, 95.0, 152.0)"></image><text xml:space="preserve" font-family="AvenirNextCondensed-Medium" font-size="15.0" fill="#000000" transform="matrix(1.00, 0.00, -0.00, -1.00, 41.5, 35.0)">C</text><text xml:space="preserve" font-family="AvenirNextCondensed-Medium" font-size="15.0" fill="#000000" transform="matrix(1.00, 0.00, -0.00, -1.00, 48.8, 35.0)">X</text><text xml:space="preserve" font-family="AvenirNextCondensed-Medium" font-size="15.0" fill="#000000" transform="matrix(1.00, 0.00, -0.00, -1.00, 55.9, 35.0)">6</text><text xml:space="preserve" font-family="AvenirNextCondensed-Medium" font-size="15.0" fill="#000000" transform="matrix(1.00, 0.00, -0.00, -1.00, 63.1, 35.0)">5</text><text xml:space="preserve" font-family="AvenirNextCondensed-Medium" font-size="15.0" fill="#000000" transform="matrix(1.00, 0.00, -0.00, -1.00, 70.3, 35.0)">0</text><text xml:space="preserve" font-family="AvenirNextCondensed-Medium" font-size="15.0" fill="#000000" transform="matrix(1.00, 0.00, -0.00, -1.00, 77.5, 35.0)">M</text><image xlink:href="../../70862D9C-4EC8-4A94-B80E-D61C74B7CCE9/assets/6552437EDB1F288FD6F2253E1FAC0E68.png" width="101.00" height="136.00" transform="matrix(0.15, 0.00, -0.00, -0.15, 10.0, 152.0)"></image><text xml:space="preserve" font-family="AvenirNextCondensed-Medium" font-size="15.0" fill="#000000" transform="matrix(1.00, 0.00, -0.00, -1.00, 50.5, 12.0)">$</text><text xml:space="preserve" font-family="AvenirNextCondensed-Medium" font-size="15.0" fill="#000000" transform="matrix(1.00, 0.00, -0.00, -1.00, 57.8, 12.0)">1</text><text xml:space="preserve" font-family="AvenirNextCondensed-Medium" font-size="15.0" fill="#000000" transform="matrix(1.00, 0.00, -0.00, -1.00, 65.0, 12.0)">2</text><text xml:space="preserve" font-family="AvenirNextCondensed-Medium" font-size="15.0" fill="#000000" transform="matrix(1.00, 0.00, -0.00, -1.00, 72.2, 12.0)">0</text></g></g></g></g></g></g></g><g><clipPath id="clip-4632"><path d="M 1.0 1.0 L 129.0 1.0 L 129.0 159.0 L 1.0 159.0 Z M 1.0 1.0 "></path></clipPath><g clip-path="url(#clip-4632)"><path d="M 0.0 0.0 " fill="none" stroke="#969696" stroke-width="1.00" stroke-miterlimit="0.00" transform="matrix(1.00, 0.00, 0.00, -1.00, 5.5, 7.9)"></path></g></g></g></svg>