<?xml version="1.0" encoding="UTF-8" standalone="no"?><svg xmlns="http://www.w3.org/2000/svg" xmlns:xlink="http://www.w3.org/1999/xlink" clip-rule="evenodd" stroke-miterlimit="4.00" viewBox="0 0 1920 1080"><desc>SVG generated by Keynote</desc><defs></defs><g transform="matrix(1.00, 0.00, -0.00, -1.00, 0.0, 1080.0)"><path d="M 0.0 1080.0 L 1920.0 1080.0 L 1920.0 0.0 L 0.0 0.0 Z M 0.0 1080.0 " fill="#FEFFFE"></path><g><clipPath id="clip-3599"><path d="M -119.0 -135.0 L 1921.0 -135.0 L 1921.0 1140.0 L -119.0 1140.0 Z M -119.0 -135.0 "></path></clipPath><g clip-path="url(#clip-3599)"><g><g><clipPath id="clip-3600"><path d="M 0.0 0.0 L 1920.0 0.0 L 1920.0 1080.0 L 0.0 1080.0 Z M 0.0 0.0 "></path></clipPath><g clip-path="url(#clip-3600)"><g opacity="0.23"><g><clipPath id="clip-3601"><path d="M -119.0 1141.6 L 1927.4 1141.6 L 1927.4 -136.6 L -119.0 -136.6 L -119.0 1141.6 Z M -119.0 1141.6 "></path></clipPath><g clip-path="url(#clip-3601)"><g><clipPath id="clip-3602"><path d="M 0.0 0.0 L 1920.0 0.0 L 1920.0 1080.0 L 0.0 1080.0 Z M 0.0 0.0 "></path></clipPath><g clip-path="url(#clip-3602)"><g><g><clipPath id="clip-3603"><path d="M 0.0 0.0 L 1920.0 0.0 L 1920.0 1080.0 L 0.0 1080.0 Z M 0.0 0.0 "></path></clipPath><g clip-path="url(#clip-3603)"><path d="M -127.0 1149.6 L 1935.3 1149.6 L 1935.3 -144.6 L -127.0 -144.6 Z M -127.0 1149.6 " fill="#FFFFFF"></path><image xlink:href="../../4CB14B03-340A-4341-8442-49BC340847BB/assets/28784051CBA7DECB8E91030F9AEB8EA9.png" width="1000.00" height="1000.00" transform="matrix(2.05, 0.00, -0.00, -2.05, -119.0, 1857.9)"></image></g></g><g><clipPath id="clip-3604"><path d="M 0.0 0.0 L 1920.0 0.0 L 1920.0 1080.0 L 0.0 1080.0 Z M 0.0 0.0 "></path></clipPath><g clip-path="url(#clip-3604)"><g><g><clipPath id="clip-3605"><path d="M 0.0 0.0 L 1920.0 0.0 L 1920.0 1080.0 L 0.0 1080.0 Z M 0.0 0.0 "></path></clipPath><g clip-path="url(#clip-3605)"><g><g><clipPath id="clip-3606"><path d="M 0.0 0.0 L 1920.0 0.0 L 1920.0 1080.0 L 0.0 1080.0 Z M 0.0 0.0 "></path></clipPath><g clip-path="url(#clip-3606)"><image xlink:href="../../4CB14B03-340A-4341-8442-49BC340847BB/assets/753040F36833B94AB714B826469AE19A.png" width="1938.00" height="1092.00" transform="matrix(1.59, 0.00, -0.00, -1.59, -587.6, 1396.6)"></image></g></g></g></g></g></g></g></g></g></g></g></g></g></g></g></g></g></g></g><image xlink:href="../../4CB14B03-340A-4341-8442-49BC340847BB/assets/EE63A17342FD1620DABD9214C6A603CF.png" width="214.00" height="18.00" transform="matrix(0.00, 1.00, 1.00, -0.00, 952.0, 610.7)" opacity="0.50"></image><path d="M 0.0 0.0 L 203.7 0.0 " fill="none" stroke="#C8C2BA" stroke-width="8.00" transform="matrix(0.00, 1.00, 1.00, 0.00, 961.0, 617.7)"></path><image xlink:href="../../4CB14B03-340A-4341-8442-49BC340847BB/assets/8441AA333ED114A2C1EE3CAA8669164C.png" width="128.00" height="158.00" transform="matrix(1.00, 0.00, -0.00, -1.00, 897.0, 957.0)"></image><g><clipPath id="clip-3607"><path d="M 892.0 780.0 L 1031.0 780.0 L 1031.0 957.0 L 892.0 957.0 Z M 892.0 780.0 "></path></clipPath><g clip-path="url(#clip-3607)"><path d="M 585.0 949.0 C 585.0 952.3 587.7 955.0 591.0 955.0 L 699.0 955.0 C 702.3 955.0 705.0 952.3 705.0 949.0 L 705.0 811.0 C 705.0 807.7 702.3 805.0 699.0 805.0 L 591.0 805.0 C 587.7 805.0 585.0 807.7 585.0 811.0 L 585.0 949.0 Z M 585.0 949.0 " fill="#FFFFFF"></path></g></g><g><clipPath id="clip-3608"><path d="M 901.0 949.0 C 901.0 952.3 903.7 955.0 907.0 955.0 L 1015.0 955.0 C 1018.3 955.0 1021.0 952.3 1021.0 949.0 L 1021.0 811.0 C 1021.0 807.7 1018.3 805.0 1015.0 805.0 L 907.0 805.0 C 903.7 805.0 901.0 807.7 901.0 811.0 L 901.0 949.0 Z M 901.0 949.0 "></path></clipPath><g clip-path="url(#clip-3608)"><g><clipPath id="clip-3609"><path d="M 892.0 775.0 L 1031.0 775.0 L 1031.0 957.0 L 892.0 957.0 Z M 892.0 775.0 "></path></clipPath><g clip-path="url(#clip-3609)"><g><image xlink:href="../../4CB14B03-340A-4341-8442-49BC340847BB/assets/69CB384770721CC2E5FB58DC74BA5A57.png" width="120.00" height="150.00" transform="matrix(1.00, 0.00, -0.00, -1.00, 901.0, 955.0)"></image><g><clipPath id="clip-3610"><path d="M 901.0 805.0 L 1021.0 805.0 L 1021.0 955.0 L 901.0 955.0 Z M 901.0 805.0 "></path></clipPath><g clip-path="url(#clip-3610)"><path d="M 585.0 949.0 C 585.0 952.3 587.7 955.0 591.0 955.0 L 699.0 955.0 C 702.3 955.0 705.0 952.3 705.0 949.0 L 705.0 811.0 C 705.0 807.7 702.3 805.0 699.0 805.0 L 591.0 805.0 C 587.7 805.0 585.0 807.7 585.0 811.0 L 585.0 949.0 Z M 585.0 949.0 " fill="#FFFFFF"></path></g></g><g><clipPath id="clip-3611"><path d="M 901.0 805.0 L 1021.0 805.0 L 1021.0 955.0 L 901.0 955.0 Z M 901.0 805.0 "></path></clipPath><g clip-path="url(#clip-3611)"><path d="M 896.0 960.0 L 1026.0 960.0 L 1026.0 800.0 L 896.0 800.0 Z M 896.0 960.0 " fill="#FFE291"></path><image xlink:href="../../4CB14B03-340A-4341-8442-49BC340847BB/assets/CFAE94D3DE146C967986E2594A2C27D3.png" width="295.00" height="249.00" transform="matrix(0.29, 0.00, -0.00, -0.29, 921.0, 921.0)"></image></g></g><image xlink:href="../../4CB14B03-340A-4341-8442-49BC340847BB/assets/B28F6707EBB20E85E68686A3F4BF1B52.png" width="120.00" height="31.00" transform="matrix(1.00, 0.00, -0.00, -1.00, 901.0, 856.0)"></image><g><clipPath id="clip-3612"><path d="M 901.0 809.0 L 1021.0 809.0 L 1021.0 864.0 L 901.0 864.0 Z M 901.0 809.0 "></path></clipPath><g clip-path="url(#clip-3612)"><path d="M 597.0 851.0 L 717.0 851.0 L 717.0 826.0 L 597.0 826.0 L 597.0 851.0 Z M 597.0 851.0 " fill="#FFFFFF"></path></g></g><g><clipPath id="clip-3613"><path d="M 901.0 851.0 L 1021.0 851.0 L 1021.0 826.0 L 901.0 826.0 L 901.0 851.0 Z M 901.0 851.0 "></path></clipPath><g clip-path="url(#clip-3613)"><g><clipPath id="clip-3614"><path d="M 901.0 805.0 L 1021.0 805.0 L 1021.0 955.0 L 901.0 955.0 Z M 901.0 805.0 "></path></clipPath><g clip-path="url(#clip-3614)"><path d="M 896.0 856.0 L 1026.0 856.0 L 1026.0 821.0 L 896.0 821.0 Z M 896.0 856.0 " fill="#D7BD71"></path></g></g></g></g><image xlink:href="../../4CB14B03-340A-4341-8442-49BC340847BB/assets/5930CBD9E11EDD7FE1FD828CB4131200.png" width="18.00" height="20.00" transform="matrix(1.00, 0.00, -0.00, -1.00, 995.0, 949.0)"></image><g><clipPath id="clip-3615"><path d="M 989.0 921.0 L 1021.0 921.0 L 1021.0 955.0 L 989.0 955.0 Z M 989.0 921.0 "></path></clipPath><g clip-path="url(#clip-3615)"><image xlink:href="../../4CB14B03-340A-4341-8442-49BC340847BB/assets/E62ADDD91978E5B0F6496E51F04F3C9B.png" width="1377.00" height="1453.00" transform="matrix(0.01, 0.00, -0.00, -0.01, 932.0, 948.0)"></image></g></g><g><clipPath id="clip-3616"><path d="M 901.0 805.0 L 1021.0 805.0 L 1021.0 955.0 L 901.0 955.0 Z M 901.0 805.0 "></path></clipPath><g clip-path="url(#clip-3616)"><image xlink:href="../../4CB14B03-340A-4341-8442-49BC340847BB/assets/E62ADDD91978E5B0F6496E51F04F3C9B.png" width="1377.00" height="1453.00" transform="matrix(0.01, 0.00, -0.00, -0.01, 996.0, 948.0)"></image><text xml:space="preserve" font-family="AvenirNextCondensed-Medium" font-size="15.0" fill="#000000" transform="matrix(1.00, 0.00, -0.00, -1.00, 934.5, 833.0)">A</text><text xml:space="preserve" font-family="AvenirNextCondensed-Medium" font-size="15.0" fill="#000000" transform="matrix(1.00, 0.00, -0.00, -1.00, 941.8, 833.0)">t</text><text xml:space="preserve" font-family="AvenirNextCondensed-Medium" font-size="15.0" fill="#000000" transform="matrix(1.00, 0.00, -0.00, -1.00, 945.8, 833.0)">h</text><text xml:space="preserve" font-family="AvenirNextCondensed-Medium" font-size="15.0" fill="#000000" transform="matrix(1.00, 0.00, -0.00, -1.00, 953.0, 833.0)">l</text><text xml:space="preserve" font-family="AvenirNextCondensed-Medium" font-size="15.0" fill="#000000" transform="matrix(1.00, 0.00, -0.00, -1.00, 956.5, 833.0)">o</text><text xml:space="preserve" font-family="AvenirNextCondensed-Medium" font-size="15.0" fill="#000000" transform="matrix(1.00, 0.00, -0.00, -1.00, 963.3, 833.0)">n</text><text xml:space="preserve" font-family="AvenirNextCondensed-Medium" font-size="15.0" fill="#000000" transform="matrix(1.00, 0.00, -0.00, -1.00, 970.6, 833.0)"> </text><text xml:space="preserve" font-family="AvenirNextCondensed-Medium" font-size="15.0" fill="#000000" transform="matrix(1.00, 0.00, -0.00, -1.00, 973.2, 833.0)">X</text><text xml:space="preserve" font-family="AvenirNextCondensed-Medium" font-size="15.0" fill="#000000" transform="matrix(1.00, 0.00, -0.00, -1.00, 980.3, 833.0)">4</text><text xml:space="preserve" font-family="AvenirNextCondensed-Medium" font-size="15.0" fill="#000000" transform="matrix(1.00, 0.00, -0.00, -1.00, 950.2, 810.0)">$</text><text xml:space="preserve" font-family="AvenirNextCondensed-Medium" font-size="15.0" fill="#000000" transform="matrix(1.00, 0.00, -0.00, -1.00, 957.4, 810.0)">8</text><text xml:space="preserve" font-family="AvenirNextCondensed-Medium" font-size="15.0" fill="#000000" transform="matrix(1.00, 0.00, -0.00, -1.00, 964.6, 810.0)">5</text><text xml:space="preserve" font-family="AvenirNextCondensed-Medium" font-size="26.0" fill="#000000" transform="matrix(1.00, 0.00, -0.00, -1.00, 909.0, 929.0)">6</text><text xml:space="preserve" font-family="AvenirNextCondensed-Medium" font-size="26.0" fill="#000000" transform="matrix(1.00, 0.00, -0.00, -1.00, 921.5, 929.0)">8</text></g></g></g></g></g></g></g><g><clipPath id="clip-3617"><path d="M 892.0 775.0 L 1031.0 775.0 L 1031.0 957.0 L 892.0 957.0 Z M 892.0 775.0 "></path></clipPath><g clip-path="url(#clip-3617)"><path d="M 0.0 0.0 " fill="none" stroke="#969696" stroke-width="1.00" stroke-miterlimit="0.00" transform="matrix(1.00, 0.00, 0.00, -1.00, 901.5, 805.9)"></path></g></g><g><clipPath id="clip-3618"><path d="M 961.1 807.1 L 906.5 807.1 L 902.1 832.3 L 892.5 832.3 L 898.5 776.4 L 961.1 776.4 L 1023.8 776.4 L 1029.7 832.3 L 1020.2 832.3 L 1015.8 807.1 L 961.1 807.1 Z M 961.1 807.1 "></path></clipPath><g clip-path="url(#clip-3618)"><g><clipPath id="clip-3619"><path d="M 892.0 775.0 L 1031.0 775.0 L 1031.0 833.5 L 892.0 833.5 Z M 892.0 775.0 "></path></clipPath><g clip-path="url(#clip-3619)"><path d="M 887.5 837.3 L 1034.7 837.3 L 1034.7 771.4 L 887.5 771.4 Z M 887.5 837.3 " fill="#3D3737"></path></g></g></g></g><g><clipPath id="clip-3620"><path d="M 892.0 775.0 L 1031.0 775.0 L 1031.0 833.5 L 892.0 833.5 Z M 892.0 775.0 "></path></clipPath><g clip-path="url(#clip-3620)"><path d="M 68.6 25.2 L 14.0 25.2 L 9.5 0.0 L 0.0 0.0 L 6.0 55.9 L 68.6 55.9 L 131.2 55.9 L 137.2 0.0 L 127.7 0.0 L 123.2 25.2 L 68.6 25.2 Z M 68.6 25.2 " fill="none" stroke="#CACACA" stroke-width="1.00" stroke-miterlimit="0.00" transform="matrix(1.00, 0.00, 0.00, -1.00, 892.5, 832.3)"></path><text xml:space="preserve" font-family="AvenirNextCondensed-Bold" font-weight="bold" font-size="13.0" fill="#ABABAB" transform="matrix(1.00, 0.00, -0.00, -1.00, 951.7, 789.1)">C</text><text xml:space="preserve" font-family="AvenirNextCondensed-Bold" font-weight="bold" font-size="13.0" fill="#ABABAB" transform="matrix(1.00, 0.00, -0.00, -1.00, 958.4, 789.1)">P</text><text xml:space="preserve" font-family="AvenirNextCondensed-Bold" font-weight="bold" font-size="13.0" fill="#ABABAB" transform="matrix(1.00, 0.00, -0.00, -1.00, 965.1, 789.1)">U</text></g></g><image xlink:href="../../4CB14B03-340A-4341-8442-49BC340847BB/assets/F5701000CDC9F447BF51C552447EC8EE.png" width="128.00" height="159.00" transform="matrix(1.00, 0.00, -0.00, -1.00, 897.0, 632.0)"></image><g><clipPath id="clip-3621"><path d="M 891.0 454.0 L 1030.0 454.0 L 1030.0 632.0 L 891.0 632.0 Z M 891.0 454.0 "></path></clipPath><g clip-path="url(#clip-3621)"><path d="M 585.0 624.0 C 585.0 627.3 587.7 630.0 591.0 630.0 L 699.0 630.0 C 702.3 630.0 705.0 627.3 705.0 624.0 L 705.0 485.0 C 705.0 481.7 702.3 479.0 699.0 479.0 L 591.0 479.0 C 587.7 479.0 585.0 481.7 585.0 485.0 L 585.0 624.0 Z M 585.0 624.0 " fill="#FFFFFF"></path></g></g><g><clipPath id="clip-3622"><path d="M 901.0 624.0 C 901.0 627.3 903.7 630.0 907.0 630.0 L 1015.0 630.0 C 1018.3 630.0 1021.0 627.3 1021.0 624.0 L 1021.0 485.0 C 1021.0 481.7 1018.3 479.0 1015.0 479.0 L 907.0 479.0 C 903.7 479.0 901.0 481.7 901.0 485.0 L 901.0 624.0 Z M 901.0 624.0 "></path></clipPath><g clip-path="url(#clip-3622)"><g><clipPath id="clip-3623"><path d="M 891.0 448.0 L 1030.0 448.0 L 1030.0 632.0 L 891.0 632.0 Z M 891.0 448.0 "></path></clipPath><g clip-path="url(#clip-3623)"><path d="M 896.0 635.0 L 1026.0 635.0 L 1026.0 474.0 L 896.0 474.0 Z M 896.0 635.0 " fill="#737373"></path></g></g></g></g><g><clipPath id="clip-3624"><path d="M 967.6 545.2 L 967.6 526.5 L 956.0 526.5 L 956.0 545.2 L 937.0 545.2 L 937.0 556.5 L 955.9 556.5 L 955.9 575.2 L 967.5 575.2 L 967.5 556.5 L 986.5 556.5 L 986.5 545.2 L 967.6 545.2 Z M 967.6 545.2 "></path></clipPath><g clip-path="url(#clip-3624)"><g><clipPath id="clip-3625"><path d="M 891.0 448.0 L 1030.0 448.0 L 1030.0 632.0 L 891.0 632.0 Z M 891.0 448.0 "></path></clipPath><g clip-path="url(#clip-3625)"><path d="M 932.0 580.2 L 991.5 580.2 L 991.5 521.5 L 932.0 521.5 Z M 932.0 580.2 " fill="#50524E"></path></g></g></g></g><image xlink:href="../../4CB14B03-340A-4341-8442-49BC340847BB/assets/2CFAAE57BDDE3CDB62CADDC02D18219D.png" width="51.00" height="50.00" transform="matrix(1.00, 0.00, -0.00, -1.00, 936.0, 576.0)"></image><g><clipPath id="clip-3626"><path d="M 967.6 545.2 L 967.6 526.5 L 956.0 526.5 L 956.0 545.2 L 937.0 545.2 L 937.0 556.5 L 955.9 556.5 L 955.9 575.2 L 967.5 575.2 L 967.5 556.5 L 986.5 556.5 L 986.5 545.2 L 967.6 545.2 Z M 967.6 545.2 "></path></clipPath><g clip-path="url(#clip-3626)"><g><clipPath id="clip-3627"><path d="M 891.0 448.0 L 1030.0 448.0 L 1030.0 632.0 L 891.0 632.0 Z M 891.0 448.0 "></path></clipPath><g clip-path="url(#clip-3627)"><path d="M 765.0 587.2 L 845.0 587.2 L 845.0 507.2 L 765.0 507.2 Z M 807.6 545.2 L 807.6 526.5 L 796.0 526.5 L 796.0 545.2 L 777.0 545.2 L 777.0 556.5 L 795.9 556.5 L 795.9 575.2 L 807.5 575.2 L 807.5 556.5 L 826.5 556.5 L 826.5 545.2 L 807.6 545.2 Z M 807.6 545.2 " fill="#FFFFFF"></path></g></g></g></g><g><clipPath id="clip-3628"><path d="M 960.6 479.6 L 906.0 479.6 L 901.5 504.8 L 892.0 504.8 L 898.0 448.9 L 960.6 448.9 L 1023.2 448.9 L 1029.2 504.8 L 1019.7 504.8 L 1015.2 479.6 L 960.6 479.6 Z M 960.6 479.6 "></path></clipPath><g clip-path="url(#clip-3628)"><g><clipPath id="clip-3629"><path d="M 891.0 448.0 L 1030.0 448.0 L 1030.0 632.0 L 891.0 632.0 Z M 891.0 448.0 "></path></clipPath><g clip-path="url(#clip-3629)"><path d="M 887.0 509.8 L 1034.2 509.8 L 1034.2 443.9 L 887.0 443.9 Z M 887.0 509.8 " fill="#3D3737"></path></g></g></g></g><g><clipPath id="clip-3630"><path d="M 891.0 448.0 L 1030.0 448.0 L 1030.0 632.0 L 891.0 632.0 Z M 891.0 448.0 "></path></clipPath><g clip-path="url(#clip-3630)"><path d="M 68.6 25.2 L 14.0 25.2 L 9.5 0.0 L 0.0 0.0 L 6.0 55.9 L 68.6 55.9 L 131.2 55.9 L 137.2 0.0 L 127.7 0.0 L 123.2 25.2 L 68.6 25.2 Z M 68.6 25.2 " fill="none" stroke="#CACACA" stroke-width="1.00" stroke-miterlimit="0.00" transform="matrix(1.00, 0.00, 0.00, -1.00, 892.0, 504.8)"></path><text xml:space="preserve" font-family="AvenirNextCondensed-Bold" font-weight="bold" font-size="13.0" fill="#ABABAB" transform="matrix(1.00, 0.00, -0.00, -1.00, 921.4, 461.6)">M</text><text xml:space="preserve" font-family="AvenirNextCondensed-Bold" font-weight="bold" font-size="13.0" fill="#ABABAB" transform="matrix(1.00, 0.00, -0.00, -1.00, 931.4, 461.6)">O</text><text xml:space="preserve" font-family="AvenirNextCondensed-Bold" font-weight="bold" font-size="13.0" fill="#ABABAB" transform="matrix(1.00, 0.00, -0.00, -1.00, 939.0, 461.6)">T</text><text xml:space="preserve" font-family="AvenirNextCondensed-Bold" font-weight="bold" font-size="13.0" fill="#ABABAB" transform="matrix(1.00, 0.00, -0.00, -1.00, 944.4, 461.6)">H</text><text xml:space="preserve" font-family="AvenirNextCondensed-Bold" font-weight="bold" font-size="13.0" fill="#ABABAB" transform="matrix(1.00, 0.00, -0.00, -1.00, 952.3, 461.6)">E</text><text xml:space="preserve" font-family="AvenirNextCondensed-Bold" font-weight="bold" font-size="13.0" fill="#ABABAB" transform="matrix(1.00, 0.00, -0.00, -1.00, 958.1, 461.6)">R</text><text xml:space="preserve" font-family="AvenirNextCondensed-Bold" font-weight="bold" font-size="13.0" fill="#ABABAB" transform="matrix(1.00, 0.00, -0.00, -1.00, 965.2, 461.6)">B</text><text xml:space="preserve" font-family="AvenirNextCondensed-Bold" font-weight="bold" font-size="13.0" fill="#ABABAB" transform="matrix(1.00, 0.00, -0.00, -1.00, 972.2, 461.6)">O</text><text xml:space="preserve" font-family="AvenirNextCondensed-Bold" font-weight="bold" font-size="13.0" fill="#ABABAB" transform="matrix(1.00, 0.00, -0.00, -1.00, 980.1, 461.6)">A</text><text xml:space="preserve" font-family="AvenirNextCondensed-Bold" font-weight="bold" font-size="13.0" fill="#ABABAB" transform="matrix(1.00, 0.00, -0.00, -1.00, 987.2, 461.6)">R</text><text xml:space="preserve" font-family="AvenirNextCondensed-Bold" font-weight="bold" font-size="13.0" fill="#ABABAB" transform="matrix(1.00, 0.00, -0.00, -1.00, 994.2, 461.6)">D</text></g></g><image xlink:href="../../4CB14B03-340A-4341-8442-49BC340847BB/assets/ECA0A7238B79C171D6AA29BB54978325.png" width="341.00" height="147.00" transform="matrix(1.00, 0.00, -0.00, -1.00, 1436.0, 939.0)"></image><g><clipPath id="clip-3631"><path d="M 1436.0 792.0 L 1777.0 792.0 L 1777.0 939.0 L 1436.0 939.0 Z M 1436.0 792.0 "></path></clipPath><g clip-path="url(#clip-3631)"><g><g><clipPath id="clip-3632"><path d="M 1441.6 906.7 L 1771.4 906.7 L 1771.4 800.3 L 1441.6 800.3 L 1441.6 906.7 Z M 1441.6 906.7 "></path></clipPath><g clip-path="url(#clip-3632)"><g><clipPath id="clip-3633"><path d="M 1438.8 800.3 L 1771.4 800.3 L 1771.4 940.4 L 1438.8 940.4 Z M 1438.8 800.3 "></path></clipPath><g clip-path="url(#clip-3633)"><path d="M 1434.6 913.6 L 1778.4 913.6 L 1778.4 793.4 L 1434.6 793.4 Z M 1434.6 913.6 " fill="#FFFFFF"></path></g></g></g></g><g><clipPath id="clip-3634"><path d="M 1441.6 936.2 L 1741.9 936.2 L 1771.4 906.7 L 1441.6 906.7 L 1441.6 936.2 Z M 1441.6 936.2 "></path></clipPath><g clip-path="url(#clip-3634)"><g><clipPath id="clip-3635"><path d="M 1438.8 800.3 L 1771.4 800.3 L 1771.4 940.4 L 1438.8 940.4 Z M 1438.8 800.3 "></path></clipPath><g clip-path="url(#clip-3635)"><path d="M 1434.6 943.2 L 1778.4 943.2 L 1778.4 899.7 L 1434.6 899.7 Z M 1434.6 943.2 " fill="#817B83"></path></g></g></g></g><g><clipPath id="clip-3636"><path d="M 1438.8 800.3 L 1771.4 800.3 L 1771.4 940.4 L 1438.8 940.4 Z M 1438.8 800.3 "></path></clipPath><g clip-path="url(#clip-3636)"><text xml:space="preserve" font-family="Avenir-Heavy" font-weight="bold" font-size="16.0" fill="#FEFFFF" transform="matrix(1.39, 0.00, -0.00, -1.39, 1449.5, 914.0)">P</text><text xml:space="preserve" font-family="Avenir-Heavy" font-weight="bold" font-size="16.0" fill="#FEFFFF" transform="matrix(1.39, 0.00, -0.00, -1.39, 1465.5, 914.0)">C</text><text xml:space="preserve" font-family="Avenir-Heavy" font-weight="bold" font-size="16.0" fill="#FEFFFF" transform="matrix(1.39, 0.00, -0.00, -1.39, 1483.1, 914.0)"> </text><text xml:space="preserve" font-family="Avenir-Heavy" font-weight="bold" font-size="16.0" fill="#FEFFFF" transform="matrix(1.39, 0.00, -0.00, -1.39, 1492.1, 914.0)">S</text><text xml:space="preserve" font-family="Avenir-Heavy" font-weight="bold" font-size="16.0" fill="#FEFFFF" transform="matrix(1.39, 0.00, -0.00, -1.39, 1507.3, 914.0)">T</text><text xml:space="preserve" font-family="Avenir-Heavy" font-weight="bold" font-size="16.0" fill="#FEFFFF" transform="matrix(1.39, 0.00, -0.00, -1.39, 1520.4, 914.0)">A</text><text xml:space="preserve" font-family="Avenir-Heavy" font-weight="bold" font-size="16.0" fill="#FEFFFF" transform="matrix(1.39, 0.00, -0.00, -1.39, 1536.9, 914.0)">T</text><text xml:space="preserve" font-family="AvenirNextCondensed-Medium" font-size="16.0" fill="#000000" transform="matrix(1.39, 0.00, -0.00, -1.39, 1449.5, 876.0)">P</text><text xml:space="preserve" font-family="AvenirNextCondensed-Medium" font-size="16.0" fill="#000000" transform="matrix(1.39, 0.00, -0.00, -1.39, 1459.2, 876.0)">e</text><text xml:space="preserve" font-family="AvenirNextCondensed-Medium" font-size="16.0" fill="#000000" transform="matrix(1.39, 0.00, -0.00, -1.39, 1469.0, 876.0)">r</text><text xml:space="preserve" font-family="AvenirNextCondensed-Medium" font-size="16.0" fill="#000000" transform="matrix(1.39, 0.00, -0.00, -1.39, 1475.4, 876.0)">f</text><text xml:space="preserve" font-family="AvenirNextCondensed-Medium" font-size="16.0" fill="#000000" transform="matrix(1.39, 0.00, -0.00, -1.39, 1480.9, 876.0)">o</text><text xml:space="preserve" font-family="AvenirNextCondensed-Medium" font-size="16.0" fill="#000000" transform="matrix(1.39, 0.00, -0.00, -1.39, 1491.1, 876.0)">r</text><text xml:space="preserve" font-family="AvenirNextCondensed-Medium" font-size="16.0" fill="#000000" transform="matrix(1.39, 0.00, -0.00, -1.39, 1497.4, 876.0)">m</text><text xml:space="preserve" font-family="AvenirNextCondensed-Medium" font-size="16.0" fill="#000000" transform="matrix(1.39, 0.00, -0.00, -1.39, 1513.6, 876.0)">a</text><text xml:space="preserve" font-family="AvenirNextCondensed-Medium" font-size="16.0" fill="#000000" transform="matrix(1.39, 0.00, -0.00, -1.39, 1522.9, 876.0)">n</text><text xml:space="preserve" font-family="AvenirNextCondensed-Medium" font-size="16.0" fill="#000000" transform="matrix(1.39, 0.00, -0.00, -1.39, 1533.6, 876.0)">c</text><text xml:space="preserve" font-family="AvenirNextCondensed-Medium" font-size="16.0" fill="#000000" transform="matrix(1.39, 0.00, -0.00, -1.39, 1541.3, 876.0)">e</text><text xml:space="preserve" font-family="AvenirNextCondensed-Medium" font-size="16.0" fill="#000000" transform="matrix(1.39, 0.00, -0.00, -1.39, 1449.5, 822.9)">P</text><text xml:space="preserve" font-family="AvenirNextCondensed-Medium" font-size="16.0" fill="#000000" transform="matrix(1.39, 0.00, -0.00, -1.39, 1459.5, 822.9)">r</text><text xml:space="preserve" font-family="AvenirNextCondensed-Medium" font-size="16.0" fill="#000000" transform="matrix(1.39, 0.00, -0.00, -1.39, 1465.9, 822.9)">i</text><text xml:space="preserve" font-family="AvenirNextCondensed-Medium" font-size="16.0" fill="#000000" transform="matrix(1.39, 0.00, -0.00, -1.39, 1471.0, 822.9)">c</text><text xml:space="preserve" font-family="AvenirNextCondensed-Medium" font-size="16.0" fill="#000000" transform="matrix(1.39, 0.00, -0.00, -1.39, 1478.7, 822.9)">e</text><text xml:space="preserve" font-family="AvenirNextCondensed-Bold" font-weight="bold" font-size="16.0" fill="#DB2022" transform="matrix(1.39, 0.00, -0.00, -1.39, 1607.5, 876.0)">0</text><text xml:space="preserve" font-family="AvenirNextCondensed-Bold" font-weight="bold" font-size="16.0" fill="#508502" transform="matrix(1.39, 0.00, -0.00, -1.39, 1607.5, 822.9)">$</text><text xml:space="preserve" font-family="AvenirNextCondensed-Bold" font-weight="bold" font-size="16.0" fill="#508502" transform="matrix(1.39, 0.00, -0.00, -1.39, 1619.2, 822.9)">0</text></g></g><g><clipPath id="clip-3637"><path d="M 1654.9 890.9 L 1755.6 890.9 L 1755.6 875.2 L 1654.9 875.2 L 1654.9 890.9 Z M 1654.9 890.9 "></path></clipPath><g clip-path="url(#clip-3637)"><g><clipPath id="clip-3638"><path d="M 1438.8 800.3 L 1771.4 800.3 L 1771.4 940.4 L 1438.8 940.4 Z M 1438.8 800.3 "></path></clipPath><g clip-path="url(#clip-3638)"><path d="M 1647.9 897.9 L 1762.6 897.9 L 1762.6 868.2 L 1647.9 868.2 Z M 1647.9 897.9 " fill="#D7D7D7"></path></g></g></g></g><g><clipPath id="clip-3639"><path d="M 1654.9 890.9 L 1658.8 890.9 L 1658.8 875.2 L 1654.9 875.2 L 1654.9 890.9 Z M 1654.9 890.9 "></path></clipPath><g clip-path="url(#clip-3639)"><g><clipPath id="clip-3640"><path d="M 1438.8 800.3 L 1771.4 800.3 L 1771.4 940.4 L 1438.8 940.4 Z M 1438.8 800.3 "></path></clipPath><g clip-path="url(#clip-3640)"><path d="M 1647.9 897.9 L 1665.8 897.9 L 1665.8 868.2 L 1647.9 868.2 Z M 1647.9 897.9 " fill="#FA0000"></path></g></g></g></g></g></g></g><g opacity="0.96"><g><clipPath id="clip-3641"><path d="M 0.0 0.0 L 1920.0 0.0 L 1920.0 1080.0 L 0.0 1080.0 Z M 0.0 0.0 "></path></clipPath><g clip-path="url(#clip-3641)"><path d="M -0.0 1080.0 L 1920.0 1080.0 L 1920.0 -0.0 L -0.0 -0.0 Z M -0.0 1080.0 " fill="#000000"></path></g></g></g><text xml:space="preserve" font-family="Helvetica-Bold" font-weight="bold" font-size="44.0" fill="#FEFFFF" transform="matrix(1.00, 0.00, -0.00, -1.00, 750.0, 981.0)">C</text><text xml:space="preserve" font-family="Helvetica-Bold" font-weight="bold" font-size="44.0" fill="#FEFFFF" transform="matrix(1.00, 0.00, -0.00, -1.00, 781.8, 981.0)">H</text><text xml:space="preserve" font-family="Helvetica-Bold" font-weight="bold" font-size="44.0" fill="#FEFFFF" transform="matrix(1.00, 0.00, -0.00, -1.00, 813.6, 981.0)">O</text><text xml:space="preserve" font-family="Helvetica-Bold" font-weight="bold" font-size="44.0" fill="#FEFFFF" transform="matrix(1.00, 0.00, -0.00, -1.00, 847.8, 981.0)">O</text><text xml:space="preserve" font-family="Helvetica-Bold" font-weight="bold" font-size="44.0" fill="#FEFFFF" transform="matrix(1.00, 0.00, -0.00, -1.00, 882.0, 981.0)">S</text><text xml:space="preserve" font-family="Helvetica-Bold" font-weight="bold" font-size="44.0" fill="#FEFFFF" transform="matrix(1.00, 0.00, -0.00, -1.00, 911.3, 981.0)">E</text><text xml:space="preserve" font-family="Helvetica-Bold" font-weight="bold" font-size="44.0" fill="#FEFFFF" transform="matrix(1.00, 0.00, -0.00, -1.00, 940.7, 981.0)"> </text><text xml:space="preserve" font-family="Helvetica-Bold" font-weight="bold" font-size="44.0" fill="#FEFFFF" transform="matrix(1.00, 0.00, -0.00, -1.00, 952.9, 981.0)">S</text><text xml:space="preserve" font-family="Helvetica-Bold" font-weight="bold" font-size="44.0" fill="#FEFFFF" transform="matrix(1.00, 0.00, -0.00, -1.00, 982.3, 981.0)">T</text><text xml:space="preserve" font-family="Helvetica-Bold" font-weight="bold" font-size="44.0" fill="#FEFFFF" transform="matrix(1.00, 0.00, -0.00, -1.00, 1008.4, 981.0)">O</text><text xml:space="preserve" font-family="Helvetica-Bold" font-weight="bold" font-size="44.0" fill="#FEFFFF" transform="matrix(1.00, 0.00, -0.00, -1.00, 1042.6, 981.0)">R</text><text xml:space="preserve" font-family="Helvetica-Bold" font-weight="bold" font-size="44.0" fill="#FEFFFF" transform="matrix(1.00, 0.00, -0.00, -1.00, 1074.4, 981.0)">A</text><text xml:space="preserve" font-family="Helvetica-Bold" font-weight="bold" font-size="44.0" fill="#FEFFFF" transform="matrix(1.00, 0.00, -0.00, -1.00, 1106.1, 981.0)">G</text><text xml:space="preserve" font-family="Helvetica-Bold" font-weight="bold" font-size="44.0" fill="#FEFFFF" transform="matrix(1.00, 0.00, -0.00, -1.00, 1140.4, 981.0)">E</text><image xlink:href="../../4CB14B03-340A-4341-8442-49BC340847BB/assets/8441AA333ED114A2C1EE3CAA8669164C.png" width="128.00" height="158.00" transform="matrix(1.00, 0.00, -0.00, -1.00, 896.0, 878.0)"></image><g><clipPath id="clip-3642"><path d="M 896.0 720.0 L 1024.0 720.0 L 1024.0 878.0 L 896.0 878.0 Z M 896.0 720.0 "></path></clipPath><g clip-path="url(#clip-3642)"><path d="M 584.0 870.0 C 584.0 873.3 586.7 876.0 590.0 876.0 L 698.0 876.0 C 701.3 876.0 704.0 873.3 704.0 870.0 L 704.0 732.0 C 704.0 728.7 701.3 726.0 698.0 726.0 L 590.0 726.0 C 586.7 726.0 584.0 728.7 584.0 732.0 L 584.0 870.0 Z M 584.0 870.0 " fill="#FFFFFF"></path></g></g><g><clipPath id="clip-3643"><path d="M 900.0 870.0 C 900.0 873.3 902.7 876.0 906.0 876.0 L 1014.0 876.0 C 1017.3 876.0 1020.0 873.3 1020.0 870.0 L 1020.0 732.0 C 1020.0 728.7 1017.3 726.0 1014.0 726.0 L 906.0 726.0 C 902.7 726.0 900.0 728.7 900.0 732.0 L 900.0 870.0 Z M 900.0 870.0 "></path></clipPath><g clip-path="url(#clip-3643)"><g><clipPath id="clip-3644"><path d="M 896.0 720.0 L 1024.0 720.0 L 1024.0 878.0 L 896.0 878.0 Z M 896.0 720.0 "></path></clipPath><g clip-path="url(#clip-3644)"><g><image xlink:href="../../4CB14B03-340A-4341-8442-49BC340847BB/assets/69CB384770721CC2E5FB58DC74BA5A57.png" width="120.00" height="150.00" transform="matrix(1.00, 0.00, -0.00, -1.00, 900.0, 876.0)"></image><g><clipPath id="clip-3645"><path d="M 900.0 726.0 L 1020.0 726.0 L 1020.0 876.0 L 900.0 876.0 Z M 900.0 726.0 "></path></clipPath><g clip-path="url(#clip-3645)"><path d="M 584.0 870.0 C 584.0 873.3 586.7 876.0 590.0 876.0 L 698.0 876.0 C 701.3 876.0 704.0 873.3 704.0 870.0 L 704.0 732.0 C 704.0 728.7 701.3 726.0 698.0 726.0 L 590.0 726.0 C 586.7 726.0 584.0 728.7 584.0 732.0 L 584.0 870.0 Z M 584.0 870.0 " fill="#FFFFFF"></path></g></g><g><clipPath id="clip-3646"><path d="M 900.0 726.0 L 1020.0 726.0 L 1020.0 876.0 L 900.0 876.0 Z M 900.0 726.0 "></path></clipPath><g clip-path="url(#clip-3646)"><path d="M 895.0 881.0 L 1025.0 881.0 L 1025.0 721.0 L 895.0 721.0 Z M 895.0 881.0 " fill="#FFE291"></path><image xlink:href="../../75AB2561-71A1-46F8-B434-07632EF7006C/assets/2A66DB466BAD9A4F536F3F22151ED8F1.png" width="800.00" height="701.00" transform="matrix(0.12, 0.00, -0.00, -0.12, 912.0, 849.0)"></image></g></g><image xlink:href="../../4CB14B03-340A-4341-8442-49BC340847BB/assets/B28F6707EBB20E85E68686A3F4BF1B52.png" width="120.00" height="31.00" transform="matrix(1.00, 0.00, -0.00, -1.00, 900.0, 777.0)"></image><g><clipPath id="clip-3647"><path d="M 900.0 730.0 L 1020.0 730.0 L 1020.0 785.0 L 900.0 785.0 Z M 900.0 730.0 "></path></clipPath><g clip-path="url(#clip-3647)"><path d="M 596.0 772.0 L 716.0 772.0 L 716.0 747.0 L 596.0 747.0 L 596.0 772.0 Z M 596.0 772.0 " fill="#FFFFFF"></path></g></g><g><clipPath id="clip-3648"><path d="M 900.0 772.0 L 1020.0 772.0 L 1020.0 747.0 L 900.0 747.0 L 900.0 772.0 Z M 900.0 772.0 "></path></clipPath><g clip-path="url(#clip-3648)"><g><clipPath id="clip-3649"><path d="M 900.0 726.0 L 1020.0 726.0 L 1020.0 876.0 L 900.0 876.0 Z M 900.0 726.0 "></path></clipPath><g clip-path="url(#clip-3649)"><path d="M 895.0 777.0 L 1025.0 777.0 L 1025.0 742.0 L 895.0 742.0 Z M 895.0 777.0 " fill="#D7BD71"></path></g></g></g></g><image xlink:href="../../CDFF3822-1C65-4E12-8D71-C5207BD9EB3A/assets/87FA84CBE3A59BB9BBFDE11604C6E201.png" width="27.00" height="20.00" transform="matrix(1.00, 0.00, -0.00, -1.00, 990.0, 870.0)"></image><g><clipPath id="clip-3650"><path d="M 984.0 842.0 L 1020.0 842.0 L 1020.0 876.0 L 984.0 876.0 Z M 984.0 842.0 "></path></clipPath><g clip-path="url(#clip-3650)"><image xlink:href="../../CDFF3822-1C65-4E12-8D71-C5207BD9EB3A/assets/E4AE272883F2879D7D4BBA961C568CB6.png" width="800.00" height="588.00" transform="matrix(0.03, 0.00, -0.00, -0.03, 909.0, 869.0)"></image></g></g><g><clipPath id="clip-3651"><path d="M 900.0 726.0 L 1020.0 726.0 L 1020.0 876.0 L 900.0 876.0 Z M 900.0 726.0 "></path></clipPath><g clip-path="url(#clip-3651)"><image xlink:href="../../CDFF3822-1C65-4E12-8D71-C5207BD9EB3A/assets/E4AE272883F2879D7D4BBA961C568CB6.png" width="800.00" height="588.00" transform="matrix(0.03, 0.00, -0.00, -0.03, 991.0, 869.0)"></image><text xml:space="preserve" font-family="AvenirNextCondensed-Medium" font-size="15.0" fill="#000000" transform="matrix(1.00, 0.00, -0.00, -1.00, 916.7, 754.0)">F</text><text xml:space="preserve" font-family="AvenirNextCondensed-Medium" font-size="15.0" fill="#000000" transform="matrix(1.00, 0.00, -0.00, -1.00, 922.5, 754.0)">o</text><text xml:space="preserve" font-family="AvenirNextCondensed-Medium" font-size="15.0" fill="#000000" transform="matrix(1.00, 0.00, -0.00, -1.00, 929.3, 754.0)">r</text><text xml:space="preserve" font-family="AvenirNextCondensed-Medium" font-size="15.0" fill="#000000" transform="matrix(1.00, 0.00, -0.00, -1.00, 933.5, 754.0)">c</text><text xml:space="preserve" font-family="AvenirNextCondensed-Medium" font-size="15.0" fill="#000000" transform="matrix(1.00, 0.00, -0.00, -1.00, 938.6, 754.0)">e</text><text xml:space="preserve" font-family="AvenirNextCondensed-Medium" font-size="15.0" fill="#000000" transform="matrix(1.00, 0.00, -0.00, -1.00, 945.2, 754.0)"> </text><text xml:space="preserve" font-family="AvenirNextCondensed-Medium" font-size="15.0" fill="#000000" transform="matrix(1.00, 0.00, -0.00, -1.00, 948.1, 754.0)"> </text><text xml:space="preserve" font-family="AvenirNextCondensed-Medium" font-size="15.0" fill="#000000" transform="matrix(1.00, 0.00, -0.00, -1.00, 950.9, 754.0)">L</text><text xml:space="preserve" font-family="AvenirNextCondensed-Medium" font-size="15.0" fill="#000000" transform="matrix(1.00, 0.00, -0.00, -1.00, 956.5, 754.0)">S</text><text xml:space="preserve" font-family="AvenirNextCondensed-Medium" font-size="15.0" fill="#000000" transform="matrix(1.00, 0.00, -0.00, -1.00, 963.1, 754.0)"> </text><text xml:space="preserve" font-family="AvenirNextCondensed-Medium" font-size="15.0" fill="#000000" transform="matrix(1.00, 0.00, -0.00, -1.00, 966.0, 754.0)">9</text><text xml:space="preserve" font-family="AvenirNextCondensed-Medium" font-size="15.0" fill="#000000" transform="matrix(1.00, 0.00, -0.00, -1.00, 973.2, 754.0)">6</text><text xml:space="preserve" font-family="AvenirNextCondensed-Medium" font-size="15.0" fill="#000000" transform="matrix(1.00, 0.00, -0.00, -1.00, 980.4, 754.0)">0</text><text xml:space="preserve" font-family="AvenirNextCondensed-Medium" font-size="15.0" fill="#000000" transform="matrix(1.00, 0.00, -0.00, -1.00, 987.6, 754.0)">G</text><text xml:space="preserve" font-family="AvenirNextCondensed-Medium" font-size="15.0" fill="#000000" transform="matrix(1.00, 0.00, -0.00, -1.00, 995.8, 754.0)">B</text><text xml:space="preserve" font-family="AvenirNextCondensed-Medium" font-size="15.0" fill="#000000" transform="matrix(1.00, 0.00, -0.00, -1.00, 945.5, 731.0)">$</text><text xml:space="preserve" font-family="AvenirNextCondensed-Medium" font-size="15.0" fill="#000000" transform="matrix(1.00, 0.00, -0.00, -1.00, 952.8, 731.0)">4</text><text xml:space="preserve" font-family="AvenirNextCondensed-Medium" font-size="15.0" fill="#000000" transform="matrix(1.00, 0.00, -0.00, -1.00, 960.0, 731.0)">0</text><text xml:space="preserve" font-family="AvenirNextCondensed-Medium" font-size="15.0" fill="#000000" transform="matrix(1.00, 0.00, -0.00, -1.00, 967.2, 731.0)">0</text><text xml:space="preserve" font-family="AvenirNextCondensed-Medium" font-size="26.0" fill="#000000" transform="matrix(1.00, 0.00, -0.00, -1.00, 908.0, 850.0)">8</text><text xml:space="preserve" font-family="AvenirNextCondensed-Medium" font-size="26.0" fill="#000000" transform="matrix(1.00, 0.00, -0.00, -1.00, 920.5, 850.0)">0</text></g></g></g></g></g></g></g><g><clipPath id="clip-3652"><path d="M 896.0 720.0 L 1024.0 720.0 L 1024.0 878.0 L 896.0 878.0 Z M 896.0 720.0 "></path></clipPath><g clip-path="url(#clip-3652)"><path d="M 0.0 0.0 " fill="none" stroke="#969696" stroke-width="1.00" stroke-miterlimit="0.00" transform="matrix(1.00, 0.00, 0.00, -1.00, 900.5, 726.9)"></path></g></g></g></svg>