<?xml version="1.0" encoding="UTF-8"?>
<!DOCTYPE svg PUBLIC "-//W3C//DTD SVG 1.1//EN" "http://www.w3.org/Graphics/SVG/1.1/DTD/svg11.dtd">
<!-- Creator: CorelDRAW X6 -->
<svg xmlns="http://www.w3.org/2000/svg" xml:space="preserve" width="8.26772in" height="11.6929in" version="1.1" style="shape-rendering:geometricPrecision; text-rendering:geometricPrecision; image-rendering:optimizeQuality; fill-rule:evenodd; clip-rule:evenodd"
viewBox="0 0 8268 11693"
 xmlns:xlink="http://www.w3.org/1999/xlink">
 <defs>
  <style type="text/css">
   <![CDATA[
    .str0 {stroke:#0101FF;stroke-width:3}
    .fil0 {fill:#0101FF}
   ]]>
  </style>
 </defs>
 <g id="Layer_x0020_1">
  <metadata id="CorelCorpID_0Corel-Layer"/>
  <path class="fil0 str0" d="M2889 4510l-892 -519c29,-17 87,-60 115,-80l-10 -6 670 -571c35,-30 39,-82 9,-117l-137 -161c-30,-35 -82,-39 -117,-9l-520 444 -429 -556 192 0 0 -103 -271 0 -4 -5c-28,-36 -80,-43 -116,-15l-25 20 -128 0 0 -246 147 -67 570 -258 0 -286 -570 -258 -870 -394 0 -7 1456 660 20 0 0 286 127 0 0 -286 16 0 837 475c38,275 274,487 560,487 312,0 565,-253 565,-566 0,-203 -107,-381 -268,-481l4148 2287c41,724 -297,3311 -3099,4319l-1820 -1119c2,0 5,0 7,0l224 0c48,0 88,-39 88,-88l0 -1644c0,-48 -39,-88 -88,-88l-95 0c-58,-35 -126,-59 -183,-105 21,9 44,14 69,14l884 0c97,0 177,-80 177,-177l0 -1983c0,-97 -80,-177 -177,-177l-884 0c-97,0 -177,80 -177,177l0 1203zm1463 -1330l224 0c48,0 88,39 88,88l0 1641c0,48 -39,88 -88,88l-224 0c-48,0 -88,-39 -88,-88l0 -1641c0,-48 39,-88 88,-88zm-575 2377l224 0c48,0 88,39 88,88l0 1644c0,48 -39,88 -88,88l-224 0c-48,0 -88,-39 -88,-88l0 -1644c0,-48 39,-88 88,-88zm-2557 -2623l-8 7c-36,28 -43,80 -15,116l427 553 -1120 -690 0 -7 605 -274 0 296 112 0zm2411 -1118c29,4 58,11 87,19l48 27c-42,-21 -88,-36 -135,-46z"/>
 </g>
</svg>
