<?xml version="1.0" encoding="UTF-8"?>
<!DOCTYPE svg PUBLIC "-//W3C//DTD SVG 1.1//EN" "http://www.w3.org/Graphics/SVG/1.1/DTD/svg11.dtd">
<!-- Creator: CorelDRAW X6 -->
<svg xmlns="http://www.w3.org/2000/svg" xml:space="preserve" width="8.26772in" height="11.6929in" version="1.1" style="shape-rendering:geometricPrecision; text-rendering:geometricPrecision; image-rendering:optimizeQuality; fill-rule:evenodd; clip-rule:evenodd"
viewBox="0 0 8268 11693"
 xmlns:xlink="http://www.w3.org/1999/xlink">
 <defs>
  <style type="text/css">
   <![CDATA[
    .str0 {stroke:#010080;stroke-width:3}
    .str1 {stroke:#010080;stroke-width:27.7795}
    .fil0 {fill:#FEFEFE}
    .fil1 {fill:#010080}
   ]]>
  </style>
 </defs>
 <g id="Layer_x0020_1">
  <metadata id="CorelCorpID_0Corel-Layer"/>
  <g id="_237468584">
   <path class="fil0 str0" d="M3067 2066c1397,0 2530,1133 2530,2530 0,441 -113,855 -311,1216l-2507 -2064 25 -31c78,-95 66,-235 -25,-316l63 -76c109,74 191,114 207,94 16,-19 -38,-93 -132,-185l72 -87 102 84c42,34 104,28 138,-13l103 -125c34,-42 28,-104 -13,-138l-538 -443c-42,-34 -104,-28 -138,13l-103 125c-34,42 -28,104 13,138l102 84 -70 86c-118,-82 -208,-126 -224,-106 -17,20 44,100 147,200l-62 75 -10 -8c-97,-80 -241,-66 -321,31l-239 290c-80,97 -66,241 31,321l10 8 -65 79c-118,-82 -208,-126 -224,-106 -17,20 44,100 147,200l-63 76 -102 -84c-42,-34 -104,-28 -138,13l-103 125c-34,42 -28,104 13,138l538 443c42,34 104,28 138,-13l103 -125c34,-42 28,-104 -13,-138l-102 -84 64 -78c109,74 191,114 207,94 16,-19 -38,-93 -132,-185l66 -80c97,74 237,59 315,-36l19 -23 2537 2089c-459,637 -1208,1053 -2054,1053 -1397,0 -2530,-1133 -2530,-2530 0,-1397 1133,-2530 2530,-2530zm-1447 3120l0 0 0 0 0 0 0 0m-2 -4l0 0 0 0 0 0 0 0 0 0 0 0 0 0 0 0 0 0 0 0 0 0 0 0 0 0 0 0 0 0 0 0 0 0 0 0 0 0 0 0m0 0l0 0m0 0l0 0 0 0m-4 -10l0 0 0 0 0 0 0 0 0 0 0 0 0 0 0 0 0 0 0 0 0 0 0 0 0 0 0 0 0 0 0 0 0 0 0 0 0 0 0 0 0 0 0 0 0 0 0 0 0 0 0 0 0 0m0 0l0 0 0 0 0 0 0 0 0 0 0 0 0 0 0 0 0 0m1274 26l0 0 0 0 0 0 0 0 0 0 0 0 0 0 0 0 0 0m0 0l0 0 0 0 0 0 0 0m0 0l0 0m5 -7l0 0 0 0 0 0zm0 0l0 0 0 0 0 0 0 0zm0 0l0 0 0 0 0 0 0 0 0 0 0 0 0 0zm0 0l0 0 0 0 0 0 0 0 0 0 0 0 0 0 0 0 0 0 0 0 0 0 0 0 0 0 0 0 0 0zm0 0l0 0 0 0 0 0 0 0 0 0 0 0 0 0 0 0 0 0 0 0 0 0 0 0 0 0zm0 0l0 0 0 0 0 0 0 0 0 0 0 0 0 0 0 0 0 0zm-1 1l0 0 0 0 0 0zm0 0l0 0 0 0 0 0 0 0 0 0 0 0 0 0 0 0 0 0zm-1 2l0 0 0 0 0 0 0 0 0 0 0 0 0 0 0 0 0 0zm0 0l0 0 0 0 0 0 0 0 0 0 0 0 0 0 0 0 0 0 0 0 0 0 0 0 0 0zm0 0l0 0 0 0 0 0 0 0 0 0zm0 0l0 0 0 0 0 0 0 0 0 0 0 0 0 0 0 0 0 0zm0 0l0 0 0 0 0 0 0 0 0 0 0 0zm0 0l0 0 0 0 0 0 0 0 0 0 0 0 0 0 0 0 0 0 0 0 0 0 0 0 0 0zm0 0l0 0 0 0 0 0 0 0 0 0 0 0 0 0zm0 0l0 0 0 0 0 0 0 0 0 0 0 0 0 0 0 0 0 0 0 0 0 0zm0 0l0 0 0 0 0 0 0 0 0 0zm0 0l0 0 0 0 0 0 0 0 0 0zm0 0l0 0 0 0 0 0 0 0 0 0 0 0 0 0zm0 0l0 0 0 0 0 0 0 0 0 0zm0 0l0 0 0 0 0 0 0 0 0 0zm0 0l0 0 0 0 0 0 0 0 0 0zm0 0l0 0 0 0 0 0 0 0 0 0 0 0 0 0zm0 0l0 0 0 0 0 0 0 0 0 0 0 0 0 0zm0 0l0 0 0 0 0 0 0 0 0 0zm0 0l0 0 0 0 0 0 0 0 0 0zm0 0l0 0 0 0 0 0 0 0 0 0zm0 0l0 0 0 0 0 0 0 0 0 0 0 0 0 0 0 0 0 0zm0 0l0 0 0 0 0 0 0 0 0 0 0 0 0 0 0 0 0 0zm0 0l0 0 0 0 0 0 0 0 0 0zm-1 1l0 0 0 0 0 0zm0 0l0 0 0 0 0 0 0 0 0 0zm-1 1l0 0 0 0 0 0zm0 0l0 0 0 0 0 0 0 0 0 0 0 0 0 0 0 0 0 0 0 0 0 0zm0 1l0 0 0 0 0 0zm0 0l0 0 0 0 0 0zm0 0l0 0 0 0 0 0zm0 0l0 0 0 0 0 0zm0 0l0 0 0 0 0 0zm0 0l0 0 0 0 0 0zm0 0l0 0 0 0 0 0zm0 0l0 0 0 0 0 0zm0 0l0 0 0 0 0 0 0 0zm0 0l0 0 0 0 0 0zm0 0l0 0 0 0 0 0zm0 0l0 0 0 0 0 0zm0 0l0 0 0 0 0 0zm0 0l0 0 0 0 0 0zm0 0l0 0 0 0 0 0zm0 0l0 0 0 0 0 0zm0 0l0 0 0 0 0 0zm0 0l0 0 0 0 0 0zm0 0l0 0 0 0 0 0zm0 0l0 0 0 0 0 0zm0 0l0 0 0 0 0 0zm0 0l0 0 0 0 0 0zm0 0l0 0 0 0 0 0zm0 0l0 0 0 0 0 0zm0 0l0 0 0 0 0 0zm-1258 18l0 0 0 0 0 0zm0 0l0 0 0 0 0 0 0 0 0 0 0 0 0 0 0 0 0 0zm0 0l0 0 0 0 0 0 0 0 0 0 0 0 0 0 0 0 0 0 0 0 0 0 0 0 0 0 0 0 0 0 0 0 0 0 0 0 0 0zm0 0l0 0 0 0 0 0 0 0 0 0 0 0 0 0 0 0 0 0 0 0 0 0zm0 0l0 0 0 0 0 0 0 0 0 0 0 0 0 0 0 0 0 0 0 0 0 0 0 0 0 0 0 0 0 0 0 0 0 0 0 0 0 0 0 0 0 0 0 0 0 0 0 0 0 0 0 0 0 0 0 0 0 0zm0 0l0 0 0 0 0 0 0 0 0 0 0 0 0 0 0 0 0 0 0 0 0 0 0 0 0 0 0 0 0 0 0 0 0 0 0 0 0 0 0 0 0 0 0 0 0 0 0 0 0 0 0 0 0 0zm-2 -3l0 0 0 0 0 0 0 0 0 0 0 0 0 0 0 0 0 0 0 0 0 0 0 0 0 0 0 0 0 0 0 0 0 0zm0 1l0 0 0 0 0 0 0 0 0 0 0 0 0 0 0 0 0 0 0 0 0 0 0 0 0 0 0 0 0 0 0 0 0 0 0 0 0 0 0 0 0 0 0 0 0 0 0 0 0 0 0 0 0 0 0 0 0 0 0 0 0 0 0 0 0 0zm0 0l0 0 0 0 0 0 0 0zm0 0l0 0 0 0 0 0zm0 0l0 0 0 0 0 0 0 0 0 0 0 0 0 0 0 0 0 0 0 0 0 0zm0 0l0 0 0 0 0 0 0 0 0 0zm0 0l0 0 0 0 0 0 0 0 0 0 0 0 0 0 0 0 0 0 0 0 0 0 0 0 0 0 0 0 0 0 0 0 0 0 0 0 0 0 0 0 0 0 0 0 0 0 0 0 0 0zm0 0l0 0 0 0 0 0 0 0 0 0 0 0 0 0 0 0 0 0 0 0 0 0 0 0 0 0zm-1 -1l0 0 0 0 0 0zm0 0l0 0 0 0 0 0 0 0 0 0zm-1 -1l0 0 0 0 0 0zm0 0l0 0 0 0 0 0 0 0 0 0 0 0 0 0 0 0 0 0 0 0 0 0 0 0zm0 0l0 0 0 0 0 0zm1 1l0 0 0 0 0 0zm0 0l0 0 0 0 0 0zm0 0l0 0 0 0 0 0zm0 0l0 0 0 0 0 0zm0 0l0 0 0 0 0 0zm0 0l0 0 0 0 0 0zm0 0l0 0 0 0 0 0zm0 0l0 0 0 0 0 0 0 0 0 0 0 0zm0 0l0 0 0 0 0 0zm0 0l0 0 0 0 0 0zm-28 -71c0,-2 0,-4 0,-6 0,2 0,4 0,6zm0 -7c0,-2 0,-4 1,-5 0,2 0,4 -1,5zm1 -6c0,-2 1,-4 1,-5 0,2 -1,4 -1,5zm1 -6c0,-2 1,-4 1,-5 0,2 -1,4 -1,5zm1 -6c0,-2 1,-4 2,-5m0 -1c1,-2 1,-3 2,-5 -1,2 -1,3 -2,5zm2 -6c1,-2 1,-3 2,-5 -1,2 -2,3 -2,5zm3 -6c1,-2 2,-3 3,-5 -1,2 -2,3 -3,5zm3 -6c1,-2 2,-3 3,-5 -1,2 -2,3 -3,5zm4 -6c1,-2 2,-3 3,-5 -1,2 -2,3 -3,5zm4 -6c1,-2 2,-3 4,-5 -1,2 -2,3 -4,5zm4 -6c1,-1 2,-3 3,-4 -1,1 -2,3 -3,4zm4 -6c1,-1 2,-3 4,-4 -1,1 -2,3 -4,4zm5 -6c1,-1 3,-3 4,-4 -1,1 -3,3 -4,4zm6 -6c1,-1 3,-3 4,-4 -1,1 -3,3 -4,4zm6 -6c1,-1 3,-2 4,-4 -1,1 -3,2 -4,4zm6 -5l4 -3c-1,1 -3,2 -4,3zm6 -5c2,-1 3,-3 5,-4 -2,1 -3,3 -5,4zm7 -6c2,-1 3,-3 5,-4 -2,1 -3,3 -5,4zm34 -23l6 -3c-2,1 -4,2 -6,3zm261 -88c86,-16 182,-25 284,-26l0 0c2,0 3,0 5,0 2,0 3,0 5,0l0 0c72,0 142,5 207,14l0 0c452,34 792,182 792,358 2,34 -3,101 -1,135 -49,220 -508,337 -973,338l0 0 -7 0 -7 0 0 0c-465,-1 -923,-118 -973,-338 2,-34 -3,-101 -1,-135 0,-160 280,-297 670,-346zm638 13l0 0 0 0zm654 337c0,3 0,6 0,9 0,-3 0,-6 0,-9zm0 9c0,3 -1,6 -1,9 0,-3 1,-6 1,-9zm-1 9c0,3 -1,6 -1,8 1,-3 1,-6 1,-8zm-2 9c-1,3 -1,6 -2,8 1,-3 1,-5 2,-8zm-2 9c-1,3 -2,5 -2,8 1,-3 2,-5 2,-8zm-3 9c-1,3 -2,5 -3,8 1,-3 2,-5 3,-8zm-3 9c-1,3 -2,5 -4,8 1,-3 2,-5 4,-8zm-4 9c-1,3 -3,5 -4,8 1,-3 3,-5 4,-8zm-5 9c-1,2 -3,5 -4,7 2,-2 3,-5 4,-7zm-5 9c-1,2 -3,4 -4,7 2,-2 3,-4 4,-7zm-6 9c-2,2 -3,4 -5,6 2,-2 3,-4 5,-6zm-7 9c-2,2 -3,4 -5,6 2,-2 3,-4 5,-6zm-7 9c-1,2 -3,3 -4,5 2,-2 3,-3 4,-5zm-8 8c-2,2 -3,3 -5,5 2,-2 3,-3 5,-5zm-8 8c-1,1 -3,3 -4,4 1,-1 3,-3 4,-4zm-9 8c-2,1 -3,3 -5,4 2,-1 3,-3 5,-4zm-9 8c-2,1 -3,3 -5,4 2,-1 3,-3 5,-4zm-42 32l-4 3c-4,3 -8,5 -12,8 -54,34 -122,64 -201,89 -132,41 -291,67 -458,79l0 0 -8 1 0 0c278,-18 536,-77 682,-179l0 0zm-689 179c-6,0 -11,1 -17,1 6,0 11,-1 17,-1zm-24 1c-6,0 -13,1 -19,1 6,0 13,-1 19,-1zm-129 4c-6,0 -11,0 -17,0l6 0 11 0zm-24 0l-1 0 0 0 1 0zm-849 -182l-4 -3c146,102 405,161 685,179l1 0m-742 -223l-4 -4c1,1 3,3 4,4zm-8 -8c-2,-2 -3,-3 -4,-5 1,2 3,3 4,5zm-8 -8c-2,-2 -3,-3 -4,-5 1,2 3,3 4,5zm-7 -8c-2,-2 -3,-4 -5,-6 1,2 3,4 5,6zm-7 -8c-2,-2 -3,-4 -5,-6 2,2 3,4 5,6zm-6 -8c-2,-2 -3,-4 -4,-7 1,2 3,4 4,7zm-6 -8c-1,-2 -3,-5 -4,-7 1,2 3,5 4,7zm-5 -8c-1,-2 -3,-5 -4,-7 1,3 3,5 4,7zm-5 -9c-1,-3 -2,-5 -4,-8 1,3 2,5 4,8zm-4 -9c-1,-3 -2,-5 -3,-8 1,3 2,5 3,8zm-3 -9c-1,-3 -2,-5 -3,-8 1,3 2,5 3,8zm-3 -9c-1,-3 -1,-5 -2,-8 1,3 1,6 2,8zm-2 -9c-1,-3 -1,-6 -1,-8 0,3 1,6 1,8zm-2 -9c0,-3 -1,-6 -1,-9 0,3 1,6 1,9zm-1 -9c0,-3 0,-6 0,-9 0,3 0,6 0,9zm1500 -276c2,1 4,2 6,3 -2,-1 -4,-2 -6,-3zm16 9c2,1 4,3 6,4 -2,-1 -4,-3 -6,-4zm16 10c2,1 3,2 5,4 -2,-1 -3,-2 -5,-4zm8 5c2,1 4,3 5,4 -2,-1 -4,-3 -5,-4zm6 5c2,1 3,3 5,4 -2,-1 -3,-3 -5,-4zm6 5c2,1 4,3 5,5 -2,-2 -3,-3 -5,-5zm7 6c1,1 3,3 4,4 -1,-1 -3,-3 -4,-4zm5 5c2,2 3,3 5,5 -2,-2 -3,-3 -5,-5zm6 6c1,1 2,3 4,4 -1,-1 -2,-3 -4,-4zm5 5c1,2 3,3 4,5 -1,-2 -3,-3 -4,-5zm5 6c1,2 2,3 4,5 -1,-2 -2,-3 -4,-5zm4 5c1,2 2,3 4,5m1 1c1,2 2,3 3,5 -1,-2 -2,-3 -3,-5zm4 6c1,2 2,3 3,5 -1,-2 -2,-3 -3,-5zm3 6c1,2 2,3 3,5 -1,-2 -2,-3 -3,-5zm3 6c1,2 1,3 2,5 -1,-2 -1,-3 -2,-5zm3 6c1,2 1,3 2,5 -1,-2 -1,-4 -2,-5zm2 6c1,2 1,3 1,5 0,-2 -1,-3 -1,-5zm2 6c0,2 1,4 1,5 0,-2 -1,-4 -1,-5zm1 6c0,2 1,3 1,5 0,-2 -1,-3 -1,-5zm1 6c0,2 0,4 1,5 0,-2 0,-4 -1,-5zm1 7c0,2 0,4 0,5 0,-2 0,-4 0,-5zm0 14l0 0 0 0 0 0zm0 0l0 0 0 0 0 0zm0 0l0 0 0 0 0 0 0 0 0 0 0 0 0 0 0 0 0 0 0 0 0 0 0 0 0 0zm0 0l0 0 0 0 0 0 0 0 0 0zm0 0l0 0 0 0 0 0zm0 0l0 0 0 0 0 0 0 0 0 0 0 0 0 0zm0 0l0 0 0 0 0 0zm0 0l0 0 0 0 0 0 0 0 0 0 0 0 0 0zm0 0l0 0 0 0 0 0zm0 0l0 0 0 0 0 0 0 0 0 0 0 0 0 0zm0 3l0 0 0 0 0 0 0 0 0 0 0 0 0 0 0 0 0 0 0 0 0 0 0 0 0 0 0 0 0 0 0 0 0 0 0 0 0 0 0 0 0 0 0 0 0 0 0 0 0 0 0 0 0 0 0 0 0 0 0 0 0 0 0 0 0 0 0 0 0 0 0 0 0 0 0 0 0 0 0 0 0 0 0 0 0 0 0 0 0 0 0 0 0 0zm0 0l0 0 0 0 0 0 0 0 0 0 0 0 0 0 0 0 0 0zm0 0l0 0 0 0 0 0 0 0 0 0 0 0 0 0 0 0 0 0 0 0 0 0 0 0 0 0 0 0 0 0zm0 0l0 0 0 0 0 0 0 0 0 0 0 0 0 0zm0 0l0 0 0 0 0 0 0 0 0 0 0 0 0 0 0 0 0 0zm0 0l0 0 0 0 0 0 0 0 0 0 0 0 0 0 0 0 0 0 0 0 0 0zm0 0l0 0 0 0 0 0 0 0 0 0 0 0 0 0 0 0 0 0 0 0 0 0 0 0 0 0zm0 0l0 0 0 0 0 0 0 0 0 0 0 0 0 0zm0 -1l0 0 0 0 0 0 0 0 0 0 0 0 0 0 0 0 0 0 0 0 0 0 0 0 0 0 0 0 0 0 0 0 0 0 0 0zm0 0l0 0 0 0 0 0 0 0 0 0 0 0zm0 0l0 0 0 0 0 0 0 0 0 0 0 0 0 0 0 0 0 0zm0 0l0 0 0 0 0 0 0 0 0 0 0 0 0 0 0 0 0 0zm0 0l0 0 0 0 0 0 0 0 0 0 0 0 0 0 0 0 0 0 0 0 0 0 0 0 0 0zm0 0l0 0 0 0 0 0 0 0 0 0 0 0 0 0 0 0 0 0zm0 0l0 0 0 0 0 0 0 0 0 0zm0 0l0 0 0 0 0 0 0 0 0 0 0 0 0 0 0 0 0 0 0 0 0 0 0 0 0 0zm0 4l0 0 0 0 0 0zm0 0l0 0 0 0 0 0zm0 0l0 0 0 0 0 0zm0 0l0 0 0 0 0 0zm0 0l0 0 0 0 0 0zm0 0l0 0 0 0 0 0zm0 0l0 0 0 0 0 0zm0 0l0 0 0 0 0 0 0 0zm0 -1l0 0 0 0 0 0zm0 0l0 0 0 0 0 0zm0 0l0 0 0 0 0 0zm0 0l0 0 0 0 0 0zm0 0l0 0 0 0 0 0zm0 -1l0 0 0 0 0 0zm0 0l0 0 0 0 0 0zm0 0l0 0 0 0 0 0zm0 0l0 0 0 0 0 0zm-2 11l0 0 0 0 0 0 0 0 0 0 0 0 0 0 0 0 0 0 0 0 0 0 0 0 0 0 0 0 0 0 0 0 0 0 0 0 0 0zm0 -1l0 0 0 0 0 0 0 0 0 0 0 0 0 0 0 0 0 0 0 0 0 0 0 0 0 0 0 0 0 0 0 0 0 0 0 0 0 0 0 0 0 0 0 0 0 0 0 0 0 0zm0 -1l0 0 0 0 0 0 0 0 0 0 0 0 0 0 0 0 0 0 0 0 0 0 0 0 0 0 0 0 0 0 0 0 0 0 0 0 0 0 0 0 0 0 0 0 0 0 0 0 0 0 0 0 0 0 0 0 0 0 0 0 0 0 0 0 0 0zm0 0l0 0 0 0 0 0 0 0 0 0 0 0 0 0 0 0 0 0 0 0 0 0 0 0 0 0zm0 0l0 0 0 0 0 0 0 0 0 0 0 0 0 0 0 0 0 0 0 0 0 0 0 0 0 0zm0 0l0 0 0 0 0 0 0 0 0 0 0 0 0 0 0 0 0 0zm0 0l0 0 0 0 0 0 0 0 0 0 0 0 0 0 0 0 0 0 0 0 0 0 0 0 0 0 0 0 0 0 0 0 0 0 0 0 0 0 0 0 0 0zm0 0l0 0 0 0 0 0 0 0 0 0 0 0 0 0 0 0 0 0zm0 0l0 0 0 0 0 0 0 0 0 0 0 0 0 0 0 0 0 0 0 0 0 0 0 0 0 0zm0 0l0 0 0 0 0 0 0 0 0 0 0 0 0 0 0 0 0 0zm0 0l0 0 0 0 0 0 0 0 0 0 0 0 0 0 0 0 0 0zm0 0l0 0 0 0 0 0 0 0 0 0zm0 0l0 0 0 0 0 0 0 0 0 0 0 0 0 0 0 0 0 0zm0 0l0 0 0 0 0 0 0 0 0 0 0 0 0 0 0 0 0 0 0 0 0 0 0 0 0 0zm0 0l0 0 0 0 0 0 0 0 0 0zm0 0l0 0 0 0 0 0 0 0 0 0 0 0 0 0 0 0 0 0 0 0 0 0 0 0 0 0zm0 0l0 0 0 0 0 0 0 0 0 0zm0 0l0 0 0 0 0 0 0 0 0 0 0 0 0 0 0 0 0 0 0 0 0 0 0 0 0 0 0 0 0 0 0 0 0 0 0 0 0 0 0 0 0 0zm-1 5l0 0 0 0 0 0zm0 -1l0 0 0 0 0 0zm0 -1l0 0 0 0 0 0zm0 0l0 0 0 0 0 0zm0 0l0 0 0 0 0 0zm0 0l0 0 0 0 0 0zm0 0l0 0 0 0 0 0zm0 0l0 0 0 0 0 0zm0 0l0 0 0 0 0 0zm0 0l0 0 0 0 0 0zm0 0l0 0 0 0 0 0zm0 0l0 0 0 0 0 0zm0 0l0 0 0 0 0 0zm0 0l0 0 0 0 0 0zm0 0l0 0 0 0 0 0zm0 0l0 0 0 0 0 0zm0 0l0 0 0 0 0 0zm0 0l0 0 0 0 0 0zm-1 7l0 0 0 0 0 0zm0 0l0 0 0 0 0 0zm0 0l0 0 0 0 0 0 0 0 0 0 0 0 0 0zm0 0l0 0 0 0 0 0 0 0 0 0 0 0 0 0 0 0 0 0 0 0 0 0 0 0 0 0zm0 0l0 0 0 0 0 0 0 0 0 0zm0 1l0 0 0 0 0 0zm0 0l0 0 0 0 0 0zm0 0l0 0 0 0 0 0 0 0 0 0 0 0 0 0 0 0 0 0zm0 1l0 0 0 0 0 0 0 0zm0 0l0 0 0 0 0 0 0 0 0 0 0 0 0 0 0 0 0 0zm0 1l0 0 0 0 0 0zm0 0l0 0 0 0 0 0 0 0 0 0zm0 0l0 0 0 0 0 0 0 0 0 0 0 0 0 0zm0 0l0 0 0 0 0 0 0 0 0 0 0 0 0 0 0 0 0 0 0 0 0 0 0 0 0 0 0 0 0 0zm-1 2l0 0 0 0 0 0zm0 -1l0 0 0 0 0 0 0 0 0 0 0 0 0 0 0 0 0 0 0 0 0 0 0 0 0 0 0 0 0 0 0 0 0 0 0 0 0 0 0 0 0 0 0 0 0 0 0 0 0 0 0 0 0 0 0 0 0 0 0 0 0 0 0 0 0 0zm0 0l0 0 0 0 0 0 0 0 0 0 0 0 0 0zm0 0l0 0 0 0 0 0 0 0 0 0 0 0 0 0 0 0 0 0 0 0 0 0 0 0 0 0 0 0 0 0 0 0 0 0 0 0 0 0 0 0 0 0zm0 0l0 0 0 0 0 0 0 0 0 0 0 0 0 0 0 0 0 0 0 0 0 0 0 0 0 0 0 0 0 0 0 0 0 0zm0 2l0 0 0 0 0 0zm0 0l0 0 0 0 0 0 0 0 0 0 0 0 0 0 0 0zm0 0l0 0 0 0 0 0 0 0 0 0 0 0 0 0 0 0 0 0 0 0 0 0 0 0 0 0 0 0 0 0 0 0 0 0 0 0 0 0 0 0 0 0 0 0 0 0 0 0 0 0 0 0 0 0 0 0 0 0zm0 -1l0 0 0 0 0 0zm0 0l0 0 0 0 0 0zm0 0l0 0 0 0 0 0zm0 0l0 0 0 0 0 0 0 0zm0 0l0 0 0 0 0 0zm0 0l0 0 0 0 0 0zm0 0l0 0 0 0 0 0zm0 0l0 0 0 0 0 0zm0 0l0 0 0 0 0 0zm0 0l0 0 0 0 0 0zm0 0l0 0 0 0 0 0 0 0 0 0zm0 0l0 0 0 0 0 0zm0 0l0 0 0 0 0 0zm0 0l0 0 0 0 0 0 0 0 0 0zm0 0l0 0 0 0 0 0zm0 0l0 0 0 0 0 0zm0 0l0 0 0 0 0 0 0 0zm0 0l0 0 0 0 0 0zm0 0l0 0 0 0 0 0zm0 0l0 0 0 0 0 0 0 0zm0 0l0 0 0 0 0 0zm-2 6l0 0 0 0 0 0zm0 0l0 0 0 0 0 0zm0 0l0 0 0 0 0 0 0 0 0 0zm0 0l0 0 0 0 0 0 0 0 0 0zm0 0l0 0 0 0 0 0 0 0 0 0 0 0 0 0 0 0 0 0 0 0 0 0 0 0 0 0 0 0 0 0 0 0 0 0zm0 0l0 0 0 0 0 0 0 0 0 0zm0 0l0 0 0 0 0 0 0 0 0 0zm0 0l0 0 0 0 0 0 0 0 0 0zm0 0l0 0 0 0 0 0 0 0 0 0zm0 0l0 0 0 0 0 0 0 0 0 0 0 0 0 0 0 0 0 0 0 0 0 0zm-1 4l0 0 0 0 0 0 0 0zm0 0l0 0 0 0 0 0 0 0 0 0 0 0 0 0 0 0 0 0 0 0 0 0zm0 0l0 0 0 0 0 0 0 0 0 0zm0 0l0 0 0 0 0 0 0 0 0 0zm0 0l0 0 0 0 0 0 0 0 0 0zm0 0l0 0 0 0 0 0 0 0 0 0 0 0 0 0 0 0 0 0 0 0 0 0zm0 0l0 0 0 0 0 0 0 0 0 0zm0 0l0 0 0 0 0 0 0 0 0 0 0 0 0 0 0 0 0 0 0 0 0 0 0 0 0 0 0 0 0 0 0 0 0 0 0 0 0 0 0 0 0 0zm0 0l0 0 0 0 0 0zm0 0l0 0 0 0 0 0zm0 0l0 0 0 0 0 0 0 0 0 0zm0 0l0 0 0 0 0 0 0 0 0 0 0 0 0 0 0 0 0 0 0 0 0 0 0 0 0 0zm0 0l0 0 0 0 0 0 0 0 0 0 0 0 0 0 0 0 0 0 0 0 0 0 0 0 0 0zm0 -1l0 0 0 0 0 0 0 0 0 0 0 0 0 0 0 0 0 0 0 0 0 0 0 0 0 0 0 0 0 0 0 0 0 0 0 0 0 0 0 0 0 0 0 0 0 0 0 0 0 0 0 0 0 0 0 0 0 0 0 0 0 0zm-1 3l0 0 0 0 0 0 0 0zm0 0l0 0 0 0 0 0 0 0 0 0 0 0 0 0 0 0 0 0zm0 0l0 0 0 0 0 0 0 0 0 0 0 0 0 0 0 0 0 0 0 0 0 0 0 0 0 0 0 0 0 0zm0 0l0 0 0 0 0 0 0 0 0 0 0 0 0 0 0 0 0 0zm0 0l0 0 0 0 0 0 0 0 0 0zm0 1l0 0 0 0 0 0zm0 0l0 0 0 0 0 0zm0 0l0 0 0 0 0 0 0 0zm0 0l0 0 0 0 0 0zm0 0l0 0 0 0 0 0zm0 0l0 0 0 0 0 0 0 0zm0 0l0 0 0 0 0 0zm0 0l0 0 0 0 0 0 0 0 0 0zm0 0l0 0 0 0 0 0 0 0 0 0zm0 0l0 0 0 0 0 0zm0 0l0 0 0 0 0 0zm0 0l0 0 0 0 0 0 0 0zm0 0l0 0 0 0 0 0 0 0zm0 0l0 0 0 0 0 0 0 0zm0 0l0 0 0 0 0 0zm0 0l0 0 0 0 0 0 0 0 0 0 0 0 0 0 0 0 0 0 0 0 0 0zm0 0l0 0 0 0 0 0zm0 0l0 0 0 0 0 0zm0 0l0 0 0 0 0 0zm0 0l0 0 0 0 0 0 0 0 0 0 0 0zm0 0l0 0 0 0 0 0zm0 0l0 0 0 0 0 0 0 0 0 0 0 0zm0 0l0 0 0 0 0 0zm0 0l0 -1 0 0 0 0 0 0 0 0 0 0 0 0 0 0 0 0 0 0 0 0 0 0 0 0 0 0 0 0zm0 -1l0 0 0 0 0 0zm0 0l0 0 0 0 0 0zm0 0l0 0 0 0 0 0zm0 0l0 0 0 0 0 0 0 0 0 0zm0 0l0 0 0 0 0 0zm0 0l0 0 0 0 0 0zm0 0l0 0 0 0 0 0zm0 0l0 0 0 0 0 0zm0 0l0 0 0 0 0 0zm0 0l0 0 0 0 0 0zm-3 9l0 0 0 0 0 0zm0 -1l0 0 0 0 0 0 0 0 0 0 0 0 0 0 0 0 0 0 0 0 0 0 0 0 0 0 0 0 0 0 0 0 0 0 0 0 0 0 0 0 0 0 0 0 0 0 0 0 0 0 0 0 0 0 0 0 0 0zm0 0l0 0 0 0 0 0 0 0 0 0zm0 0l0 0 0 0 0 0 0 0 0 0 0 0 0 0 0 0 0 0 0 0 0 0 0 0 0 0 0 0 0 0 0 0 0 0zm0 0l0 0 0 0 0 0 0 0 0 0zm0 0l0 0 0 0 0 0 0 0 0 0zm0 0l0 0 0 0 0 0 0 0 0 0zm0 0l0 0 0 0 0 0 0 0 0 0zm0 0l0 0 0 0 0 0 0 0 0 0 0 0 0 0 0 0 0 0zm0 -1l0 0 0 0 0 0 0 0 0 0 0 0 0 0 0 0 0 0 0 0 0 0 0 0 0 0 0 0 0 0 0 0 0 0 0 0 0 0 0 0 0 0 0 0 0 0 0 0 0 0 0 0 0 0 0 0 0 0 0 0 0 0 0 0 0 0 0 0 0 0zm0 0l0 0 0 0 0 0 0 0 0 0 0 0 0 0 0 0 0 0 0 0 0 0 0 0 0 0zm-1 3l0 0 0 0 0 0zm0 0l0 0 0 0 0 0zm0 0l0 0 0 0 0 0 0 0 0 0zm-1 2l0 0 0 0 0 0 0 0 0 0 0 0 0 0 0 0 0 0 0 0 0 0 0 0 0 0 0 0 0 0 0 0 0 0 0 0 0 0 0 0 0 0 0 0 0 0 0 0 0 0zm0 0l0 0 0 0 0 0 0 0 0 0zm0 0l0 0 0 0 0 0 0 0 0 0 0 0 0 0 0 0 0 0 0 0 0 0zm0 0l0 0 0 0 0 0 0 0 0 0zm0 0l0 0 0 0 0 0 0 0 0 0 0 0 0 0zm0 0l0 0 0 0 0 0 0 0 0 0zm0 0l0 0 0 0 0 0 0 0 0 0 0 0 0 0 0 0 0 0 0 0 0 0 0 0 0 0 0 0 0 0zm0 1l0 0 0 0 0 0zm0 0l0 0 0 0 0 0zm0 0l0 0 0 0 0 0 0 0 0 0zm0 0l0 0 0 0 0 0zm0 0l0 0 0 0 0 0zm0 0l0 0 0 0 0 0zm0 0l0 0 0 0 0 0zm0 0l0 0 0 0 0 0zm0 -1l0 0 0 0 0 0zm0 0l0 0 0 0 0 0zm0 -1l0 0 0 0 0 0zm0 0l0 0 0 0 0 0zm0 0l0 0 0 0 0 0zm0 0l0 0 0 0 0 0zm0 0l0 0 0 0 0 0zm0 0l0 0 0 0 0 0zm0 0l0 0 0 0 0 0zm0 0l0 0 0 0 0 0zm0 0l0 0 0 0 0 0zm0 0l0 0 0 0 0 0zm0 0l0 0 0 0 0 0 0 0zm0 0l0 0 0 0 0 0zm0 0l0 0 0 0 0 0zm-2 6l0 0 0 0 0 0zm0 0l0 0 0 0 0 0 0 0 0 0zm0 0l0 0 0 0 0 0 0 0 0 0 0 0 0 0 0 0 0 0 0 0 0 0 0 0 0 0 0 0 0 0 0 0 0 0 0 0 0 0 0 0 0 0zm0 0l0 0 0 0 0 0 0 0 0 0 0 0 0 0 0 0 0 0zm0 0l0 0 0 0 0 0 0 0 0 0 0 0 0 0 0 0 0 0zm-1 3l0 0 0 0 0 0zm0 0l0 0 0 0 0 0zm0 -1l0 0 0 0 0 0 0 0 0 0 0 0 0 0 0 0 0 0 0 0 0 0 0 0 0 0 0 0 0 0 0 0 0 0 0 0 0 0 0 0 0 0 0 0 0 0 0 0 0 0 0 0 0 0 0 0 0 0 0 0 0 0zm0 0l0 0 0 0 0 0 0 0 0 0zm0 0l0 0 0 0 0 0 0 0 0 0zm0 0l0 0 0 0 0 0 0 0 0 0 0 0 0 0 0 0 0 0 0 0 0 0 0 0 0 0 0 0 0 0 0 0 0 0zm0 0l0 0 0 0 0 0 0 0 0 0zm0 -1l0 0 0 0 0 0 0 0 0 0 0 0 0 0 0 0 0 0 0 0 0 0 0 0 0 0 0 0 0 0 0 0 0 0 0 0 0 0 0 0 0 0 0 0 0 0 0 0 0 0zm0 0l0 0 0 0 0 0 0 0 0 0zm0 0l0 0 0 0 0 0 0 0 0 0 0 0 0 0 0 0zm-1 2l0 0 0 0 0 0zm0 0l0 0 0 0 0 0zm0 0l0 0 0 0 0 0zm0 0l0 0 0 0 0 0zm0 0l0 0 0 0 0 0 0 0 0 0zm-1 1l0 0 0 0 0 0 0 0 0 0 0 0 0 0 0 0 0 0 0 0 0 0 0 0 0 0 0 0 0 0 0 0 0 0 0 0 0 0 0 0 0 0 0 0 0 0 0 0 0 0 0 0 0 0 0 0 0 0 0 0 0 0 0 0 0 0zm0 0l0 0 0 0 0 0zm0 0l0 0 0 0 0 0zm0 -1l0 0 0 0 0 0zm0 0l0 0 0 0 0 0zm0 0l0 0 0 0 0 0zm0 0l0 0 0 0 0 0zm0 -1l0 0 0 0 0 0zm0 0l0 0 0 0 0 0zm0 0l0 0 0 0 0 0zm0 0l0 0 0 0 0 0zm0 0l0 0 0 0 0 0zm0 0l0 0 0 0 0 0zm0 0l0 0 0 0 0 0zm0 0l0 0 0 0 0 0zm0 0l0 0 0 0 0 0zm0 0l0 0 0 0 0 0zm0 0l0 0 0 0 0 0zm0 0l0 0 0 0 0 0zm-3 7l0 0 0 0 0 0zm0 0l0 0 0 0 0 0zm0 0l0 0 0 0 0 0 0 0 0 0zm0 0l0 0 0 0 0 0 0 0 0 0 0 0 0 0 0 0 0 0 0 0 0 0 0 0 0 0zm0 0l0 0 0 0 0 0 0 0 0 0zm0 0l0 0 0 0 0 0 0 0 0 0 0 0 0 0 0 0 0 0 0 0 0 0 0 0 0 0zm0 0l0 0 0 0 0 0 0 0 0 0 0 0 0 0 0 0 0 0 0 0 0 0 0 0 0 0 0 0 0 0 0 0 0 0zm-1 1l0 0 0 0 0 0zm0 0l0 0 0 0 0 0zm0 0l0 0 0 0 0 0 0 0 0 0zm0 0l0 0 0 0 0 0 0 0 0 0 0 0 0 0 0 0 0 0 0 0 0 0zm0 0l0 0 0 0 0 0zm0 0l0 0 0 0 0 0zm-1 2l0 0 0 0 0 0 0 0 0 0 0 0 0 0 0 0 0 0 0 0 0 0 0 0 0 0 0 0 0 0 0 0 0 0 0 0 0 0 0 0 0 0 0 0 0 0 0 0 0 0 0 0 0 0 0 0 0 0 0 0 0 0 0 0 0 0 0 0 0 0 0 0 0 0 0 0 0 0zm0 -1l0 0 0 0 0 0 0 0 0 0 0 0 0 0 0 0 0 0 0 0 0 0 0 0 0 0 0 0 0 0 0 0 0 0 0 0 0 0 0 0 0 0 0 0 0 0 0 0 0 0 0 0 0 0 0 0 0 0 0 0 0 0 0 0 0 0 0 0 0 0zm-1 2l0 0 0 0 0 0 0 0 0 0 0 0 0 0zm0 0l0 0 0 0 0 0 0 0 0 0 0 0 0 0 0 0zm0 0l0 -1 0 0 0 0 0 0 0 0 0 0 0 0 0 0 0 0 0 0 0 0 0 0 0 0 0 0 0 0 0 0 0 0 0 0zm0 -1l1 -1 0 0 0 0 0 0 0 0 0 0 0 0 0 0 0 0 0 0 0 0 0 0 0 0 0 0 0 0 0 0 0 0 0 0 0 0 0 0 0 0 0 0 0 0 0 0 0 0 0 0zm1 -1l0 0 0 0 0 0zm0 0l0 0 0 0 0 0 0 0zm0 0l0 0 0 0 0 0zm0 0l0 0 0 0 0 0zm0 0l0 0 0 0 0 0zm0 0l0 0 0 0 0 0zm0 0l0 0 0 0 0 0zm0 0l0 0 0 0 0 0zm0 0l0 0 0 0 0 0zm0 0l0 0 0 0 0 0zm0 0l0 0 0 0 0 0zm0 0l0 0 0 0 0 0zm-8 13l0 0 0 0 0 0zm0 0l0 0 0 0 0 0 0 0 0 0 0 0 0 0 0 0 0 0 0 0 0 0 0 0 0 0 0 0 0 0zm0 0l0 0 0 0 0 0 0 0 0 0 0 0 0 0 0 0 0 0 0 0 0 0 0 0 0 0 0 0 0 0zm0 0l0 0 0 0 0 0 0 0 0 0 0 0 0 0 0 0 0 0 0 0 0 0 0 0 0 0 0 0 0 0 0 0 0 0 0 0 0 0 0 0 0 0zm0 0l0 0 0 0 0 0 0 0 0 0 0 0 0 0zm0 0l0 0 0 0 0 0 0 0 0 0zm-1 1l0 0 0 0 0 0zm0 0l0 0 0 0 0 0 0 0 0 0 0 0 0 0 0 0 0 0zm-1 1l0 0 0 0 0 0zm0 0l0 0 0 0 0 0 0 0 0 0zm0 0l0 0 0 0 0 0 0 0 0 0 0 0 0 0 0 0 0 0 0 0 0 0zm0 0l0 0 0 0 0 0 0 0 0 0zm0 0l0 0 0 0 0 0 0 0 0 0 0 0 0 0 0 0 0 0 0 0 0 0 0 0 0 0 0 0zm0 0l0 0 0 0 0 0 0 0 0 0 0 0 0 0 0 0 0 0 0 0 0 0 0 0 0 0zm-1 1l0 0 0 0 0 0zm0 0l0 0 0 0 0 0zm0 0l0 0 0 0 0 0 0 0 0 0 0 0 0 0zm0 0l0 0 0 0 0 0 0 0 0 0zm0 0l0 0 0 0 0 0 0 0 0 0 0 0 0 0 0 0 0 0 0 0 0 0zm0 1l0 0 0 0 0 0zm0 0l0 0 0 0 0 0zm0 0l0 0 0 0 0 0 0 0 0 0zm0 1l0 0 0 0 0 0zm0 0l0 0 0 0 0 0zm0 0l0 0 0 0 0 0 0 0zm0 0l0 0 0 0 0 0 0 0 0 0 0 0 0 0 0 0 0 0 0 0 0 0 0 0 0 0 0 0 0 0zm0 0l0 0 0 0 0 0 0 0 0 0 0 0 0 0zm0 0l0 0 0 0 0 0zm0 0l0 0 0 0 0 0zm0 0l0 0 0 0 0 0zm0 0l0 0 0 0 0 0zm0 0l0 0 0 0 0 0 0 0 0 0 0 0zm0 0l0 0 0 0 0 0zm0 0l0 0 0 0 0 0 0 0 0 0 0 0 0 0 0 0 0 0 0 0 0 0 0 0 0 0 0 0 0 0 0 0 0 0 0 0 0 0 0 0 0 0 0 0zm0 0l0 0 0 0 0 0zm0 0l0 0 0 0 0 0zm0 0l0 0 0 0 0 0zm0 0l0 0 0 0 0 0 0 0zm0 0l0 0 0 0 0 0zm0 0l0 0 0 0 0 0zm0 0l0 0 0 0 0 0zm0 0l0 0 0 0 0 0zm0 -1l0 0 0 0 0 0zm0 0l0 0 0 0 0 0zm0 0l0 0 0 0 0 0zm-4 5l0 0 0 0 0 0 0 0zm0 0l0 0 0 0 0 0 0 0 0 0zm0 0l0 0 0 0 0 0 0 0 0 0zm0 0l0 0 0 0 0 0zm0 0l0 0 0 0 0 0zm0 0l0 0 0 0 0 0 0 0 0 0 0 0 0 0 0 0 0 0zm0 0l0 0 0 0 0 0 0 0 0 0 0 0zm0 0l0 0 0 0 0 0 0 0 0 0zm0 0l0 0 0 0 0 0zm0 0l0 0 0 0 0 0 0 0 0 0 0 0 0 0 0 0 0 0zm0 0l0 0 0 0 0 0 0 0zm0 0l0 0 0 0 0 0 0 0zm0 0l0 0 0 0 0 0zm0 0l0 0 0 0 0 0 0 0 0 0zm0 0l0 0 0 0 0 0zm0 0l0 0 0 0 0 0 0 0 0 0 0 0 0 0 0 0 0 0 0 0 0 0zm0 0l0 0 0 0 0 0zm0 0l0 0 0 0 0 0 0 0 0 0 0 0 0 0 0 0 0 0 0 0 0 0 0 0 0 0 0 0 0 0zm0 0l0 0 0 0 0 0 0 0 0 0 0 0 0 0 0 0 0 0 0 0 0 0 0 0 0 0 0 0 0 0zm-2 2l0 0 0 0 0 0 0 0 0 0 0 0zm1 -2l0 0 0 0 0 0 0 0 0 0 0 0 0 0 0 0 0 0 0 0 0 0 0 0 0 0 0 0 0 0 0 0 0 0 0 0 0 0 0 0 0 0 0 0 0 0 0 0 0 0 0 0 0 0 0 0 0 0 0 0 0 0 0 0 0 0 0 0 0 0 0 0 0 0 0 0 0 0 0 0 0 0 0 0 0 0 0 0 0 0 0 0 0 0 0 0 0 0 0 0 0 0 0 0 0 0 0 0 0 0 0 0 0 0 0 0 0 0 0 0 0 0 0 0 0 0 0 0 0 0 0 0 0 0 0 0 0 0 0 0 0 0 0 0 0 0 0 0 0 0 0 0 0 0 0 0 0 0 0 0 0 0 0 0 0 0 0 0 0 0 0 0 0 0 0 0 0 0 0 0 0 0 0 0 0 0 0 0 0 0 0 0 0 0zm0 0l0 0 0 0 0 0 0 0 0 0 0 0 0 0 0 0 0 0zm-1 2l1 -1 0 0 0 0 0 0 0 0 0 0 0 0 0 0 0 0 0 0 0 0 0 0 0 0 0 0 0 0 0 0 0 0 0 0 0 0 0 0 0 0 0 0 0 0 0 0 0 0 0 0 0 0 0 0 0 0 0 0 0 0 0 0 0 0 0 0 0 0 0 0 0 0 0 0 0 0 0 0 0 0 0 0 0 0 0 0 0 0zm1 -1l0 0 0 0 0 0 0 0 0 0zm1 -1l0 0 0 0 0 0zm0 0l0 0 0 0 0 0zm0 0l0 0 0 0 0 0zm0 0l0 0 0 0 0 0zm0 0l0 0 0 0 0 0zm-7 9l0 0 0 0 0 0 0 0 0 0 0 0 0 0zm0 0l0 0 0 0 0 0 0 0 2 -3 0 0 0 0 0 0 0 0 0 0 0 0 0 0 0 0 0 0 0 0 0 0 0 0 0 0 0 0 0 0 0 0 0 0 0 0 0 0 0 0 0 0 0 0 0 0 0 0 0 0 0 0 0 0 0 0 0 0 0 0 0 0 0 0 0 0 0 0 0 0 0 0 0 0 0 0 0 0 0 0 0 0 0 0 0 0 0 0 0 0 0 0 0 0 0 0 0 0 0 0 0 0 0 0 0 0 0 0 0 0 0 0 0 0 0 0 0 0 0 0 0 0 0 0 0 0 0 0 0 0 0 0 0 0 0 0 0 0 0 0 0 0 0 0 0 0 0 0 0 0 0 0 0 0 0 0 0 0 0 0 0 0 0 0 0 0 0 0 0 0 0 0 0 0 0 0 0 0 0 0 0 0 0 0zm0 0l0 0 0 0 0 0zm0 0l0 0 0 0 0 0zm2 -3l0 0 0 0 0 0zm0 0l0 0 0 0 0 0 0 0 0 0zm0 0l0 0 0 0 0 0zm0 0l0 0 0 0 0 0 0 0 0 0 0 0 0 0zm-57 50l0 0 -1 1c-92,59 -253,102 -443,116 111,-7 216,-25 304,-52 52,-17 97,-37 133,-59 2,-1 5,-3 7,-4l1 -1zm-1185 -44l0 0 0 0 0 0 0 0 0 0zm0 0l0 0 0 0 0 0 0 0 0 0zm0 0l0 0 0 0 0 0 0 0 0 0zm2 3l0 0 0 0 0 0 0 0 0 0 0 0 0 0 0 0 0 0 0 0 0 0 0 0 0 0 0 0 0 0 0 0 0 0 0 0 0 0 0 0 0 0 0 0 0 0 0 0 0 0 0 0 0 0 0 0 0 0 0 0 0 0 0 0 0 0 0 0 0 0 0 0 0 0 0 0 0 0 0 0 0 0 0 0 0 0 0 0 0 0 0 0 0 0 0 0 0 0 0 0 0 0 0 0 0 0 0 0 0 0 0 0 0 0 0 0 0 0 0 0 0 0 0 0 0 0 0 0 0 0 0 0 0 0 0 0 0 0 0 0 0 0 0 0 0 0 0 0 0 0 0 0 0 0 0 0 0 0 0 0 0 0 0 0 0 0 0 0 0 0 0 0 0 0 0 0 0 0 0 0 0 0 0 0 0 0 0 0 0 0 0 0 0 0 0 0 0 0 0 0 0 0 0 0 0 0 0 0 0 0 0 0 0 0 0 0 0 0 0 0 0 0 0 0 0 0 0 0 0 0 0 0 0 0 0 0 0 0 0 0 0 0 0 0 0 0 0 0 0 0 0 0 0 0 0 0 0 0 0 0 0 0 0 0 0 0 0 0 0 0 0 0 0 0 0 0 0 0 0 0 0 0zm0 0l-2 -2 0 0 0 0 0 0 0 0 0 0 0 0 0 0 0 0 0 0 0 0 0 0 0 0 0 0 0 0 0 0 0 0 0 0 0 0 0 0 0 0 0 0 0 0 0 0 0 0 0 0 0 0 0 0 0 0 0 0 0 0 0 0 0 0 0 0 0 0 0 0 0 0 0 0 0 0 0 0 0 0 0 0 0 0 0 0 0 0 0 0 0 0 0 0 0 0 0 0 0 0 0 0 0 0 0 0 0 0 0 0 0 0 0 0 0 0 0 0 0 0 0 0 0 0 0 0 0 0 0 0 0 0 0 0 0 0 0 0 0 0 0 0 0 0 0 0 0 0 0 0 0 0 0 0 0 0 0 0 0 0 0 0 0 0 0 0zm0 0l0 0 0 0 0 0 0 0 0 0zm-10 -12l0 0 0 0 0 0zm0 0l0 0 0 0 0 0zm0 0l0 0 0 0 0 0 0 0 0 0 0 0 0 0 0 0 0 0zm0 0l0 0 0 0 0 0 0 0 0 0zm0 0l0 0 0 0 0 0 0 0 0 0 0 0 0 0 0 0 0 0zm0 0l0 0 0 0 0 0 0 0 0 0zm0 0l0 0 0 0 0 0 0 0 0 0 0 0 0 0zm0 0l0 0 0 0 0 0 0 0 0 0 0 0 0 0 0 0 0 0zm0 0l0 0 0 0 0 0 0 0 0 0zm0 0l0 0 0 0 0 0 0 0 0 0 0 0 0 0 0 0 0 0 0 0 0 0 0 0 0 0zm0 0l0 0 0 0 0 0 0 0 0 0 0 0 0 0 0 0 0 0 0 0 0 0 0 0 0 0 0 0 0 0 0 0 0 0 0 0 0 0 0 0 0 0 0 0 0 0 0 0 0 0zm-2 -2l0 0 0 0 0 0zm0 0l0 0 0 0 0 0zm0 0l0 0 0 0 0 0 0 0 0 0zm0 0l0 0 0 0 0 0 0 0 0 0 0 0 0 0zm0 0l0 0 0 0 0 0zm0 0l0 0 0 0 0 0zm0 0l0 0 0 0 0 0 0 0 0 0 0 0zm0 0l0 0 0 0 0 0 0 0 0 0 0 0 0 0 0 0 0 0zm0 0l0 0 0 0 0 0 0 0 0 0zm0 0l0 0 0 0 0 0 0 0 0 0 0 0 0 0zm0 0l0 0 0 0 0 0zm0 0l0 0 0 0 0 0zm0 0l0 0 0 0 0 0 0 0 0 0 0 0 0 0zm0 0l0 0 0 0 0 0 0 0 0 0zm0 0l0 0 0 0 0 0 0 0 0 0 0 0 0 0 0 0 0 0zm0 0l0 0 0 0 0 0 0 0 0 0zm-1 -1l0 0 0 0 0 0zm0 0l0 0 0 0 0 0 0 0 0 0 0 0 0 0zm0 0l0 0 0 0 0 0zm0 0l0 0 0 0 0 0zm0 0l0 0 0 0 0 0zm0 0l0 0 0 0 0 0zm0 0l0 0 0 0 0 0 0 0 0 0 0 0 0 0zm0 0l0 0 0 0 0 0 0 0 0 0zm0 0l0 0 0 0 0 0 0 0 0 0zm-1 -1l0 0 0 0 0 0 0 0 0 0 0 0 0 0zm0 0l0 0 0 0 0 0 0 0 0 0 0 0 0 0 0 0 0 0 0 0 0 0 0 0 0 0 0 0 0 0zm0 0l0 0 0 0 0 0 0 0 0 0zm0 0l0 0 0 0 0 0 0 0 0 0 0 0 0 0 0 0 0 0zm0 0l0 0 0 0 0 0 0 0 0 0zm0 0l0 0 0 0 0 0zm0 0l0 0 0 0 0 0 0 0 0 0 0 0 0 0 0 0 0 0zm0 0l0 0 0 0 0 0zm0 0l0 0 0 0 0 0zm0 0l0 0 0 0 0 0zm0 0l0 0 0 0 0 0zm0 0l0 0 0 0 0 0zm0 0l0 0 0 0 0 0zm0 0l0 0 0 0 0 0zm0 0l0 0 0 0 0 0zm0 0l0 0 0 0 0 0 0 0zm0 0l0 0 0 0 0 0zm0 0l0 0 0 0 0 0zm0 0l0 0 0 0 0 0zm0 0l0 0 0 0 0 0zm0 0l0 0 0 0 0 0zm0 0l0 0 0 0 0 0zm0 0l0 0 0 0 0 0zm0 0l0 0 0 0 0 0zm0 0l0 0 0 0 0 0zm0 0l0 0 0 0 0 0zm0 0l0 0 0 0 0 0zm0 0l0 0 0 0 0 0zm0 0l0 0 0 0 0 0zm0 0l0 0 0 0 0 0zm0 0l0 0 0 0 0 0 0 0 0 0zm0 0l0 0 0 0 0 0zm0 0l0 0 0 0 0 0 0 0zm0 0l0 0 0 0 0 0zm0 0l0 0 0 0 0 0 0 0 0 0 0 0zm0 0l0 0 0 0 0 0zm0 0l0 0 0 0 0 0 0 0 0 0zm0 0l0 0 0 0 0 0zm0 0l0 0 0 0 0 0zm0 0l0 0 0 0 0 0zm0 0l0 0 0 0 0 0zm-11 -17l0 0 0 0 0 0zm0 0l0 0 0 0 0 0 0 0 0 0 0 0 0 0 0 0 0 0 0 0 0 0 0 0 0 0 0 0 0 0 0 0 0 0 0 0 0 0zm0 0l0 0 0 0 0 0 0 0 0 0zm0 -1l0 0 0 0 0 0zm0 0l0 0 0 0 0 0 0 0 0 0 0 0 0 0zm0 0l0 0 0 0 0 0zm0 0l0 0 0 0 0 0 0 0zm0 0l0 0 0 0 0 0 0 0 0 0 0 0 0 0 0 0 0 0 0 0 0 0 0 0 0 0 0 0 0 0 0 0 0 0 0 0 0 0zm0 0l0 0 0 0 0 0zm0 -1l0 0 0 0 0 0zm0 0l0 0 0 0 0 0 0 0 0 0 0 0 0 0zm0 0l0 0 0 0 0 0 0 0 0 0zm0 0l0 0 0 0 0 0 0 0 0 0 0 0 0 0 0 0 0 0 0 0 0 0zm0 0l0 0 0 0 0 0 0 0 0 0 0 0 0 0zm0 0l0 0 0 0 0 0 0 0 0 0zm0 0l0 0 0 0 0 0zm0 0l0 0 0 0 0 0zm0 0l0 0 0 0 0 0 0 0 0 0 0 0 0 0zm0 0l0 0 0 0 0 0zm0 0l0 0 0 0 0 0 0 0 0 0 0 0 0 0zm0 0l0 0 0 0 0 0 0 0 0 0zm0 0l0 0 0 0 0 0zm0 0l0 0 0 0 0 0 0 0 0 0 0 0 0 0zm0 0l0 0 0 0 0 0 0 0 0 0zm0 0l0 0 0 0 0 0 0 0 0 0zm0 0l0 0 0 0 0 0 0 0 0 0zm0 0l0 0 0 0 0 0zm0 0l0 0 0 0 0 0 0 0 0 0 0 0 0 0zm0 0l0 0 0 0 0 0zm0 0l0 0 0 0 0 0 0 0zm0 0l0 0 0 0 0 0 0 0 0 0zm0 0l0 0 0 0 0 0 0 0 0 0zm0 0l0 0 0 0 0 0zm0 0l0 0 0 0 0 0 0 0 0 0 0 0zm0 0l0 0 0 0 0 0zm0 0l0 0 0 0 0 0zm0 0l0 0 0 0 0 0 0 0 0 0 0 0 0 0 0 0 0 0zm0 -1l0 0 0 0 0 0zm0 0l0 0 0 0 0 0zm0 0l0 0 0 0 0 0 0 0 0 0 0 0 0 0 0 0 0 0zm0 0l0 0 0 0 0 0 0 0 0 0zm0 0l0 0 0 0 0 0 0 0 0 0zm0 0l0 0 0 0 0 0 0 0 0 0 0 0zm0 0l0 0 0 0 0 0 0 0 0 0zm0 0l0 0 0 0 0 0 0 0 0 0zm0 0l0 0 0 0 0 0 0 0 0 0 0 0 0 0 0 0 0 0 0 0 0 0 0 0 0 0 0 0 0 0 0 0 0 0zm0 -1l0 0 0 0 0 0zm0 0l0 0 0 0 0 0zm0 0l0 0 0 0 0 0 0 0 0 0zm0 0l0 0 0 0 0 0 0 0zm0 0l0 0 0 0 0 0 0 0zm0 0l0 0 0 0 0 0zm0 0l0 0 0 0 0 0zm0 0l0 0 0 0 0 0 0 0 0 0 0 0 0 0zm0 0l0 0 0 0 0 0zm0 0l0 0 0 0 0 0 0 0 0 0 0 0 0 0zm0 0l0 0 0 0 0 0zm0 0l0 0 0 0 0 0 0 0 0 0 0 0 0 0zm0 0l0 0 0 0 0 0zm0 0l0 0 0 0 0 0zm0 0l0 0 0 0 0 0zm0 0l0 0 0 0 0 0 0 0 0 0 0 0 0 0 0 0 0 0zm0 0l0 0 0 0 0 0 0 0 0 0zm0 0l0 0 0 0 0 0 0 0 0 0 0 0 0 0 0 0 0 0 0 0 0 0 0 0 0 0 0 0 0 0zm0 0l0 0 0 0 0 0 0 0zm0 0l0 0 0 0 0 0zm0 0l0 0 0 0 0 0 0 0 0 0 0 0 0 0 0 0 0 0 0 0 0 0 0 0zm0 0l0 0 0 0 0 0zm0 0l0 0 0 0 0 0 0 0 0 0zm0 0l0 0 0 0 0 0 0 0zm0 0l0 0 0 0 0 0 0 0 0 0 0 0 0 0 0 0 0 0 0 0 0 0zm0 0l0 0 0 0 0 0zm0 0l0 0 0 0 0 0 0 0 0 0 0 0 0 0 0 0 0 0zm0 0l0 0 0 0 0 0zm0 0l0 0 0 0 0 0zm0 0l0 0 0 0 0 0zm0 0l0 0 0 0 0 0 0 0 0 0zm0 0l0 0 0 0 0 0zm0 0l0 0 0 0 0 0 0 0 0 0 0 0 0 0zm0 0l0 0 0 0 0 0zm0 0l0 0 0 0 0 0 0 0 0 0 0 0 0 0 0 0 0 0zm0 0l0 0 0 0 0 0zm0 0l0 0 0 0 0 0zm0 0l0 0 0 0 0 0 0 0 0 0 0 0 0 0 0 0 0 0 0 0 0 0 0 0 0 0 0 0 0 0 0 0 0 0 0 0 0 0 0 0 0 0zm0 0l0 0 0 0 0 0zm0 0l0 0 0 0 0 0 0 0 0 0 0 0 0 0zm0 0l0 0 0 0 0 0zm0 0l0 0 0 0 0 0 0 0 0 0 0 0 0 0zm0 0l0 0 0 0 0 0zm0 0l0 0 0 0 0 0zm0 0l0 0 0 0 0 0zm1 1l0 0 0 0 0 0zm0 0l0 0 0 0 0 0zm0 0l0 0 0 0 0 0zm0 0l0 0 0 0 0 0zm0 1l0 0 0 0 0 0zm0 0l0 0 0 0 0 0zm0 0l0 0 0 0 0 0zm0 0l0 0 0 0 0 0zm0 0l0 0 0 0 0 0zm0 0l0 0 0 0 0 0zm0 0l0 0 0 0 0 0zm0 0l0 0 0 0 0 0zm-3 -7l0 0 0 0 0 0zm0 0l0 0 0 0 0 0 0 0 0 0zm0 0l0 0 0 0 0 0 0 0 0 0 0 0 0 0 0 0 0 0zm0 0l0 0 0 0 0 0 0 0 0 0 0 0 0 0 0 0 0 0 0 0 0 0 0 0 0 0zm0 0l0 0 0 0 0 0 0 0 0 0 0 0 0 0 0 0 0 0zm0 0l0 0 0 0 0 0 0 0 0 0 0 0 0 0 0 0 0 0zm-1 -1l0 0 0 0 0 0zm0 0l0 0 0 0 0 0zm0 0l0 0 0 0 0 0 0 0 0 0zm0 0l0 0 0 0 0 0 0 0 0 0zm0 0l0 0 0 0 0 0 0 0 0 0zm0 0l0 0 0 0 0 0 0 0 0 0zm0 -1l0 0 0 0 0 0zm0 0l0 0 0 0 0 0zm0 0l0 0 0 0 0 0 0 0zm0 0l0 0 0 0 0 0 0 0 0 0 0 0 0 0zm0 0l0 0 0 0 0 0 0 0 0 0zm0 0l0 0 0 0 0 0 0 0 0 0zm0 0l0 0 0 0 0 0zm0 0l0 0 0 0 0 0zm0 0l0 0 0 0 0 0 0 0 0 0 0 0 0 0 0 0 0 0 0 0zm0 0l0 0 0 0 0 0zm0 0l0 0 0 0 0 0 0 0 0 0zm0 0l0 0 0 0 0 0zm-1 -2l0 0 0 0 0 0 0 0 0 0 0 0 0 0 0 0 0 0 0 0 0 0 0 0 0 0 0 0 0 0 0 0 0 0 0 0 0 0 0 0 0 0 0 0 0 0zm0 0l0 0 0 0 0 0 0 0 0 0 0 0 0 0 0 0 0 0zm0 0l0 0 0 0 0 0 0 0 0 0 0 0 0 0zm0 0l0 0 0 0 0 0 0 0 0 0 0 0 0 0 0 0 0 0 0 0 0 0zm0 0l0 0 0 0 0 0 0 0 0 0 0 0 0 0 0 0 0 0zm0 0l0 0 0 0 0 0 0 0 0 0 0 0 0 0 0 0 0 0 0 0 0 0 0 0 0 0 0 0 0 0zm0 0l0 0 0 0 0 0 0 0 0 0 0 0 0 0 0 0 0 0zm0 0l0 0 0 0 0 0 0 0 0 0 0 0 0 0 0 0 0 0zm0 0l0 0 0 0 0 0 0 0 0 0zm0 0l0 0 0 0 0 0 0 0 0 0 0 0 0 0 0 0 0 0 0 0 0 0 0 0 0 0 0 0 0 0 0 0 0 0 0 0 0 0zm0 0l0 0 0 0 0 0 0 0 0 0 0 0 0 0zm0 0l0 0 0 0 0 0zm0 0l0 0 0 0 0 0 0 0 0 0zm0 0l0 0 0 0 0 0 0 0 0 0zm0 0l0 0 0 0 0 0 0 0 0 0zm0 0l0 0 0 0 0 0 0 0 0 0 0 0 0 0 0 0 0 0 0 0 0 0zm0 0l0 0 0 0 0 0 0 0 0 0zm0 0l0 0 0 0 0 0zm0 0l0 0 0 0 0 0zm0 0l0 0 0 0 0 0 0 0 0 0 0 0 0 0 0 0 0 0zm-1 -1l0 0 0 0 0 0zm0 1l0 0 0 0 0 0 0 0 0 0 0 0 0 0 0 0 0 0 0 0 0 0 0 0 0 0 0 0 0 0 0 0 0 0 0 0 0 0 0 0 0 0 0 0 0 0 0 0 0 0 0 0 0 0 0 0 0 0zm-1 -2l0 0 0 0 0 0zm0 0l0 0 0 0 0 0zm0 0l0 0 0 0 0 0zm0 0l0 0 0 0 0 0zm0 0l0 0 0 0 0 0zm0 0l0 0 0 0 0 0zm0 1l0 0 0 0 0 0zm0 0l0 0 0 0 0 0zm0 0l0 0 0 0 0 0zm0 1l0 0 0 0 0 0zm0 0l0 0 0 0 0 0zm0 0l0 0 0 0 0 0zm0 0l0 0 0 0 0 0zm0 0l0 0 0 0 0 0zm0 0l0 0 0 0 0 0zm0 0l0 0 0 0 0 0zm0 0l0 0 0 0 0 0zm0 0l0 0 0 0 0 0zm0 0l0 0 0 0 0 0zm0 0l0 0 0 0 0 0zm0 0l0 0 0 0 0 0zm0 0l0 0 0 0 0 0zm0 0l0 0 0 0 0 0zm0 0l0 0 0 0 0 0zm-3 -6l0 0 0 0 0 0zm0 0l0 0 0 0 0 0zm0 0l0 0 0 0 0 0zm0 0l0 0 0 0 0 0zm0 1l0 0 0 0 0 0 0 0 0 0 0 0 0 0 0 0 0 0 0 0 0 0 0 0 0 0 0 0 0 0 0 0 0 0 0 0 0 0 0 0 0 0 0 0 0 0 0 0 0 0 0 0 0 0zm0 -1l0 0 0 0 0 0zm0 0l0 0 0 0 0 0zm0 0l0 0 0 0 0 0 0 0 0 0 0 0 0 0 0 0 0 0 0 0 0 0 0 0 0 0 0 0 0 0zm0 -1l0 0 0 0 0 0zm0 0l0 0 0 0 0 0zm0 0l0 0 0 0 0 0 0 0 0 0zm-1 -2l0 0 0 0 0 0zm0 0l0 0 0 0 0 0 0 0zm0 0l0 0 0 0 0 0 0 0 0 0 0 0 0 0 0 0 0 0 0 0 0 0 0 0 0 0 0 0zm0 0l0 0 0 0 0 0 0 0 0 0zm0 0l0 0 0 0 0 0 0 0 0 0zm0 0l0 0 0 0 0 0 0 0 0 0zm0 0l0 0 0 0 0 0 0 0 0 0zm0 0l0 0 0 0 0 0 0 0zm0 0l0 0 0 0 0 0zm0 0l0 0 0 0 0 0 0 0 0 0zm0 0l0 0 0 0 0 0 0 0 0 0zm0 0l0 0 0 0 0 0 0 0 0 0 0 0 0 0zm0 0l0 0 0 0 0 0 0 0 0 0 0 0 0 0zm-1 -1l0 0 0 0 0 0zm0 0l0 0 0 0 0 0 0 0zm0 -1l0 0 0 0 0 0zm0 0l0 0 0 0 0 0 0 0 0 0zm0 0l0 0 0 0 0 0zm0 0l0 0 0 0 0 0zm0 0l0 0 0 0 0 0 0 0 0 0 0 0 0 0 0 0 0 0zm0 0l0 0 0 0 0 0zm0 0l0 0 0 0 0 0zm0 0l0 0 0 0 0 0 0 0zm0 0l0 0 0 0 0 0zm0 0l0 0 0 0 0 0 0 0 0 0 0 0 0 0zm0 0l0 0 0 0 0 0zm0 0l0 0 0 0 0 0 0 0 0 0 0 0 0 0 0 0 0 0 0 0 0 0zm0 -1l0 0 0 0 0 0zm0 0l0 0 0 0 0 0 0 0 0 0 0 0 0 0 0 0 0 0zm0 0l0 0 0 0 0 0 0 0 0 0 0 0 0 0 0 0 0 0zm0 0l0 0 0 0 0 0zm0 0l0 0 0 0 0 0zm0 1l0 0 0 0 0 0zm0 0l0 0 0 0 0 0zm0 0l0 0 0 0 0 0zm0 0l0 0 0 0 0 0zm0 0l0 0 0 0 0 0zm0 0l0 0 0 0 0 0zm0 0l0 0 0 0 0 0zm0 0l0 0 0 0 0 0zm0 0l0 0 0 0 0 0zm0 0l0 0 0 0 0 0zm0 0l0 0 0 0 0 0zm0 0l0 0 0 0 0 0zm0 0l0 0 0 0 0 0zm0 0l0 0 0 0 0 0zm0 0l0 0 0 0 0 0zm0 0l0 0 0 0 0 0zm0 0l0 0 0 0 0 0zm0 0l0 0 0 0 0 0zm0 0l0 0 0 0 0 0zm0 0l0 0 0 0 0 0zm0 0l0 0 0 0 0 0zm0 0l0 0 0 0 0 0zm0 0l0 0 0 0 0 0zm0 0l0 0 0 0 0 0zm0 1l0 0 0 0 0 0zm-2 -6l0 0 0 0 0 0zm0 0l0 0 0 0 0 0 0 0 0 0 0 0 0 0zm0 0l0 0 0 0 0 0zm0 0l0 0 0 0 0 0 0 0 0 0 0 0 0 0 0 0 0 0 0 0 0 0zm0 -1l0 0 0 0 0 0zm0 0l0 0 0 0 0 0 0 0 0 0 0 0 0 0 0 0 0 0 0 0 0 0 0 0 0 0 0 0 0 0zm0 0l0 0 0 0 0 0 0 0 0 0 0 0 0 0 0 0 0 0zm0 0l0 0 0 0 0 0 0 0 0 0zm0 0l0 0 0 0 0 0 0 0 0 0zm0 0l0 0 0 0 0 0 0 0 0 0zm0 0l0 0 0 0 0 0 0 0 0 0zm0 0l0 0 0 0 0 0 0 0 0 0zm0 0l0 0 0 0 0 0 0 0 0 0 0 0 0 0 0 0 0 0zm0 -1l0 0 0 0 0 0zm0 0l0 0 0 0 0 0 0 0 0 0 0 0 0 0zm0 -1l0 0 0 0 0 0zm0 0l0 0 0 0 0 0zm0 0l0 0 0 0 0 0 0 0 0 0 0 0 0 0zm0 0l0 0 0 0 0 0 0 0 0 0zm0 0l0 0 0 0 0 0 0 0 0 0zm0 0l0 0 0 0 0 0 0 0 0 0zm0 0l0 0 0 0 0 0 0 0 0 0 0 0 0 0 0 0 0 0 0 0 0 0 0 0 0 0 0 0 0 0zm0 0l0 0 0 0 0 0 0 0 0 0zm0 0l0 0 0 0 0 0 0 0 0 0zm-1 -3l0 0 0 0 0 0 0 0 0 0 0 0 0 0 0 0 0 0 0 0 0 0 0 0 0 0 0 0 0 0 0 0 0 0 0 0 0 0 0 0 0 0 0 0 0 0zm0 0l0 0 0 0 0 0 0 0 0 0zm0 0l0 0 0 0 0 0 0 0 0 0zm0 0l0 0 0 0 0 0 0 0 0 0zm0 0l0 0 0 0 0 0 0 0 0 0zm0 0l0 0 0 0 0 0 0 0 0 0zm0 0l0 0 0 0 0 0 0 0 0 0zm0 0l0 0 0 0 0 0 0 0 0 0zm0 0l0 0 0 0 0 0 0 0 0 0zm0 0l0 0 0 0 0 0 0 0 0 0 0 0 0 0 0 0 0 0 0 0 0 0 0 0 0 0 0 0 0 0 0 0 0 0zm0 0l0 0 0 0 0 0 0 0 0 0zm0 1l0 0 0 0 0 0 0 0 0 0 0 0 0 0 0 0 0 0 0 0 0 0 0 0 0 0 0 0 0 0 0 0 0 0 0 0 0 0 0 0 0 0 0 0 0 0 0 0 0 0 0 0 0 0zm0 0l0 0 0 0 0 0 0 0 0 0zm-1 -2l0 0 0 0 0 0zm0 0l0 0 0 0 0 0zm0 0l0 0 0 0 0 0zm0 0l0 0 0 0 0 0zm0 0l0 0 0 0 0 0zm0 0l0 0 0 0 0 0zm0 0l0 0 0 0 0 0zm0 0l0 0 0 0 0 0zm0 0l0 0 0 0 0 0zm0 0l0 0 0 0 0 0 0 0 0 0zm0 0l0 0 0 0 0 0zm0 0l0 0 0 0 0 0 0 0 0 0 0 0zm0 1l0 0 0 0 0 0zm0 0l0 0 0 0 0 0zm0 0l0 0 0 0 0 0 0 0 0 0 0 0 0 0zm0 0l0 0 0 0 0 0 0 0 0 0zm0 0l0 0 0 0 0 0zm0 0l0 0 0 0 0 0zm0 0l0 0 0 0 0 0zm0 0l0 0 0 0 0 0zm0 0l0 0 0 0 0 0 0 0zm0 0l0 0 0 0 0 0zm0 0l0 0 0 0 0 0zm0 0l0 0 0 0 0 0zm0 0l0 0 0 0 0 0 0 0 0 0zm0 0l0 0 0 0 0 0zm0 0l0 0 0 0 0 0zm0 0l0 0 0 0 0 0zm0 0l0 0 0 0 0 0zm0 0l0 0 0 0 0 0zm0 0l0 0 0 0 0 0zm0 0l0 0 0 0 0 0zm0 0l0 0 0 0 0 0zm0 0l0 0 0 0 0 0zm0 0l0 0 0 0 0 0zm-2 -7l0 0 0 0 0 0zm0 0l0 0 0 0 0 0zm0 0l0 0 0 0 0 0 0 0 0 0 0 0 0 0zm0 0l0 0 0 0 0 0 0 0 0 0 0 0 0 0 0 0 0 0zm0 0l0 0 0 0 0 0 0 0 0 0 0 0 0 0 0 0 0 0 0 0 0 0 0 0 0 0 0 0 0 0zm0 0l0 0 0 0 0 0 0 0 0 0 0 0 0 0zm0 -1l0 0 0 0 0 0zm0 0l0 0 0 0 0 0zm0 0l0 0 0 0 0 0 0 0 0 0zm0 0l0 0 0 0 0 0zm0 0l0 0 0 0 0 0zm0 -1l0 0 0 0 0 0zm0 0l0 0 0 0 0 0 0 0 0 0 0 0 0 0 0 0 0 0 0 0 0 0zm0 -1l0 0 0 0 0 0zm0 0l0 0 0 0 0 0zm0 0l0 0 0 0 0 0 0 0 0 0 0 0 0 0 0 0 0 0zm0 0l0 0 0 0 0 0 0 0 0 0 0 0 0 0zm0 0l0 0 0 0 0 0 0 0 0 0 0 0 0 0 0 0 0 0zm0 -1l0 0 0 0 0 0zm0 0l0 0 0 0 0 0zm0 0l0 0 0 0 0 0 0 0 0 0 0 0 0 0 0 0 0 0 0 0 0 0 0 0 0 0 0 0 0 0 0 0 0 0zm0 0l0 0 0 0 0 0 0 0 0 0 0 0 0 0zm0 0l0 0 0 0 0 0 0 0 0 0 0 0 0 0zm0 0l0 0 0 0 0 0 0 0 0 0 0 0 0 0zm0 -2l0 0 0 0 0 0zm0 0l0 0 0 0 0 0zm0 0l0 0 0 0 0 0 0 0 0 0zm0 0l0 0 0 0 0 0zm0 0l0 0 0 0 0 0zm0 0l0 0 0 0 0 0 0 0 0 0 0 0 0 0 0 0 0 0zm0 0l0 0 0 0 0 0 0 0 0 0 0 0 0 0 0 0 0 0 0 0 0 0 0 0 0 0zm0 -1l0 0 0 0 0 0zm0 0l0 0 0 0 0 0zm0 0l0 0 0 0 0 0zm0 0l0 0 0 0 0 0zm0 0l0 0 0 0 0 0 0 0 0 0 0 0 0 0zm0 0l0 0 0 0 0 0 0 0 0 0zm0 0l0 0 0 0 0 0zm0 0l0 0 0 0 0 0zm0 0l0 0 0 0 0 0zm0 0l0 0 0 0 0 0zm0 0l0 0 0 0 0 0zm0 0l0 0 0 0 0 0zm0 0l0 0 0 0 0 0zm0 0l0 0 0 0 0 0zm0 0l0 0 0 0 0 0 0 0 0 0 0 0zm0 0l0 0 0 0 0 0zm0 0l0 0 0 0 0 0zm0 0l0 0 0 0 0 0zm0 0l0 0 0 0 0 0zm0 0l0 0 0 0 0 0 0 0 0 0 0 0 0 0 0 0zm0 0l0 0 0 0 0 0zm0 0l0 0 0 0 0 0zm0 0l0 0 0 0 0 0zm0 0l0 0 0 0 0 0 0 0 0 0zm0 0l0 0 0 0 0 0 0 0zm0 0l0 0 0 0 0 0zm0 0l0 0 0 0 0 0zm0 0l0 0 0 0 0 0 0 0 0 0zm0 0l0 0 0 0 0 0zm0 0l0 0 0 0 0 0zm0 0l0 0 0 0 0 0zm0 0l0 0 0 0 0 0 0 0zm0 0l0 0 0 0 0 0zm0 0l0 0 0 0 0 0zm0 0l0 0 0 0 0 0 0 0 0 0 0 0zm0 0l0 0 0 0 0 0zm0 0l0 0 0 0 0 0 0 0 0 0zm0 0l0 0 0 0 0 0zm0 0l0 0 0 0 0 0zm0 0l0 0 0 0 0 0zm0 0l0 0 0 0 0 0zm0 0l0 0 0 0 0 0zm0 0l0 0 0 0 0 0zm0 0l0 0 0 0 0 0zm0 0l0 0 0 0 0 0zm0 0l0 0 0 0 0 0zm0 0l0 0 0 0 0 0zm0 0l0 0 0 0 0 0 0 0zm-1 -6l0 0 0 0 0 0zm0 -1l0 0 0 0 0 0zm0 -1l0 0 0 0 0 0zm0 0l0 0 0 0 0 0 0 0 0 0zm0 0l0 0 0 0 0 0 0 0 0 0 0 0 0 0 0 0 0 0zm0 0l0 0 0 0 0 0 0 0 0 0 0 0 0 0 0 0 0 0zm0 0l0 0 0 0 0 0 0 0 0 0zm0 0l0 0 0 0 0 0 0 0 0 0 0 0 0 0 0 0 0 0 0 0 0 0zm0 0l0 0 0 0 0 0 0 0 0 0 0 0 0 0 0 0 0 0 0 0 0 0 0 0 0 0 0 0 0 0 0 0 0 0 0 0 0 0 0 0 0 0zm0 0l0 0 0 0 0 0 0 0 0 0zm0 0l0 0 0 0 0 0 0 0 0 0 0 0 0 0 0 0 0 0 0 0 0 0 0 0 0 0 0 0 0 0zm0 0l0 0 0 0 0 0 0 0 0 0 0 0 0 0 0 0 0 0 0 0 0 0 0 0 0 0 0 0 0 0 0 0 0 0zm0 -1l0 0 0 0 0 0zm0 0l0 0 0 0 0 0 0 0 0 0 0 0 0 0zm0 -1l0 0 0 0 0 0zm0 0l0 0 0 0 0 0zm0 0l0 0 0 0 0 0 0 0 0 0 0 0 0 0 0 0 0 0zm0 -1l0 0 0 0 0 0zm0 0l0 0 0 0 0 0zm0 0l0 0 0 0 0 0 0 0 0 0 0 0 0 0 0 0 0 0zm0 -2l0 0 0 0 0 0zm0 0l0 0 0 0 0 0zm0 0l0 0 0 0 0 0 0 0 0 0 0 0 0 0 0 0 0 0 0 0 0 0 0 0 0 0zm0 0l0 0 0 0 0 0zm0 0l0 0 0 0 0 0zm0 0l0 0 0 0 0 0 0 0 0 0 0 0 0 0 0 0 0 0 0 0 0 0zm0 0l0 0 0 0 0 0 0 0 0 0zm0 0l0 0 0 0 0 0 0 0 0 0 0 0 0 0 0 0 0 0zm0 0l0 0 0 0 0 0 0 0 0 0zm0 0l0 0 0 0 0 0 0 0 0 0 0 0 0 0 0 0 0 0 0 0 0 0 0 0 0 0 0 0 0 0 0 0 0 0zm0 0l0 0 0 0 0 0 0 0 0 0zm0 0l0 0 0 0 0 0 0 0 0 0 0 0 0 0 0 0 0 0 0 0 0 0zm-1 -3l0 0 0 0 0 0 0 0 0 0 0 0 0 0 0 0 0 0zm0 0l0 0 0 0 0 0 0 0 0 0 0 0 0 0 0 0 0 0 0 0 0 0 0 0 0 0 0 0 0 0 0 0 0 0zm0 0l0 0 0 0 0 0 0 0 0 0 0 0 0 0 0 0 0 0 0 0 0 0 0 0 0 0 0 0 0 0 0 0 0 0zm0 0l0 0 0 0 0 0 0 0 0 0 0 0 0 0 0 0 0 0zm0 0l0 0 0 0 0 0 0 0 0 0zm0 -1l0 0 0 0 0 0zm0 0l0 0 0 0 0 0zm0 0l0 0 0 0 0 0 0 0zm0 0l0 0 0 0 0 0zm0 0l0 0 0 0 0 0 0 0zm0 0l0 0 0 0 0 0zm0 0l0 0 0 0 0 0zm0 0l0 0 0 0 0 0zm0 0l0 0 0 0 0 0zm0 0l0 0 0 0 0 0 0 0zm0 0l0 0 0 0 0 0zm0 0l0 0 0 0 0 0zm0 0l0 0 0 0 0 0 0 0 0 0zm0 0l0 0 0 0 0 0zm0 0l0 0 0 0 0 0zm0 0l0 0 0 0 0 0zm0 0l0 0 0 0 0 0zm0 0l0 0 0 0 0 0 0 0 0 0 0 0 0 0zm0 0l0 0 0 0 0 0zm0 0l0 0 0 0 0 0zm0 0l0 0 0 0 0 0zm0 0l0 0 0 0 0 0zm0 0l0 0 0 0 0 0zm0 0l0 0 0 0 0 0zm0 0l0 0 0 0 0 0 0 0 0 0zm0 0l0 0 0 0 0 0zm0 0l0 0 0 0 0 0zm0 0l0 0 0 0 0 0zm0 0l0 0 0 0 0 0zm-1 -9l0 0 0 0 0 0 0 0 0 0 0 0 0 0 0 0 0 0 0 0 0 0 0 0 0 0 0 0 0 0 0 0 0 0 0 0 0 0 0 0 0 0 0 0 0 0 0 0 0 0 0 0 0 0 0 0 0 0 0 0 0 0 0 0 0 0 0 0 0 0 0 0 0 0 0 0 0 0 0 0 0 0 0 0 0 0 0 0 0 0 0 0 0 0 0 0 0 0 0 0 0 0 0 0 0 0 0 0 0 0 0 0 0 0 0 0 0 0 0 0 0 0 0 0 0 0 0 0 0 0 0 0 0 0 0 0 0 0 0 0 0 0 0 0 0 0 0 0 0 0 0 0 0 0 0 0 0 0 0 0 0 0 0 0 0 0 0 0 0 0 0 0 0 0zm0 0l0 0 0 0 0 0 0 0 0 0 0 0 0 0 0 0 0 0 0 0 0 0 0 0 0 0zm0 0l0 0 0 0 0 0 0 0 0 0 0 0 0 0 0 0 0 0 0 0 0 0 0 0 0 0zm0 0l0 0 0 0 0 0 0 0 0 0 0 0 0 0 0 0 0 0 0 0 0 0zm0 0l0 0 0 0 0 0 0 0 0 0 0 0zm0 1l0 0 0 0 0 0 0 0 0 0 0 0 0 0 0 0 0 0 0 0 0 0 0 0 0 0 0 0 0 0 0 0 0 0 0 0 0 0 0 0 0 0 0 0 0 0 0 0 0 0 0 0 0 0 0 0 0 0 0 0 0 0 0 0 0 0 0 0 0 0zm0 0l0 0 0 0 0 0 0 0 0 0 0 0 0 0 0 0 0 0 0 0 0 0 0 0 0 0 0 0 0 0 0 0 0 0 0 0 0 0 0 0 0 0 0 0 0 0 0 0 0 0zm0 0l0 0 0 0 0 0 0 0 0 0 0 0 0 0 0 0 0 0zm0 0l0 0 0 0 0 0 0 0 0 0 0 0 0 0 0 0 0 0zm0 0l0 0 0 0 0 0 0 0 0 0 0 0 0 0 0 0 0 0 0 0 0 0 0 0 0 0zm0 0l0 0 0 0 0 0 0 0 0 0 0 0 0 0 0 0 0 0 0 0 0 0 0 0 0 0 0 0 0 0 0 0 0 0 0 0 0 0 0 0 0 0zm0 -4l0 0 0 0 0 0zm0 1l0 0 0 0 0 0zm0 1l0 0 0 0 0 0zm0 0l0 0 0 0 0 0zm0 0l0 0 0 0 0 0zm0 0l0 0 0 0 0 0zm0 0l0 0 0 0 0 0zm0 0l0 0 0 0 0 0zm0 0l0 0 0 0 0 0zm0 0l0 0 0 0 0 0zm0 0l0 0 0 0 0 0zm-1 -10l0 0 0 0 0 0 0 0 0 0 0 0 0 0 0 0 0 0 0 0 0 0 0 0 0 0 0 0 0 0 0 0 0 0 0 0 0 0 0 0 0 0 0 0 0 0 0 0 0 0 0 0 0 0 0 0 0 0 0 0 0 0 0 0 0 0 0 0 0 0 0 0 0 0 0 0 0 0 0 0 0 0 0 0 0 0 0 0 0 0 0 0 0 0 0 0 0 0 0 0 0 0 0 0 0 0 0 0 0 0zm0 1l0 0 0 0 0 0 0 0 0 0 0 0 0 0 0 0 0 0 0 0 0 0 0 0 0 0 0 0 0 0 0 0 0 0 0 0 0 0 0 0 0 0 0 0 0 0 0 0 0 0 0 0 0 0 0 0 0 0 0 0 0 0 0 0 0 0zm0 0l0 0 0 0 0 0 0 0 0 0 0 0 0 0 0 0 0 0 0 0 0 0zm0 0l0 0 0 0 0 0 0 0 0 0 0 0 0 0 0 0 0 0 0 0 0 0zm0 0l0 0 0 0 0 0 0 0 0 0 0 0 0 0 0 0 0 0 0 0 0 0 0 0 0 0zm0 0l0 0 0 0 0 0 0 0 0 0 0 0 0 0 0 0 0 0 0 0 0 0 0 0 0 0 0 0 0 0zm0 0l0 0 0 0 0 0 0 0 0 0 0 0 0 0 0 0 0 0 0 0 0 0 0 0 0 0 0 0 0 0zm0 0l0 0 0 0 0 0 0 0 0 0 0 0 0 0 0 0 0 0 0 0 0 0zm0 0l0 0 0 0 0 0 0 0 0 0zm0 0l0 0 0 0 0 0 0 0 0 0 0 0 0 0zm0 0l0 0 0 0 0 0 0 0 0 0 0 0 0 0 0 0 0 0 0 0 0 0 0 0 0 0zm0 0l0 0 0 0 0 0 0 0 0 0zm0 0l0 0 0 0 0 0 0 0 0 0zm0 0l0 0 0 0 0 0 0 0 0 0zm0 0l0 0 0 0 0 0 0 0 0 0zm0 0l0 0 0 0 0 0 0 0 0 0zm0 0l0 0 0 0 0 0 0 0 0 0 0 0 0 0 0 0 0 0zm0 0l0 0 0 0 0 0 0 0 0 0zm0 -4l0 0 0 0 0 0zm0 2l0 0 0 0 0 0zm0 0l0 0 0 0 0 0 0 0zm0 1l0 0 0 0 0 0z"/>
   <polygon class="fil0 str1" points="2779,3747 6355,6692 6160,6928 2584,3983 "/>
   <path class="fil1 str1" d="M1711 4017l63 -76c44,43 97,90 154,137 64,53 126,99 181,137l-64 78 -334 -275zm140 -170l65 -79 328 270c2,2 4,3 6,5l-66 80c-47,-47 -105,-99 -169,-151 -57,-47 -113,-90 -164,-125zm594 -721l62 -75c44,43 97,90 154,137 64,53 126,99 181,137l-63 76c-2,-2 -4,-3 -6,-5l-328 -270zm139 -169l70 -86 334 275 -72 87c-47,-47 -105,-99 -169,-151 -57,-47 -113,-90 -164,-125z"/>
   <path class="fil0 str1" d="M1627 3740c24,-29 198,74 388,231 190,157 325,308 301,337 -24,29 -198,-74 -388,-231 -190,-157 -325,-308 -301,-337z"/>
   <path class="fil0 str1" d="M1876 3438l239 -290c80,-97 224,-111 321,-31l338 278c97,80 111,224 31,321l-239 290c-80,97 -224,111 -321,31l-338 -278c-97,-80 -111,-224 -31,-321z"/>
   <path class="fil0 str1" d="M1368 4070l103 -125c34,-42 96,-48 138,-13l538 443c42,34 48,96 13,138l-103 125c-34,42 -96,48 -138,13l-538 -443c-42,-34 -48,-96 -13,-138z"/>
   <path class="fil0 str1" d="M2539 2649l103 -125c34,-42 96,-48 138,-13l538 443c42,34 48,96 13,138l-103 125c-34,42 -96,48 -138,13l-538 -443c-42,-34 -48,-96 -13,-138z"/>
   <path class="fil0 str1" d="M2360 2850c24,-29 198,74 388,231 190,157 325,308 301,337 -24,29 -198,-74 -388,-231 -190,-157 -325,-308 -301,-337z"/>
   <g>
    <path class="fil0 str1" d="M2272 5627l0 0 0 0 276 -202c188,-33 335,-101 357,-199l0 -2 0 -1 0 -2 0 -1c0,-5 0,-10 0,-16l0 -1 0 -8 0 -2 0 -6 0 -2 0 -2 0 -2 0 -2 0 -2 0 -2 0 -3 0 -2 0 -2 0 0 0 0 0 0m-1298 -25c0,-2 0,-4 0,-6m5 30l0 0m2 6c-1,-2 -1,-3 -2,-5m2 5l0 0m3 6l0 0m6 11l0 0m8 11l0 0m9 11c-1,-1 -2,-2 -2,-3m1268 -41l0 0 0 0zm0 0l0 -4 0 4zm0 -4l0 4 0 -4zm0 0l0 -1 0 0 0 0m0 0l0 -1 0 -1 0 -1 0 -5 0 5m0 -5l0 -1 0 -3 0 0 0 0 0 0m0 0l0 -1 0 1zm0 -1l0 -5 0 5zm0 -5l0 -1 0 1zm0 -1c0,-2 0,-4 0,-5l0 0m0 0l0 -2c0,-17 -5,-34 -14,-50 9,16 14,33 14,50 0,-17 -5,-34 -14,-50m-750 285l0 0c-185,-12 -356,-51 -453,-118 97,67 268,107 453,118 -185,-12 -356,-51 -453,-118m565 122l-1 0 0 0m296 50l-275 201m547 -611c-2,-1 -3,-2 -5,-3m34 24c-1,-1 -3,-2 -5,-4m11 9c-1,-1 -2,-2 -4,-3m10 8c-1,-1 -2,-2 -3,-3m9 9c-1,-1 -3,-3 -4,-4m9 9c-1,-1 -2,-2 -2,-2m8 8l0 0m5 6c-1,-1 -2,-3 -3,-4m7 9c-1,-2 -2,-3 -3,-5l0 0m8 11c-1,-2 -2,-3 -3,-5m6 9c-1,-1 -1,-2 -2,-3m6 11c-1,-2 -1,-3 -2,-4m5 10c-1,-1 -1,-3 -2,-4m4 10c-1,-2 -1,-3 -2,-5m4 10c0,-1 -1,-2 -1,-3m3 10c0,-2 -1,-3 -1,-5m2 11c0,-1 0,-3 -1,-4m1 10c0,-2 0,-4 -1,-5m1 12l0 0 0 0c0,-2 0,-3 0,-5m0 8l0 0 0 0 0 0 0 0 0 0m0 13l0 0 0 0 0 0 0 0 0 0 0 0m0 1l0 0 0 0 0 0 0 0 0 0 0 0 0 0 0 0 0 0 0 0m0 2l0 0 0 0 0 0 0 0 0 0 0 0m0 1l0 0 0 0 0 0 0 0 0 0 0 0 0 0 0 0m0 1l0 0 0 0 0 0 0 0 0 0m0 7l0 -1 0 0m0 10l0 0 0 -4 0 4 0 -4 0 4 0 -4m0 8l0 -1 0 -1 0 -1 0 0m0 8l0 -1 0 -1m0 6l0 -2 0 0 0 -1 0 -1m0 6l0 -1 0 -1m0 9l0 -1 0 -1m0 11l0 -1 0 -1m0 19l0 -1 0 -1m0 5l0 -1 0 -1m-1298 -91c0,2 0,4 0,5l0 0 0 0m1 -12c0,2 0,3 -1,5m1 -11c0,1 -1,3 -1,4m2 -11c0,1 -1,3 -1,4m3 -10c-1,2 -1,3 -1,5m4 -11c-1,2 -1,3 -2,5m4 -11c-1,2 -1,3 -2,5m5 -10c-1,1 -2,3 -2,4m5 -10c-1,1 -2,3 -2,4m6 -10c-1,1 -2,3 -3,4m7 -10c-1,2 -2,3 -3,5m7 -9c-1,1 -2,2 -3,3m18 -20c-1,1 -2,2 -4,4m29 -25c-1,1 -3,2 -4,3m600 595l-1 0 0 0 0 0m-149 -4c-5,0 -11,-1 -16,-1 5,0 11,1 16,1zm-18 -1l-1 0c-279,-18 -538,-77 -685,-179 146,102 405,161 685,179m-750 -232c-1,-1 -2,-2 -3,-3 1,1 2,2 3,3zm-14 -16c-1,-2 -3,-3 -4,-5 1,2 3,3 4,5zm-7 -8c-1,-2 -3,-4 -4,-6 1,2 3,4 4,6zm-6 -8c-1,-2 -2,-4 -4,-5l0 0 0 0m0 0l0 0 0 0zm-2 -3c-1,-2 -3,-4 -4,-6 1,2 2,4 4,6zm-4 -6l0 0 0 0zm-6 -11c-1,-2 -2,-5 -3,-7l0 0 0 0m0 0l0 -1m0 0c-1,-2 -2,-5 -3,-7l0 0 0 0m0 -1c-1,-3 -2,-5 -2,-8l0 0 0 0m-3 -10c-1,-3 -1,-5 -1,-8 0,3 1,5 1,8zm-1 -9c0,-3 -1,-5 -1,-8l0 0 0 0m0 -1l0 0c0,-3 0,-6 0,-9 0,3 0,6 0,9m669 -359c-390,49 -670,186 -670,346 -2,34 3,101 1,135 49,220 508,337 973,338l0 0 7 0 7 0 0 0c465,-1 923,-118 973,-338 -2,-34 3,-101 1,-135 0,-177 -340,-324 -792,-358l1 0m791 362c0,3 0,6 0,9l0 0 0 0m0 1c0,3 0,5 -1,8m0 1c0,3 -1,5 -1,8m0 1c-1,3 -1,5 -2,8m0 1c-1,3 -1,5 -2,7m0 1c-1,3 -2,5 -3,8m0 1c-1,3 -2,5 -4,8m-1 2c-1,2 -2,5 -4,7m-1 2c-1,2 -2,4 -4,6m-2 3c-1,2 -2,4 -4,6m-2 3c-1,2 -3,4 -4,6m-2 3c-1,2 -3,3 -4,5m-4 4c-1,1 -2,3 -3,4 1,-1 2,-3 3,-4zm-8 8c-1,1 -2,2 -3,3m-14 13c-1,1 -2,2 -4,3m-47 36c-145,102 -403,161 -682,179 278,-18 536,-77 682,-179zm-717 181c-4,0 -8,0 -12,1m-948 -156c3,1 5,3 8,4 -3,-1 -5,-3 -8,-4zm85 40c3,1 6,3 10,4 -3,-1 -7,-3 -10,-4zm324 87l12 2 -12 -2zm21 3l13 2 -13 -2zm1209 -134l0 0 7 -4 0 0 0 0 0 0 0 0 0 0 0 0 0 0 0 0 -7 4m13 -7l6 -4 -6 4zm-1653 10c3,1 5,3 8,4 -3,-1 -5,-3 -8,-4zm85 40c3,1 6,3 10,4 -3,-1 -7,-3 -10,-4zm1587 -63c-4,3 -8,5 -12,8 -54,34 -122,64 -201,89 -132,41 -291,67 -458,79l0 0 0 0 0 0 0 0 0 0 0 0 0 0 0 0 0 0 0 0 0 0 1 0 0 0 13 -1 0 0 0 0 0 0 0 0 0 0 0 0 0 0 0 0 0 0 0 0 0 0 0 0 0 0 0 0 0 0 0 0 0 0 0 0 0 0 1 0 1 0 1 0 13 -1 1 0 1 0 1 0 1 0 1 0 1 0 1 0 1 0 11 -1 1 0 1 0 1 0 1 0 1 0 1 0 1 0 1 0 0 0 0 0 0 0 0 0 0 0 0 0 0 0 0 0 0 0 0 0 0 0 0 0 0 0 0 0 0 0 0 0 0 0 0 0 0 0 0 0 0 0 0 0 4 0 0 0 0 0 0 0 0 0 0 0 0 0 0 0 0 0 0 0 0 0 0 0 0 0 0 0 0 0 0 0 0 0 0 0 0 0 0 0 0 0 0 0 0 0 0 0 0 0 0 0 0 0 0 0 1 0 1 0 1 0 1 0 1 0 1 0 0 0 0 0 0 0 0 0 0 0 0 0 0 0 0 0 0 0 13 -1 0 0 1 0 1 0 1 0 1 0 0 0 0 0 0 0 0 0 0 0 0 0 0 0 0 0 0 0 0 0 0 0 0 0 0 0 0 0 10 -1 0 0 0 0 0 0 0 0 0 0 0 0 0 0 0 0 0 0 0 0 0 0 0 0 0 0 0 0 0 0 0 0 0 0 0 0 0 0 0 0 0 0 0 0 0 0 0 0 0 0 0 0 0 0 0 0 0 0 1 0 0 0 0 0 0 0 0 0 0 0 0 0 0 0 0 0 0 0 1 0 0 0 0 0 0 0 0 0 0 0 0 0 0 0 0 0 0 0 0 0 0 0 0 0 0 0 0 0 0 0 0 0 0 0 0 0 6 -1 0 0 0 0 0 0 0 0 0 0 0 0 0 0 0 0 0 0 0 0 0 0 0 0 0 0 0 0 0 0 0 0 0 0 0 0 0 0 0 0 0 0 0 0 0 0 0 0 0 0 0 0 2 0 1 0 1 0 1 0 1 0 1 0 11 -2 0 0 1 0 0 0 0 0 0 0 1 0 1 0 1 0 1 0 1 0 1 0 1 0 1 0 1 0 1 0 1 0 1 0 1 0 1 0 1 0 1 0 1 0 1 0 10 -2 1 0 1 0 1 0 1 0 1 0 2 0 2 0 2 0 12 -2 2 0 2 0 2 0 2 0 12 -2 2 0 2 0 2 0 0 0 0 0 0 0 0 0 0 0 0 0 0 0 1 0 0 0 10 -2 0 0 0 0 1 0 0 0 0 0 0 0 2 0 2 0 2 0 0 0 0 0 0 0 0 0 0 0 0 0 0 0 0 0 11 -2 0 0 0 0 0 0 2 0 2 0 2 0 0 0 0 0 0 0 0 0 12 -2 0 0 0 0 0 0 0 0 0 0 0 0 0 0 2 0 2 -1 2 0 11 -3 2 -1 2 -1 2 -1 2 -1 11 -3 2 -1 2 -1 2 -1 0 0 0 0 0 0 0 0 0 0 0 0 0 0 0 0 0 0 0 0 0 0 1 0 0 0 10 -2 0 0 0 0 0 0 0 0 0 0 0 0 0 0 0 0 0 0 0 0 0 0 0 0 0 0 0 0 0 0 2 -1 1 0 1 0 0 0 0 0 11 -3 0 0 0 0 0 0 0 0 0 0 0 0 0 0 0 0 0 0 1 0 1 0 1 0 1 0 1 0 1 0 1 0 1 0 0 0 0 0 0 0 0 0 0 0 1 0 0 0 9 -3 0 0 0 0 0 0 0 0 0 0 0 0 0 0 0 0 0 0 0 0 0 0 1 0 1 0 2 -1 0 0 0 0 0 0 0 0 0 0 0 0 0 0 0 0 0 0 0 0 0 0 0 0 1 0 0 0 9 -3 0 0 0 0 0 0 0 0 0 0 0 0 0 0 0 0 0 0 0 0 0 0 0 0 0 0 1 0 0 0 0 0 0 0 0 0 0 0 0 0 0 0 1 0 0 0 0 0 0 0 0 0 0 0 0 0 0 0 0 0 0 0 0 0 0 0 0 0 0 0 0 0 0 0 0 0 0 0 0 0 0 0 0 0 0 0 0 0 1 0 0 0 4 -1 0 0 0 0 0 0 0 0 0 0 0 0 0 0 0 0 0 0 0 0 0 0 0 0 0 0 0 0 0 0 0 0 0 0 0 0 0 0 0 0 0 0 0 0 0 0 0 0 0 0 0 0 0 0 0 0 0 0 0 0 0 0 0 0 0 0 0 0 0 0 0 0 0 0 0 0 0 0 0 0 0 0 0 0 0 0 0 0 0 0 0 0 0 0 0 0 0 0 0 0 0 0 0 0 1 0 0 0 0 0 0 0 0 0 1 0 0 0 3 -1 0 0 0 0 0 0 0 0 0 0 0 0 0 0 0 0 0 0 0 0 0 0 0 0 0 0 0 0 0 0 0 0 0 0 0 0 0 0 0 0 0 0 0 0 0 0 0 0 0 0 0 0 0 0 0 0 0 0 0 0 0 0 0 0 0 0 3 -1 0 0 0 0 0 0 0 0 0 0 0 0 0 0 0 0 0 0 0 0 0 0 0 0 0 0 0 0 0 0 0 0 0 0 0 0 0 0 0 0 0 0 7 -2 0 0 0 0 0 0 0 0 0 0 0 0 0 0 0 0 0 0 0 0 0 0 0 0 0 0 1 0 0 0 0 0 0 0 0 0 0 0 0 0 0 0 0 0 0 0 0 0 0 0 0 0 0 0 0 0 0 0 0 0 0 0 0 0 0 0 0 0 0 0 0 0 0 0 0 0 0 0 8 -3 0 0 0 0 0 0 0 0 0 0 0 0 2 -1 1 0 1 0 1 0 1 0 1 0 1 0 8 -3 1 0 1 0 1 0 1 0 1 0 1 0 1 0 1 0 1 0 0 0 0 0 0 0 0 0 0 0 0 0 0 0 0 0 0 0 0 0 0 0 0 0 0 0 0 0 0 0 0 0 0 0 1 0 0 0 4 -1 0 0 0 0 0 0 0 0 0 0 0 0 0 0 0 0 0 0 0 0 0 0 0 0 0 0 0 0 0 0 0 0 0 0 0 0 0 0 0 0 0 0 0 0 0 0 1 0 1 0 1 0 1 0 1 0 1 0 1 0 1 0 0 0 0 0 0 0 0 0 0 0 7 -3 0 0 0 0 0 0 1 0 1 0 1 0 1 0 1 0 1 0 1 0 1 0 0 0 0 0 0 0 0 0 0 0 0 0 0 0 0 0 8 -3 0 0 0 0 0 0 0 0 0 0 0 0 0 0 0 0 0 0 0 0 0 0 0 0 0 0 0 0 0 0 0 0 8 -3 0 0 0 0 0 0 0 0 0 0 0 0 0 0 0 0 0 0 0 0 0 0 0 0 0 0 0 0 0 0 0 0 0 0 0 0 0 0 0 0 0 0 0 0c2,-1 5,-2 7,-3l0 0 0 0 0 0 0 0 0 0 0 0 0 0 0 0 0 0 0 0 0 0 0 0 0 0 0 0 0 0 0 0 0 0 0 0 0 0 0 0 0 0 0 0 0 0 0 0 0 0 0 0 0 0 0 0 0 0 0 0 0 0 0 0 0 0 0 0 0 0 0 0 0 0 0 0 0 0 0 0 0 0 5 -2 0 0 0 0 0 0 0 0 0 0 0 0 0 0 0 0 0 0 0 0 0 0 0 0 0 0 0 0 0 0 0 0 0 0 0 0 0 0 0 0 0 0 0 0 0 0 0 0 0 0 1 -1 0 0 0 0 0 0 0 0 0 0 0 0 0 0 0 0 0 0 0 0 0 0 0 0 0 0 0 0 0 0 5 -3 0 0 0 0 0 0 0 0 0 0 0 0 0 0 0 0 0 0 0 0 0 0 0 0 0 0 0 0 0 0 0 0 0 0 0 0 0 0 0 0 0 0 0 0 0 0 0 0 0 0 1 0 0 0 0 0 0 0 0 0 0 0 0 0 0 0 0 0 0 0 0 0 0 0 0 0 0 0 0 0 0 0 0 0 6 -3 0 0 0 0 0 0 0 0 0 0 0 0 0 0 0 0 0 0 1 0 0 0 0 0 0 0 0 0 0 0 0 0 0 0 0 0 2 -1 0 0 0 0 0 0 0 0 0 0 0 0 0 0 0 0 0 0 0 0 0 0 0 0 0 0 0 0 0 0 7 -4 0 0 0 0 0 0m-7 4l0 0 7 -4 0 0 0 0 0 0m6 -3l6 -4m-1028 167l-11 -1 5 0 1 0 1 0 1 0 1 0zm-12 -1c-162,-12 -316,-37 -445,-78 -79,-26 -147,-56 -201,-89 -4,-3 -8,-5 -12,-8l0 0 1 0 0 0 7 4 0 0 0 0 0 0 1 0 1 0 1 0 1 0 1 0 1 0 0 0 0 0 0 0 0 0 7 4 0 0 0 0 0 0 0 0 0 0 0 0 0 0 0 0 0 0 0 0 0 0 1 0 1 0 1 0 1 0 0 0 0 0 1 0 0 0 7 4 0 0 0 0 0 0 0 0 0 0 0 0 0 0 0 0 0 0 0 0 0 0 0 0 0 0 1 0 1 0 1 0 1 0 0 0 0 0 0 0 0 0 0 0 0 0 0 0 0 0 0 0 0 0 0 0c3,1 5,3 8,4l0 0 0 0 0 0 0 0 0 0 0 0 0 0 0 0 0 0 0 0 1 0 1 1 2 1 0 0 0 0 0 0 0 0 0 0 7 3 0 0 0 0 0 0 0 0 0 0 0 0 0 0 0 0 3 2 2 1 0 0 0 0 0 0 0 0 0 0 0 0 0 0 0 0 7 3 0 0 0 0 0 0 0 0 0 0 0 0 0 0 0 0 2 1 2 1 2 1 0 0 0 0 0 0 0 0 0 0 7 3 0 0 0 0 0 0 0 0 0 0 0 0 0 0 2 1 2 1 2 1 0 0 0 0 9 4 0 0 0 0 0 0 0 0 0 0 0 0 0 0 0 0 0 0 0 0 2 1 2 1 2 1 0 0 0 0 0 0 8 3 0 0 0 0 0 0 0 0 0 0 0 0 0 0 2 1 2 1 0 0 0 0 0 0 0 0 0 0c3,1 6,3 10,4l0 0 0 0 0 0 0 0 2 1 2 1 0 0 0 0 0 0 0 0 0 0 0 0 0 0 0 0 1 0 0 0 9 3 0 0 0 0 0 0 0 0 0 0 2 1 2 1 2 1 10 4 2 1 1 0 0 0 0 0 0 0 0 0 0 0 0 0 0 0 0 0 0 0 0 0 0 0 0 0 0 0 0 0 0 0 0 0 0 0 0 0 11 4 0 0 0 0 0 0 0 0 0 0 0 0 0 0 0 0 2 1 0 0 0 0 0 0 0 0 0 0 0 0 0 0 0 0 0 0 0 0 0 0 0 0 0 0 0 0 0 0 0 0 0 0 0 0 0 0 0 0 0 0 8 2 0 0 0 0 0 0 0 0 0 0 1 0 0 0 0 0 1 0 0 0 0 0 0 0 0 0 0 0 0 0 0 0 0 0 0 0 0 0 0 0 0 0 0 0 0 0 1 0 2 1 9 3 1 0 2 1 4 1 2 1 11 3 4 1 2 1 2 1 9 3 0 0 0 0 2 1 2 1 2 1 2 1 0 0 10 3 2 1 2 1 2 1 2 1 2 1 0 0 8 2 2 1 2 1 2 1 2 1 2 1 2 1 8 2 2 1 2 1 2 0 2 1 2 0 10 2 2 0 0 0 3 1 3 1 11 2 4 1 4 1 14 3 4 1 4 1 12 2 0 0 0 0 0 0 0 0 0 0 0 0 0 0 0 0 0 0 0 0 4 1 1 0 1 0 0 0 0 0 0 0 0 0 0 0 0 0 12 2 0 0 1 0 1 0 1 0 1 0 1 0 1 0 1 0 1 0 1 0 0 0 0 0 0 0 0 0 0 0 0 0 0 0 0 0 0 0 0 0 0 0 0 0 0 0 10 2 0 0 1 0 0 0 0 0 0 0 0 0 0 0 0 0 0 0 0 0 0 0 1 0 1 0 1 0 0 0 0 0 0 0 0 0 0 0 0 0 1 0 0 0 0 0 0 0 0 0 0 0 0 0 0 0 0 0 1 0 0 0 0 0 0 0 1 0 0 0 0 0 9 1 0 0 0 0 1 0 0 0 0 0 0 0 0 0 1 0 1 0 4 1 1 0 0 0 0 0 0 0 0 0 0 0 0 0 0 0 0 0 0 0 0 0 11 2 0 0 0 0 1 0 0 0 0 0 0 0 4 1 0 0 0 0 1 0 0 0 0 0 0 0 0 0 0 0 0 0 0 0 0 0 0 0 0 0 0 0 0 0 0 0 0 0 0 0 0 0 0 0 0 0 0 0 0 0 0 0 9 1 0 0 0 0 0 0 0 0 0 0 0 0 0 0 0 0 0 0 0 0 0 0 0 0 0 0 0 0 0 0 0 0 0 0 0 0 0 0 4 1 0 0 0 0 0 0 0 0 0 0 0 0 0 0 0 0 0 0 0 0 0 0 0 0 0 0 0 0 0 0 0 0 0 0 10 1 0 0 0 0 0 0 0 0 0 0 0 0 4 1 4 1 14 2 0 0 0 0 0 0 0 0 0 0 0 0 0 0 1 0 0 0 0 0 0 0 0 0 0 0 0 0 0 0 0 0 0 0 0 0 0 0 4 0 0 0 0 0 1 0 0 0 0 0 0 0 13 1 0 0 0 0 0 0 4 0 2 0 0 0 0 0 0 0 0 0 0 0 0 0 0 0 0 0 0 0 1 0 0 0 10 1 0 0 0 0 0 0 0 0 0 0 0 0 0 0 0 0 1 0 1 0 1 0 1 0 1 0 1 0 14 1 1 0 1 0 1 0 1 0 1 0 1 0 0 0 0 0 0 0 0 0 0 0 0 0 0 0 13 1 0 0 0 0 0 0 1 0 1 0 1 0 1 0 1 0 1 0 0 0 0 0 0 0 0 0 0 0 0 0 0 0 0 0 0 0 0 0 0 0 0 0 0 0 0 0 0 0 0 0 0 0 0 0 0 0 0 0 0 0 0 0 5 0 0 0 0 0zm1021 -155c2,-1 4,-3 7,-4l0 0 -7 4zm7 -4l0 0 0 0 0 0zm0 0l0 0 0 0 0 0 0 0 0 0 0 0 -7 4 7 -4zm12 -7l0 0 0 0 0 0zm13 -8l0 0 0 0 0 0z"/>
    <path class="fil0 str1" d="M2606 4934c381,49 654,181 654,337 0,197 -439,357 -981,357 -542,0 -981,-160 -981,-357 0,-141 225,-263 552,-321m-242 196c0,-2 0,-4 0,-6m1 12l0 0c0,-2 0,-4 -1,-6m2 12l0 0c0,-2 -1,-4 -1,-5m2 11l0 0c0,-2 -1,-3 -1,-5m1 6l0 0m0 0l0 0m2 5c-1,-2 -1,-3 -1,-5m2 5l0 0m2 6c-1,-2 -1,-3 -2,-5m2 5l0 0m2 6c-1,-2 -1,-3 -2,-5m2 5l0 0m3 6c-1,-2 -2,-3 -2,-5l0 0m3 6l0 0m2 4c-1,-1 -1,-2 -2,-4l0 0m2 4l0 0m8 11c-1,-1 -2,-2 -3,-3l0 0m3 4l0 0m5 6c-1,-1 -2,-2 -3,-4l0 0m5 6l0 0 0 0m0 0l0 0m3 3c-1,-1 -2,-2 -2,-3m39 -182c-1,1 -3,2 -4,3m-21 18c-1,1 -2,2 -4,4m-12 14c-1,1 -2,2 -3,3m-1 2c-1,2 -2,3 -3,5m-1 2c-1,1 -2,3 -3,4m-1 2c-1,1 -2,3 -2,4m-1 1c-1,1 -2,3 -2,4m-1 1c-1,2 -1,3 -2,5m-1 2c-1,2 -1,3 -2,5m-1 2c-1,2 -1,3 -1,5m0 1c0,1 -1,3 -1,4m0 2c0,1 -1,3 -1,4m0 2c0,2 0,3 -1,5m0 1c0,2 0,4 0,5l0 0 0 0m1298 87l0 -1 0 -1m0 -2l0 -1 0 -1m0 -16l0 -1 0 -1m0 -8l0 -1 0 -1m0 -6l0 -1 0 -1m0 -2l0 -2 0 0 0 -1 0 -1m0 -2l0 -1 0 -1m0 -3l0 -1 0 -1 0 -1 0 0m0 -1l0 0 0 0zm0 0l0 0 0 0zm0 0l0 0 0 0zm0 0l0 0 0 -4 0 4 0 -4 0 4 0 -4 0 4 0 -4m0 0l0 0 0 -1 0 1 0 -1 0 1 0 -1 0 1m0 -1l0 0 0 0 0 -1 0 1 0 -1 0 1 0 -1m0 -1l0 -1 0 0m0 -5l0 0 0 0zm0 0l0 0 0 0zm0 -1l0 0 0 0 0 0 0 0 0 0m0 0l0 0 0 0 0 0 0 0 0 0 0 0 0 0 0 0m0 0l0 0 0 0 0 0 0 0 0 0 0 0m0 0l0 0 0 0 0 0 0 0 0 0 0 0 0 0 0 0 0 0 0 0m0 0l0 0 0 0 0 0 0 0 0 0m0 0l0 0 0 0 0 0 0 0 0 0 0 0 0 0 0 0 0 0 0 0 0 0 0 0 0 0m0 -4l0 -1m0 0l0 1m0 -1l0 1 0 -1zm0 0l0 0 0 0zm0 0l0 1 0 4 0 -4m0 4l0 0 0 1m0 0l0 0 0 3 0 1m0 0l0 5 0 1 0 1 0 1 0 -1 0 1 0 -1m0 1l0 1 0 -1zm0 1l0 4m0 0l0 -4m0 4l0 0 0 0zm0 0l0 0 0 2 0 2 0 3 0 2 0 2 0 2 0 2 0 2 0 2 0 6 0 2 0 8 0 1c0,6 0,11 0,16l0 1 0 2 0 1 0 2c-33,146 -336,223 -644,224l0 0 -5 0 -5 0 0 0c-308,-1 -611,-78 -644,-224 1,-22 -2,-67 -1,-89 -1,22 2,67 1,89 1,-22 -2,-67 -1,-89 -1,22 2,67 1,89 1,-22 -2,-67 -1,-89m1299 8l0 0m0 0l0 0m0 -6l0 0 0 0 0 0 0 0 0 0m0 0l0 -1 0 1zm0 0l0 0c0,2 0,4 0,5m0 0l0 0 0 0zm0 -7l0 1 0 -1zm0 -1l0 0 0 0c0,-2 0,-3 0,-5m0 -1c0,-2 0,-4 -1,-5m0 -1c0,-1 0,-3 -1,-4m0 -2c0,-2 -1,-3 -1,-5m-1 -2c0,-1 -1,-2 -1,-3m-1 -2c-1,-2 -1,-3 -2,-5m-1 -2c-1,-1 -1,-3 -2,-4m-1 -1c-1,-2 -1,-3 -2,-4m-1 -3c-1,-1 -1,-2 -2,-3m-1 -1c-1,-2 -2,-3 -3,-5m-1 -2c-1,-2 -2,-3 -3,-5l0 0m-1 -1c-1,-1 -2,-3 -3,-4m-2 -2l0 0m-5 -6c-1,-1 -2,-2 -2,-2m-2 -3c-1,-1 -3,-3 -4,-4m-2 -2c-1,-1 -2,-2 -3,-3m-2 -2c-1,-1 -2,-2 -4,-3m-3 -2c-1,-1 -3,-2 -5,-4m-24 -17c-2,-1 -3,-2 -5,-3"/>
   </g>
   <g>
    <path class="fil0 str1" d="M2253 5375l-1 0 0 0m-110 -4l0 0c-185,-12 -356,-51 -453,-118m-51 -43l0 0m0 0l0 0m-5 -5l0 0m-2 -2c-1,-1 -2,-2 -3,-3m-5 -8c-1,-1 -1,-2 -2,-4l0 0m0 0l0 0m-3 -6l0 0m-1 -1c-1,-2 -1,-3 -2,-5m-3 -7c-1,-2 -1,-3 -1,-5m0 0l0 0m0 0l0 0m0 -1c0,-2 -1,-3 -1,-5m0 -1c0,-2 -1,-4 -1,-5m0 0c0,-2 0,-4 -1,-6m1298 0c0,2 0,4 -1,6m-3 13c0,2 -1,3 -1,5m0 1c-1,2 -1,3 -2,5m-7 13c-1,1 -1,2 -2,4m-1 2c-1,1 -1,2 -2,3m-751 174c-111,-7 -217,-25 -304,-52 -52,-17 -97,-37 -133,-59 -3,-2 -5,-4 -8,-5l-2 -1m-48 -40c-1,-1 -2,-2 -2,-3m0 0l0 0m0 0l0 0 0 0m-2 -2c-1,-1 -2,-2 -3,-4l0 0m-2 -2l0 0m0 0c-1,-1 -2,-2 -3,-3l0 0m-5 -7l0 0m0 0c-1,-1 -1,-2 -2,-4l0 0m0 0l0 0m-1 -1c-1,-2 -2,-3 -2,-5l0 0m-1 -1l0 0m0 0c-1,-2 -1,-3 -2,-5m0 -1l0 0m0 0c-1,-2 -1,-3 -2,-5m0 -1l0 0m0 0c-1,-2 -1,-3 -1,-5m0 0l0 0m0 0l0 0m0 -1l0 0c0,-2 -1,-3 -1,-5m0 -1l0 0c0,-2 -1,-4 -1,-5m0 0l0 0c0,-2 0,-4 -1,-6m0 -1c0,-2 0,-4 0,-6m1299 0c0,2 0,4 0,6m0 0c0,2 0,4 -1,6m0 0c0,2 -1,4 -1,6m-2 7c0,2 -1,3 -1,5m0 1c-1,2 -1,3 -2,5m0 1c-1,2 -1,3 -2,5m-1 2c-1,1 -1,3 -2,4m-1 2c-1,1 -1,2 -2,4m-2 2c-1,1 -1,2 -2,3m-63 58c-3,2 -5,3 -8,5 -36,22 -81,42 -133,59 -87,27 -193,45 -304,52m-237 0l-6 0m126 79l0 0 -5 0 -5 0 0 0c-308,-1 -611,-78 -644,-224 1,-22 -2,-67 -1,-89 0,-132 287,-240 644,-242l0 0c2,0 3,0 5,0 2,0 3,0 5,0l0 0c357,2 644,110 644,242 1,22 -2,67 -1,89 -33,146 -336,223 -644,224z"/>
    <ellipse class="fil0 str1" cx="2257" cy="5139" rx="649" ry="236"/>
   </g>
  </g>
 </g>
</svg>
