<?xml version="1.0" encoding="UTF-8"?>
<!DOCTYPE svg PUBLIC "-//W3C//DTD SVG 1.1//EN" "http://www.w3.org/Graphics/SVG/1.1/DTD/svg11.dtd">
<!-- Creator: CorelDRAW X6 -->
<svg xmlns="http://www.w3.org/2000/svg" xml:space="preserve" width="8.26772in" height="11.6929in" version="1.1" style="shape-rendering:geometricPrecision; text-rendering:geometricPrecision; image-rendering:optimizeQuality; fill-rule:evenodd; clip-rule:evenodd"
viewBox="0 0 8268 11693"
 xmlns:xlink="http://www.w3.org/1999/xlink">
 <defs>
  <style type="text/css">
   <![CDATA[
    .str0 {stroke:#010080;stroke-width:3}
    .fil0 {fill:#FEFEFE}
   ]]>
  </style>
 </defs>
 <g id="Layer_x0020_1">
  <metadata id="CorelCorpID_0Corel-Layer"/>
  <g id="_239724768">
   <path class="fil0 str0" d="M1205 3842l367 0c107,0 195,88 195,195l0 2048c0,107 -88,195 -195,195l-367 0c-107,0 -195,-88 -195,-195l0 -2048c0,-107 88,-195 195,-195z"/>
   <path class="fil0 str0" d="M2119 3401l367 0c107,0 195,88 195,195l0 2510c0,107 -88,195 -195,195l-367 0c-107,0 -195,-88 -195,-195l0 -2510c0,-107 88,-195 195,-195z"/>
   <path class="fil0 str0" d="M3037 2802l367 0c107,0 195,88 195,195l0 3088c0,107 -88,195 -195,195l-367 0c-107,0 -195,-88 -195,-195l0 -3088c0,-107 88,-195 195,-195z"/>
   <path class="fil0 str0" d="M3954 2498l367 0c107,0 195,88 195,195l0 3412c0,107 -88,195 -195,195l-367 0c-107,0 -195,-88 -195,-195l0 -3412c0,-107 88,-195 195,-195z"/>
   <path class="fil0 str0" d="M1452 3464c618,-291 993,-729 971,-1396 -59,-12 -117,-25 -175,-41 -60,-25 -77,-56 -44,-94 111,-158 246,-310 406,-454 27,-24 52,-34 74,-31 22,2 43,19 63,49 117,181 207,363 272,545 22,45 -3,70 -67,79 -60,0 -120,-2 -181,-7 -123,756 -556,1073 -1319,1349z"/>
   <rect class="fil0 str0" transform="matrix(1.61359E-014 -0.728847 0.609258 1.93032E-014 829.617 6724.87)" width="360" height="6501" rx="58" ry="58"/>
  </g>
 </g>
</svg>
