<?xml version="1.0" encoding="UTF-8"?>
<!DOCTYPE svg PUBLIC "-//W3C//DTD SVG 1.1//EN" "http://www.w3.org/Graphics/SVG/1.1/DTD/svg11.dtd">
<!-- Creator: CorelDRAW X6 -->
<svg xmlns="http://www.w3.org/2000/svg" xml:space="preserve" width="8.26772in" height="11.6929in" version="1.1" style="shape-rendering:geometricPrecision; text-rendering:geometricPrecision; image-rendering:optimizeQuality; fill-rule:evenodd; clip-rule:evenodd"
viewBox="0 0 8268 11693"
 xmlns:xlink="http://www.w3.org/1999/xlink">
 <defs>
  <style type="text/css">
   <![CDATA[
    .fil0 {fill:#0101FF}
   ]]>
  </style>
 </defs>
 <g id="Layer_x0020_1">
  <metadata id="CorelCorpID_0Corel-Layer"/>
  <path class="fil0" d="M2720 1467l1417 1031 184 0c107,0 195,88 195,195l0 3412c0,107 -88,195 -195,195l-367 0c-107,0 -195,-88 -195,-195l0 -3412c0,-107 88,-195 195,-195l184 0c310,-22 278,25 334,68l2735 2401c-77,1702 -1612,3759 -3915,3935l-2443 -2184c7,5 15,7 24,7l3877 0c23,0 42,-19 42,-42l0 -179c0,-23 -19,-42 -42,-42l-3521 0c-99,-116 -182,-154 -210,-328 22,83 98,145 188,145l367 0c107,0 195,-88 195,-195l0 -2048c0,-67 -35,-127 -87,-162 13,8 25,18 35,30l210 172 0 2030c0,107 88,195 195,195l367 0c107,0 195,-88 195,-195l0 -2510c0,-107 -88,-195 -195,-195l-367 0c-107,0 -195,88 -195,195l0 212c0,-6 0,0 -1,0l-472 -344c763,-276 1196,-594 1319,-1349 60,4 120,6 181,7 64,-8 89,-33 67,-79 -66,-182 -155,-363 -272,-545 -9,-13 -18,-24 -27,-32l0 0zm-1882 5242l-6 -6 0 -6c1,4 4,8 6,11zm-9 -69c-2,-41 -4,-81 0,-113l0 113zm1593 -4571l0 0 0 0 0 0zm-199 -53c-10,-5 -18,-11 -24,-18 6,6 14,12 24,18zm-24 -77c7,-13 17,-28 33,-45 -10,13 -20,27 -29,41 -1,2 -3,3 -4,5zm836 864l367 0c107,0 195,88 195,195l0 3088c0,107 -88,195 -195,195l-367 0c-107,0 -195,-88 -195,-195l0 -3088c0,-107 88,-195 195,-195zm-2024 1209l0 0 0 0 0 0z"/>
 </g>
</svg>
