<?xml version="1.0" encoding="UTF-8"?>
<!DOCTYPE svg PUBLIC "-//W3C//DTD SVG 1.1//EN" "http://www.w3.org/Graphics/SVG/1.1/DTD/svg11.dtd">
<!-- Creator: CorelDRAW X6 -->
<svg xmlns="http://www.w3.org/2000/svg" xml:space="preserve" width="8.26772in" height="11.6929in" version="1.1" style="shape-rendering:geometricPrecision; text-rendering:geometricPrecision; image-rendering:optimizeQuality; fill-rule:evenodd; clip-rule:evenodd"
viewBox="0 0 8268 11693"
 xmlns:xlink="http://www.w3.org/1999/xlink">
 <defs>
  <style type="text/css">
   <![CDATA[
    .fil0 {fill:#0101FF}
   ]]>
  </style>
 </defs>
 <g id="Layer_x0020_1">
  <metadata id="CorelCorpID_0Corel-Layer"/>
  <path class="fil0" d="M3593 1179l2 2 -1 0c0,0 0,-1 -1,-1zm16 10c1198,763 2662,1641 3858,2403 50,2334 -1777,4123 -3562,4448l-3182 -2398c35,15 73,23 112,23l1964 0 1 10 156 0 1 -10 1899 0c191,0 347,-194 347,-431l0 -2525c0,-237 -156,-431 -347,-431l-1561 0 314 -1090zm-2983 4389c-23,-20 -43,-43 -58,-69 17,26 37,49 58,69zm288 -3299c69,-9 146,-9 232,0l-232 0zm1686 -1067l705 733 -96 333 -302 0 -307 -1067zm-1564 1325l3 0c-178,0 -324,146 -324,324l0 1898c0,17 1,33 4,49 -3,-19 -5,-38 -5,-58l0 -1891c0,-178 145,-323 323,-323z"/>
 </g>
</svg>
