<?xml version="1.0" encoding="UTF-8"?>
<!DOCTYPE svg PUBLIC "-//W3C//DTD SVG 1.1//EN" "http://www.w3.org/Graphics/SVG/1.1/DTD/svg11.dtd">
<!-- Creator: CorelDRAW X6 -->
<svg xmlns="http://www.w3.org/2000/svg" xml:space="preserve" width="8.26772in" height="11.6929in" version="1.1" style="shape-rendering:geometricPrecision; text-rendering:geometricPrecision; image-rendering:optimizeQuality; fill-rule:evenodd; clip-rule:evenodd"
viewBox="0 0 8268 11693"
 xmlns:xlink="http://www.w3.org/1999/xlink">
 <defs>
  <style type="text/css">
   <![CDATA[
    .str0 {stroke:#010080;stroke-width:3}
    .fil0 {fill:#FEFEFE}
    .fil1 {fill:#010080}
   ]]>
  </style>
 </defs>
 <g id="Layer_x0020_1">
  <metadata id="CorelCorpID_0Corel-Layer"/>
  <g id="_231521280">
   <path class="fil0 str0" d="M2798 5665l1 10 156 0 1 -10 1899 0c191,0 347,-194 347,-431l0 -2525c0,-237 -156,-431 -347,-431l-1561 0 315 -1094 -79 -23 -322 1117 -302 0 -322 -1117 -79 23 315 1094 -1988 0c-191,0 -347,194 -347,431l0 2525c0,237 156,431 347,431l1964 0zm64 -381c46,0 83,46 83,104 0,57 -37,104 -83,104 -46,0 -83,-46 -83,-104 0,-57 37,-104 83,-104zm-1827 -2747l3 0 3631 0 0 0c3,0 5,0 8,0 175,4 316,148 316,324l0 1898c0,178 -146,324 -324,324l-3631 0c-162,0 -296,-120 -320,-275 -3,-19 -5,-38 -5,-58l0 -1891c0,-178 145,-323 323,-323z"/>
   <path class="fil1 str0" d="M2862 5284c46,0 83,46 83,104 0,57 -37,104 -83,104 -46,0 -83,-46 -83,-104 0,-57 37,-104 83,-104z"/>
   <rect class="fil1 str0" x="714" y="2537" width="4279" height="2546" rx="298" ry="324"/>
  </g>
 </g>
</svg>
