<?xml version="1.0" encoding="UTF-8" standalone="no"?><svg xmlns="http://www.w3.org/2000/svg" xmlns:xlink="http://www.w3.org/1999/xlink" clip-rule="evenodd" stroke-miterlimit="4.00" viewBox="0 0 1920 1080"><desc>SVG generated by Keynote</desc><defs></defs><g transform="matrix(1.00, 0.00, -0.00, -1.00, 0.0, 1080.0)"><path d="M 0.0 1080.0 L 1920.0 1080.0 L 1920.0 0.0 L 0.0 0.0 Z M 0.0 1080.0 " fill="#FEFFFE"></path><g><clipPath id="clip-2811"><path d="M -119.0 -135.0 L 1921.0 -135.0 L 1921.0 1140.0 L -119.0 1140.0 Z M -119.0 -135.0 "></path></clipPath><g clip-path="url(#clip-2811)"><g><g><clipPath id="clip-2812"><path d="M 0.0 0.0 L 1920.0 0.0 L 1920.0 1080.0 L 0.0 1080.0 Z M 0.0 0.0 "></path></clipPath><g clip-path="url(#clip-2812)"><g opacity="0.23"><g><clipPath id="clip-2813"><path d="M -119.0 1141.6 L 1927.4 1141.6 L 1927.4 -136.6 L -119.0 -136.6 L -119.0 1141.6 Z M -119.0 1141.6 "></path></clipPath><g clip-path="url(#clip-2813)"><g><clipPath id="clip-2814"><path d="M 0.0 0.0 L 1920.0 0.0 L 1920.0 1080.0 L 0.0 1080.0 Z M 0.0 0.0 "></path></clipPath><g clip-path="url(#clip-2814)"><g><g><clipPath id="clip-2815"><path d="M 0.0 0.0 L 1920.0 0.0 L 1920.0 1080.0 L 0.0 1080.0 Z M 0.0 0.0 "></path></clipPath><g clip-path="url(#clip-2815)"><path d="M -127.0 1149.6 L 1935.3 1149.6 L 1935.3 -144.6 L -127.0 -144.6 Z M -127.0 1149.6 " fill="#FFFFFF"></path><image xlink:href="../../4CB14B03-340A-4341-8442-49BC340847BB/assets/28784051CBA7DECB8E91030F9AEB8EA9.png" width="1000.00" height="1000.00" transform="matrix(2.05, 0.00, -0.00, -2.05, -119.0, 1857.9)"></image></g></g><g><clipPath id="clip-2816"><path d="M 0.0 0.0 L 1920.0 0.0 L 1920.0 1080.0 L 0.0 1080.0 Z M 0.0 0.0 "></path></clipPath><g clip-path="url(#clip-2816)"><g><g><clipPath id="clip-2817"><path d="M 0.0 0.0 L 1920.0 0.0 L 1920.0 1080.0 L 0.0 1080.0 Z M 0.0 0.0 "></path></clipPath><g clip-path="url(#clip-2817)"><g><g><clipPath id="clip-2818"><path d="M 0.0 0.0 L 1920.0 0.0 L 1920.0 1080.0 L 0.0 1080.0 Z M 0.0 0.0 "></path></clipPath><g clip-path="url(#clip-2818)"><image xlink:href="../../4CB14B03-340A-4341-8442-49BC340847BB/assets/753040F36833B94AB714B826469AE19A.png" width="1938.00" height="1092.00" transform="matrix(1.59, 0.00, -0.00, -1.59, -587.6, 1396.6)"></image></g></g></g></g></g></g></g></g></g></g></g></g></g></g></g></g></g></g></g><image xlink:href="../../07EE9D25-BB77-436D-9C32-9B21BD4CCDC1/assets/94100E668B9416E4339C07A3617E9F91.png" width="214.00" height="13.00" transform="matrix(0.00, 1.00, 1.00, -0.00, 954.5, 265.3)" opacity="0.50"></image><path d="M 0.0 0.0 L 203.7 0.0 " fill="none" stroke="#C8C2BA" stroke-width="3.00" transform="matrix(0.00, 1.00, 1.00, 0.00, 961.0, 272.3)"></path><image xlink:href="../../07EE9D25-BB77-436D-9C32-9B21BD4CCDC1/assets/155E181315A51C75948615805755AB41.png" width="351.00" height="13.00" transform="matrix(1.00, 0.00, -0.00, -1.00, 615.0, 475.5)" opacity="0.50"></image><path d="M 0.0 0.0 L 341.0 0.0 " fill="none" stroke="#C8C2BA" stroke-width="3.00" transform="matrix(1.00, 0.00, 0.00, -1.00, 620.0, 471.0)"></path><image xlink:href="../../07EE9D25-BB77-436D-9C32-9B21BD4CCDC1/assets/155E181315A51C75948615805755AB41.png" width="351.00" height="13.00" transform="matrix(1.00, 0.00, -0.00, -1.00, 952.0, 475.5)" opacity="0.50"></image><path d="M 0.0 0.0 L 341.0 0.0 " fill="none" stroke="#C8C2BA" stroke-width="3.00" transform="matrix(1.00, 0.00, 0.00, -1.00, 957.0, 471.0)"></path><image xlink:href="../../07EE9D25-BB77-436D-9C32-9B21BD4CCDC1/assets/C7CDB8E1AD580AC8448EE534ABF7C0AB.png" width="362.00" height="18.00" transform="matrix(0.00, 1.00, 1.00, -0.00, 952.0, 462.3)" opacity="0.50"></image><path d="M 0.0 0.0 L 352.1 0.0 " fill="none" stroke="#00872A" stroke-width="8.00" transform="matrix(0.00, 1.00, 1.00, 0.00, 961.0, 469.3)"></path><image xlink:href="../../4CB14B03-340A-4341-8442-49BC340847BB/assets/8441AA333ED114A2C1EE3CAA8669164C.png" width="128.00" height="158.00" transform="matrix(1.00, 0.00, -0.00, -1.00, 896.0, 957.0)"></image><g><clipPath id="clip-2819"><path d="M 891.0 780.0 L 1030.0 780.0 L 1030.0 957.0 L 891.0 957.0 Z M 891.0 780.0 "></path></clipPath><g clip-path="url(#clip-2819)"><path d="M 584.0 949.0 C 584.0 952.3 586.7 955.0 590.0 955.0 L 698.0 955.0 C 701.3 955.0 704.0 952.3 704.0 949.0 L 704.0 811.0 C 704.0 807.7 701.3 805.0 698.0 805.0 L 590.0 805.0 C 586.7 805.0 584.0 807.7 584.0 811.0 L 584.0 949.0 Z M 584.0 949.0 " fill="#FFFFFF"></path></g></g><g><clipPath id="clip-2820"><path d="M 900.0 949.0 C 900.0 952.3 902.7 955.0 906.0 955.0 L 1014.0 955.0 C 1017.3 955.0 1020.0 952.3 1020.0 949.0 L 1020.0 811.0 C 1020.0 807.7 1017.3 805.0 1014.0 805.0 L 906.0 805.0 C 902.7 805.0 900.0 807.7 900.0 811.0 L 900.0 949.0 Z M 900.0 949.0 "></path></clipPath><g clip-path="url(#clip-2820)"><g><clipPath id="clip-2821"><path d="M 891.0 775.0 L 1030.0 775.0 L 1030.0 957.0 L 891.0 957.0 Z M 891.0 775.0 "></path></clipPath><g clip-path="url(#clip-2821)"><g><image xlink:href="../../4CB14B03-340A-4341-8442-49BC340847BB/assets/69CB384770721CC2E5FB58DC74BA5A57.png" width="120.00" height="150.00" transform="matrix(1.00, 0.00, -0.00, -1.00, 900.0, 955.0)"></image><g><clipPath id="clip-2822"><path d="M 900.0 805.0 L 1020.0 805.0 L 1020.0 955.0 L 900.0 955.0 Z M 900.0 805.0 "></path></clipPath><g clip-path="url(#clip-2822)"><path d="M 584.0 949.0 C 584.0 952.3 586.7 955.0 590.0 955.0 L 698.0 955.0 C 701.3 955.0 704.0 952.3 704.0 949.0 L 704.0 811.0 C 704.0 807.7 701.3 805.0 698.0 805.0 L 590.0 805.0 C 586.7 805.0 584.0 807.7 584.0 811.0 L 584.0 949.0 Z M 584.0 949.0 " fill="#FFFFFF"></path></g></g><g><clipPath id="clip-2823"><path d="M 900.0 805.0 L 1020.0 805.0 L 1020.0 955.0 L 900.0 955.0 Z M 900.0 805.0 "></path></clipPath><g clip-path="url(#clip-2823)"><path d="M 895.0 960.0 L 1025.0 960.0 L 1025.0 800.0 L 895.0 800.0 Z M 895.0 960.0 " fill="#FFE291"></path><image xlink:href="../../4CB14B03-340A-4341-8442-49BC340847BB/assets/CFAE94D3DE146C967986E2594A2C27D3.png" width="295.00" height="249.00" transform="matrix(0.29, 0.00, -0.00, -0.29, 920.0, 921.0)"></image></g></g><image xlink:href="../../4CB14B03-340A-4341-8442-49BC340847BB/assets/B28F6707EBB20E85E68686A3F4BF1B52.png" width="120.00" height="31.00" transform="matrix(1.00, 0.00, -0.00, -1.00, 900.0, 856.0)"></image><g><clipPath id="clip-2824"><path d="M 900.0 809.0 L 1020.0 809.0 L 1020.0 864.0 L 900.0 864.0 Z M 900.0 809.0 "></path></clipPath><g clip-path="url(#clip-2824)"><path d="M 596.0 851.0 L 716.0 851.0 L 716.0 826.0 L 596.0 826.0 L 596.0 851.0 Z M 596.0 851.0 " fill="#FFFFFF"></path></g></g><g><clipPath id="clip-2825"><path d="M 900.0 851.0 L 1020.0 851.0 L 1020.0 826.0 L 900.0 826.0 L 900.0 851.0 Z M 900.0 851.0 "></path></clipPath><g clip-path="url(#clip-2825)"><g><clipPath id="clip-2826"><path d="M 900.0 805.0 L 1020.0 805.0 L 1020.0 955.0 L 900.0 955.0 Z M 900.0 805.0 "></path></clipPath><g clip-path="url(#clip-2826)"><path d="M 895.0 856.0 L 1025.0 856.0 L 1025.0 821.0 L 895.0 821.0 Z M 895.0 856.0 " fill="#D7BD71"></path></g></g></g></g><image xlink:href="../../4CB14B03-340A-4341-8442-49BC340847BB/assets/5930CBD9E11EDD7FE1FD828CB4131200.png" width="18.00" height="20.00" transform="matrix(1.00, 0.00, -0.00, -1.00, 994.0, 949.0)"></image><g><clipPath id="clip-2827"><path d="M 988.0 921.0 L 1020.0 921.0 L 1020.0 955.0 L 988.0 955.0 Z M 988.0 921.0 "></path></clipPath><g clip-path="url(#clip-2827)"><image xlink:href="../../4CB14B03-340A-4341-8442-49BC340847BB/assets/E62ADDD91978E5B0F6496E51F04F3C9B.png" width="1377.00" height="1453.00" transform="matrix(0.01, 0.00, -0.00, -0.01, 931.0, 948.0)"></image></g></g><g><clipPath id="clip-2828"><path d="M 900.0 805.0 L 1020.0 805.0 L 1020.0 955.0 L 900.0 955.0 Z M 900.0 805.0 "></path></clipPath><g clip-path="url(#clip-2828)"><image xlink:href="../../4CB14B03-340A-4341-8442-49BC340847BB/assets/E62ADDD91978E5B0F6496E51F04F3C9B.png" width="1377.00" height="1453.00" transform="matrix(0.01, 0.00, -0.00, -0.01, 995.0, 948.0)"></image><text xml:space="preserve" font-family="AvenirNextCondensed-Medium" font-size="15.0" fill="#000000" transform="matrix(1.00, 0.00, -0.00, -1.00, 933.5, 833.0)">A</text><text xml:space="preserve" font-family="AvenirNextCondensed-Medium" font-size="15.0" fill="#000000" transform="matrix(1.00, 0.00, -0.00, -1.00, 940.8, 833.0)">t</text><text xml:space="preserve" font-family="AvenirNextCondensed-Medium" font-size="15.0" fill="#000000" transform="matrix(1.00, 0.00, -0.00, -1.00, 944.8, 833.0)">h</text><text xml:space="preserve" font-family="AvenirNextCondensed-Medium" font-size="15.0" fill="#000000" transform="matrix(1.00, 0.00, -0.00, -1.00, 952.0, 833.0)">l</text><text xml:space="preserve" font-family="AvenirNextCondensed-Medium" font-size="15.0" fill="#000000" transform="matrix(1.00, 0.00, -0.00, -1.00, 955.5, 833.0)">o</text><text xml:space="preserve" font-family="AvenirNextCondensed-Medium" font-size="15.0" fill="#000000" transform="matrix(1.00, 0.00, -0.00, -1.00, 962.3, 833.0)">n</text><text xml:space="preserve" font-family="AvenirNextCondensed-Medium" font-size="15.0" fill="#000000" transform="matrix(1.00, 0.00, -0.00, -1.00, 969.6, 833.0)"> </text><text xml:space="preserve" font-family="AvenirNextCondensed-Medium" font-size="15.0" fill="#000000" transform="matrix(1.00, 0.00, -0.00, -1.00, 972.2, 833.0)">X</text><text xml:space="preserve" font-family="AvenirNextCondensed-Medium" font-size="15.0" fill="#000000" transform="matrix(1.00, 0.00, -0.00, -1.00, 979.3, 833.0)">4</text><text xml:space="preserve" font-family="AvenirNextCondensed-Medium" font-size="15.0" fill="#000000" transform="matrix(1.00, 0.00, -0.00, -1.00, 949.2, 810.0)">$</text><text xml:space="preserve" font-family="AvenirNextCondensed-Medium" font-size="15.0" fill="#000000" transform="matrix(1.00, 0.00, -0.00, -1.00, 956.4, 810.0)">8</text><text xml:space="preserve" font-family="AvenirNextCondensed-Medium" font-size="15.0" fill="#000000" transform="matrix(1.00, 0.00, -0.00, -1.00, 963.6, 810.0)">5</text><text xml:space="preserve" font-family="AvenirNextCondensed-Medium" font-size="26.0" fill="#000000" transform="matrix(1.00, 0.00, -0.00, -1.00, 908.0, 929.0)">6</text><text xml:space="preserve" font-family="AvenirNextCondensed-Medium" font-size="26.0" fill="#000000" transform="matrix(1.00, 0.00, -0.00, -1.00, 920.5, 929.0)">8</text></g></g></g></g></g></g></g><g><clipPath id="clip-2829"><path d="M 891.0 775.0 L 1030.0 775.0 L 1030.0 957.0 L 891.0 957.0 Z M 891.0 775.0 "></path></clipPath><g clip-path="url(#clip-2829)"><path d="M 0.0 0.0 " fill="none" stroke="#969696" stroke-width="1.00" stroke-miterlimit="0.00" transform="matrix(1.00, 0.00, 0.00, -1.00, 900.5, 805.9)"></path></g></g><g><clipPath id="clip-2830"><path d="M 960.1 807.1 L 905.5 807.1 L 901.1 832.3 L 891.5 832.3 L 897.5 776.4 L 960.1 776.4 L 1022.8 776.4 L 1028.7 832.3 L 1019.2 832.3 L 1014.8 807.1 L 960.1 807.1 Z M 960.1 807.1 "></path></clipPath><g clip-path="url(#clip-2830)"><g><clipPath id="clip-2831"><path d="M 891.0 775.0 L 1030.0 775.0 L 1030.0 833.5 L 891.0 833.5 Z M 891.0 775.0 "></path></clipPath><g clip-path="url(#clip-2831)"><path d="M 886.5 837.3 L 1033.7 837.3 L 1033.7 771.4 L 886.5 771.4 Z M 886.5 837.3 " fill="#3D3737"></path></g></g></g></g><g><clipPath id="clip-2832"><path d="M 891.0 775.0 L 1030.0 775.0 L 1030.0 833.5 L 891.0 833.5 Z M 891.0 775.0 "></path></clipPath><g clip-path="url(#clip-2832)"><path d="M 68.6 25.2 L 14.0 25.2 L 9.5 0.0 L 0.0 0.0 L 6.0 55.9 L 68.6 55.9 L 131.2 55.9 L 137.2 0.0 L 127.7 0.0 L 123.2 25.2 L 68.6 25.2 Z M 68.6 25.2 " fill="none" stroke="#CACACA" stroke-width="1.00" stroke-miterlimit="0.00" transform="matrix(1.00, 0.00, 0.00, -1.00, 891.5, 832.3)"></path><text xml:space="preserve" font-family="AvenirNextCondensed-Bold" font-weight="bold" font-size="13.0" fill="#ABABAB" transform="matrix(1.00, 0.00, -0.00, -1.00, 950.7, 789.1)">C</text><text xml:space="preserve" font-family="AvenirNextCondensed-Bold" font-weight="bold" font-size="13.0" fill="#ABABAB" transform="matrix(1.00, 0.00, -0.00, -1.00, 957.4, 789.1)">P</text><text xml:space="preserve" font-family="AvenirNextCondensed-Bold" font-weight="bold" font-size="13.0" fill="#ABABAB" transform="matrix(1.00, 0.00, -0.00, -1.00, 964.1, 789.1)">U</text></g></g><image xlink:href="../../4CB14B03-340A-4341-8442-49BC340847BB/assets/8441AA333ED114A2C1EE3CAA8669164C.png" width="128.00" height="158.00" transform="matrix(1.00, 0.00, -0.00, -1.00, 897.0, 631.0)"></image><g><clipPath id="clip-2833"><path d="M 897.0 473.0 L 1025.0 473.0 L 1025.0 631.0 L 897.0 631.0 Z M 897.0 473.0 "></path></clipPath><g clip-path="url(#clip-2833)"><path d="M 585.0 623.0 C 585.0 626.3 587.7 629.0 591.0 629.0 L 699.0 629.0 C 702.3 629.0 705.0 626.3 705.0 623.0 L 705.0 485.0 C 705.0 481.7 702.3 479.0 699.0 479.0 L 591.0 479.0 C 587.7 479.0 585.0 481.7 585.0 485.0 L 585.0 623.0 Z M 585.0 623.0 " fill="#FFFFFF"></path></g></g><g><clipPath id="clip-2834"><path d="M 901.0 623.0 C 901.0 626.3 903.7 629.0 907.0 629.0 L 1015.0 629.0 C 1018.3 629.0 1021.0 626.3 1021.0 623.0 L 1021.0 485.0 C 1021.0 481.7 1018.3 479.0 1015.0 479.0 L 907.0 479.0 C 903.7 479.0 901.0 481.7 901.0 485.0 L 901.0 623.0 Z M 901.0 623.0 "></path></clipPath><g clip-path="url(#clip-2834)"><g><clipPath id="clip-2835"><path d="M 897.0 473.0 L 1025.0 473.0 L 1025.0 631.0 L 897.0 631.0 Z M 897.0 473.0 "></path></clipPath><g clip-path="url(#clip-2835)"><g><image xlink:href="../../4CB14B03-340A-4341-8442-49BC340847BB/assets/69CB384770721CC2E5FB58DC74BA5A57.png" width="120.00" height="150.00" transform="matrix(1.00, 0.00, -0.00, -1.00, 901.0, 629.0)"></image><g><clipPath id="clip-2836"><path d="M 901.0 479.0 L 1021.0 479.0 L 1021.0 629.0 L 901.0 629.0 Z M 901.0 479.0 "></path></clipPath><g clip-path="url(#clip-2836)"><path d="M 585.0 623.0 C 585.0 626.3 587.7 629.0 591.0 629.0 L 699.0 629.0 C 702.3 629.0 705.0 626.3 705.0 623.0 L 705.0 485.0 C 705.0 481.7 702.3 479.0 699.0 479.0 L 591.0 479.0 C 587.7 479.0 585.0 481.7 585.0 485.0 L 585.0 623.0 Z M 585.0 623.0 " fill="#FFFFFF"></path></g></g><g><clipPath id="clip-2837"><path d="M 901.0 479.0 L 1021.0 479.0 L 1021.0 629.0 L 901.0 629.0 Z M 901.0 479.0 "></path></clipPath><g clip-path="url(#clip-2837)"><path d="M 896.0 634.0 L 1026.0 634.0 L 1026.0 474.0 L 896.0 474.0 Z M 896.0 634.0 " fill="#FFE291"></path><image xlink:href="../../86C23161-7833-4B5D-970E-9F70E31A29CD/assets/1E338099411E42E27976DDB1D129A73F.png" width="600.00" height="480.00" transform="matrix(0.20, 0.00, -0.00, -0.20, 899.0, 608.0)"></image></g></g><image xlink:href="../../4CB14B03-340A-4341-8442-49BC340847BB/assets/B28F6707EBB20E85E68686A3F4BF1B52.png" width="120.00" height="31.00" transform="matrix(1.00, 0.00, -0.00, -1.00, 901.0, 530.0)"></image><g><clipPath id="clip-2838"><path d="M 901.0 483.0 L 1021.0 483.0 L 1021.0 538.0 L 901.0 538.0 Z M 901.0 483.0 "></path></clipPath><g clip-path="url(#clip-2838)"><path d="M 597.0 525.0 L 717.0 525.0 L 717.0 500.0 L 597.0 500.0 L 597.0 525.0 Z M 597.0 525.0 " fill="#FFFFFF"></path></g></g><g><clipPath id="clip-2839"><path d="M 901.0 525.0 L 1021.0 525.0 L 1021.0 500.0 L 901.0 500.0 L 901.0 525.0 Z M 901.0 525.0 "></path></clipPath><g clip-path="url(#clip-2839)"><g><clipPath id="clip-2840"><path d="M 901.0 479.0 L 1021.0 479.0 L 1021.0 629.0 L 901.0 629.0 Z M 901.0 479.0 "></path></clipPath><g clip-path="url(#clip-2840)"><path d="M 896.0 530.0 L 1026.0 530.0 L 1026.0 495.0 L 896.0 495.0 Z M 896.0 530.0 " fill="#D7BD71"></path></g></g></g></g><image xlink:href="../../86C23161-7833-4B5D-970E-9F70E31A29CD/assets/82BB36C39920A6685B1B7C7CCB8F98E6.png" width="33.00" height="39.00" transform="matrix(1.00, 0.00, -0.00, -1.00, 988.0, 629.0)"></image><g><clipPath id="clip-2841"><path d="M 982.0 582.0 L 1021.0 582.0 L 1021.0 629.0 L 982.0 629.0 Z M 982.0 582.0 "></path></clipPath><g clip-path="url(#clip-2841)"><image xlink:href="../../86C23161-7833-4B5D-970E-9F70E31A29CD/assets/66F00A54011FCB86A3A02996CEFE1DB0.png" width="1344.00" height="1600.00" transform="matrix(0.02, 0.00, -0.00, -0.02, 893.0, 629.0)"></image></g></g><g><clipPath id="clip-2842"><path d="M 901.0 479.0 L 1021.0 479.0 L 1021.0 629.0 L 901.0 629.0 Z M 901.0 479.0 "></path></clipPath><g clip-path="url(#clip-2842)"><image xlink:href="../../86C23161-7833-4B5D-970E-9F70E31A29CD/assets/66F00A54011FCB86A3A02996CEFE1DB0.png" width="1344.00" height="1600.00" transform="matrix(0.02, 0.00, -0.00, -0.02, 989.0, 629.0)"></image><text xml:space="preserve" font-family="AvenirNextCondensed-Medium" font-size="15.0" fill="#000000" transform="matrix(1.00, 0.00, -0.00, -1.00, 927.1, 507.0)">G</text><text xml:space="preserve" font-family="AvenirNextCondensed-Medium" font-size="15.0" fill="#000000" transform="matrix(1.00, 0.00, -0.00, -1.00, 935.2, 507.0)">a</text><text xml:space="preserve" font-family="AvenirNextCondensed-Medium" font-size="15.0" fill="#000000" transform="matrix(1.00, 0.00, -0.00, -1.00, 941.5, 507.0)">m</text><text xml:space="preserve" font-family="AvenirNextCondensed-Medium" font-size="15.0" fill="#000000" transform="matrix(1.00, 0.00, -0.00, -1.00, 952.4, 507.0)">i</text><text xml:space="preserve" font-family="AvenirNextCondensed-Medium" font-size="15.0" fill="#000000" transform="matrix(1.00, 0.00, -0.00, -1.00, 955.9, 507.0)">n</text><text xml:space="preserve" font-family="AvenirNextCondensed-Medium" font-size="15.0" fill="#000000" transform="matrix(1.00, 0.00, -0.00, -1.00, 963.1, 507.0)">g</text><text xml:space="preserve" font-family="AvenirNextCondensed-Medium" font-size="15.0" fill="#000000" transform="matrix(1.00, 0.00, -0.00, -1.00, 970.3, 507.0)"> </text><text xml:space="preserve" font-family="AvenirNextCondensed-Medium" font-size="15.0" fill="#000000" transform="matrix(1.00, 0.00, -0.00, -1.00, 973.2, 507.0)">9</text><text xml:space="preserve" font-family="AvenirNextCondensed-Medium" font-size="15.0" fill="#000000" transform="matrix(1.00, 0.00, -0.00, -1.00, 980.4, 507.0)">7</text><text xml:space="preserve" font-family="AvenirNextCondensed-Medium" font-size="15.0" fill="#000000" transform="matrix(1.00, 0.00, -0.00, -1.00, 987.6, 507.0)">0</text><text xml:space="preserve" font-family="AvenirNextCondensed-Medium" font-size="15.0" fill="#000000" transform="matrix(1.00, 0.00, -0.00, -1.00, 946.5, 484.0)">$</text><text xml:space="preserve" font-family="AvenirNextCondensed-Medium" font-size="15.0" fill="#000000" transform="matrix(1.00, 0.00, -0.00, -1.00, 953.8, 484.0)">1</text><text xml:space="preserve" font-family="AvenirNextCondensed-Medium" font-size="15.0" fill="#000000" transform="matrix(1.00, 0.00, -0.00, -1.00, 961.0, 484.0)">0</text><text xml:space="preserve" font-family="AvenirNextCondensed-Medium" font-size="15.0" fill="#000000" transform="matrix(1.00, 0.00, -0.00, -1.00, 968.2, 484.0)">0</text><text xml:space="preserve" font-family="AvenirNextCondensed-Medium" font-size="26.0" fill="#000000" transform="matrix(1.00, 0.00, -0.00, -1.00, 909.0, 601.0)">7</text><text xml:space="preserve" font-family="AvenirNextCondensed-Medium" font-size="26.0" fill="#000000" transform="matrix(1.00, 0.00, -0.00, -1.00, 921.5, 601.0)">2</text></g></g></g></g></g></g></g><g><clipPath id="clip-2843"><path d="M 897.0 473.0 L 1025.0 473.0 L 1025.0 631.0 L 897.0 631.0 Z M 897.0 473.0 "></path></clipPath><g clip-path="url(#clip-2843)"><path d="M 0.0 0.0 " fill="none" stroke="#969696" stroke-width="1.00" stroke-miterlimit="0.00" transform="matrix(1.00, 0.00, 0.00, -1.00, 901.5, 479.9)"></path></g></g><g><clipPath id="clip-2844"><path d="M 961.6 479.6 L 907.0 479.6 L 902.5 504.8 L 893.0 504.8 L 899.0 448.9 L 961.6 448.9 L 1024.2 448.9 L 1030.2 504.8 L 1020.7 504.8 L 1016.2 479.6 L 961.6 479.6 Z M 961.6 479.6 "></path></clipPath><g clip-path="url(#clip-2844)"><g><clipPath id="clip-2845"><path d="M 892.0 448.0 L 1031.0 448.0 L 1031.0 506.0 L 892.0 506.0 Z M 892.0 448.0 "></path></clipPath><g clip-path="url(#clip-2845)"><path d="M 888.0 509.8 L 1035.2 509.8 L 1035.2 443.9 L 888.0 443.9 Z M 888.0 509.8 " fill="#3D3737"></path></g></g></g></g><g><clipPath id="clip-2846"><path d="M 892.0 448.0 L 1031.0 448.0 L 1031.0 506.0 L 892.0 506.0 Z M 892.0 448.0 "></path></clipPath><g clip-path="url(#clip-2846)"><path d="M 68.6 25.2 L 14.0 25.2 L 9.5 0.0 L 0.0 0.0 L 6.0 55.9 L 68.6 55.9 L 131.2 55.9 L 137.2 0.0 L 127.7 0.0 L 123.2 25.2 L 68.6 25.2 Z M 68.6 25.2 " fill="none" stroke="#CACACA" stroke-width="1.00" stroke-miterlimit="0.00" transform="matrix(1.00, 0.00, 0.00, -1.00, 893.0, 504.8)"></path><text xml:space="preserve" font-family="AvenirNextCondensed-Bold" font-weight="bold" font-size="13.0" fill="#ABABAB" transform="matrix(1.00, 0.00, -0.00, -1.00, 922.4, 461.6)">M</text><text xml:space="preserve" font-family="AvenirNextCondensed-Bold" font-weight="bold" font-size="13.0" fill="#ABABAB" transform="matrix(1.00, 0.00, -0.00, -1.00, 932.4, 461.6)">O</text><text xml:space="preserve" font-family="AvenirNextCondensed-Bold" font-weight="bold" font-size="13.0" fill="#ABABAB" transform="matrix(1.00, 0.00, -0.00, -1.00, 940.0, 461.6)">T</text><text xml:space="preserve" font-family="AvenirNextCondensed-Bold" font-weight="bold" font-size="13.0" fill="#ABABAB" transform="matrix(1.00, 0.00, -0.00, -1.00, 945.4, 461.6)">H</text><text xml:space="preserve" font-family="AvenirNextCondensed-Bold" font-weight="bold" font-size="13.0" fill="#ABABAB" transform="matrix(1.00, 0.00, -0.00, -1.00, 953.3, 461.6)">E</text><text xml:space="preserve" font-family="AvenirNextCondensed-Bold" font-weight="bold" font-size="13.0" fill="#ABABAB" transform="matrix(1.00, 0.00, -0.00, -1.00, 959.1, 461.6)">R</text><text xml:space="preserve" font-family="AvenirNextCondensed-Bold" font-weight="bold" font-size="13.0" fill="#ABABAB" transform="matrix(1.00, 0.00, -0.00, -1.00, 966.2, 461.6)">B</text><text xml:space="preserve" font-family="AvenirNextCondensed-Bold" font-weight="bold" font-size="13.0" fill="#ABABAB" transform="matrix(1.00, 0.00, -0.00, -1.00, 973.2, 461.6)">O</text><text xml:space="preserve" font-family="AvenirNextCondensed-Bold" font-weight="bold" font-size="13.0" fill="#ABABAB" transform="matrix(1.00, 0.00, -0.00, -1.00, 981.1, 461.6)">A</text><text xml:space="preserve" font-family="AvenirNextCondensed-Bold" font-weight="bold" font-size="13.0" fill="#ABABAB" transform="matrix(1.00, 0.00, -0.00, -1.00, 988.2, 461.6)">R</text><text xml:space="preserve" font-family="AvenirNextCondensed-Bold" font-weight="bold" font-size="13.0" fill="#ABABAB" transform="matrix(1.00, 0.00, -0.00, -1.00, 995.2, 461.6)">D</text></g></g><image xlink:href="../../4CB14B03-340A-4341-8442-49BC340847BB/assets/F5701000CDC9F447BF51C552447EC8EE.png" width="128.00" height="159.00" transform="matrix(1.00, 0.00, -0.00, -1.00, 596.0, 631.0)"></image><g><clipPath id="clip-2847"><path d="M 596.0 472.0 L 724.0 472.0 L 724.0 631.0 L 596.0 631.0 Z M 596.0 472.0 "></path></clipPath><g clip-path="url(#clip-2847)"><path d="M 284.0 623.0 C 284.0 626.3 286.7 629.0 290.0 629.0 L 398.0 629.0 C 401.3 629.0 404.0 626.3 404.0 623.0 L 404.0 484.0 C 404.0 480.7 401.3 478.0 398.0 478.0 L 290.0 478.0 C 286.7 478.0 284.0 480.7 284.0 484.0 L 284.0 623.0 Z M 284.0 623.0 " fill="#FFFFFF"></path></g></g><g><clipPath id="clip-2848"><path d="M 600.0 623.0 C 600.0 626.3 602.7 629.0 606.0 629.0 L 714.0 629.0 C 717.3 629.0 720.0 626.3 720.0 623.0 L 720.0 484.0 C 720.0 480.7 717.3 478.0 714.0 478.0 L 606.0 478.0 C 602.7 478.0 600.0 480.7 600.0 484.0 L 600.0 623.0 Z M 600.0 623.0 "></path></clipPath><g clip-path="url(#clip-2848)"><g><clipPath id="clip-2849"><path d="M 596.0 472.0 L 724.0 472.0 L 724.0 631.0 L 596.0 631.0 Z M 596.0 472.0 "></path></clipPath><g clip-path="url(#clip-2849)"><path d="M 595.0 634.0 L 725.0 634.0 L 725.0 473.0 L 595.0 473.0 Z M 595.0 634.0 " fill="#737373"></path></g></g></g></g><g><clipPath id="clip-2850"><path d="M 666.6 544.2 L 666.6 525.5 L 655.0 525.5 L 655.0 544.2 L 636.0 544.2 L 636.0 555.5 L 654.9 555.5 L 654.9 574.2 L 666.5 574.2 L 666.5 555.5 L 685.5 555.5 L 685.5 544.2 L 666.6 544.2 Z M 666.6 544.2 "></path></clipPath><g clip-path="url(#clip-2850)"><g><clipPath id="clip-2851"><path d="M 596.0 472.0 L 724.0 472.0 L 724.0 631.0 L 596.0 631.0 Z M 596.0 472.0 "></path></clipPath><g clip-path="url(#clip-2851)"><path d="M 631.0 579.2 L 690.5 579.2 L 690.5 520.5 L 631.0 520.5 Z M 631.0 579.2 " fill="#50524E"></path></g></g></g></g><image xlink:href="../../4CB14B03-340A-4341-8442-49BC340847BB/assets/2CFAAE57BDDE3CDB62CADDC02D18219D.png" width="51.00" height="50.00" transform="matrix(1.00, 0.00, -0.00, -1.00, 635.0, 575.0)"></image><g><clipPath id="clip-2852"><path d="M 666.6 544.2 L 666.6 525.5 L 655.0 525.5 L 655.0 544.2 L 636.0 544.2 L 636.0 555.5 L 654.9 555.5 L 654.9 574.2 L 666.5 574.2 L 666.5 555.5 L 685.5 555.5 L 685.5 544.2 L 666.6 544.2 Z M 666.6 544.2 "></path></clipPath><g clip-path="url(#clip-2852)"><g><clipPath id="clip-2853"><path d="M 596.0 472.0 L 724.0 472.0 L 724.0 631.0 L 596.0 631.0 Z M 596.0 472.0 "></path></clipPath><g clip-path="url(#clip-2853)"><path d="M 464.0 586.2 L 544.0 586.2 L 544.0 506.2 L 464.0 506.2 Z M 506.6 544.2 L 506.6 525.5 L 495.0 525.5 L 495.0 544.2 L 476.0 544.2 L 476.0 555.5 L 494.9 555.5 L 494.9 574.2 L 506.5 574.2 L 506.5 555.5 L 525.5 555.5 L 525.5 544.2 L 506.6 544.2 Z M 506.6 544.2 " fill="#FFFFFF"></path></g></g></g></g><image xlink:href="../../4CB14B03-340A-4341-8442-49BC340847BB/assets/F5701000CDC9F447BF51C552447EC8EE.png" width="128.00" height="159.00" transform="matrix(1.00, 0.00, -0.00, -1.00, 1198.0, 631.0)"></image><g><clipPath id="clip-2854"><path d="M 1198.0 472.0 L 1326.0 472.0 L 1326.0 631.0 L 1198.0 631.0 Z M 1198.0 472.0 "></path></clipPath><g clip-path="url(#clip-2854)"><path d="M 886.0 623.0 C 886.0 626.3 888.7 629.0 892.0 629.0 L 1000.0 629.0 C 1003.3 629.0 1006.0 626.3 1006.0 623.0 L 1006.0 484.0 C 1006.0 480.7 1003.3 478.0 1000.0 478.0 L 892.0 478.0 C 888.7 478.0 886.0 480.7 886.0 484.0 L 886.0 623.0 Z M 886.0 623.0 " fill="#FFFFFF"></path></g></g><g><clipPath id="clip-2855"><path d="M 1202.0 623.0 C 1202.0 626.3 1204.7 629.0 1208.0 629.0 L 1316.0 629.0 C 1319.3 629.0 1322.0 626.3 1322.0 623.0 L 1322.0 484.0 C 1322.0 480.7 1319.3 478.0 1316.0 478.0 L 1208.0 478.0 C 1204.7 478.0 1202.0 480.7 1202.0 484.0 L 1202.0 623.0 Z M 1202.0 623.0 "></path></clipPath><g clip-path="url(#clip-2855)"><g><clipPath id="clip-2856"><path d="M 1198.0 472.0 L 1326.0 472.0 L 1326.0 631.0 L 1198.0 631.0 Z M 1198.0 472.0 "></path></clipPath><g clip-path="url(#clip-2856)"><path d="M 1197.0 634.0 L 1327.0 634.0 L 1327.0 473.0 L 1197.0 473.0 Z M 1197.0 634.0 " fill="#737373"></path></g></g></g></g><g><clipPath id="clip-2857"><path d="M 1268.6 544.2 L 1268.6 525.5 L 1257.0 525.5 L 1257.0 544.2 L 1238.0 544.2 L 1238.0 555.5 L 1256.9 555.5 L 1256.9 574.2 L 1268.5 574.2 L 1268.5 555.5 L 1287.5 555.5 L 1287.5 544.2 L 1268.6 544.2 Z M 1268.6 544.2 "></path></clipPath><g clip-path="url(#clip-2857)"><g><clipPath id="clip-2858"><path d="M 1198.0 472.0 L 1326.0 472.0 L 1326.0 631.0 L 1198.0 631.0 Z M 1198.0 472.0 "></path></clipPath><g clip-path="url(#clip-2858)"><path d="M 1233.0 579.2 L 1292.5 579.2 L 1292.5 520.5 L 1233.0 520.5 Z M 1233.0 579.2 " fill="#50524E"></path></g></g></g></g><image xlink:href="../../4CB14B03-340A-4341-8442-49BC340847BB/assets/2CFAAE57BDDE3CDB62CADDC02D18219D.png" width="51.00" height="50.00" transform="matrix(1.00, 0.00, -0.00, -1.00, 1237.0, 575.0)"></image><g><clipPath id="clip-2859"><path d="M 1268.6 544.2 L 1268.6 525.5 L 1257.0 525.5 L 1257.0 544.2 L 1238.0 544.2 L 1238.0 555.5 L 1256.9 555.5 L 1256.9 574.2 L 1268.5 574.2 L 1268.5 555.5 L 1287.5 555.5 L 1287.5 544.2 L 1268.6 544.2 Z M 1268.6 544.2 "></path></clipPath><g clip-path="url(#clip-2859)"><g><clipPath id="clip-2860"><path d="M 1198.0 472.0 L 1326.0 472.0 L 1326.0 631.0 L 1198.0 631.0 Z M 1198.0 472.0 "></path></clipPath><g clip-path="url(#clip-2860)"><path d="M 1066.0 586.2 L 1146.0 586.2 L 1146.0 506.2 L 1066.0 506.2 Z M 1108.6 544.2 L 1108.6 525.5 L 1097.0 525.5 L 1097.0 544.2 L 1078.0 544.2 L 1078.0 555.5 L 1096.9 555.5 L 1096.9 574.2 L 1108.5 574.2 L 1108.5 555.5 L 1127.5 555.5 L 1127.5 544.2 L 1108.6 544.2 Z M 1108.6 544.2 " fill="#FFFFFF"></path></g></g></g></g><image xlink:href="../../4CB14B03-340A-4341-8442-49BC340847BB/assets/F5701000CDC9F447BF51C552447EC8EE.png" width="128.00" height="159.00" transform="matrix(1.00, 0.00, -0.00, -1.00, 897.0, 329.0)"></image><g><clipPath id="clip-2861"><path d="M 897.0 170.0 L 1025.0 170.0 L 1025.0 329.0 L 897.0 329.0 Z M 897.0 170.0 "></path></clipPath><g clip-path="url(#clip-2861)"><path d="M 585.0 321.0 C 585.0 324.3 587.7 327.0 591.0 327.0 L 699.0 327.0 C 702.3 327.0 705.0 324.3 705.0 321.0 L 705.0 182.0 C 705.0 178.7 702.3 176.0 699.0 176.0 L 591.0 176.0 C 587.7 176.0 585.0 178.7 585.0 182.0 L 585.0 321.0 Z M 585.0 321.0 " fill="#FFFFFF"></path></g></g><g><clipPath id="clip-2862"><path d="M 901.0 321.0 C 901.0 324.3 903.7 327.0 907.0 327.0 L 1015.0 327.0 C 1018.3 327.0 1021.0 324.3 1021.0 321.0 L 1021.0 182.0 C 1021.0 178.7 1018.3 176.0 1015.0 176.0 L 907.0 176.0 C 903.7 176.0 901.0 178.7 901.0 182.0 L 901.0 321.0 Z M 901.0 321.0 "></path></clipPath><g clip-path="url(#clip-2862)"><g><clipPath id="clip-2863"><path d="M 897.0 170.0 L 1025.0 170.0 L 1025.0 329.0 L 897.0 329.0 Z M 897.0 170.0 "></path></clipPath><g clip-path="url(#clip-2863)"><path d="M 896.0 332.0 L 1026.0 332.0 L 1026.0 171.0 L 896.0 171.0 Z M 896.0 332.0 " fill="#737373"></path></g></g></g></g><g><clipPath id="clip-2864"><path d="M 967.6 242.2 L 967.6 223.5 L 956.0 223.5 L 956.0 242.2 L 937.0 242.2 L 937.0 253.5 L 955.9 253.5 L 955.9 272.2 L 967.5 272.2 L 967.5 253.5 L 986.5 253.5 L 986.5 242.2 L 967.6 242.2 Z M 967.6 242.2 "></path></clipPath><g clip-path="url(#clip-2864)"><g><clipPath id="clip-2865"><path d="M 897.0 170.0 L 1025.0 170.0 L 1025.0 329.0 L 897.0 329.0 Z M 897.0 170.0 "></path></clipPath><g clip-path="url(#clip-2865)"><path d="M 932.0 277.2 L 991.5 277.2 L 991.5 218.5 L 932.0 218.5 Z M 932.0 277.2 " fill="#50524E"></path></g></g></g></g><image xlink:href="../../4CB14B03-340A-4341-8442-49BC340847BB/assets/2CFAAE57BDDE3CDB62CADDC02D18219D.png" width="51.00" height="50.00" transform="matrix(1.00, 0.00, -0.00, -1.00, 936.0, 273.0)"></image><g><clipPath id="clip-2866"><path d="M 967.6 242.2 L 967.6 223.5 L 956.0 223.5 L 956.0 242.2 L 937.0 242.2 L 937.0 253.5 L 955.9 253.5 L 955.9 272.2 L 967.5 272.2 L 967.5 253.5 L 986.5 253.5 L 986.5 242.2 L 967.6 242.2 Z M 967.6 242.2 "></path></clipPath><g clip-path="url(#clip-2866)"><g><clipPath id="clip-2867"><path d="M 897.0 170.0 L 1025.0 170.0 L 1025.0 329.0 L 897.0 329.0 Z M 897.0 170.0 "></path></clipPath><g clip-path="url(#clip-2867)"><path d="M 765.0 284.2 L 845.0 284.2 L 845.0 204.2 L 765.0 204.2 Z M 807.6 242.2 L 807.6 223.5 L 796.0 223.5 L 796.0 242.2 L 777.0 242.2 L 777.0 253.5 L 795.9 253.5 L 795.9 272.2 L 807.5 272.2 L 807.5 253.5 L 826.5 253.5 L 826.5 242.2 L 807.6 242.2 Z M 807.6 242.2 " fill="#FFFFFF"></path></g></g></g></g><g><clipPath id="clip-2868"><path d="M 1262.6 478.6 L 1208.0 478.6 L 1203.5 503.8 L 1194.0 503.8 L 1200.0 447.9 L 1262.6 447.9 L 1325.2 447.9 L 1331.2 503.8 L 1321.7 503.8 L 1317.2 478.6 L 1262.6 478.6 Z M 1262.6 478.6 "></path></clipPath><g clip-path="url(#clip-2868)"><g><clipPath id="clip-2869"><path d="M 1193.0 447.0 L 1332.0 447.0 L 1332.0 505.0 L 1193.0 505.0 Z M 1193.0 447.0 "></path></clipPath><g clip-path="url(#clip-2869)"><path d="M 1189.0 508.8 L 1336.2 508.8 L 1336.2 442.9 L 1189.0 442.9 Z M 1189.0 508.8 " fill="#3D3737"></path></g></g></g></g><g><clipPath id="clip-2870"><path d="M 1193.0 447.0 L 1332.0 447.0 L 1332.0 505.0 L 1193.0 505.0 Z M 1193.0 447.0 "></path></clipPath><g clip-path="url(#clip-2870)"><path d="M 68.6 25.2 L 14.0 25.2 L 9.5 0.0 L 0.0 0.0 L 6.0 55.9 L 68.6 55.9 L 131.2 55.9 L 137.2 0.0 L 127.7 0.0 L 123.2 25.2 L 68.6 25.2 Z M 68.6 25.2 " fill="none" stroke="#CACACA" stroke-width="1.00" stroke-miterlimit="0.00" transform="matrix(1.00, 0.00, 0.00, -1.00, 1194.0, 503.8)"></path><text xml:space="preserve" font-family="AvenirNextCondensed-Bold" font-weight="bold" font-size="13.0" fill="#ABABAB" transform="matrix(1.00, 0.00, -0.00, -1.00, 1251.6, 460.6)">R</text><text xml:space="preserve" font-family="AvenirNextCondensed-Bold" font-weight="bold" font-size="13.0" fill="#ABABAB" transform="matrix(1.00, 0.00, -0.00, -1.00, 1258.6, 460.6)">A</text><text xml:space="preserve" font-family="AvenirNextCondensed-Bold" font-weight="bold" font-size="13.0" fill="#ABABAB" transform="matrix(1.00, 0.00, -0.00, -1.00, 1265.7, 460.6)">M</text></g></g><g><clipPath id="clip-2871"><path d="M 659.6 479.6 L 605.0 479.6 L 600.5 504.8 L 591.0 504.8 L 597.0 448.9 L 659.6 448.9 L 722.2 448.9 L 728.2 504.8 L 718.7 504.8 L 714.2 479.6 L 659.6 479.6 Z M 659.6 479.6 "></path></clipPath><g clip-path="url(#clip-2871)"><g><clipPath id="clip-2872"><path d="M 590.0 448.0 L 729.0 448.0 L 729.0 506.0 L 590.0 506.0 Z M 590.0 448.0 "></path></clipPath><g clip-path="url(#clip-2872)"><path d="M 586.0 509.8 L 733.2 509.8 L 733.2 443.9 L 586.0 443.9 Z M 586.0 509.8 " fill="#3D3737"></path></g></g></g></g><g><clipPath id="clip-2873"><path d="M 590.0 448.0 L 729.0 448.0 L 729.0 506.0 L 590.0 506.0 Z M 590.0 448.0 "></path></clipPath><g clip-path="url(#clip-2873)"><path d="M 68.6 25.2 L 14.0 25.2 L 9.5 0.0 L 0.0 0.0 L 6.0 55.9 L 68.6 55.9 L 131.2 55.9 L 137.2 0.0 L 127.7 0.0 L 123.2 25.2 L 68.6 25.2 Z M 68.6 25.2 " fill="none" stroke="#CACACA" stroke-width="1.00" stroke-miterlimit="0.00" transform="matrix(1.00, 0.00, 0.00, -1.00, 591.0, 504.8)"></path><text xml:space="preserve" font-family="AvenirNextCondensed-Bold" font-weight="bold" font-size="13.0" fill="#ABABAB" transform="matrix(1.00, 0.00, -0.00, -1.00, 649.8, 461.6)">G</text><text xml:space="preserve" font-family="AvenirNextCondensed-Bold" font-weight="bold" font-size="13.0" fill="#ABABAB" transform="matrix(1.00, 0.00, -0.00, -1.00, 657.1, 461.6)">P</text><text xml:space="preserve" font-family="AvenirNextCondensed-Bold" font-weight="bold" font-size="13.0" fill="#ABABAB" transform="matrix(1.00, 0.00, -0.00, -1.00, 663.9, 461.6)">U</text></g></g><g><clipPath id="clip-2874"><path d="M 961.6 176.6 L 907.0 176.6 L 902.5 201.8 L 893.0 201.8 L 899.0 145.9 L 961.6 145.9 L 1024.2 145.9 L 1030.2 201.8 L 1020.7 201.8 L 1016.2 176.6 L 961.6 176.6 Z M 961.6 176.6 "></path></clipPath><g clip-path="url(#clip-2874)"><g><clipPath id="clip-2875"><path d="M 892.0 145.0 L 1031.0 145.0 L 1031.0 203.0 L 892.0 203.0 Z M 892.0 145.0 "></path></clipPath><g clip-path="url(#clip-2875)"><path d="M 888.0 206.8 L 1035.2 206.8 L 1035.2 140.9 L 888.0 140.9 Z M 888.0 206.8 " fill="#3D3737"></path></g></g></g></g><g><clipPath id="clip-2876"><path d="M 892.0 145.0 L 1031.0 145.0 L 1031.0 203.0 L 892.0 203.0 Z M 892.0 145.0 "></path></clipPath><g clip-path="url(#clip-2876)"><path d="M 68.6 25.2 L 14.0 25.2 L 9.5 0.0 L 0.0 0.0 L 6.0 55.9 L 68.6 55.9 L 131.2 55.9 L 137.2 0.0 L 127.7 0.0 L 123.2 25.2 L 68.6 25.2 Z M 68.6 25.2 " fill="none" stroke="#CACACA" stroke-width="1.00" stroke-miterlimit="0.00" transform="matrix(1.00, 0.00, 0.00, -1.00, 893.0, 201.8)"></path><text xml:space="preserve" font-family="AvenirNextCondensed-Bold" font-weight="bold" font-size="13.0" fill="#ABABAB" transform="matrix(1.00, 0.00, -0.00, -1.00, 939.5, 158.6)">S</text><text xml:space="preserve" font-family="AvenirNextCondensed-Bold" font-weight="bold" font-size="13.0" fill="#ABABAB" transform="matrix(1.00, 0.00, -0.00, -1.00, 945.4, 158.6)">T</text><text xml:space="preserve" font-family="AvenirNextCondensed-Bold" font-weight="bold" font-size="13.0" fill="#ABABAB" transform="matrix(1.00, 0.00, -0.00, -1.00, 950.7, 158.6)">O</text><text xml:space="preserve" font-family="AvenirNextCondensed-Bold" font-weight="bold" font-size="13.0" fill="#ABABAB" transform="matrix(1.00, 0.00, -0.00, -1.00, 958.6, 158.6)">R</text><text xml:space="preserve" font-family="AvenirNextCondensed-Bold" font-weight="bold" font-size="13.0" fill="#ABABAB" transform="matrix(1.00, 0.00, -0.00, -1.00, 965.7, 158.6)">A</text><text xml:space="preserve" font-family="AvenirNextCondensed-Bold" font-weight="bold" font-size="13.0" fill="#ABABAB" transform="matrix(1.00, 0.00, -0.00, -1.00, 972.7, 158.6)">G</text><text xml:space="preserve" font-family="AvenirNextCondensed-Bold" font-weight="bold" font-size="13.0" fill="#ABABAB" transform="matrix(1.00, 0.00, -0.00, -1.00, 979.9, 158.6)">E</text></g></g><image xlink:href="../../4CB14B03-340A-4341-8442-49BC340847BB/assets/87FB1FCC1B5BBB7B2842497D2218EDF8.png" width="288.00" height="125.00" transform="matrix(1.00, 0.00, -0.00, -1.00, 1472.0, 994.0)"></image><g><clipPath id="clip-2877"><path d="M 1472.0 869.0 L 1760.0 869.0 L 1760.0 994.0 L 1472.0 994.0 Z M 1472.0 869.0 "></path></clipPath><g clip-path="url(#clip-2877)"><g><g><clipPath id="clip-2878"><path d="M 1476.7 966.5 L 1755.3 966.5 L 1755.3 876.1 L 1476.7 876.1 L 1476.7 966.5 Z M 1476.7 966.5 "></path></clipPath><g clip-path="url(#clip-2878)"><g><clipPath id="clip-2879"><path d="M 1474.4 876.1 L 1755.3 876.1 L 1755.3 995.2 L 1474.4 995.2 Z M 1474.4 876.1 "></path></clipPath><g clip-path="url(#clip-2879)"><path d="M 1470.8 972.4 L 1761.2 972.4 L 1761.2 870.2 L 1470.8 870.2 Z M 1470.8 972.4 " fill="#FFFFFF"></path></g></g></g></g><g><clipPath id="clip-2880"><path d="M 1476.7 991.6 L 1730.3 991.6 L 1755.3 966.5 L 1476.7 966.5 L 1476.7 991.6 Z M 1476.7 991.6 "></path></clipPath><g clip-path="url(#clip-2880)"><g><clipPath id="clip-2881"><path d="M 1474.4 876.1 L 1755.3 876.1 L 1755.3 995.2 L 1474.4 995.2 Z M 1474.4 876.1 "></path></clipPath><g clip-path="url(#clip-2881)"><path d="M 1470.8 997.5 L 1761.2 997.5 L 1761.2 960.6 L 1470.8 960.6 Z M 1470.8 997.5 " fill="#817B83"></path></g></g></g></g><g><clipPath id="clip-2882"><path d="M 1474.4 876.1 L 1755.3 876.1 L 1755.3 995.2 L 1474.4 995.2 Z M 1474.4 876.1 "></path></clipPath><g clip-path="url(#clip-2882)"><text xml:space="preserve" font-family="Avenir-Heavy" font-weight="bold" font-size="16.0" fill="#FEFFFF" transform="matrix(1.18, 0.00, -0.00, -1.18, 1483.4, 972.8)">P</text><text xml:space="preserve" font-family="Avenir-Heavy" font-weight="bold" font-size="16.0" fill="#FEFFFF" transform="matrix(1.18, 0.00, -0.00, -1.18, 1496.9, 972.8)">C</text><text xml:space="preserve" font-family="Avenir-Heavy" font-weight="bold" font-size="16.0" fill="#FEFFFF" transform="matrix(1.18, 0.00, -0.00, -1.18, 1511.8, 972.8)"> </text><text xml:space="preserve" font-family="Avenir-Heavy" font-weight="bold" font-size="16.0" fill="#FEFFFF" transform="matrix(1.18, 0.00, -0.00, -1.18, 1519.4, 972.8)">S</text><text xml:space="preserve" font-family="Avenir-Heavy" font-weight="bold" font-size="16.0" fill="#FEFFFF" transform="matrix(1.18, 0.00, -0.00, -1.18, 1532.2, 972.8)">T</text><text xml:space="preserve" font-family="Avenir-Heavy" font-weight="bold" font-size="16.0" fill="#FEFFFF" transform="matrix(1.18, 0.00, -0.00, -1.18, 1543.3, 972.8)">A</text><text xml:space="preserve" font-family="Avenir-Heavy" font-weight="bold" font-size="16.0" fill="#FEFFFF" transform="matrix(1.18, 0.00, -0.00, -1.18, 1557.2, 972.8)">T</text><text xml:space="preserve" font-family="AvenirNextCondensed-Medium" font-size="16.0" fill="#000000" transform="matrix(1.18, 0.00, -0.00, -1.18, 1483.4, 940.5)">P</text><text xml:space="preserve" font-family="AvenirNextCondensed-Medium" font-size="16.0" fill="#000000" transform="matrix(1.18, 0.00, -0.00, -1.18, 1491.6, 940.5)">e</text><text xml:space="preserve" font-family="AvenirNextCondensed-Medium" font-size="16.0" fill="#000000" transform="matrix(1.18, 0.00, -0.00, -1.18, 1499.9, 940.5)">r</text><text xml:space="preserve" font-family="AvenirNextCondensed-Medium" font-size="16.0" fill="#000000" transform="matrix(1.18, 0.00, -0.00, -1.18, 1505.2, 940.5)">f</text><text xml:space="preserve" font-family="AvenirNextCondensed-Medium" font-size="16.0" fill="#000000" transform="matrix(1.18, 0.00, -0.00, -1.18, 1510.0, 940.5)">o</text><text xml:space="preserve" font-family="AvenirNextCondensed-Medium" font-size="16.0" fill="#000000" transform="matrix(1.18, 0.00, -0.00, -1.18, 1518.5, 940.5)">r</text><text xml:space="preserve" font-family="AvenirNextCondensed-Medium" font-size="16.0" fill="#000000" transform="matrix(1.18, 0.00, -0.00, -1.18, 1523.9, 940.5)">m</text><text xml:space="preserve" font-family="AvenirNextCondensed-Medium" font-size="16.0" fill="#000000" transform="matrix(1.18, 0.00, -0.00, -1.18, 1537.6, 940.5)">a</text><text xml:space="preserve" font-family="AvenirNextCondensed-Medium" font-size="16.0" fill="#000000" transform="matrix(1.18, 0.00, -0.00, -1.18, 1545.4, 940.5)">n</text><text xml:space="preserve" font-family="AvenirNextCondensed-Medium" font-size="16.0" fill="#000000" transform="matrix(1.18, 0.00, -0.00, -1.18, 1554.5, 940.5)">c</text><text xml:space="preserve" font-family="AvenirNextCondensed-Medium" font-size="16.0" fill="#000000" transform="matrix(1.18, 0.00, -0.00, -1.18, 1560.9, 940.5)">e</text><text xml:space="preserve" font-family="AvenirNextCondensed-Medium" font-size="16.0" fill="#000000" transform="matrix(1.18, 0.00, -0.00, -1.18, 1483.4, 895.2)">P</text><text xml:space="preserve" font-family="AvenirNextCondensed-Medium" font-size="16.0" fill="#000000" transform="matrix(1.18, 0.00, -0.00, -1.18, 1491.9, 895.2)">r</text><text xml:space="preserve" font-family="AvenirNextCondensed-Medium" font-size="16.0" fill="#000000" transform="matrix(1.18, 0.00, -0.00, -1.18, 1497.2, 895.2)">i</text><text xml:space="preserve" font-family="AvenirNextCondensed-Medium" font-size="16.0" fill="#000000" transform="matrix(1.18, 0.00, -0.00, -1.18, 1501.6, 895.2)">c</text><text xml:space="preserve" font-family="AvenirNextCondensed-Medium" font-size="16.0" fill="#000000" transform="matrix(1.18, 0.00, -0.00, -1.18, 1508.1, 895.2)">e</text></g></g></g></g></g><text xml:space="preserve" font-family="AvenirNextCondensed-DemiBold" font-weight="bold" font-size="18.0" fill="#C69920" transform="matrix(1.00, 0.00, -0.00, -1.00, 1583.0, 940.0)">3</text><text xml:space="preserve" font-family="AvenirNextCondensed-DemiBold" font-weight="bold" font-size="18.0" fill="#C69920" transform="matrix(1.00, 0.00, -0.00, -1.00, 1592.0, 940.0)">5</text><text xml:space="preserve" font-family="AvenirNextCondensed-DemiBold" font-weight="bold" font-size="18.0" fill="#324763" transform="matrix(1.00, 0.00, -0.00, -1.00, 1583.0, 893.0)">$</text><text xml:space="preserve" font-family="AvenirNextCondensed-DemiBold" font-weight="bold" font-size="18.0" fill="#324763" transform="matrix(1.00, 0.00, -0.00, -1.00, 1592.0, 893.0)">1</text><text xml:space="preserve" font-family="AvenirNextCondensed-DemiBold" font-weight="bold" font-size="18.0" fill="#324763" transform="matrix(1.00, 0.00, -0.00, -1.00, 1601.0, 893.0)">8</text><text xml:space="preserve" font-family="AvenirNextCondensed-DemiBold" font-weight="bold" font-size="18.0" fill="#324763" transform="matrix(1.00, 0.00, -0.00, -1.00, 1610.0, 893.0)">5</text><path d="M 1619.1 958.3 L 1747.1 958.3 L 1747.1 932.8 L 1619.1 932.8 Z M 1619.1 958.3 " fill="#D6D2CB"></path><path d="M 1619.1 958.3 L 1666.6 958.3 L 1666.6 932.8 L 1619.1 932.8 Z M 1619.1 958.3 " fill="#C69920"></path></g></svg>