<?xml version="1.0" encoding="UTF-8" standalone="no"?><svg xmlns="http://www.w3.org/2000/svg" xmlns:xlink="http://www.w3.org/1999/xlink" clip-rule="evenodd" stroke-miterlimit="4.00" viewBox="0 0 1920 1080"><desc>SVG generated by Keynote</desc><defs></defs><g transform="matrix(1.00, 0.00, -0.00, -1.00, 0.0, 1080.0)"><path d="M 0.0 1080.0 L 1920.0 1080.0 L 1920.0 0.0 L 0.0 0.0 Z M 0.0 1080.0 " fill="#FEFFFE"></path><g><clipPath id="clip-2631"><path d="M -119.0 -135.0 L 1921.0 -135.0 L 1921.0 1140.0 L -119.0 1140.0 Z M -119.0 -135.0 "></path></clipPath><g clip-path="url(#clip-2631)"><g><g><clipPath id="clip-2632"><path d="M 0.0 0.0 L 1920.0 0.0 L 1920.0 1080.0 L 0.0 1080.0 Z M 0.0 0.0 "></path></clipPath><g clip-path="url(#clip-2632)"><g opacity="0.23"><g><clipPath id="clip-2633"><path d="M -119.0 1141.6 L 1927.4 1141.6 L 1927.4 -136.6 L -119.0 -136.6 L -119.0 1141.6 Z M -119.0 1141.6 "></path></clipPath><g clip-path="url(#clip-2633)"><g><clipPath id="clip-2634"><path d="M 0.0 0.0 L 1920.0 0.0 L 1920.0 1080.0 L 0.0 1080.0 Z M 0.0 0.0 "></path></clipPath><g clip-path="url(#clip-2634)"><g><g><clipPath id="clip-2635"><path d="M 0.0 0.0 L 1920.0 0.0 L 1920.0 1080.0 L 0.0 1080.0 Z M 0.0 0.0 "></path></clipPath><g clip-path="url(#clip-2635)"><path d="M -127.0 1149.6 L 1935.3 1149.6 L 1935.3 -144.6 L -127.0 -144.6 Z M -127.0 1149.6 " fill="#FFFFFF"></path><image xlink:href="../../4CB14B03-340A-4341-8442-49BC340847BB/assets/28784051CBA7DECB8E91030F9AEB8EA9.png" width="1000.00" height="1000.00" transform="matrix(2.05, 0.00, -0.00, -2.05, -119.0, 1857.9)"></image></g></g><g><clipPath id="clip-2636"><path d="M 0.0 0.0 L 1920.0 0.0 L 1920.0 1080.0 L 0.0 1080.0 Z M 0.0 0.0 "></path></clipPath><g clip-path="url(#clip-2636)"><g><g><clipPath id="clip-2637"><path d="M 0.0 0.0 L 1920.0 0.0 L 1920.0 1080.0 L 0.0 1080.0 Z M 0.0 0.0 "></path></clipPath><g clip-path="url(#clip-2637)"><g><g><clipPath id="clip-2638"><path d="M 0.0 0.0 L 1920.0 0.0 L 1920.0 1080.0 L 0.0 1080.0 Z M 0.0 0.0 "></path></clipPath><g clip-path="url(#clip-2638)"><image xlink:href="../../4CB14B03-340A-4341-8442-49BC340847BB/assets/753040F36833B94AB714B826469AE19A.png" width="1938.00" height="1092.00" transform="matrix(1.59, 0.00, -0.00, -1.59, -587.6, 1396.6)"></image></g></g></g></g></g></g></g></g></g></g></g></g></g></g></g></g></g></g></g><image xlink:href="../../4CB14B03-340A-4341-8442-49BC340847BB/assets/EE63A17342FD1620DABD9214C6A603CF.png" width="214.00" height="18.00" transform="matrix(0.00, 1.00, 1.00, -0.00, 952.0, 610.7)" opacity="0.50"></image><path d="M 0.0 0.0 L 203.7 0.0 " fill="none" stroke="#C8C2BA" stroke-width="8.00" transform="matrix(0.00, 1.00, 1.00, 0.00, 961.0, 617.7)"></path><image xlink:href="../../4CB14B03-340A-4341-8442-49BC340847BB/assets/8441AA333ED114A2C1EE3CAA8669164C.png" width="128.00" height="158.00" transform="matrix(1.00, 0.00, -0.00, -1.00, 897.0, 957.0)"></image><g><clipPath id="clip-2639"><path d="M 892.0 780.0 L 1031.0 780.0 L 1031.0 957.0 L 892.0 957.0 Z M 892.0 780.0 "></path></clipPath><g clip-path="url(#clip-2639)"><path d="M 585.0 949.0 C 585.0 952.3 587.7 955.0 591.0 955.0 L 699.0 955.0 C 702.3 955.0 705.0 952.3 705.0 949.0 L 705.0 811.0 C 705.0 807.7 702.3 805.0 699.0 805.0 L 591.0 805.0 C 587.7 805.0 585.0 807.7 585.0 811.0 L 585.0 949.0 Z M 585.0 949.0 " fill="#FFFFFF"></path></g></g><g><clipPath id="clip-2640"><path d="M 901.0 949.0 C 901.0 952.3 903.7 955.0 907.0 955.0 L 1015.0 955.0 C 1018.3 955.0 1021.0 952.3 1021.0 949.0 L 1021.0 811.0 C 1021.0 807.7 1018.3 805.0 1015.0 805.0 L 907.0 805.0 C 903.7 805.0 901.0 807.7 901.0 811.0 L 901.0 949.0 Z M 901.0 949.0 "></path></clipPath><g clip-path="url(#clip-2640)"><g><clipPath id="clip-2641"><path d="M 892.0 775.0 L 1031.0 775.0 L 1031.0 957.0 L 892.0 957.0 Z M 892.0 775.0 "></path></clipPath><g clip-path="url(#clip-2641)"><g><image xlink:href="../../4CB14B03-340A-4341-8442-49BC340847BB/assets/69CB384770721CC2E5FB58DC74BA5A57.png" width="120.00" height="150.00" transform="matrix(1.00, 0.00, -0.00, -1.00, 901.0, 955.0)"></image><g><clipPath id="clip-2642"><path d="M 901.0 805.0 L 1021.0 805.0 L 1021.0 955.0 L 901.0 955.0 Z M 901.0 805.0 "></path></clipPath><g clip-path="url(#clip-2642)"><path d="M 585.0 949.0 C 585.0 952.3 587.7 955.0 591.0 955.0 L 699.0 955.0 C 702.3 955.0 705.0 952.3 705.0 949.0 L 705.0 811.0 C 705.0 807.7 702.3 805.0 699.0 805.0 L 591.0 805.0 C 587.7 805.0 585.0 807.7 585.0 811.0 L 585.0 949.0 Z M 585.0 949.0 " fill="#FFFFFF"></path></g></g><g><clipPath id="clip-2643"><path d="M 901.0 805.0 L 1021.0 805.0 L 1021.0 955.0 L 901.0 955.0 Z M 901.0 805.0 "></path></clipPath><g clip-path="url(#clip-2643)"><path d="M 896.0 960.0 L 1026.0 960.0 L 1026.0 800.0 L 896.0 800.0 Z M 896.0 960.0 " fill="#FFE291"></path><image xlink:href="../../4CB14B03-340A-4341-8442-49BC340847BB/assets/CFAE94D3DE146C967986E2594A2C27D3.png" width="295.00" height="249.00" transform="matrix(0.29, 0.00, -0.00, -0.29, 921.0, 921.0)"></image></g></g><image xlink:href="../../4CB14B03-340A-4341-8442-49BC340847BB/assets/B28F6707EBB20E85E68686A3F4BF1B52.png" width="120.00" height="31.00" transform="matrix(1.00, 0.00, -0.00, -1.00, 901.0, 856.0)"></image><g><clipPath id="clip-2644"><path d="M 901.0 809.0 L 1021.0 809.0 L 1021.0 864.0 L 901.0 864.0 Z M 901.0 809.0 "></path></clipPath><g clip-path="url(#clip-2644)"><path d="M 597.0 851.0 L 717.0 851.0 L 717.0 826.0 L 597.0 826.0 L 597.0 851.0 Z M 597.0 851.0 " fill="#FFFFFF"></path></g></g><g><clipPath id="clip-2645"><path d="M 901.0 851.0 L 1021.0 851.0 L 1021.0 826.0 L 901.0 826.0 L 901.0 851.0 Z M 901.0 851.0 "></path></clipPath><g clip-path="url(#clip-2645)"><g><clipPath id="clip-2646"><path d="M 901.0 805.0 L 1021.0 805.0 L 1021.0 955.0 L 901.0 955.0 Z M 901.0 805.0 "></path></clipPath><g clip-path="url(#clip-2646)"><path d="M 896.0 856.0 L 1026.0 856.0 L 1026.0 821.0 L 896.0 821.0 Z M 896.0 856.0 " fill="#D7BD71"></path></g></g></g></g><image xlink:href="../../4CB14B03-340A-4341-8442-49BC340847BB/assets/5930CBD9E11EDD7FE1FD828CB4131200.png" width="18.00" height="20.00" transform="matrix(1.00, 0.00, -0.00, -1.00, 995.0, 949.0)"></image><g><clipPath id="clip-2647"><path d="M 989.0 921.0 L 1021.0 921.0 L 1021.0 955.0 L 989.0 955.0 Z M 989.0 921.0 "></path></clipPath><g clip-path="url(#clip-2647)"><image xlink:href="../../4CB14B03-340A-4341-8442-49BC340847BB/assets/E62ADDD91978E5B0F6496E51F04F3C9B.png" width="1377.00" height="1453.00" transform="matrix(0.01, 0.00, -0.00, -0.01, 932.0, 948.0)"></image></g></g><g><clipPath id="clip-2648"><path d="M 901.0 805.0 L 1021.0 805.0 L 1021.0 955.0 L 901.0 955.0 Z M 901.0 805.0 "></path></clipPath><g clip-path="url(#clip-2648)"><image xlink:href="../../4CB14B03-340A-4341-8442-49BC340847BB/assets/E62ADDD91978E5B0F6496E51F04F3C9B.png" width="1377.00" height="1453.00" transform="matrix(0.01, 0.00, -0.00, -0.01, 996.0, 948.0)"></image><text xml:space="preserve" font-family="AvenirNextCondensed-Medium" font-size="15.0" fill="#000000" transform="matrix(1.00, 0.00, -0.00, -1.00, 934.5, 833.0)">A</text><text xml:space="preserve" font-family="AvenirNextCondensed-Medium" font-size="15.0" fill="#000000" transform="matrix(1.00, 0.00, -0.00, -1.00, 941.8, 833.0)">t</text><text xml:space="preserve" font-family="AvenirNextCondensed-Medium" font-size="15.0" fill="#000000" transform="matrix(1.00, 0.00, -0.00, -1.00, 945.8, 833.0)">h</text><text xml:space="preserve" font-family="AvenirNextCondensed-Medium" font-size="15.0" fill="#000000" transform="matrix(1.00, 0.00, -0.00, -1.00, 953.0, 833.0)">l</text><text xml:space="preserve" font-family="AvenirNextCondensed-Medium" font-size="15.0" fill="#000000" transform="matrix(1.00, 0.00, -0.00, -1.00, 956.5, 833.0)">o</text><text xml:space="preserve" font-family="AvenirNextCondensed-Medium" font-size="15.0" fill="#000000" transform="matrix(1.00, 0.00, -0.00, -1.00, 963.3, 833.0)">n</text><text xml:space="preserve" font-family="AvenirNextCondensed-Medium" font-size="15.0" fill="#000000" transform="matrix(1.00, 0.00, -0.00, -1.00, 970.6, 833.0)"> </text><text xml:space="preserve" font-family="AvenirNextCondensed-Medium" font-size="15.0" fill="#000000" transform="matrix(1.00, 0.00, -0.00, -1.00, 973.2, 833.0)">X</text><text xml:space="preserve" font-family="AvenirNextCondensed-Medium" font-size="15.0" fill="#000000" transform="matrix(1.00, 0.00, -0.00, -1.00, 980.3, 833.0)">4</text><text xml:space="preserve" font-family="AvenirNextCondensed-Medium" font-size="15.0" fill="#000000" transform="matrix(1.00, 0.00, -0.00, -1.00, 950.2, 810.0)">$</text><text xml:space="preserve" font-family="AvenirNextCondensed-Medium" font-size="15.0" fill="#000000" transform="matrix(1.00, 0.00, -0.00, -1.00, 957.4, 810.0)">8</text><text xml:space="preserve" font-family="AvenirNextCondensed-Medium" font-size="15.0" fill="#000000" transform="matrix(1.00, 0.00, -0.00, -1.00, 964.6, 810.0)">5</text><text xml:space="preserve" font-family="AvenirNextCondensed-Medium" font-size="26.0" fill="#000000" transform="matrix(1.00, 0.00, -0.00, -1.00, 909.0, 929.0)">6</text><text xml:space="preserve" font-family="AvenirNextCondensed-Medium" font-size="26.0" fill="#000000" transform="matrix(1.00, 0.00, -0.00, -1.00, 921.5, 929.0)">8</text></g></g></g></g></g></g></g><g><clipPath id="clip-2649"><path d="M 892.0 775.0 L 1031.0 775.0 L 1031.0 957.0 L 892.0 957.0 Z M 892.0 775.0 "></path></clipPath><g clip-path="url(#clip-2649)"><path d="M 0.0 0.0 " fill="none" stroke="#969696" stroke-width="1.00" stroke-miterlimit="0.00" transform="matrix(1.00, 0.00, 0.00, -1.00, 901.5, 805.9)"></path></g></g><g><clipPath id="clip-2650"><path d="M 961.1 807.1 L 906.5 807.1 L 902.1 832.3 L 892.5 832.3 L 898.5 776.4 L 961.1 776.4 L 1023.8 776.4 L 1029.7 832.3 L 1020.2 832.3 L 1015.8 807.1 L 961.1 807.1 Z M 961.1 807.1 "></path></clipPath><g clip-path="url(#clip-2650)"><g><clipPath id="clip-2651"><path d="M 892.0 775.0 L 1031.0 775.0 L 1031.0 833.5 L 892.0 833.5 Z M 892.0 775.0 "></path></clipPath><g clip-path="url(#clip-2651)"><path d="M 887.5 837.3 L 1034.7 837.3 L 1034.7 771.4 L 887.5 771.4 Z M 887.5 837.3 " fill="#3D3737"></path></g></g></g></g><g><clipPath id="clip-2652"><path d="M 892.0 775.0 L 1031.0 775.0 L 1031.0 833.5 L 892.0 833.5 Z M 892.0 775.0 "></path></clipPath><g clip-path="url(#clip-2652)"><path d="M 68.6 25.2 L 14.0 25.2 L 9.5 0.0 L 0.0 0.0 L 6.0 55.9 L 68.6 55.9 L 131.2 55.9 L 137.2 0.0 L 127.7 0.0 L 123.2 25.2 L 68.6 25.2 Z M 68.6 25.2 " fill="none" stroke="#CACACA" stroke-width="1.00" stroke-miterlimit="0.00" transform="matrix(1.00, 0.00, 0.00, -1.00, 892.5, 832.3)"></path><text xml:space="preserve" font-family="AvenirNextCondensed-Bold" font-weight="bold" font-size="13.0" fill="#ABABAB" transform="matrix(1.00, 0.00, -0.00, -1.00, 951.7, 789.1)">C</text><text xml:space="preserve" font-family="AvenirNextCondensed-Bold" font-weight="bold" font-size="13.0" fill="#ABABAB" transform="matrix(1.00, 0.00, -0.00, -1.00, 958.4, 789.1)">P</text><text xml:space="preserve" font-family="AvenirNextCondensed-Bold" font-weight="bold" font-size="13.0" fill="#ABABAB" transform="matrix(1.00, 0.00, -0.00, -1.00, 965.1, 789.1)">U</text></g></g><image xlink:href="../../4CB14B03-340A-4341-8442-49BC340847BB/assets/F5701000CDC9F447BF51C552447EC8EE.png" width="128.00" height="159.00" transform="matrix(1.00, 0.00, -0.00, -1.00, 897.0, 632.0)"></image><g><clipPath id="clip-2653"><path d="M 891.0 454.0 L 1030.0 454.0 L 1030.0 632.0 L 891.0 632.0 Z M 891.0 454.0 "></path></clipPath><g clip-path="url(#clip-2653)"><path d="M 585.0 624.0 C 585.0 627.3 587.7 630.0 591.0 630.0 L 699.0 630.0 C 702.3 630.0 705.0 627.3 705.0 624.0 L 705.0 485.0 C 705.0 481.7 702.3 479.0 699.0 479.0 L 591.0 479.0 C 587.7 479.0 585.0 481.7 585.0 485.0 L 585.0 624.0 Z M 585.0 624.0 " fill="#FFFFFF"></path></g></g><g><clipPath id="clip-2654"><path d="M 901.0 624.0 C 901.0 627.3 903.7 630.0 907.0 630.0 L 1015.0 630.0 C 1018.3 630.0 1021.0 627.3 1021.0 624.0 L 1021.0 485.0 C 1021.0 481.7 1018.3 479.0 1015.0 479.0 L 907.0 479.0 C 903.7 479.0 901.0 481.7 901.0 485.0 L 901.0 624.0 Z M 901.0 624.0 "></path></clipPath><g clip-path="url(#clip-2654)"><g><clipPath id="clip-2655"><path d="M 891.0 448.0 L 1030.0 448.0 L 1030.0 632.0 L 891.0 632.0 Z M 891.0 448.0 "></path></clipPath><g clip-path="url(#clip-2655)"><path d="M 896.0 635.0 L 1026.0 635.0 L 1026.0 474.0 L 896.0 474.0 Z M 896.0 635.0 " fill="#737373"></path></g></g></g></g><g><clipPath id="clip-2656"><path d="M 967.6 545.2 L 967.6 526.5 L 956.0 526.5 L 956.0 545.2 L 937.0 545.2 L 937.0 556.5 L 955.9 556.5 L 955.9 575.2 L 967.5 575.2 L 967.5 556.5 L 986.5 556.5 L 986.5 545.2 L 967.6 545.2 Z M 967.6 545.2 "></path></clipPath><g clip-path="url(#clip-2656)"><g><clipPath id="clip-2657"><path d="M 891.0 448.0 L 1030.0 448.0 L 1030.0 632.0 L 891.0 632.0 Z M 891.0 448.0 "></path></clipPath><g clip-path="url(#clip-2657)"><path d="M 932.0 580.2 L 991.5 580.2 L 991.5 521.5 L 932.0 521.5 Z M 932.0 580.2 " fill="#50524E"></path></g></g></g></g><image xlink:href="../../4CB14B03-340A-4341-8442-49BC340847BB/assets/2CFAAE57BDDE3CDB62CADDC02D18219D.png" width="51.00" height="50.00" transform="matrix(1.00, 0.00, -0.00, -1.00, 936.0, 576.0)"></image><g><clipPath id="clip-2658"><path d="M 967.6 545.2 L 967.6 526.5 L 956.0 526.5 L 956.0 545.2 L 937.0 545.2 L 937.0 556.5 L 955.9 556.5 L 955.9 575.2 L 967.5 575.2 L 967.5 556.5 L 986.5 556.5 L 986.5 545.2 L 967.6 545.2 Z M 967.6 545.2 "></path></clipPath><g clip-path="url(#clip-2658)"><g><clipPath id="clip-2659"><path d="M 891.0 448.0 L 1030.0 448.0 L 1030.0 632.0 L 891.0 632.0 Z M 891.0 448.0 "></path></clipPath><g clip-path="url(#clip-2659)"><path d="M 765.0 587.2 L 845.0 587.2 L 845.0 507.2 L 765.0 507.2 Z M 807.6 545.2 L 807.6 526.5 L 796.0 526.5 L 796.0 545.2 L 777.0 545.2 L 777.0 556.5 L 795.9 556.5 L 795.9 575.2 L 807.5 575.2 L 807.5 556.5 L 826.5 556.5 L 826.5 545.2 L 807.6 545.2 Z M 807.6 545.2 " fill="#FFFFFF"></path></g></g></g></g><g><clipPath id="clip-2660"><path d="M 960.6 479.6 L 906.0 479.6 L 901.5 504.8 L 892.0 504.8 L 898.0 448.9 L 960.6 448.9 L 1023.2 448.9 L 1029.2 504.8 L 1019.7 504.8 L 1015.2 479.6 L 960.6 479.6 Z M 960.6 479.6 "></path></clipPath><g clip-path="url(#clip-2660)"><g><clipPath id="clip-2661"><path d="M 891.0 448.0 L 1030.0 448.0 L 1030.0 632.0 L 891.0 632.0 Z M 891.0 448.0 "></path></clipPath><g clip-path="url(#clip-2661)"><path d="M 887.0 509.8 L 1034.2 509.8 L 1034.2 443.9 L 887.0 443.9 Z M 887.0 509.8 " fill="#3D3737"></path></g></g></g></g><g><clipPath id="clip-2662"><path d="M 891.0 448.0 L 1030.0 448.0 L 1030.0 632.0 L 891.0 632.0 Z M 891.0 448.0 "></path></clipPath><g clip-path="url(#clip-2662)"><path d="M 68.6 25.2 L 14.0 25.2 L 9.5 0.0 L 0.0 0.0 L 6.0 55.9 L 68.6 55.9 L 131.2 55.9 L 137.2 0.0 L 127.7 0.0 L 123.2 25.2 L 68.6 25.2 Z M 68.6 25.2 " fill="none" stroke="#CACACA" stroke-width="1.00" stroke-miterlimit="0.00" transform="matrix(1.00, 0.00, 0.00, -1.00, 892.0, 504.8)"></path><text xml:space="preserve" font-family="AvenirNextCondensed-Bold" font-weight="bold" font-size="13.0" fill="#ABABAB" transform="matrix(1.00, 0.00, -0.00, -1.00, 921.4, 461.6)">M</text><text xml:space="preserve" font-family="AvenirNextCondensed-Bold" font-weight="bold" font-size="13.0" fill="#ABABAB" transform="matrix(1.00, 0.00, -0.00, -1.00, 931.4, 461.6)">O</text><text xml:space="preserve" font-family="AvenirNextCondensed-Bold" font-weight="bold" font-size="13.0" fill="#ABABAB" transform="matrix(1.00, 0.00, -0.00, -1.00, 939.0, 461.6)">T</text><text xml:space="preserve" font-family="AvenirNextCondensed-Bold" font-weight="bold" font-size="13.0" fill="#ABABAB" transform="matrix(1.00, 0.00, -0.00, -1.00, 944.4, 461.6)">H</text><text xml:space="preserve" font-family="AvenirNextCondensed-Bold" font-weight="bold" font-size="13.0" fill="#ABABAB" transform="matrix(1.00, 0.00, -0.00, -1.00, 952.3, 461.6)">E</text><text xml:space="preserve" font-family="AvenirNextCondensed-Bold" font-weight="bold" font-size="13.0" fill="#ABABAB" transform="matrix(1.00, 0.00, -0.00, -1.00, 958.1, 461.6)">R</text><text xml:space="preserve" font-family="AvenirNextCondensed-Bold" font-weight="bold" font-size="13.0" fill="#ABABAB" transform="matrix(1.00, 0.00, -0.00, -1.00, 965.2, 461.6)">B</text><text xml:space="preserve" font-family="AvenirNextCondensed-Bold" font-weight="bold" font-size="13.0" fill="#ABABAB" transform="matrix(1.00, 0.00, -0.00, -1.00, 972.2, 461.6)">O</text><text xml:space="preserve" font-family="AvenirNextCondensed-Bold" font-weight="bold" font-size="13.0" fill="#ABABAB" transform="matrix(1.00, 0.00, -0.00, -1.00, 980.1, 461.6)">A</text><text xml:space="preserve" font-family="AvenirNextCondensed-Bold" font-weight="bold" font-size="13.0" fill="#ABABAB" transform="matrix(1.00, 0.00, -0.00, -1.00, 987.2, 461.6)">R</text><text xml:space="preserve" font-family="AvenirNextCondensed-Bold" font-weight="bold" font-size="13.0" fill="#ABABAB" transform="matrix(1.00, 0.00, -0.00, -1.00, 994.2, 461.6)">D</text></g></g><image xlink:href="../../4CB14B03-340A-4341-8442-49BC340847BB/assets/ECA0A7238B79C171D6AA29BB54978325.png" width="341.00" height="147.00" transform="matrix(1.00, 0.00, -0.00, -1.00, 1436.0, 939.0)"></image><g><clipPath id="clip-2663"><path d="M 1436.0 792.0 L 1777.0 792.0 L 1777.0 939.0 L 1436.0 939.0 Z M 1436.0 792.0 "></path></clipPath><g clip-path="url(#clip-2663)"><g><g><clipPath id="clip-2664"><path d="M 1441.6 906.7 L 1771.4 906.7 L 1771.4 800.3 L 1441.6 800.3 L 1441.6 906.7 Z M 1441.6 906.7 "></path></clipPath><g clip-path="url(#clip-2664)"><g><clipPath id="clip-2665"><path d="M 1438.8 800.3 L 1771.4 800.3 L 1771.4 940.4 L 1438.8 940.4 Z M 1438.8 800.3 "></path></clipPath><g clip-path="url(#clip-2665)"><path d="M 1434.6 913.6 L 1778.4 913.6 L 1778.4 793.4 L 1434.6 793.4 Z M 1434.6 913.6 " fill="#FFFFFF"></path></g></g></g></g><g><clipPath id="clip-2666"><path d="M 1441.6 936.2 L 1741.9 936.2 L 1771.4 906.7 L 1441.6 906.7 L 1441.6 936.2 Z M 1441.6 936.2 "></path></clipPath><g clip-path="url(#clip-2666)"><g><clipPath id="clip-2667"><path d="M 1438.8 800.3 L 1771.4 800.3 L 1771.4 940.4 L 1438.8 940.4 Z M 1438.8 800.3 "></path></clipPath><g clip-path="url(#clip-2667)"><path d="M 1434.6 943.2 L 1778.4 943.2 L 1778.4 899.7 L 1434.6 899.7 Z M 1434.6 943.2 " fill="#817B83"></path></g></g></g></g><g><clipPath id="clip-2668"><path d="M 1438.8 800.3 L 1771.4 800.3 L 1771.4 940.4 L 1438.8 940.4 Z M 1438.8 800.3 "></path></clipPath><g clip-path="url(#clip-2668)"><text xml:space="preserve" font-family="Avenir-Heavy" font-weight="bold" font-size="16.0" fill="#FEFFFF" transform="matrix(1.39, 0.00, -0.00, -1.39, 1449.5, 914.0)">P</text><text xml:space="preserve" font-family="Avenir-Heavy" font-weight="bold" font-size="16.0" fill="#FEFFFF" transform="matrix(1.39, 0.00, -0.00, -1.39, 1465.5, 914.0)">C</text><text xml:space="preserve" font-family="Avenir-Heavy" font-weight="bold" font-size="16.0" fill="#FEFFFF" transform="matrix(1.39, 0.00, -0.00, -1.39, 1483.1, 914.0)"> </text><text xml:space="preserve" font-family="Avenir-Heavy" font-weight="bold" font-size="16.0" fill="#FEFFFF" transform="matrix(1.39, 0.00, -0.00, -1.39, 1492.1, 914.0)">S</text><text xml:space="preserve" font-family="Avenir-Heavy" font-weight="bold" font-size="16.0" fill="#FEFFFF" transform="matrix(1.39, 0.00, -0.00, -1.39, 1507.3, 914.0)">T</text><text xml:space="preserve" font-family="Avenir-Heavy" font-weight="bold" font-size="16.0" fill="#FEFFFF" transform="matrix(1.39, 0.00, -0.00, -1.39, 1520.4, 914.0)">A</text><text xml:space="preserve" font-family="Avenir-Heavy" font-weight="bold" font-size="16.0" fill="#FEFFFF" transform="matrix(1.39, 0.00, -0.00, -1.39, 1536.9, 914.0)">T</text><text xml:space="preserve" font-family="AvenirNextCondensed-Medium" font-size="16.0" fill="#000000" transform="matrix(1.39, 0.00, -0.00, -1.39, 1449.5, 876.0)">P</text><text xml:space="preserve" font-family="AvenirNextCondensed-Medium" font-size="16.0" fill="#000000" transform="matrix(1.39, 0.00, -0.00, -1.39, 1459.2, 876.0)">e</text><text xml:space="preserve" font-family="AvenirNextCondensed-Medium" font-size="16.0" fill="#000000" transform="matrix(1.39, 0.00, -0.00, -1.39, 1469.0, 876.0)">r</text><text xml:space="preserve" font-family="AvenirNextCondensed-Medium" font-size="16.0" fill="#000000" transform="matrix(1.39, 0.00, -0.00, -1.39, 1475.4, 876.0)">f</text><text xml:space="preserve" font-family="AvenirNextCondensed-Medium" font-size="16.0" fill="#000000" transform="matrix(1.39, 0.00, -0.00, -1.39, 1480.9, 876.0)">o</text><text xml:space="preserve" font-family="AvenirNextCondensed-Medium" font-size="16.0" fill="#000000" transform="matrix(1.39, 0.00, -0.00, -1.39, 1491.1, 876.0)">r</text><text xml:space="preserve" font-family="AvenirNextCondensed-Medium" font-size="16.0" fill="#000000" transform="matrix(1.39, 0.00, -0.00, -1.39, 1497.4, 876.0)">m</text><text xml:space="preserve" font-family="AvenirNextCondensed-Medium" font-size="16.0" fill="#000000" transform="matrix(1.39, 0.00, -0.00, -1.39, 1513.6, 876.0)">a</text><text xml:space="preserve" font-family="AvenirNextCondensed-Medium" font-size="16.0" fill="#000000" transform="matrix(1.39, 0.00, -0.00, -1.39, 1522.9, 876.0)">n</text><text xml:space="preserve" font-family="AvenirNextCondensed-Medium" font-size="16.0" fill="#000000" transform="matrix(1.39, 0.00, -0.00, -1.39, 1533.6, 876.0)">c</text><text xml:space="preserve" font-family="AvenirNextCondensed-Medium" font-size="16.0" fill="#000000" transform="matrix(1.39, 0.00, -0.00, -1.39, 1541.3, 876.0)">e</text><text xml:space="preserve" font-family="AvenirNextCondensed-Medium" font-size="16.0" fill="#000000" transform="matrix(1.39, 0.00, -0.00, -1.39, 1449.5, 822.9)">P</text><text xml:space="preserve" font-family="AvenirNextCondensed-Medium" font-size="16.0" fill="#000000" transform="matrix(1.39, 0.00, -0.00, -1.39, 1459.5, 822.9)">r</text><text xml:space="preserve" font-family="AvenirNextCondensed-Medium" font-size="16.0" fill="#000000" transform="matrix(1.39, 0.00, -0.00, -1.39, 1465.9, 822.9)">i</text><text xml:space="preserve" font-family="AvenirNextCondensed-Medium" font-size="16.0" fill="#000000" transform="matrix(1.39, 0.00, -0.00, -1.39, 1471.0, 822.9)">c</text><text xml:space="preserve" font-family="AvenirNextCondensed-Medium" font-size="16.0" fill="#000000" transform="matrix(1.39, 0.00, -0.00, -1.39, 1478.7, 822.9)">e</text><text xml:space="preserve" font-family="AvenirNextCondensed-Bold" font-weight="bold" font-size="16.0" fill="#DB2022" transform="matrix(1.39, 0.00, -0.00, -1.39, 1607.5, 876.0)">0</text><text xml:space="preserve" font-family="AvenirNextCondensed-Bold" font-weight="bold" font-size="16.0" fill="#508502" transform="matrix(1.39, 0.00, -0.00, -1.39, 1607.5, 822.9)">$</text><text xml:space="preserve" font-family="AvenirNextCondensed-Bold" font-weight="bold" font-size="16.0" fill="#508502" transform="matrix(1.39, 0.00, -0.00, -1.39, 1619.2, 822.9)">0</text></g></g><g><clipPath id="clip-2669"><path d="M 1654.9 890.9 L 1755.6 890.9 L 1755.6 875.2 L 1654.9 875.2 L 1654.9 890.9 Z M 1654.9 890.9 "></path></clipPath><g clip-path="url(#clip-2669)"><g><clipPath id="clip-2670"><path d="M 1438.8 800.3 L 1771.4 800.3 L 1771.4 940.4 L 1438.8 940.4 Z M 1438.8 800.3 "></path></clipPath><g clip-path="url(#clip-2670)"><path d="M 1647.9 897.9 L 1762.6 897.9 L 1762.6 868.2 L 1647.9 868.2 Z M 1647.9 897.9 " fill="#D7D7D7"></path></g></g></g></g><g><clipPath id="clip-2671"><path d="M 1654.9 890.9 L 1658.8 890.9 L 1658.8 875.2 L 1654.9 875.2 L 1654.9 890.9 Z M 1654.9 890.9 "></path></clipPath><g clip-path="url(#clip-2671)"><g><clipPath id="clip-2672"><path d="M 1438.8 800.3 L 1771.4 800.3 L 1771.4 940.4 L 1438.8 940.4 Z M 1438.8 800.3 "></path></clipPath><g clip-path="url(#clip-2672)"><path d="M 1647.9 897.9 L 1665.8 897.9 L 1665.8 868.2 L 1647.9 868.2 Z M 1647.9 897.9 " fill="#FA0000"></path></g></g></g></g></g></g></g><g opacity="0.96"><g><clipPath id="clip-2673"><path d="M 0.0 0.0 L 1920.0 0.0 L 1920.0 1080.0 L 0.0 1080.0 Z M 0.0 0.0 "></path></clipPath><g clip-path="url(#clip-2673)"><path d="M -0.0 1080.0 L 1920.0 1080.0 L 1920.0 -0.0 L -0.0 -0.0 Z M -0.0 1080.0 " fill="#000000"></path></g></g></g><text xml:space="preserve" font-family="Avenir-Book" font-size="42.0" fill="#FEFFFF" transform="matrix(1.00, 0.00, -0.00, -1.00, 704.0, 984.0)">C</text><text xml:space="preserve" font-family="Avenir-Book" font-size="42.0" fill="#FEFFFF" transform="matrix(1.00, 0.00, -0.00, -1.00, 733.6, 984.0)">H</text><text xml:space="preserve" font-family="Avenir-Book" font-size="42.0" fill="#FEFFFF" transform="matrix(1.00, 0.00, -0.00, -1.00, 763.9, 984.0)">O</text><text xml:space="preserve" font-family="Avenir-Book" font-size="42.0" fill="#FEFFFF" transform="matrix(1.00, 0.00, -0.00, -1.00, 798.9, 984.0)">O</text><text xml:space="preserve" font-family="Avenir-Book" font-size="42.0" fill="#FEFFFF" transform="matrix(1.00, 0.00, -0.00, -1.00, 833.9, 984.0)">S</text><text xml:space="preserve" font-family="Avenir-Book" font-size="42.0" fill="#FEFFFF" transform="matrix(1.00, 0.00, -0.00, -1.00, 857.3, 984.0)">E</text><text xml:space="preserve" font-family="Avenir-Book" font-size="42.0" fill="#FEFFFF" transform="matrix(1.00, 0.00, -0.00, -1.00, 882.2, 984.0)"> </text><text xml:space="preserve" font-family="Avenir-Book" font-size="42.0" fill="#FEFFFF" transform="matrix(1.00, 0.00, -0.00, -1.00, 893.9, 984.0)">M</text><text xml:space="preserve" font-family="Avenir-Book" font-size="42.0" fill="#FEFFFF" transform="matrix(1.00, 0.00, -0.00, -1.00, 931.3, 984.0)">O</text><text xml:space="preserve" font-family="Avenir-Book" font-size="42.0" fill="#FEFFFF" transform="matrix(1.00, 0.00, -0.00, -1.00, 966.3, 984.0)">T</text><text xml:space="preserve" font-family="Avenir-Book" font-size="42.0" fill="#FEFFFF" transform="matrix(1.00, 0.00, -0.00, -1.00, 990.4, 984.0)">H</text><text xml:space="preserve" font-family="Avenir-Book" font-size="42.0" fill="#FEFFFF" transform="matrix(1.00, 0.00, -0.00, -1.00, 1020.7, 984.0)">E</text><text xml:space="preserve" font-family="Avenir-Book" font-size="42.0" fill="#FEFFFF" transform="matrix(1.00, 0.00, -0.00, -1.00, 1045.6, 984.0)">R</text><text xml:space="preserve" font-family="Avenir-Book" font-size="42.0" fill="#FEFFFF" transform="matrix(1.00, 0.00, -0.00, -1.00, 1070.5, 984.0)">B</text><text xml:space="preserve" font-family="Avenir-Book" font-size="42.0" fill="#FEFFFF" transform="matrix(1.00, 0.00, -0.00, -1.00, 1097.0, 984.0)">O</text><text xml:space="preserve" font-family="Avenir-Book" font-size="42.0" fill="#FEFFFF" transform="matrix(1.00, 0.00, -0.00, -1.00, 1132.0, 984.0)">A</text><text xml:space="preserve" font-family="Avenir-Book" font-size="42.0" fill="#FEFFFF" transform="matrix(1.00, 0.00, -0.00, -1.00, 1160.8, 984.0)">R</text><text xml:space="preserve" font-family="Avenir-Book" font-size="42.0" fill="#FEFFFF" transform="matrix(1.00, 0.00, -0.00, -1.00, 1185.7, 984.0)">D</text><g><clipPath id="clip-2674"><path d="M 271.0 1037.0 L 1555.0 1037.0 L 1555.0 235.0 L 271.0 235.0 L 271.0 1037.0 Z M 271.0 1037.0 "></path></clipPath><g clip-path="url(#clip-2674)"><g><clipPath id="clip-2675"><path d="M 643.0 727.0 L 767.0 727.0 L 767.0 883.0 L 643.0 883.0 Z M 643.0 727.0 "></path></clipPath><g clip-path="url(#clip-2675)"><g><g><clipPath id="clip-2676"><path d="M 643.0 883.0 L 1183.0 883.0 L 1183.0 280.0 L 643.0 280.0 L 643.0 883.0 Z M 643.0 883.0 "></path></clipPath><g clip-path="url(#clip-2676)"><g><clipPath id="clip-2677"><path d="M 643.0 727.0 L 767.0 727.0 L 767.0 883.0 L 643.0 883.0 Z M 643.0 727.0 "></path></clipPath><g clip-path="url(#clip-2677)"><g><image xlink:href="../../86C23161-7833-4B5D-970E-9F70E31A29CD/assets/7F84974A619A1263C5D5B1DD27001B92.png" width="124.00" height="156.00" transform="matrix(1.00, 0.00, -0.00, -1.00, 643.0, 883.0)"></image><g><clipPath id="clip-2678"><path d="M 643.0 727.0 L 767.0 727.0 L 767.0 883.0 L 643.0 883.0 Z M 643.0 727.0 "></path></clipPath><g clip-path="url(#clip-2678)"><path d="M 327.0 877.0 C 327.0 880.3 329.7 883.0 333.0 883.0 L 441.0 883.0 C 444.3 883.0 447.0 880.3 447.0 877.0 L 447.0 739.0 C 447.0 735.7 444.3 733.0 441.0 733.0 L 333.0 733.0 C 329.7 733.0 327.0 735.7 327.0 739.0 L 327.0 877.0 Z M 327.0 877.0 " fill="#FFFFFF"></path></g></g><g><clipPath id="clip-2679"><path d="M 643.0 877.0 C 643.0 880.3 645.7 883.0 649.0 883.0 L 757.0 883.0 C 760.3 883.0 763.0 880.3 763.0 877.0 L 763.0 739.0 C 763.0 735.7 760.3 733.0 757.0 733.0 L 649.0 733.0 C 645.7 733.0 643.0 735.7 643.0 739.0 L 643.0 877.0 Z M 643.0 877.0 "></path></clipPath><g clip-path="url(#clip-2679)"><g><clipPath id="clip-2680"><path d="M 643.0 727.0 L 767.0 727.0 L 767.0 883.0 L 643.0 883.0 Z M 643.0 727.0 "></path></clipPath><g clip-path="url(#clip-2680)"><g><image xlink:href="../../4CB14B03-340A-4341-8442-49BC340847BB/assets/69CB384770721CC2E5FB58DC74BA5A57.png" width="120.00" height="150.00" transform="matrix(1.00, 0.00, -0.00, -1.00, 643.0, 883.0)"></image><g><clipPath id="clip-2681"><path d="M 643.0 733.0 L 763.0 733.0 L 763.0 883.0 L 643.0 883.0 Z M 643.0 733.0 "></path></clipPath><g clip-path="url(#clip-2681)"><path d="M 327.0 877.0 C 327.0 880.3 329.7 883.0 333.0 883.0 L 441.0 883.0 C 444.3 883.0 447.0 880.3 447.0 877.0 L 447.0 739.0 C 447.0 735.7 444.3 733.0 441.0 733.0 L 333.0 733.0 C 329.7 733.0 327.0 735.7 327.0 739.0 L 327.0 877.0 Z M 327.0 877.0 " fill="#FFFFFF"></path></g></g><g><clipPath id="clip-2682"><path d="M 643.0 733.0 L 763.0 733.0 L 763.0 883.0 L 643.0 883.0 Z M 643.0 733.0 "></path></clipPath><g clip-path="url(#clip-2682)"><path d="M 638.0 888.0 L 768.0 888.0 L 768.0 728.0 L 638.0 728.0 Z M 638.0 888.0 " fill="#FFE291"></path><image xlink:href="../../86C23161-7833-4B5D-970E-9F70E31A29CD/assets/1E338099411E42E27976DDB1D129A73F.png" width="600.00" height="480.00" transform="matrix(0.20, 0.00, -0.00, -0.20, 641.0, 862.0)"></image></g></g><image xlink:href="../../4CB14B03-340A-4341-8442-49BC340847BB/assets/B28F6707EBB20E85E68686A3F4BF1B52.png" width="120.00" height="31.00" transform="matrix(1.00, 0.00, -0.00, -1.00, 643.0, 784.0)"></image><g><clipPath id="clip-2683"><path d="M 643.0 737.0 L 763.0 737.0 L 763.0 792.0 L 643.0 792.0 Z M 643.0 737.0 "></path></clipPath><g clip-path="url(#clip-2683)"><path d="M 339.0 779.0 L 459.0 779.0 L 459.0 754.0 L 339.0 754.0 L 339.0 779.0 Z M 339.0 779.0 " fill="#FFFFFF"></path></g></g><g><clipPath id="clip-2684"><path d="M 643.0 779.0 L 763.0 779.0 L 763.0 754.0 L 643.0 754.0 L 643.0 779.0 Z M 643.0 779.0 "></path></clipPath><g clip-path="url(#clip-2684)"><g><clipPath id="clip-2685"><path d="M 643.0 733.0 L 763.0 733.0 L 763.0 883.0 L 643.0 883.0 Z M 643.0 733.0 "></path></clipPath><g clip-path="url(#clip-2685)"><path d="M 638.0 784.0 L 768.0 784.0 L 768.0 749.0 L 638.0 749.0 Z M 638.0 784.0 " fill="#D7BD71"></path></g></g></g></g><image xlink:href="../../86C23161-7833-4B5D-970E-9F70E31A29CD/assets/82BB36C39920A6685B1B7C7CCB8F98E6.png" width="33.00" height="39.00" transform="matrix(1.00, 0.00, -0.00, -1.00, 730.0, 883.0)"></image><g><clipPath id="clip-2686"><path d="M 724.0 836.0 L 763.0 836.0 L 763.0 883.0 L 724.0 883.0 Z M 724.0 836.0 "></path></clipPath><g clip-path="url(#clip-2686)"><image xlink:href="../../86C23161-7833-4B5D-970E-9F70E31A29CD/assets/66F00A54011FCB86A3A02996CEFE1DB0.png" width="1344.00" height="1600.00" transform="matrix(0.02, 0.00, -0.00, -0.02, 635.0, 883.0)"></image></g></g><g><clipPath id="clip-2687"><path d="M 643.0 733.0 L 763.0 733.0 L 763.0 883.0 L 643.0 883.0 Z M 643.0 733.0 "></path></clipPath><g clip-path="url(#clip-2687)"><image xlink:href="../../86C23161-7833-4B5D-970E-9F70E31A29CD/assets/66F00A54011FCB86A3A02996CEFE1DB0.png" width="1344.00" height="1600.00" transform="matrix(0.02, 0.00, -0.00, -0.02, 731.0, 883.0)"></image><text xml:space="preserve" font-family="AvenirNextCondensed-Medium" font-size="15.0" fill="#000000" transform="matrix(1.00, 0.00, -0.00, -1.00, 669.1, 761.0)">G</text><text xml:space="preserve" font-family="AvenirNextCondensed-Medium" font-size="15.0" fill="#000000" transform="matrix(1.00, 0.00, -0.00, -1.00, 677.2, 761.0)">a</text><text xml:space="preserve" font-family="AvenirNextCondensed-Medium" font-size="15.0" fill="#000000" transform="matrix(1.00, 0.00, -0.00, -1.00, 683.5, 761.0)">m</text><text xml:space="preserve" font-family="AvenirNextCondensed-Medium" font-size="15.0" fill="#000000" transform="matrix(1.00, 0.00, -0.00, -1.00, 694.4, 761.0)">i</text><text xml:space="preserve" font-family="AvenirNextCondensed-Medium" font-size="15.0" fill="#000000" transform="matrix(1.00, 0.00, -0.00, -1.00, 697.9, 761.0)">n</text><text xml:space="preserve" font-family="AvenirNextCondensed-Medium" font-size="15.0" fill="#000000" transform="matrix(1.00, 0.00, -0.00, -1.00, 705.1, 761.0)">g</text><text xml:space="preserve" font-family="AvenirNextCondensed-Medium" font-size="15.0" fill="#000000" transform="matrix(1.00, 0.00, -0.00, -1.00, 712.3, 761.0)"> </text><text xml:space="preserve" font-family="AvenirNextCondensed-Medium" font-size="15.0" fill="#000000" transform="matrix(1.00, 0.00, -0.00, -1.00, 715.2, 761.0)">9</text><text xml:space="preserve" font-family="AvenirNextCondensed-Medium" font-size="15.0" fill="#000000" transform="matrix(1.00, 0.00, -0.00, -1.00, 722.4, 761.0)">7</text><text xml:space="preserve" font-family="AvenirNextCondensed-Medium" font-size="15.0" fill="#000000" transform="matrix(1.00, 0.00, -0.00, -1.00, 729.6, 761.0)">0</text><text xml:space="preserve" font-family="AvenirNextCondensed-Medium" font-size="15.0" fill="#000000" transform="matrix(1.00, 0.00, -0.00, -1.00, 688.5, 738.0)">$</text><text xml:space="preserve" font-family="AvenirNextCondensed-Medium" font-size="15.0" fill="#000000" transform="matrix(1.00, 0.00, -0.00, -1.00, 695.8, 738.0)">1</text><text xml:space="preserve" font-family="AvenirNextCondensed-Medium" font-size="15.0" fill="#000000" transform="matrix(1.00, 0.00, -0.00, -1.00, 703.0, 738.0)">0</text><text xml:space="preserve" font-family="AvenirNextCondensed-Medium" font-size="15.0" fill="#000000" transform="matrix(1.00, 0.00, -0.00, -1.00, 710.2, 738.0)">0</text><text xml:space="preserve" font-family="AvenirNextCondensed-Medium" font-size="26.0" fill="#000000" transform="matrix(1.00, 0.00, -0.00, -1.00, 651.0, 855.0)">7</text><text xml:space="preserve" font-family="AvenirNextCondensed-Medium" font-size="26.0" fill="#000000" transform="matrix(1.00, 0.00, -0.00, -1.00, 663.5, 855.0)">2</text></g></g></g></g></g></g></g></g></g></g></g></g></g></g></g></g></g><image xlink:href="../../4CB14B03-340A-4341-8442-49BC340847BB/assets/8441AA333ED114A2C1EE3CAA8669164C.png" width="128.00" height="158.00" transform="matrix(1.00, 0.00, -0.00, -1.00, 896.0, 884.0)"></image><g><clipPath id="clip-2688"><path d="M 896.0 726.0 L 1024.0 726.0 L 1024.0 884.0 L 896.0 884.0 Z M 896.0 726.0 "></path></clipPath><g clip-path="url(#clip-2688)"><path d="M 584.0 876.0 C 584.0 879.3 586.7 882.0 590.0 882.0 L 698.0 882.0 C 701.3 882.0 704.0 879.3 704.0 876.0 L 704.0 738.0 C 704.0 734.7 701.3 732.0 698.0 732.0 L 590.0 732.0 C 586.7 732.0 584.0 734.7 584.0 738.0 L 584.0 876.0 Z M 584.0 876.0 " fill="#FFFFFF"></path></g></g><g><clipPath id="clip-2689"><path d="M 900.0 876.0 C 900.0 879.3 902.7 882.0 906.0 882.0 L 1014.0 882.0 C 1017.3 882.0 1020.0 879.3 1020.0 876.0 L 1020.0 738.0 C 1020.0 734.7 1017.3 732.0 1014.0 732.0 L 906.0 732.0 C 902.7 732.0 900.0 734.7 900.0 738.0 L 900.0 876.0 Z M 900.0 876.0 "></path></clipPath><g clip-path="url(#clip-2689)"><g><clipPath id="clip-2690"><path d="M 896.0 726.0 L 1024.0 726.0 L 1024.0 884.0 L 896.0 884.0 Z M 896.0 726.0 "></path></clipPath><g clip-path="url(#clip-2690)"><g><image xlink:href="../../4CB14B03-340A-4341-8442-49BC340847BB/assets/69CB384770721CC2E5FB58DC74BA5A57.png" width="120.00" height="150.00" transform="matrix(1.00, 0.00, -0.00, -1.00, 900.0, 882.0)"></image><g><clipPath id="clip-2691"><path d="M 900.0 732.0 L 1020.0 732.0 L 1020.0 882.0 L 900.0 882.0 Z M 900.0 732.0 "></path></clipPath><g clip-path="url(#clip-2691)"><path d="M 584.0 876.0 C 584.0 879.3 586.7 882.0 590.0 882.0 L 698.0 882.0 C 701.3 882.0 704.0 879.3 704.0 876.0 L 704.0 738.0 C 704.0 734.7 701.3 732.0 698.0 732.0 L 590.0 732.0 C 586.7 732.0 584.0 734.7 584.0 738.0 L 584.0 876.0 Z M 584.0 876.0 " fill="#FFFFFF"></path></g></g><g><clipPath id="clip-2692"><path d="M 900.0 732.0 L 1020.0 732.0 L 1020.0 882.0 L 900.0 882.0 Z M 900.0 732.0 "></path></clipPath><g clip-path="url(#clip-2692)"><path d="M 895.0 887.0 L 1025.0 887.0 L 1025.0 727.0 L 895.0 727.0 Z M 895.0 887.0 " fill="#9A9A9A"></path><image xlink:href="../../86C23161-7833-4B5D-970E-9F70E31A29CD/assets/1D1E05F6B62CE1D67CC32E3B3771F52C.png" width="600.00" height="480.00" transform="matrix(0.17, 0.00, -0.00, -0.17, 909.0, 853.0)"></image></g></g><image xlink:href="../../4CB14B03-340A-4341-8442-49BC340847BB/assets/B28F6707EBB20E85E68686A3F4BF1B52.png" width="120.00" height="31.00" transform="matrix(1.00, 0.00, -0.00, -1.00, 900.0, 783.0)"></image><g><clipPath id="clip-2693"><path d="M 900.0 736.0 L 1020.0 736.0 L 1020.0 791.0 L 900.0 791.0 Z M 900.0 736.0 "></path></clipPath><g clip-path="url(#clip-2693)"><path d="M 596.0 778.0 L 716.0 778.0 L 716.0 753.0 L 596.0 753.0 L 596.0 778.0 Z M 596.0 778.0 " fill="#FFFFFF"></path></g></g><g><clipPath id="clip-2694"><path d="M 900.0 778.0 L 1020.0 778.0 L 1020.0 753.0 L 900.0 753.0 L 900.0 778.0 Z M 900.0 778.0 "></path></clipPath><g clip-path="url(#clip-2694)"><g><clipPath id="clip-2695"><path d="M 900.0 732.0 L 1020.0 732.0 L 1020.0 882.0 L 900.0 882.0 Z M 900.0 732.0 "></path></clipPath><g clip-path="url(#clip-2695)"><path d="M 895.0 783.0 L 1025.0 783.0 L 1025.0 748.0 L 895.0 748.0 Z M 895.0 783.0 " fill="#777477"></path></g></g></g></g><image xlink:href="../../86C23161-7833-4B5D-970E-9F70E31A29CD/assets/C59DEFE2ADDDABCE79791B60187DCEF6.png" width="31.00" height="9.00" transform="matrix(1.00, 0.00, -0.00, -1.00, 985.0, 870.0)"></image><g><clipPath id="clip-2696"><path d="M 979.0 853.0 L 1020.0 853.0 L 1020.0 876.0 L 979.0 876.0 Z M 979.0 853.0 "></path></clipPath><g clip-path="url(#clip-2696)"><image xlink:href="../../86C23161-7833-4B5D-970E-9F70E31A29CD/assets/927B8AB0C44EA1E7EEF670E5DBD74210.png" width="2000.00" height="482.00" transform="matrix(0.01, 0.00, -0.00, -0.01, 896.0, 869.0)"></image></g></g><g><clipPath id="clip-2697"><path d="M 900.0 732.0 L 1020.0 732.0 L 1020.0 882.0 L 900.0 882.0 Z M 900.0 732.0 "></path></clipPath><g clip-path="url(#clip-2697)"><image xlink:href="../../86C23161-7833-4B5D-970E-9F70E31A29CD/assets/927B8AB0C44EA1E7EEF670E5DBD74210.png" width="2000.00" height="482.00" transform="matrix(0.01, 0.00, -0.00, -0.01, 986.0, 869.0)"></image><text xml:space="preserve" font-family="AvenirNextCondensed-Medium" font-size="15.0" fill="#000000" transform="matrix(1.00, 0.00, -0.00, -1.00, 932.6, 760.0)">H</text><text xml:space="preserve" font-family="AvenirNextCondensed-Medium" font-size="15.0" fill="#000000" transform="matrix(1.00, 0.00, -0.00, -1.00, 941.4, 760.0)">1</text><text xml:space="preserve" font-family="AvenirNextCondensed-Medium" font-size="15.0" fill="#000000" transform="matrix(1.00, 0.00, -0.00, -1.00, 948.6, 760.0)">1</text><text xml:space="preserve" font-family="AvenirNextCondensed-Medium" font-size="15.0" fill="#000000" transform="matrix(1.00, 0.00, -0.00, -1.00, 955.8, 760.0)">0</text><text xml:space="preserve" font-family="AvenirNextCondensed-Medium" font-size="15.0" fill="#000000" transform="matrix(1.00, 0.00, -0.00, -1.00, 963.1, 760.0)">I</text><text xml:space="preserve" font-family="AvenirNextCondensed-Medium" font-size="15.0" fill="#000000" transform="matrix(1.00, 0.00, -0.00, -1.00, 966.8, 760.0)"> </text><text xml:space="preserve" font-family="AvenirNextCondensed-Medium" font-size="15.0" fill="#000000" transform="matrix(1.00, 0.00, -0.00, -1.00, 969.6, 760.0)">P</text><text xml:space="preserve" font-family="AvenirNextCondensed-Medium" font-size="15.0" fill="#000000" transform="matrix(1.00, 0.00, -0.00, -1.00, 976.4, 760.0)">r</text><text xml:space="preserve" font-family="AvenirNextCondensed-Medium" font-size="15.0" fill="#000000" transform="matrix(1.00, 0.00, -0.00, -1.00, 980.5, 760.0)">o</text><text xml:space="preserve" font-family="AvenirNextCondensed-Medium" font-size="15.0" fill="#000000" transform="matrix(1.00, 0.00, -0.00, -1.00, 949.2, 737.0)">$</text><text xml:space="preserve" font-family="AvenirNextCondensed-Medium" font-size="15.0" fill="#000000" transform="matrix(1.00, 0.00, -0.00, -1.00, 956.4, 737.0)">7</text><text xml:space="preserve" font-family="AvenirNextCondensed-Medium" font-size="15.0" fill="#000000" transform="matrix(1.00, 0.00, -0.00, -1.00, 963.6, 737.0)">5</text><text xml:space="preserve" font-family="AvenirNextCondensed-Medium" font-size="26.0" fill="#000000" transform="matrix(1.00, 0.00, -0.00, -1.00, 908.0, 856.0)">6</text><text xml:space="preserve" font-family="AvenirNextCondensed-Medium" font-size="26.0" fill="#000000" transform="matrix(1.00, 0.00, -0.00, -1.00, 920.5, 856.0)">6</text></g></g></g></g></g></g></g><image xlink:href="../../4CB14B03-340A-4341-8442-49BC340847BB/assets/8441AA333ED114A2C1EE3CAA8669164C.png" width="128.00" height="158.00" transform="matrix(1.00, 0.00, -0.00, -1.00, 1151.0, 884.0)"></image><g><clipPath id="clip-2698"><path d="M 1151.0 726.0 L 1279.0 726.0 L 1279.0 884.0 L 1151.0 884.0 Z M 1151.0 726.0 "></path></clipPath><g clip-path="url(#clip-2698)"><path d="M 839.0 876.0 C 839.0 879.3 841.7 882.0 845.0 882.0 L 953.0 882.0 C 956.3 882.0 959.0 879.3 959.0 876.0 L 959.0 738.0 C 959.0 734.7 956.3 732.0 953.0 732.0 L 845.0 732.0 C 841.7 732.0 839.0 734.7 839.0 738.0 L 839.0 876.0 Z M 839.0 876.0 " fill="#FFFFFF"></path></g></g><g><clipPath id="clip-2699"><path d="M 1155.0 876.0 C 1155.0 879.3 1157.7 882.0 1161.0 882.0 L 1269.0 882.0 C 1272.3 882.0 1275.0 879.3 1275.0 876.0 L 1275.0 738.0 C 1275.0 734.7 1272.3 732.0 1269.0 732.0 L 1161.0 732.0 C 1157.7 732.0 1155.0 734.7 1155.0 738.0 L 1155.0 876.0 Z M 1155.0 876.0 "></path></clipPath><g clip-path="url(#clip-2699)"><g><clipPath id="clip-2700"><path d="M 1151.0 726.0 L 1279.0 726.0 L 1279.0 884.0 L 1151.0 884.0 Z M 1151.0 726.0 "></path></clipPath><g clip-path="url(#clip-2700)"><g><image xlink:href="../../4CB14B03-340A-4341-8442-49BC340847BB/assets/69CB384770721CC2E5FB58DC74BA5A57.png" width="120.00" height="150.00" transform="matrix(1.00, 0.00, -0.00, -1.00, 1155.0, 882.0)"></image><g><clipPath id="clip-2701"><path d="M 1155.0 732.0 L 1275.0 732.0 L 1275.0 882.0 L 1155.0 882.0 Z M 1155.0 732.0 "></path></clipPath><g clip-path="url(#clip-2701)"><path d="M 839.0 876.0 C 839.0 879.3 841.7 882.0 845.0 882.0 L 953.0 882.0 C 956.3 882.0 959.0 879.3 959.0 876.0 L 959.0 738.0 C 959.0 734.7 956.3 732.0 953.0 732.0 L 845.0 732.0 C 841.7 732.0 839.0 734.7 839.0 738.0 L 839.0 876.0 Z M 839.0 876.0 " fill="#FFFFFF"></path></g></g><g><clipPath id="clip-2702"><path d="M 1155.0 732.0 L 1275.0 732.0 L 1275.0 882.0 L 1155.0 882.0 Z M 1155.0 732.0 "></path></clipPath><g clip-path="url(#clip-2702)"><path d="M 1150.0 887.0 L 1280.0 887.0 L 1280.0 727.0 L 1150.0 727.0 Z M 1150.0 887.0 " fill="#A37750"></path><image xlink:href="../../86C23161-7833-4B5D-970E-9F70E31A29CD/assets/44900CCEADFA22733D7BBBB1881B91C7.png" width="600.00" height="480.00" transform="matrix(0.22, 0.00, -0.00, -0.22, 1150.0, 864.0)"></image></g></g><image xlink:href="../../4CB14B03-340A-4341-8442-49BC340847BB/assets/B28F6707EBB20E85E68686A3F4BF1B52.png" width="120.00" height="31.00" transform="matrix(1.00, 0.00, -0.00, -1.00, 1155.0, 783.0)"></image><g><clipPath id="clip-2703"><path d="M 1155.0 736.0 L 1275.0 736.0 L 1275.0 791.0 L 1155.0 791.0 Z M 1155.0 736.0 "></path></clipPath><g clip-path="url(#clip-2703)"><path d="M 851.0 778.0 L 971.0 778.0 L 971.0 753.0 L 851.0 753.0 L 851.0 778.0 Z M 851.0 778.0 " fill="#FFFFFF"></path></g></g><g><clipPath id="clip-2704"><path d="M 1155.0 778.0 L 1275.0 778.0 L 1275.0 753.0 L 1155.0 753.0 L 1155.0 778.0 Z M 1155.0 778.0 "></path></clipPath><g clip-path="url(#clip-2704)"><g><clipPath id="clip-2705"><path d="M 1155.0 732.0 L 1275.0 732.0 L 1275.0 882.0 L 1155.0 882.0 Z M 1155.0 732.0 "></path></clipPath><g clip-path="url(#clip-2705)"><path d="M 1150.0 783.0 L 1280.0 783.0 L 1280.0 748.0 L 1150.0 748.0 Z M 1150.0 783.0 " fill="#946841"></path></g></g></g></g><image xlink:href="../../86C23161-7833-4B5D-970E-9F70E31A29CD/assets/C59DEFE2ADDDABCE79791B60187DCEF6.png" width="31.00" height="9.00" transform="matrix(1.00, 0.00, -0.00, -1.00, 1240.0, 870.0)"></image><g><clipPath id="clip-2706"><path d="M 1234.0 853.0 L 1275.0 853.0 L 1275.0 876.0 L 1234.0 876.0 Z M 1234.0 853.0 "></path></clipPath><g clip-path="url(#clip-2706)"><image xlink:href="../../86C23161-7833-4B5D-970E-9F70E31A29CD/assets/927B8AB0C44EA1E7EEF670E5DBD74210.png" width="2000.00" height="482.00" transform="matrix(0.01, 0.00, -0.00, -0.01, 1151.0, 869.0)"></image></g></g><g><clipPath id="clip-2707"><path d="M 1155.0 732.0 L 1275.0 732.0 L 1275.0 882.0 L 1155.0 882.0 Z M 1155.0 732.0 "></path></clipPath><g clip-path="url(#clip-2707)"><image xlink:href="../../86C23161-7833-4B5D-970E-9F70E31A29CD/assets/927B8AB0C44EA1E7EEF670E5DBD74210.png" width="2000.00" height="482.00" transform="matrix(0.01, 0.00, -0.00, -0.01, 1241.0, 869.0)"></image><text xml:space="preserve" font-family="AvenirNextCondensed-Medium" font-size="15.0" fill="#000000" transform="matrix(1.00, 0.00, -0.00, -1.00, 1170.1, 760.0)">F</text><text xml:space="preserve" font-family="AvenirNextCondensed-Medium" font-size="15.0" fill="#000000" transform="matrix(1.00, 0.00, -0.00, -1.00, 1176.2, 760.0)">M</text><text xml:space="preserve" font-family="AvenirNextCondensed-Medium" font-size="15.0" fill="#000000" transform="matrix(1.00, 0.00, -0.00, -1.00, 1187.1, 760.0)">2</text><text xml:space="preserve" font-family="AvenirNextCondensed-Medium" font-size="15.0" fill="#000000" transform="matrix(1.00, 0.00, -0.00, -1.00, 1194.3, 760.0)">-</text><text xml:space="preserve" font-family="AvenirNextCondensed-Medium" font-size="15.0" fill="#000000" transform="matrix(1.00, 0.00, -0.00, -1.00, 1197.8, 760.0)">A</text><text xml:space="preserve" font-family="AvenirNextCondensed-Medium" font-size="15.0" fill="#000000" transform="matrix(1.00, 0.00, -0.00, -1.00, 1205.1, 760.0)">8</text><text xml:space="preserve" font-family="AvenirNextCondensed-Medium" font-size="15.0" fill="#000000" transform="matrix(1.00, 0.00, -0.00, -1.00, 1212.3, 760.0)">5</text><text xml:space="preserve" font-family="AvenirNextCondensed-Medium" font-size="15.0" fill="#000000" transform="matrix(1.00, 0.00, -0.00, -1.00, 1219.5, 760.0)">X</text><text xml:space="preserve" font-family="AvenirNextCondensed-Medium" font-size="15.0" fill="#000000" transform="matrix(1.00, 0.00, -0.00, -1.00, 1226.6, 760.0)">A</text><text xml:space="preserve" font-family="AvenirNextCondensed-Medium" font-size="15.0" fill="#000000" transform="matrix(1.00, 0.00, -0.00, -1.00, 1233.9, 760.0)">-</text><text xml:space="preserve" font-family="AvenirNextCondensed-Medium" font-size="15.0" fill="#000000" transform="matrix(1.00, 0.00, -0.00, -1.00, 1237.3, 760.0)">G</text><text xml:space="preserve" font-family="AvenirNextCondensed-Medium" font-size="15.0" fill="#000000" transform="matrix(1.00, 0.00, -0.00, -1.00, 1245.5, 760.0)">6</text><text xml:space="preserve" font-family="AvenirNextCondensed-Medium" font-size="15.0" fill="#000000" transform="matrix(1.00, 0.00, -0.00, -1.00, 1252.7, 760.0)">5</text><text xml:space="preserve" font-family="AvenirNextCondensed-Medium" font-size="15.0" fill="#000000" transform="matrix(1.00, 0.00, -0.00, -1.00, 1204.2, 737.0)">$</text><text xml:space="preserve" font-family="AvenirNextCondensed-Medium" font-size="15.0" fill="#000000" transform="matrix(1.00, 0.00, -0.00, -1.00, 1211.4, 737.0)">5</text><text xml:space="preserve" font-family="AvenirNextCondensed-Medium" font-size="15.0" fill="#000000" transform="matrix(1.00, 0.00, -0.00, -1.00, 1218.6, 737.0)">0</text><text xml:space="preserve" font-family="AvenirNextCondensed-Medium" font-size="26.0" fill="#000000" transform="matrix(1.00, 0.00, -0.00, -1.00, 1163.0, 856.0)">5</text><text xml:space="preserve" font-family="AvenirNextCondensed-Medium" font-size="26.0" fill="#000000" transform="matrix(1.00, 0.00, -0.00, -1.00, 1175.5, 856.0)">2</text></g></g></g></g></g></g></g></g></svg>