<?xml version="1.0" encoding="UTF-8" standalone="no"?><svg xmlns="http://www.w3.org/2000/svg" xmlns:xlink="http://www.w3.org/1999/xlink" clip-rule="evenodd" stroke-miterlimit="4.00" viewBox="0 0 1920 1080"><desc>SVG generated by Keynote</desc><defs></defs><g transform="matrix(1.00, 0.00, -0.00, -1.00, 0.0, 1080.0)"><path d="M 0.0 1080.0 L 1920.0 1080.0 L 1920.0 0.0 L 0.0 0.0 Z M 0.0 1080.0 " fill="#BADCFF"></path><image xlink:href="../../4CB14B03-340A-4341-8442-49BC340847BB/assets/8441AA333ED114A2C1EE3CAA8669164C.png" width="128.00" height="158.00" transform="matrix(1.00, 0.00, -0.00, -1.00, 896.0, 957.0)"></image><g><clipPath id="clip-335"><path d="M 891.0 780.0 L 1030.0 780.0 L 1030.0 957.0 L 891.0 957.0 Z M 891.0 780.0 "></path></clipPath><g clip-path="url(#clip-335)"><path d="M 584.0 949.0 C 584.0 952.3 586.7 955.0 590.0 955.0 L 698.0 955.0 C 701.3 955.0 704.0 952.3 704.0 949.0 L 704.0 811.0 C 704.0 807.7 701.3 805.0 698.0 805.0 L 590.0 805.0 C 586.7 805.0 584.0 807.7 584.0 811.0 L 584.0 949.0 Z M 584.0 949.0 " fill="#FFFFFF"></path></g></g><g><clipPath id="clip-336"><path d="M 900.0 949.0 C 900.0 952.3 902.7 955.0 906.0 955.0 L 1014.0 955.0 C 1017.3 955.0 1020.0 952.3 1020.0 949.0 L 1020.0 811.0 C 1020.0 807.7 1017.3 805.0 1014.0 805.0 L 906.0 805.0 C 902.7 805.0 900.0 807.7 900.0 811.0 L 900.0 949.0 Z M 900.0 949.0 "></path></clipPath><g clip-path="url(#clip-336)"><g><clipPath id="clip-337"><path d="M 891.0 775.0 L 1030.0 775.0 L 1030.0 957.0 L 891.0 957.0 Z M 891.0 775.0 "></path></clipPath><g clip-path="url(#clip-337)"><g><image xlink:href="../../4CB14B03-340A-4341-8442-49BC340847BB/assets/69CB384770721CC2E5FB58DC74BA5A57.png" width="120.00" height="150.00" transform="matrix(1.00, 0.00, -0.00, -1.00, 900.0, 955.0)"></image><g><clipPath id="clip-338"><path d="M 900.0 805.0 L 1020.0 805.0 L 1020.0 955.0 L 900.0 955.0 Z M 900.0 805.0 "></path></clipPath><g clip-path="url(#clip-338)"><path d="M 584.0 949.0 C 584.0 952.3 586.7 955.0 590.0 955.0 L 698.0 955.0 C 701.3 955.0 704.0 952.3 704.0 949.0 L 704.0 811.0 C 704.0 807.7 701.3 805.0 698.0 805.0 L 590.0 805.0 C 586.7 805.0 584.0 807.7 584.0 811.0 L 584.0 949.0 Z M 584.0 949.0 " fill="#FFFFFF"></path></g></g><g><clipPath id="clip-339"><path d="M 900.0 805.0 L 1020.0 805.0 L 1020.0 955.0 L 900.0 955.0 Z M 900.0 805.0 "></path></clipPath><g clip-path="url(#clip-339)"><path d="M 895.0 960.0 L 1025.0 960.0 L 1025.0 800.0 L 895.0 800.0 Z M 895.0 960.0 " fill="#FFE291"></path><image xlink:href="../../4CB14B03-340A-4341-8442-49BC340847BB/assets/CFAE94D3DE146C967986E2594A2C27D3.png" width="295.00" height="249.00" transform="matrix(0.29, 0.00, -0.00, -0.29, 920.0, 921.0)"></image></g></g><image xlink:href="../../4CB14B03-340A-4341-8442-49BC340847BB/assets/B28F6707EBB20E85E68686A3F4BF1B52.png" width="120.00" height="31.00" transform="matrix(1.00, 0.00, -0.00, -1.00, 900.0, 856.0)"></image><g><clipPath id="clip-340"><path d="M 900.0 809.0 L 1020.0 809.0 L 1020.0 864.0 L 900.0 864.0 Z M 900.0 809.0 "></path></clipPath><g clip-path="url(#clip-340)"><path d="M 596.0 851.0 L 716.0 851.0 L 716.0 826.0 L 596.0 826.0 L 596.0 851.0 Z M 596.0 851.0 " fill="#FFFFFF"></path></g></g><g><clipPath id="clip-341"><path d="M 900.0 851.0 L 1020.0 851.0 L 1020.0 826.0 L 900.0 826.0 L 900.0 851.0 Z M 900.0 851.0 "></path></clipPath><g clip-path="url(#clip-341)"><g><clipPath id="clip-342"><path d="M 900.0 805.0 L 1020.0 805.0 L 1020.0 955.0 L 900.0 955.0 Z M 900.0 805.0 "></path></clipPath><g clip-path="url(#clip-342)"><path d="M 895.0 856.0 L 1025.0 856.0 L 1025.0 821.0 L 895.0 821.0 Z M 895.0 856.0 " fill="#D7BD71"></path></g></g></g></g><image xlink:href="../../4CB14B03-340A-4341-8442-49BC340847BB/assets/5930CBD9E11EDD7FE1FD828CB4131200.png" width="18.00" height="20.00" transform="matrix(1.00, 0.00, -0.00, -1.00, 994.0, 949.0)"></image><g><clipPath id="clip-343"><path d="M 988.0 921.0 L 1020.0 921.0 L 1020.0 955.0 L 988.0 955.0 Z M 988.0 921.0 "></path></clipPath><g clip-path="url(#clip-343)"><image xlink:href="../../4CB14B03-340A-4341-8442-49BC340847BB/assets/E62ADDD91978E5B0F6496E51F04F3C9B.png" width="1377.00" height="1453.00" transform="matrix(0.01, 0.00, -0.00, -0.01, 931.0, 948.0)"></image></g></g><g><clipPath id="clip-344"><path d="M 900.0 805.0 L 1020.0 805.0 L 1020.0 955.0 L 900.0 955.0 Z M 900.0 805.0 "></path></clipPath><g clip-path="url(#clip-344)"><image xlink:href="../../4CB14B03-340A-4341-8442-49BC340847BB/assets/E62ADDD91978E5B0F6496E51F04F3C9B.png" width="1377.00" height="1453.00" transform="matrix(0.01, 0.00, -0.00, -0.01, 995.0, 948.0)"></image><text xml:space="preserve" font-family="AvenirNextCondensed-Medium" font-size="15.0" fill="#000000" transform="matrix(1.00, 0.00, -0.00, -1.00, 933.5, 833.0)">A</text><text xml:space="preserve" font-family="AvenirNextCondensed-Medium" font-size="15.0" fill="#000000" transform="matrix(1.00, 0.00, -0.00, -1.00, 940.8, 833.0)">t</text><text xml:space="preserve" font-family="AvenirNextCondensed-Medium" font-size="15.0" fill="#000000" transform="matrix(1.00, 0.00, -0.00, -1.00, 944.8, 833.0)">h</text><text xml:space="preserve" font-family="AvenirNextCondensed-Medium" font-size="15.0" fill="#000000" transform="matrix(1.00, 0.00, -0.00, -1.00, 952.0, 833.0)">l</text><text xml:space="preserve" font-family="AvenirNextCondensed-Medium" font-size="15.0" fill="#000000" transform="matrix(1.00, 0.00, -0.00, -1.00, 955.5, 833.0)">o</text><text xml:space="preserve" font-family="AvenirNextCondensed-Medium" font-size="15.0" fill="#000000" transform="matrix(1.00, 0.00, -0.00, -1.00, 962.3, 833.0)">n</text><text xml:space="preserve" font-family="AvenirNextCondensed-Medium" font-size="15.0" fill="#000000" transform="matrix(1.00, 0.00, -0.00, -1.00, 969.6, 833.0)"> </text><text xml:space="preserve" font-family="AvenirNextCondensed-Medium" font-size="15.0" fill="#000000" transform="matrix(1.00, 0.00, -0.00, -1.00, 972.2, 833.0)">X</text><text xml:space="preserve" font-family="AvenirNextCondensed-Medium" font-size="15.0" fill="#000000" transform="matrix(1.00, 0.00, -0.00, -1.00, 979.3, 833.0)">4</text><text xml:space="preserve" font-family="AvenirNextCondensed-Medium" font-size="15.0" fill="#000000" transform="matrix(1.00, 0.00, -0.00, -1.00, 949.2, 810.0)">$</text><text xml:space="preserve" font-family="AvenirNextCondensed-Medium" font-size="15.0" fill="#000000" transform="matrix(1.00, 0.00, -0.00, -1.00, 956.4, 810.0)">8</text><text xml:space="preserve" font-family="AvenirNextCondensed-Medium" font-size="15.0" fill="#000000" transform="matrix(1.00, 0.00, -0.00, -1.00, 963.6, 810.0)">5</text><text xml:space="preserve" font-family="AvenirNextCondensed-Medium" font-size="26.0" fill="#000000" transform="matrix(1.00, 0.00, -0.00, -1.00, 908.0, 929.0)">6</text><text xml:space="preserve" font-family="AvenirNextCondensed-Medium" font-size="26.0" fill="#000000" transform="matrix(1.00, 0.00, -0.00, -1.00, 920.5, 929.0)">8</text></g></g></g></g></g></g></g><g><clipPath id="clip-345"><path d="M 891.0 775.0 L 1030.0 775.0 L 1030.0 957.0 L 891.0 957.0 Z M 891.0 775.0 "></path></clipPath><g clip-path="url(#clip-345)"><path d="M 0.0 0.0 " fill="none" stroke="#969696" stroke-width="1.00" stroke-miterlimit="0.00" transform="matrix(1.00, 0.00, 0.00, -1.00, 900.5, 805.9)"></path></g></g><g><clipPath id="clip-346"><path d="M 960.1 807.1 L 905.5 807.1 L 901.1 832.3 L 891.5 832.3 L 897.5 776.4 L 960.1 776.4 L 1022.8 776.4 L 1028.7 832.3 L 1019.2 832.3 L 1014.8 807.1 L 960.1 807.1 Z M 960.1 807.1 "></path></clipPath><g clip-path="url(#clip-346)"><g><clipPath id="clip-347"><path d="M 891.0 775.0 L 1030.0 775.0 L 1030.0 833.5 L 891.0 833.5 Z M 891.0 775.0 "></path></clipPath><g clip-path="url(#clip-347)"><path d="M 886.5 837.3 L 1033.7 837.3 L 1033.7 771.4 L 886.5 771.4 Z M 886.5 837.3 " fill="#3D3737"></path></g></g></g></g><g><clipPath id="clip-348"><path d="M 891.0 775.0 L 1030.0 775.0 L 1030.0 833.5 L 891.0 833.5 Z M 891.0 775.0 "></path></clipPath><g clip-path="url(#clip-348)"><path d="M 68.6 25.2 L 14.0 25.2 L 9.5 0.0 L 0.0 0.0 L 6.0 55.9 L 68.6 55.9 L 131.2 55.9 L 137.2 0.0 L 127.7 0.0 L 123.2 25.2 L 68.6 25.2 Z M 68.6 25.2 " fill="none" stroke="#CACACA" stroke-width="1.00" stroke-miterlimit="0.00" transform="matrix(1.00, 0.00, 0.00, -1.00, 891.5, 832.3)"></path><text xml:space="preserve" font-family="AvenirNextCondensed-Bold" font-weight="bold" font-size="13.0" fill="#ABABAB" transform="matrix(1.00, 0.00, -0.00, -1.00, 950.7, 789.1)">C</text><text xml:space="preserve" font-family="AvenirNextCondensed-Bold" font-weight="bold" font-size="13.0" fill="#ABABAB" transform="matrix(1.00, 0.00, -0.00, -1.00, 957.4, 789.1)">P</text><text xml:space="preserve" font-family="AvenirNextCondensed-Bold" font-weight="bold" font-size="13.0" fill="#ABABAB" transform="matrix(1.00, 0.00, -0.00, -1.00, 964.1, 789.1)">U</text></g></g><g><clipPath id="clip-349"><path d="M 961.6 479.6 L 907.0 479.6 L 902.5 504.8 L 893.0 504.8 L 899.0 448.9 L 961.6 448.9 L 1024.2 448.9 L 1030.2 504.8 L 1020.7 504.8 L 1016.2 479.6 L 961.6 479.6 Z M 961.6 479.6 "></path></clipPath><g clip-path="url(#clip-349)"><g><clipPath id="clip-350"><path d="M 892.0 448.0 L 1031.0 448.0 L 1031.0 506.0 L 892.0 506.0 Z M 892.0 448.0 "></path></clipPath><g clip-path="url(#clip-350)"><path d="M 888.0 509.8 L 1035.2 509.8 L 1035.2 443.9 L 888.0 443.9 Z M 888.0 509.8 " fill="#3D3737"></path></g></g></g></g><g><clipPath id="clip-351"><path d="M 892.0 448.0 L 1031.0 448.0 L 1031.0 506.0 L 892.0 506.0 Z M 892.0 448.0 "></path></clipPath><g clip-path="url(#clip-351)"><path d="M 68.6 25.2 L 14.0 25.2 L 9.5 0.0 L 0.0 0.0 L 6.0 55.9 L 68.6 55.9 L 131.2 55.9 L 137.2 0.0 L 127.7 0.0 L 123.2 25.2 L 68.6 25.2 Z M 68.6 25.2 " fill="none" stroke="#CACACA" stroke-width="1.00" stroke-miterlimit="0.00" transform="matrix(1.00, 0.00, 0.00, -1.00, 893.0, 504.8)"></path><text xml:space="preserve" font-family="AvenirNextCondensed-Bold" font-weight="bold" font-size="13.0" fill="#ABABAB" transform="matrix(1.00, 0.00, -0.00, -1.00, 922.4, 461.6)">M</text><text xml:space="preserve" font-family="AvenirNextCondensed-Bold" font-weight="bold" font-size="13.0" fill="#ABABAB" transform="matrix(1.00, 0.00, -0.00, -1.00, 932.4, 461.6)">O</text><text xml:space="preserve" font-family="AvenirNextCondensed-Bold" font-weight="bold" font-size="13.0" fill="#ABABAB" transform="matrix(1.00, 0.00, -0.00, -1.00, 940.0, 461.6)">T</text><text xml:space="preserve" font-family="AvenirNextCondensed-Bold" font-weight="bold" font-size="13.0" fill="#ABABAB" transform="matrix(1.00, 0.00, -0.00, -1.00, 945.4, 461.6)">H</text><text xml:space="preserve" font-family="AvenirNextCondensed-Bold" font-weight="bold" font-size="13.0" fill="#ABABAB" transform="matrix(1.00, 0.00, -0.00, -1.00, 953.3, 461.6)">E</text><text xml:space="preserve" font-family="AvenirNextCondensed-Bold" font-weight="bold" font-size="13.0" fill="#ABABAB" transform="matrix(1.00, 0.00, -0.00, -1.00, 959.1, 461.6)">R</text><text xml:space="preserve" font-family="AvenirNextCondensed-Bold" font-weight="bold" font-size="13.0" fill="#ABABAB" transform="matrix(1.00, 0.00, -0.00, -1.00, 966.2, 461.6)">B</text><text xml:space="preserve" font-family="AvenirNextCondensed-Bold" font-weight="bold" font-size="13.0" fill="#ABABAB" transform="matrix(1.00, 0.00, -0.00, -1.00, 973.2, 461.6)">O</text><text xml:space="preserve" font-family="AvenirNextCondensed-Bold" font-weight="bold" font-size="13.0" fill="#ABABAB" transform="matrix(1.00, 0.00, -0.00, -1.00, 981.1, 461.6)">A</text><text xml:space="preserve" font-family="AvenirNextCondensed-Bold" font-weight="bold" font-size="13.0" fill="#ABABAB" transform="matrix(1.00, 0.00, -0.00, -1.00, 988.2, 461.6)">R</text><text xml:space="preserve" font-family="AvenirNextCondensed-Bold" font-weight="bold" font-size="13.0" fill="#ABABAB" transform="matrix(1.00, 0.00, -0.00, -1.00, 995.2, 461.6)">D</text></g></g><image xlink:href="../../4CB14B03-340A-4341-8442-49BC340847BB/assets/87FB1FCC1B5BBB7B2842497D2218EDF8.png" width="288.00" height="125.00" transform="matrix(1.00, 0.00, -0.00, -1.00, 1472.0, 994.0)"></image><g><clipPath id="clip-352"><path d="M 1472.0 869.0 L 1760.0 869.0 L 1760.0 994.0 L 1472.0 994.0 Z M 1472.0 869.0 "></path></clipPath><g clip-path="url(#clip-352)"><g><g><clipPath id="clip-353"><path d="M 1476.7 966.5 L 1755.3 966.5 L 1755.3 876.1 L 1476.7 876.1 L 1476.7 966.5 Z M 1476.7 966.5 "></path></clipPath><g clip-path="url(#clip-353)"><g><clipPath id="clip-354"><path d="M 1474.4 876.1 L 1755.3 876.1 L 1755.3 995.2 L 1474.4 995.2 Z M 1474.4 876.1 "></path></clipPath><g clip-path="url(#clip-354)"><path d="M 1470.8 972.4 L 1761.2 972.4 L 1761.2 870.2 L 1470.8 870.2 Z M 1470.8 972.4 " fill="#FFFFFF"></path></g></g></g></g><g><clipPath id="clip-355"><path d="M 1476.7 991.6 L 1730.3 991.6 L 1755.3 966.5 L 1476.7 966.5 L 1476.7 991.6 Z M 1476.7 991.6 "></path></clipPath><g clip-path="url(#clip-355)"><g><clipPath id="clip-356"><path d="M 1474.4 876.1 L 1755.3 876.1 L 1755.3 995.2 L 1474.4 995.2 Z M 1474.4 876.1 "></path></clipPath><g clip-path="url(#clip-356)"><path d="M 1470.8 997.5 L 1761.2 997.5 L 1761.2 960.6 L 1470.8 960.6 Z M 1470.8 997.5 " fill="#817B83"></path></g></g></g></g><g><clipPath id="clip-357"><path d="M 1474.4 876.1 L 1755.3 876.1 L 1755.3 995.2 L 1474.4 995.2 Z M 1474.4 876.1 "></path></clipPath><g clip-path="url(#clip-357)"><text xml:space="preserve" font-family="Avenir-Heavy" font-weight="bold" font-size="16.0" fill="#FEFFFF" transform="matrix(1.18, 0.00, -0.00, -1.18, 1483.4, 972.8)">P</text><text xml:space="preserve" font-family="Avenir-Heavy" font-weight="bold" font-size="16.0" fill="#FEFFFF" transform="matrix(1.18, 0.00, -0.00, -1.18, 1496.9, 972.8)">C</text><text xml:space="preserve" font-family="Avenir-Heavy" font-weight="bold" font-size="16.0" fill="#FEFFFF" transform="matrix(1.18, 0.00, -0.00, -1.18, 1511.8, 972.8)"> </text><text xml:space="preserve" font-family="Avenir-Heavy" font-weight="bold" font-size="16.0" fill="#FEFFFF" transform="matrix(1.18, 0.00, -0.00, -1.18, 1519.4, 972.8)">S</text><text xml:space="preserve" font-family="Avenir-Heavy" font-weight="bold" font-size="16.0" fill="#FEFFFF" transform="matrix(1.18, 0.00, -0.00, -1.18, 1532.2, 972.8)">T</text><text xml:space="preserve" font-family="Avenir-Heavy" font-weight="bold" font-size="16.0" fill="#FEFFFF" transform="matrix(1.18, 0.00, -0.00, -1.18, 1543.3, 972.8)">A</text><text xml:space="preserve" font-family="Avenir-Heavy" font-weight="bold" font-size="16.0" fill="#FEFFFF" transform="matrix(1.18, 0.00, -0.00, -1.18, 1557.2, 972.8)">T</text><text xml:space="preserve" font-family="AvenirNextCondensed-Medium" font-size="16.0" fill="#000000" transform="matrix(1.18, 0.00, -0.00, -1.18, 1483.4, 940.5)">P</text><text xml:space="preserve" font-family="AvenirNextCondensed-Medium" font-size="16.0" fill="#000000" transform="matrix(1.18, 0.00, -0.00, -1.18, 1491.6, 940.5)">e</text><text xml:space="preserve" font-family="AvenirNextCondensed-Medium" font-size="16.0" fill="#000000" transform="matrix(1.18, 0.00, -0.00, -1.18, 1499.9, 940.5)">r</text><text xml:space="preserve" font-family="AvenirNextCondensed-Medium" font-size="16.0" fill="#000000" transform="matrix(1.18, 0.00, -0.00, -1.18, 1505.2, 940.5)">f</text><text xml:space="preserve" font-family="AvenirNextCondensed-Medium" font-size="16.0" fill="#000000" transform="matrix(1.18, 0.00, -0.00, -1.18, 1510.0, 940.5)">o</text><text xml:space="preserve" font-family="AvenirNextCondensed-Medium" font-size="16.0" fill="#000000" transform="matrix(1.18, 0.00, -0.00, -1.18, 1518.5, 940.5)">r</text><text xml:space="preserve" font-family="AvenirNextCondensed-Medium" font-size="16.0" fill="#000000" transform="matrix(1.18, 0.00, -0.00, -1.18, 1523.9, 940.5)">m</text><text xml:space="preserve" font-family="AvenirNextCondensed-Medium" font-size="16.0" fill="#000000" transform="matrix(1.18, 0.00, -0.00, -1.18, 1537.6, 940.5)">a</text><text xml:space="preserve" font-family="AvenirNextCondensed-Medium" font-size="16.0" fill="#000000" transform="matrix(1.18, 0.00, -0.00, -1.18, 1545.4, 940.5)">n</text><text xml:space="preserve" font-family="AvenirNextCondensed-Medium" font-size="16.0" fill="#000000" transform="matrix(1.18, 0.00, -0.00, -1.18, 1554.5, 940.5)">c</text><text xml:space="preserve" font-family="AvenirNextCondensed-Medium" font-size="16.0" fill="#000000" transform="matrix(1.18, 0.00, -0.00, -1.18, 1560.9, 940.5)">e</text><text xml:space="preserve" font-family="AvenirNextCondensed-Medium" font-size="16.0" fill="#000000" transform="matrix(1.18, 0.00, -0.00, -1.18, 1483.4, 895.2)">P</text><text xml:space="preserve" font-family="AvenirNextCondensed-Medium" font-size="16.0" fill="#000000" transform="matrix(1.18, 0.00, -0.00, -1.18, 1491.9, 895.2)">r</text><text xml:space="preserve" font-family="AvenirNextCondensed-Medium" font-size="16.0" fill="#000000" transform="matrix(1.18, 0.00, -0.00, -1.18, 1497.2, 895.2)">i</text><text xml:space="preserve" font-family="AvenirNextCondensed-Medium" font-size="16.0" fill="#000000" transform="matrix(1.18, 0.00, -0.00, -1.18, 1501.6, 895.2)">c</text><text xml:space="preserve" font-family="AvenirNextCondensed-Medium" font-size="16.0" fill="#000000" transform="matrix(1.18, 0.00, -0.00, -1.18, 1508.1, 895.2)">e</text></g></g></g></g></g><text xml:space="preserve" font-family="AvenirNextCondensed-DemiBold" font-weight="bold" font-size="18.0" fill="#C69920" transform="matrix(1.00, 0.00, -0.00, -1.00, 1583.0, 940.0)">3</text><text xml:space="preserve" font-family="AvenirNextCondensed-DemiBold" font-weight="bold" font-size="18.0" fill="#C69920" transform="matrix(1.00, 0.00, -0.00, -1.00, 1592.0, 940.0)">5</text><text xml:space="preserve" font-family="AvenirNextCondensed-DemiBold" font-weight="bold" font-size="18.0" fill="#324763" transform="matrix(1.00, 0.00, -0.00, -1.00, 1583.0, 893.0)">$</text><text xml:space="preserve" font-family="AvenirNextCondensed-DemiBold" font-weight="bold" font-size="18.0" fill="#324763" transform="matrix(1.00, 0.00, -0.00, -1.00, 1592.0, 893.0)">1</text><text xml:space="preserve" font-family="AvenirNextCondensed-DemiBold" font-weight="bold" font-size="18.0" fill="#324763" transform="matrix(1.00, 0.00, -0.00, -1.00, 1601.0, 893.0)">8</text><text xml:space="preserve" font-family="AvenirNextCondensed-DemiBold" font-weight="bold" font-size="18.0" fill="#324763" transform="matrix(1.00, 0.00, -0.00, -1.00, 1610.0, 893.0)">5</text><path d="M 1619.1 958.3 L 1747.1 958.3 L 1747.1 932.8 L 1619.1 932.8 Z M 1619.1 958.3 " fill="#D6D2CB"></path></g></svg>