<?xml version="1.0" encoding="UTF-8"?>
<!DOCTYPE svg PUBLIC "-//W3C//DTD SVG 1.1//EN" "http://www.w3.org/Graphics/SVG/1.1/DTD/svg11.dtd">
<!-- Creator: CorelDRAW X6 -->
<svg xmlns="http://www.w3.org/2000/svg" xml:space="preserve" width="8.26772in" height="11.6929in" version="1.1" style="shape-rendering:geometricPrecision; text-rendering:geometricPrecision; image-rendering:optimizeQuality; fill-rule:evenodd; clip-rule:evenodd"
viewBox="0 0 8268 11693"
 xmlns:xlink="http://www.w3.org/1999/xlink">
 <defs>
  <style type="text/css">
   <![CDATA[
    .fil0 {fill:#0101FF}
   ]]>
  </style>
 </defs>
 <g id="Layer_x0020_1">
  <metadata id="CorelCorpID_0Corel-Layer"/>
  <path class="fil0" d="M5613 3163c684,526 1365,1092 2049,1617 153,1917 -856,4108 -3412,4915l-2304 -2003c193,87 422,149 687,181 2550,157 2850,-1753 1248,-3529l-1641 0c-15,15 -30,30 -44,45l-196 -162 -898 -642 -340 -243 0 -1c6,-20 13,-39 20,-57l-201 -73c-2,-1 -4,-1 -5,-2l186 133 0 -1c6,-20 13,-39 20,-57l1214 437 0 497c672,0 1350,8 2023,8 0,-2 0,-3 0,-5l0 -456 1439 -503c86,-30 140,-66 156,-98z"/>
 </g>
</svg>
