<?xml version="1.0" encoding="UTF-8"?>
<!DOCTYPE svg PUBLIC "-//W3C//DTD SVG 1.1//EN" "http://www.w3.org/Graphics/SVG/1.1/DTD/svg11.dtd">
<!-- Creator: CorelDRAW X6 -->
<svg xmlns="http://www.w3.org/2000/svg" xml:space="preserve" width="8.26772in" height="11.6929in" version="1.1" style="shape-rendering:geometricPrecision; text-rendering:geometricPrecision; image-rendering:optimizeQuality; fill-rule:evenodd; clip-rule:evenodd"
viewBox="0 0 8268 11693"
 xmlns:xlink="http://www.w3.org/1999/xlink">
 <defs>
  <style type="text/css">
   <![CDATA[
    .fil0 {fill:#0101FF}
   ]]>
  </style>
 </defs>
 <g id="Layer_x0020_1">
  <metadata id="CorelCorpID_0Corel-Layer"/>
  <path class="fil0" d="M697 5628l2765 2868c1592,114 4347,-1274 4430,-4427l-2168 -1884 -8 1c22,6 33,25 33,57 0,-11 -1,-13 -2,-8 0,2 0,4 0,8 0,-3 0,-5 0,-8 -3,13 -8,68 -17,166 -18,178 -31,404 -41,681 -12,312 -19,669 -19,1068 0,659 18,1128 54,1408 3,30 5,50 5,57 0,18 -12,28 -36,31 -57,8 -268,12 -631,12 -40,0 -71,-4 -95,-11l-1 0 0 0c-28,-8 -45,-22 -52,-40 -5,-61 -10,-121 -15,-182 -2,-13 -8,-25 -18,-38 -10,5 -22,15 -35,29 -173,171 -389,256 -648,256 -337,0 -608,-119 -811,-355 -193,-226 -290,-510 -290,-854 0,-201 32,-382 95,-543l0 0c2,-4 3,-9 5,-13l0 0c2,-4 4,-9 5,-13l0 0c2,-4 4,-8 5,-13l0 0c2,-4 4,-8 6,-13l0 0c44,-97 100,-186 169,-267 94,-112 203,-198 328,-257 -22,10 -43,21 -62,33l-924 -859c-1,-1 -2,-2 -2,-3 58,69 87,151 87,246 0,278 -157,417 -471,417 -19,0 -38,-1 -56,-2l-5 0 -1 0 -5 0 -1 0 -5 -1c-102,-11 -189,-45 -261,-102 -14,-11 -27,-24 -40,-36 5,7 11,13 16,20l398 328c-7,2 -16,3 -26,4 45,-1 107,-5 185,-12 93,-7 162,-11 209,-11 4,0 8,0 12,1l1 0 0 0 1 0 0 0 1 0c27,4 41,19 41,46 0,7 -2,22 -5,46 -36,312 -54,672 -54,1083 0,117 2,291 7,522 5,231 7,404 7,519 0,16 -4,29 -13,39l-1 1 0 0 -1 1c-10,10 -25,17 -45,20 -54,10 -177,15 -367,15 -192,0 -314,-5 -369,-15 -35,-6 -57,-16 -65,-31 -3,-7 -5,-30 -5,-72 0,-64 1,-148 3,-250l-550 -598c-139,-132 -319,-169 -485,-135 11,-2 22,-3 33,-5l2 0 2 0 1 0c22,-2 44,-3 66,-3 156,0 290,56 399,168 110,112 165,246 165,402 0,159 -55,294 -165,406 -73,76 -158,126 -253,150l-5 1c-45,11 -92,17 -141,17 -98,0 -186,-22 -265,-65zm4951 -3434l-492 58c37,-3 76,-6 117,-9 159,-20 274,-35 345,-45l1 0 3 0 4 -1 0 0 4 0 3 0 1 0 3 0 2 0 2 0 3 0 1 0 6 -1zm-818 1137c-4,59 -9,120 -16,183 12,-4 17,-25 17,-62 0,-35 0,-76 -1,-121zm-40 172c-50,-65 -110,-116 -177,-155 56,34 105,76 149,127 11,12 20,22 28,28zm-508 -257c-108,-10 -219,-2 -323,18l10 -2 1 0c5,-1 9,-2 14,-2l0 0 0 0 13 -2 1 0 0 0 1 0c4,-1 9,-1 13,-2l0 0 1 0c5,-1 9,-1 14,-2l0 0 1 0 1 0 13 -2 0 0 1 0 3 0 9 -1 5 -1 4 0 4 0 0 0 11 -1 4 0 0 0 11 -1 4 0c33,-2 66,-4 101,-4 29,0 57,1 84,3zm-1857 -895c-75,-14 -150,-10 -219,7 41,-9 85,-14 130,-14 31,0 60,2 89,7zm-547 285c-22,61 -29,129 -14,200 -4,-24 -6,-48 -6,-74 0,-45 6,-87 19,-126zm-11 735c-14,4 -21,11 -19,20l1 8c2,-12 8,-22 18,-28zm25 518c3,63 6,128 9,195 -2,-68 -5,-133 -9,-195zm-1272 774c-156,116 -256,308 -215,538 -4,-27 -5,-55 -5,-84 0,-156 54,-290 163,-402 18,-19 38,-36 57,-52zm4224 -220c0,-127 -44,-237 -132,-333 -77,-83 -168,-130 -273,-140l-5 0 -1 0 -5 0c-11,-1 -23,-1 -35,-1 -131,0 -235,47 -313,142 -78,96 -116,209 -116,342 0,130 39,240 117,329 50,60 110,101 178,124l5 1c40,12 83,19 128,19 128,0 235,-48 321,-144 86,-96 129,-209 129,-338z"/>
 </g>
</svg>
