<?xml version="1.0" encoding="UTF-8"?>
<!DOCTYPE svg PUBLIC "-//W3C//DTD SVG 1.1//EN" "http://www.w3.org/Graphics/SVG/1.1/DTD/svg11.dtd">
<!-- Creator: CorelDRAW X6 -->
<svg xmlns="http://www.w3.org/2000/svg" xml:space="preserve" width="8.26772in" height="11.6929in" version="1.1" style="shape-rendering:geometricPrecision; text-rendering:geometricPrecision; image-rendering:optimizeQuality; fill-rule:evenodd; clip-rule:evenodd"
viewBox="0 0 8268 11693"
 xmlns:xlink="http://www.w3.org/1999/xlink">
 <defs>
  <style type="text/css">
   <![CDATA[
    .str0 {stroke:#0101FF;stroke-width:3}
    .fil0 {fill:#0101FF}
   ]]>
  </style>
 </defs>
 <g id="Layer_x0020_1">
  <metadata id="CorelCorpID_0Corel-Layer"/>
  <path class="fil0 str0" d="M5625 3450c194,187 267,480 162,746 -139,353 -538,526 -891,387 -95,-37 -177,-93 -243,-162 -194,-187 -267,-480 -162,-746 139,-353 538,-526 891,-387 95,37 176,93 243,162zm-4852 -163l106 70c142,383 282,754 426,1166 2,-14 4,-27 6,-41l20 58c32,-244 107,-414 329,-540l-527 -1425c-16,-37 -36,-67 -57,-91l159 113 482 1312 17 -6 9 24 471 -168 -623 -1725c-28,-68 -67,-120 -111,-156l230 142c-8,45 -6,98 11,158l577 1561c7,0 13,0 20,0l6 17c165,-2 292,42 404,114 76,52 145,118 217,190l-5 -13c10,10 21,20 31,31l-741 -2047 831 540c-116,112 -157,281 -133,499l245 1532c104,846 -898,1198 -1454,843 -110,-76 -200,-182 -258,-318l-687 -1838zm2566 -831l6 -1 -6 2 0 0zm22 -5l0 0 679 446 -171 881c-44,487 108,827 341,1053 299,303 741,408 1069,386 443,-7 853,-296 1038,-775l611 -1688c-7,-2 -14,-4 -21,-6l4 -11c-269,-86 -457,24 -577,296l-480 1245c-249,581 -950,534 -1305,187 -136,-142 -216,-329 -189,-543l284 -1663c-1,-81 -31,-141 -74,-180 -2,-2 -3,-4 -5,-5l156 101c-74,414 -137,805 -220,1239 9,-12 18,-23 27,-34l-10 52c129,-167 259,-262 478,-260l224 -1287c9,-78 -10,-138 -43,-179l0 0 133 80 -237 1350 20 4 -2 14 423 79 282 -1551c14,-97 -10,-177 -53,-232 42,37 150,112 298,210 -90,-4 -181,51 -217,191l-246 1410c6,4 13,7 19,11l-1 7c52,29 95,62 132,97 106,110 152,246 194,405l5 -28c4,15 8,30 12,46 111,-614 222,-1228 333,-1842 9,-63 -4,-119 -30,-163 573,371 1451,917 1718,1109 371,2090 -866,4416 -3311,5009l-2964 -1835c521,219 1108,57 1461,-181 441,-266 685,-796 591,-1385l-372 -2054zm2360 -1026l0 0 0 0 0 0zm-3614 459c3,2 6,4 9,6 -3,-2 -5,-3 -8,-5l-1 -1zm590 2131c187,120 323,316 359,553 66,436 -233,843 -669,910 -211,32 -415,-21 -577,-134 -187,-120 -323,-316 -359,-553 -66,-436 233,-843 669,-910 211,-32 415,21 577,134z"/>
 </g>
</svg>
