<?xml version="1.0" encoding="UTF-8"?>
<!DOCTYPE svg PUBLIC "-//W3C//DTD SVG 1.1//EN" "http://www.w3.org/Graphics/SVG/1.1/DTD/svg11.dtd">
<!-- Creator: CorelDRAW X6 -->
<svg xmlns="http://www.w3.org/2000/svg" xml:space="preserve" width="8.26772in" height="11.6929in" version="1.1" style="shape-rendering:geometricPrecision; text-rendering:geometricPrecision; image-rendering:optimizeQuality; fill-rule:evenodd; clip-rule:evenodd"
viewBox="0 0 8268 11693"
 xmlns:xlink="http://www.w3.org/1999/xlink">
 <defs>
  <style type="text/css">
   <![CDATA[
    .str0 {stroke:#010080;stroke-width:3}
    .fil0 {fill:#0101FF}
   ]]>
  </style>
 </defs>
 <g id="Layer_x0020_1">
  <metadata id="CorelCorpID_0Corel-Layer"/>
  <path class="fil0 str0" d="M4532 2533l2842 1612c127,1424 -349,3306 -2432,4374l-2998 -1656c338,168 719,262 1122,262 846,0 1594,-415 2054,-1053l1039 856 195 -237 -1069 -881c198,-361 311,-775 311,-1216 0,-851 -420,-1604 -1064,-2062l0 0zm-2785 4220l-2 -1c-3,-2 -5,-3 -8,-5 3,2 7,4 10,6zm-1008 -3150l1 -2 1 -1 -1 3z"/>
 </g>
</svg>
