<?xml version="1.0" encoding="UTF-8" standalone="no"?><svg xmlns="http://www.w3.org/2000/svg" xmlns:xlink="http://www.w3.org/1999/xlink" clip-rule="evenodd" stroke-miterlimit="4.00" viewBox="0 0 292 82"><desc>SVG generated by Keynote</desc><defs></defs><g transform="matrix(1.00, 0.00, -0.00, -1.00, 0.0, 82.0)"><path d="M 1.7 80.4 L 290.3 80.4 L 290.3 1.7 L 1.7 1.7 Z M 1.7 80.4 " fill="#5F834B"></path><g><clipPath id="clip-1917"><path d="M -0.5 1.7 L 292.5 1.7 L 292.5 80.4 L -0.5 80.4 Z M -0.5 1.7 "></path></clipPath><g clip-path="url(#clip-1917)"><text xml:space="preserve" font-family="Avenir-Heavy" font-weight="bold" font-size="18.0" fill="#FEFFFE" transform="matrix(1.00, 0.00, -0.00, -1.00, 88.0, 35.0)">F</text><text xml:space="preserve" font-family="Avenir-Heavy" font-weight="bold" font-size="18.0" fill="#FEFFFE" transform="matrix(1.00, 0.00, -0.00, -1.00, 98.3, 35.0)">I</text><text xml:space="preserve" font-family="Avenir-Heavy" font-weight="bold" font-size="18.0" fill="#FEFFFE" transform="matrix(1.00, 0.00, -0.00, -1.00, 103.3, 35.0)">N</text><text xml:space="preserve" font-family="Avenir-Heavy" font-weight="bold" font-size="18.0" fill="#FEFFFE" transform="matrix(1.00, 0.00, -0.00, -1.00, 117.7, 35.0)">I</text><text xml:space="preserve" font-family="Avenir-Heavy" font-weight="bold" font-size="18.0" fill="#FEFFFE" transform="matrix(1.00, 0.00, -0.00, -1.00, 122.7, 35.0)">S</text><text xml:space="preserve" font-family="Avenir-Heavy" font-weight="bold" font-size="18.0" fill="#FEFFFE" transform="matrix(1.00, 0.00, -0.00, -1.00, 133.0, 35.0)">H</text><text xml:space="preserve" font-family="Avenir-Heavy" font-weight="bold" font-size="18.0" fill="#FEFFFE" transform="matrix(1.00, 0.00, -0.00, -1.00, 146.3, 35.0)"> </text><text xml:space="preserve" font-family="Avenir-Heavy" font-weight="bold" font-size="18.0" fill="#FEFFFE" transform="matrix(1.00, 0.00, -0.00, -1.00, 151.7, 35.0)">B</text><text xml:space="preserve" font-family="Avenir-Heavy" font-weight="bold" font-size="18.0" fill="#FEFFFE" transform="matrix(1.00, 0.00, -0.00, -1.00, 163.3, 35.0)">U</text><text xml:space="preserve" font-family="Avenir-Heavy" font-weight="bold" font-size="18.0" fill="#FEFFFE" transform="matrix(1.00, 0.00, -0.00, -1.00, 176.3, 35.0)">I</text><text xml:space="preserve" font-family="Avenir-Heavy" font-weight="bold" font-size="18.0" fill="#FEFFFE" transform="matrix(1.00, 0.00, -0.00, -1.00, 181.3, 35.0)">L</text><text xml:space="preserve" font-family="Avenir-Heavy" font-weight="bold" font-size="18.0" fill="#FEFFFE" transform="matrix(1.00, 0.00, -0.00, -1.00, 190.7, 35.0)">D</text></g></g></g></svg>