<?xml version="1.0" encoding="UTF-8" standalone="no"?><svg xmlns="http://www.w3.org/2000/svg" xmlns:xlink="http://www.w3.org/1999/xlink" clip-rule="evenodd" stroke-miterlimit="4.00" viewBox="0 0 2042 1277"><desc>SVG generated by Keynote</desc><defs></defs><g transform="matrix(1.00, 0.00, -0.00, -1.00, 0.0, 1277.0)"><g><clipPath id="clip-747"><path d="M 1.0 1.0 L 2041.0 1.0 L 2041.0 1276.0 L 1.0 1276.0 Z M 1.0 1.0 "></path></clipPath><g clip-path="url(#clip-747)"><g><g><clipPath id="clip-748"><path d="M 1.0 1.0 L 2041.0 1.0 L 2041.0 1276.0 L 1.0 1276.0 Z M 1.0 1.0 "></path></clipPath><g clip-path="url(#clip-748)"><g opacity="0.23"><g><clipPath id="clip-749"><path d="M 1.0 1277.6 L 2047.4 1277.6 L 2047.4 -0.6 L 1.0 -0.6 L 1.0 1277.6 Z M 1.0 1277.6 "></path></clipPath><g clip-path="url(#clip-749)"><g><clipPath id="clip-750"><path d="M 1.0 1.0 L 2041.0 1.0 L 2041.0 1276.0 L 1.0 1276.0 Z M 1.0 1.0 "></path></clipPath><g clip-path="url(#clip-750)"><g><g><clipPath id="clip-751"><path d="M 1.0 1.0 L 2041.0 1.0 L 2041.0 1276.0 L 1.0 1276.0 Z M 1.0 1.0 "></path></clipPath><g clip-path="url(#clip-751)"><path d="M -7.0 1285.6 L 2055.3 1285.6 L 2055.3 -8.6 L -7.0 -8.6 Z M -7.0 1285.6 " fill="#FFFFFF"></path><image xlink:href="../../4CB14B03-340A-4341-8442-49BC340847BB/assets/28784051CBA7DECB8E91030F9AEB8EA9.png" width="1000.00" height="1000.00" transform="matrix(2.05, 0.00, -0.00, -2.05, 1.0, 1993.9)"></image></g></g><g><clipPath id="clip-752"><path d="M 1.0 1.0 L 2041.0 1.0 L 2041.0 1276.0 L 1.0 1276.0 Z M 1.0 1.0 "></path></clipPath><g clip-path="url(#clip-752)"><g><g><clipPath id="clip-753"><path d="M 1.0 1.0 L 2041.0 1.0 L 2041.0 1276.0 L 1.0 1276.0 Z M 1.0 1.0 "></path></clipPath><g clip-path="url(#clip-753)"><g><g><clipPath id="clip-754"><path d="M 1.0 1.0 L 2041.0 1.0 L 2041.0 1276.0 L 1.0 1276.0 Z M 1.0 1.0 "></path></clipPath><g clip-path="url(#clip-754)"><image xlink:href="../../4CB14B03-340A-4341-8442-49BC340847BB/assets/753040F36833B94AB714B826469AE19A.png" width="1938.00" height="1092.00" transform="matrix(1.59, 0.00, -0.00, -1.59, -467.6, 1532.6)"></image></g></g></g></g></g></g></g></g></g></g></g></g></g></g></g></g></g></g></g></g></svg>