<?xml version="1.0" encoding="UTF-8" standalone="no"?><svg xmlns="http://www.w3.org/2000/svg" xmlns:xlink="http://www.w3.org/1999/xlink" clip-rule="evenodd" stroke-miterlimit="4.00" viewBox="0 0 1317 89"><desc>SVG generated by Keynote</desc><defs></defs><g transform="matrix(1.00, 0.00, -0.00, -1.00, 0.0, 89.0)"><g><clipPath id="clip-4469"><path d="M 0.9 0.7 L 1316.6 0.7 L 1316.6 88.4 L 0.9 88.4 Z M 0.9 0.7 "></path></clipPath><g clip-path="url(#clip-4469)"><path d="M 1.9 87.4 L 1315.6 87.4 L 1315.6 1.7 L 1.9 1.7 Z M 1.9 87.4 " fill="#FEFFFE"></path></g></g><g><clipPath id="clip-4470"><path d="M 19.4 22.8 L 192.6 22.8 L 192.6 66.2 L 19.4 66.2 Z M 19.4 22.8 "></path></clipPath><g clip-path="url(#clip-4470)"><text xml:space="preserve" font-family="Avenir-Heavy" font-weight="bold" font-size="21.0" fill="#324763" transform="matrix(1.00, 0.00, -0.00, -1.00, 27.0, 38.0)">P</text><text xml:space="preserve" font-family="Avenir-Heavy" font-weight="bold" font-size="21.0" fill="#324763" transform="matrix(1.00, 0.00, -0.00, -1.00, 39.8, 38.0)">O</text><text xml:space="preserve" font-family="Avenir-Heavy" font-weight="bold" font-size="21.0" fill="#324763" transform="matrix(1.00, 0.00, -0.00, -1.00, 57.3, 38.0)">W</text><text xml:space="preserve" font-family="Avenir-Heavy" font-weight="bold" font-size="21.0" fill="#324763" transform="matrix(1.00, 0.00, -0.00, -1.00, 77.9, 38.0)">E</text><text xml:space="preserve" font-family="Avenir-Heavy" font-weight="bold" font-size="21.0" fill="#324763" transform="matrix(1.00, 0.00, -0.00, -1.00, 90.8, 38.0)">R</text><text xml:space="preserve" font-family="Avenir-Heavy" font-weight="bold" font-size="21.0" fill="#324763" transform="matrix(1.00, 0.00, -0.00, -1.00, 104.0, 38.0)"> </text><text xml:space="preserve" font-family="Avenir-Heavy" font-weight="bold" font-size="21.0" fill="#324763" transform="matrix(1.00, 0.00, -0.00, -1.00, 110.2, 38.0)">S</text><text xml:space="preserve" font-family="Avenir-Heavy" font-weight="bold" font-size="21.0" fill="#324763" transform="matrix(1.00, 0.00, -0.00, -1.00, 122.3, 38.0)">U</text><text xml:space="preserve" font-family="Avenir-Heavy" font-weight="bold" font-size="21.0" fill="#324763" transform="matrix(1.00, 0.00, -0.00, -1.00, 137.4, 38.0)">P</text><text xml:space="preserve" font-family="Avenir-Heavy" font-weight="bold" font-size="21.0" fill="#324763" transform="matrix(1.00, 0.00, -0.00, -1.00, 150.2, 38.0)">P</text><text xml:space="preserve" font-family="Avenir-Heavy" font-weight="bold" font-size="21.0" fill="#324763" transform="matrix(1.00, 0.00, -0.00, -1.00, 163.1, 38.0)">L</text><text xml:space="preserve" font-family="Avenir-Heavy" font-weight="bold" font-size="21.0" fill="#324763" transform="matrix(1.00, 0.00, -0.00, -1.00, 171.6, 38.0)">Y</text></g></g><g><clipPath id="clip-4471"><path d="M 257.8 12.9 L 515.4 12.9 L 515.4 76.1 L 257.8 76.1 Z M 257.8 12.9 "></path></clipPath><g clip-path="url(#clip-4471)"><text xml:space="preserve" font-family="Avenir-Book" font-size="31.0" fill="#324763" transform="matrix(1.00, 0.00, -0.00, -1.00, 268.0, 35.0)">C</text><text xml:space="preserve" font-family="Avenir-Book" font-size="31.0" fill="#324763" transform="matrix(1.00, 0.00, -0.00, -1.00, 289.8, 35.0)">o</text><text xml:space="preserve" font-family="Avenir-Book" font-size="31.0" fill="#324763" transform="matrix(1.00, 0.00, -0.00, -1.00, 308.2, 35.0)">r</text><text xml:space="preserve" font-family="Avenir-Book" font-size="31.0" fill="#324763" transform="matrix(1.00, 0.00, -0.00, -1.00, 318.5, 35.0)">s</text><text xml:space="preserve" font-family="Avenir-Book" font-size="31.0" fill="#324763" transform="matrix(1.00, 0.00, -0.00, -1.00, 331.7, 35.0)">a</text><text xml:space="preserve" font-family="Avenir-Book" font-size="31.0" fill="#324763" transform="matrix(1.00, 0.00, -0.00, -1.00, 347.8, 35.0)">i</text><text xml:space="preserve" font-family="Avenir-Book" font-size="31.0" fill="#324763" transform="matrix(1.00, 0.00, -0.00, -1.00, 355.2, 35.0)">r</text><text xml:space="preserve" font-family="Avenir-Book" font-size="31.0" fill="#324763" transform="matrix(1.00, 0.00, -0.00, -1.00, 365.5, 35.0)"> </text><text xml:space="preserve" font-family="Avenir-Book" font-size="31.0" fill="#324763" transform="matrix(1.00, 0.00, -0.00, -1.00, 374.1, 35.0)">C</text><text xml:space="preserve" font-family="Avenir-Book" font-size="31.0" fill="#324763" transform="matrix(1.00, 0.00, -0.00, -1.00, 396.0, 35.0)">X</text><text xml:space="preserve" font-family="Avenir-Book" font-size="31.0" fill="#324763" transform="matrix(1.00, 0.00, -0.00, -1.00, 415.5, 35.0)"> </text><text xml:space="preserve" font-family="Avenir-Book" font-size="31.0" fill="#324763" transform="matrix(1.00, 0.00, -0.00, -1.00, 424.1, 35.0)">6</text><text xml:space="preserve" font-family="Avenir-Book" font-size="31.0" fill="#324763" transform="matrix(1.00, 0.00, -0.00, -1.00, 441.4, 35.0)">5</text><text xml:space="preserve" font-family="Avenir-Book" font-size="31.0" fill="#324763" transform="matrix(1.00, 0.00, -0.00, -1.00, 458.6, 35.0)">0</text><text xml:space="preserve" font-family="Avenir-Book" font-size="31.0" fill="#324763" transform="matrix(1.00, 0.00, -0.00, -1.00, 475.8, 35.0)">M</text></g></g></g></svg>