<?xml version="1.0" encoding="UTF-8" standalone="no"?><svg xmlns="http://www.w3.org/2000/svg" xmlns:xlink="http://www.w3.org/1999/xlink" clip-rule="evenodd" stroke-miterlimit="4.00" viewBox="0 0 1317 89"><desc>SVG generated by Keynote</desc><defs></defs><g transform="matrix(1.00, 0.00, -0.00, -1.00, 0.0, 89.0)"><g><clipPath id="clip-2177"><path d="M 0.9 0.4 L 1316.6 0.4 L 1316.6 88.1 L 0.9 88.1 Z M 0.9 0.4 "></path></clipPath><g clip-path="url(#clip-2177)"><path d="M 1.9 87.1 L 1315.6 87.1 L 1315.6 1.4 L 1.9 1.4 Z M 1.9 87.1 " fill="#FEFFFE"></path></g></g><g><clipPath id="clip-2178"><path d="M 19.4 22.6 L 82.6 22.6 L 82.6 65.9 L 19.4 65.9 Z M 19.4 22.6 "></path></clipPath><g clip-path="url(#clip-2178)"><text xml:space="preserve" font-family="Avenir-Heavy" font-weight="bold" font-size="21.0" fill="#324763" transform="matrix(1.00, 0.00, -0.00, -1.00, 27.0, 37.0)">R</text><text xml:space="preserve" font-family="Avenir-Heavy" font-weight="bold" font-size="21.0" fill="#324763" transform="matrix(1.00, 0.00, -0.00, -1.00, 40.2, 37.0)">A</text><text xml:space="preserve" font-family="Avenir-Heavy" font-weight="bold" font-size="21.0" fill="#324763" transform="matrix(1.00, 0.00, -0.00, -1.00, 55.4, 37.0)">M</text></g></g><g><clipPath id="clip-2179"><path d="M 257.8 12.7 L 699.2 12.7 L 699.2 75.9 L 257.8 75.9 Z M 257.8 12.7 "></path></clipPath><g clip-path="url(#clip-2179)"><text xml:space="preserve" font-family="Avenir-Book" font-size="31.0" fill="#324763" transform="matrix(1.00, 0.00, -0.00, -1.00, 268.0, 35.0)">C</text><text xml:space="preserve" font-family="Avenir-Book" font-size="31.0" fill="#324763" transform="matrix(1.00, 0.00, -0.00, -1.00, 289.8, 35.0)">o</text><text xml:space="preserve" font-family="Avenir-Book" font-size="31.0" fill="#324763" transform="matrix(1.00, 0.00, -0.00, -1.00, 308.2, 35.0)">r</text><text xml:space="preserve" font-family="Avenir-Book" font-size="31.0" fill="#324763" transform="matrix(1.00, 0.00, -0.00, -1.00, 318.5, 35.0)">s</text><text xml:space="preserve" font-family="Avenir-Book" font-size="31.0" fill="#324763" transform="matrix(1.00, 0.00, -0.00, -1.00, 331.7, 35.0)">a</text><text xml:space="preserve" font-family="Avenir-Book" font-size="31.0" fill="#324763" transform="matrix(1.00, 0.00, -0.00, -1.00, 347.8, 35.0)">i</text><text xml:space="preserve" font-family="Avenir-Book" font-size="31.0" fill="#324763" transform="matrix(1.00, 0.00, -0.00, -1.00, 355.2, 35.0)">r</text><text xml:space="preserve" font-family="Avenir-Book" font-size="31.0" fill="#324763" transform="matrix(1.00, 0.00, -0.00, -1.00, 365.5, 35.0)"> </text><text xml:space="preserve" font-family="Avenir-Book" font-size="31.0" fill="#324763" transform="matrix(1.00, 0.00, -0.00, -1.00, 374.1, 35.0)">V</text><text xml:space="preserve" font-family="Avenir-Book" font-size="31.0" fill="#324763" transform="matrix(1.00, 0.00, -0.00, -1.00, 391.4, 35.0)">e</text><text xml:space="preserve" font-family="Avenir-Book" font-size="31.0" fill="#324763" transform="matrix(1.00, 0.00, -0.00, -1.00, 408.6, 35.0)">n</text><text xml:space="preserve" font-family="Avenir-Book" font-size="31.0" fill="#324763" transform="matrix(1.00, 0.00, -0.00, -1.00, 425.9, 35.0)">g</text><text xml:space="preserve" font-family="Avenir-Book" font-size="31.0" fill="#324763" transform="matrix(1.00, 0.00, -0.00, -1.00, 444.8, 35.0)">e</text><text xml:space="preserve" font-family="Avenir-Book" font-size="31.0" fill="#324763" transform="matrix(1.00, 0.00, -0.00, -1.00, 462.0, 35.0)">a</text><text xml:space="preserve" font-family="Avenir-Book" font-size="31.0" fill="#324763" transform="matrix(1.00, 0.00, -0.00, -1.00, 478.1, 35.0)">n</text><text xml:space="preserve" font-family="Avenir-Book" font-size="31.0" fill="#324763" transform="matrix(1.00, 0.00, -0.00, -1.00, 495.4, 35.0)">c</text><text xml:space="preserve" font-family="Avenir-Book" font-size="31.0" fill="#324763" transform="matrix(1.00, 0.00, -0.00, -1.00, 510.3, 35.0)">e</text><text xml:space="preserve" font-family="Avenir-Book" font-size="31.0" fill="#324763" transform="matrix(1.00, 0.00, -0.00, -1.00, 527.5, 35.0)"> </text><text xml:space="preserve" font-family="Avenir-Book" font-size="31.0" fill="#324763" transform="matrix(1.00, 0.00, -0.00, -1.00, 536.1, 35.0)">8</text><text xml:space="preserve" font-family="Avenir-Book" font-size="31.0" fill="#324763" transform="matrix(1.00, 0.00, -0.00, -1.00, 553.4, 35.0)">G</text><text xml:space="preserve" font-family="Avenir-Book" font-size="31.0" fill="#324763" transform="matrix(1.00, 0.00, -0.00, -1.00, 577.5, 35.0)">B</text><text xml:space="preserve" font-family="Avenir-Book" font-size="31.0" fill="#324763" transform="matrix(1.00, 0.00, -0.00, -1.00, 597.0, 35.0)"> </text><text xml:space="preserve" font-family="Avenir-Book" font-size="31.0" fill="#324763" transform="matrix(1.00, 0.00, -0.00, -1.00, 605.7, 35.0)">D</text><text xml:space="preserve" font-family="Avenir-Book" font-size="31.0" fill="#324763" transform="matrix(1.00, 0.00, -0.00, -1.00, 628.6, 35.0)">D</text><text xml:space="preserve" font-family="Avenir-Book" font-size="31.0" fill="#324763" transform="matrix(1.00, 0.00, -0.00, -1.00, 651.6, 35.0)">R</text><text xml:space="preserve" font-family="Avenir-Book" font-size="31.0" fill="#324763" transform="matrix(1.00, 0.00, -0.00, -1.00, 670.0, 35.0)">3</text></g></g></g></svg>