<?xml version="1.0" encoding="UTF-8" standalone="no"?><svg xmlns="http://www.w3.org/2000/svg" xmlns:xlink="http://www.w3.org/1999/xlink" clip-rule="evenodd" stroke-miterlimit="4.00" viewBox="0 0 413 89"><desc>SVG generated by Keynote</desc><defs></defs><g transform="matrix(1.00, 0.00, -0.00, -1.00, 0.0, 89.0)"><g><clipPath id="clip-2214"><path d="M 0.3 0.9 L 412.1 0.9 L 412.1 88.6 L 0.3 88.6 Z M 0.3 0.9 "></path></clipPath><g clip-path="url(#clip-2214)"><path d="M 1.3 87.6 L 411.1 87.6 L 411.1 1.9 L 1.3 1.9 Z M 1.3 87.6 " fill="#5F834B"></path></g></g><g><clipPath id="clip-2215"><path d="M 180.5 34.3 L 231.9 34.3 L 231.9 55.2 L 180.5 55.2 Z M 180.5 34.3 "></path></clipPath><g clip-path="url(#clip-2215)"><image xlink:href="../../B6A3AA6E-4D2C-481F-8A6F-652237BCFC30/assets/6A5278CAA26D1373A59E64E696AE2F91.png" width="52.00" height="21.00" transform="matrix(0.98, 0.00, -0.00, -1.00, 181.0, 55.0)"></image></g></g><g><clipPath id="clip-2216"><path d="M 17.4 13.2 L 108.6 13.2 L 108.6 76.3 L 17.4 76.3 Z M 17.4 13.2 "></path></clipPath><g clip-path="url(#clip-2216)"><text xml:space="preserve" font-family="Avenir-Book" font-size="31.0" fill="#FEFFFE" transform="matrix(1.00, 0.00, -0.00, -1.00, 28.0, 35.0)">$</text><text xml:space="preserve" font-family="Avenir-Book" font-size="31.0" fill="#FEFFFE" transform="matrix(1.00, 0.00, -0.00, -1.00, 45.2, 35.0)">1</text><text xml:space="preserve" font-family="Avenir-Book" font-size="31.0" fill="#FEFFFE" transform="matrix(1.00, 0.00, -0.00, -1.00, 62.5, 35.0)">2</text><text xml:space="preserve" font-family="Avenir-Book" font-size="31.0" fill="#FEFFFE" transform="matrix(1.00, 0.00, -0.00, -1.00, 79.7, 35.0)">0</text></g></g><g><clipPath id="clip-2217"><path d="M 398.9 33.3 L 398.9 56.2 L 375.9 56.2 L 375.9 33.3 Z M 398.9 33.3 "></path></clipPath><g clip-path="url(#clip-2217)"><path d="M 397.9 44.7 L 376.9 55.2 L 376.9 34.3 Z M 397.9 44.7 " fill="#FEFFFE"></path></g></g><g><clipPath id="clip-2218"><path d="M 220.2 13.2 L 367.6 13.2 L 367.6 76.3 L 220.2 76.3 Z M 220.2 13.2 "></path></clipPath><g clip-path="url(#clip-2218)"><text xml:space="preserve" font-family="Avenir-Book" font-size="31.0" fill="#FEFFFE" transform="matrix(1.00, 0.00, -0.00, -1.00, 231.0, 35.0)">B</text><text xml:space="preserve" font-family="Avenir-Book" font-size="31.0" fill="#FEFFFE" transform="matrix(1.00, 0.00, -0.00, -1.00, 250.5, 35.0)">u</text><text xml:space="preserve" font-family="Avenir-Book" font-size="31.0" fill="#FEFFFE" transform="matrix(1.00, 0.00, -0.00, -1.00, 267.8, 35.0)">y</text><text xml:space="preserve" font-family="Avenir-Book" font-size="31.0" fill="#FEFFFE" transform="matrix(1.00, 0.00, -0.00, -1.00, 282.7, 35.0)"> </text><text xml:space="preserve" font-family="Avenir-Book" font-size="31.0" fill="#FEFFFE" transform="matrix(1.00, 0.00, -0.00, -1.00, 291.3, 35.0)">N</text><text xml:space="preserve" font-family="Avenir-Book" font-size="31.0" fill="#FEFFFE" transform="matrix(1.00, 0.00, -0.00, -1.00, 315.4, 35.0)">o</text><text xml:space="preserve" font-family="Avenir-Book" font-size="31.0" fill="#FEFFFE" transform="matrix(1.00, 0.00, -0.00, -1.00, 333.8, 35.0)">w</text></g></g></g></svg>