<?xml version="1.0" encoding="UTF-8" standalone="no"?><svg xmlns="http://www.w3.org/2000/svg" xmlns:xlink="http://www.w3.org/1999/xlink" clip-rule="evenodd" stroke-miterlimit="4.00" viewBox="0 0 1317 88"><desc>SVG generated by Keynote</desc><defs></defs><g transform="matrix(1.00, 0.00, -0.00, -1.00, 0.0, 88.0)"><g><clipPath id="clip-2174"><path d="M 0.9 0.2 L 1316.6 0.2 L 1316.6 87.9 L 0.9 87.9 Z M 0.9 0.2 "></path></clipPath><g clip-path="url(#clip-2174)"><path d="M 1.9 86.9 L 1315.6 86.9 L 1315.6 1.2 L 1.9 1.2 Z M 1.9 86.9 " fill="#FEFFFE"></path></g></g><g><clipPath id="clip-2175"><path d="M 19.4 22.4 L 79.1 22.4 L 79.1 65.7 L 19.4 65.7 Z M 19.4 22.4 "></path></clipPath><g clip-path="url(#clip-2175)"><text xml:space="preserve" font-family="Avenir-Heavy" font-weight="bold" font-size="21.0" fill="#324763" transform="matrix(1.00, 0.00, -0.00, -1.00, 27.0, 37.0)">G</text><text xml:space="preserve" font-family="Avenir-Heavy" font-weight="bold" font-size="21.0" fill="#324763" transform="matrix(1.00, 0.00, -0.00, -1.00, 43.3, 37.0)">P</text><text xml:space="preserve" font-family="Avenir-Heavy" font-weight="bold" font-size="21.0" fill="#324763" transform="matrix(1.00, 0.00, -0.00, -1.00, 56.2, 37.0)">U</text></g></g><g><clipPath id="clip-2176"><path d="M 257.8 12.4 L 658.8 12.4 L 658.8 75.6 L 257.8 75.6 Z M 257.8 12.4 "></path></clipPath><g clip-path="url(#clip-2176)"><text xml:space="preserve" font-family="Avenir-Book" font-size="31.0" fill="#324763" transform="matrix(1.00, 0.00, -0.00, -1.00, 268.0, 34.0)">N</text><text xml:space="preserve" font-family="Avenir-Book" font-size="31.0" fill="#324763" transform="matrix(1.00, 0.00, -0.00, -1.00, 292.1, 34.0)">V</text><text xml:space="preserve" font-family="Avenir-Book" font-size="31.0" fill="#324763" transform="matrix(1.00, 0.00, -0.00, -1.00, 311.1, 34.0)">I</text><text xml:space="preserve" font-family="Avenir-Book" font-size="31.0" fill="#324763" transform="matrix(1.00, 0.00, -0.00, -1.00, 319.2, 34.0)">D</text><text xml:space="preserve" font-family="Avenir-Book" font-size="31.0" fill="#324763" transform="matrix(1.00, 0.00, -0.00, -1.00, 342.2, 34.0)">I</text><text xml:space="preserve" font-family="Avenir-Book" font-size="31.0" fill="#324763" transform="matrix(1.00, 0.00, -0.00, -1.00, 350.4, 34.0)">A</text><text xml:space="preserve" font-family="Avenir-Book" font-size="31.0" fill="#324763" transform="matrix(1.00, 0.00, -0.00, -1.00, 371.7, 34.0)"> </text><text xml:space="preserve" font-family="Avenir-Book" font-size="31.0" fill="#324763" transform="matrix(1.00, 0.00, -0.00, -1.00, 380.3, 34.0)">G</text><text xml:space="preserve" font-family="Avenir-Book" font-size="31.0" fill="#324763" transform="matrix(1.00, 0.00, -0.00, -1.00, 404.4, 34.0)">e</text><text xml:space="preserve" font-family="Avenir-Book" font-size="31.0" fill="#324763" transform="matrix(1.00, 0.00, -0.00, -1.00, 421.6, 34.0)">F</text><text xml:space="preserve" font-family="Avenir-Book" font-size="31.0" fill="#324763" transform="matrix(1.00, 0.00, -0.00, -1.00, 438.9, 34.0)">o</text><text xml:space="preserve" font-family="Avenir-Book" font-size="31.0" fill="#324763" transform="matrix(1.00, 0.00, -0.00, -1.00, 457.3, 34.0)">r</text><text xml:space="preserve" font-family="Avenir-Book" font-size="31.0" fill="#324763" transform="matrix(1.00, 0.00, -0.00, -1.00, 467.0, 34.0)">c</text><text xml:space="preserve" font-family="Avenir-Book" font-size="31.0" fill="#324763" transform="matrix(1.00, 0.00, -0.00, -1.00, 481.9, 34.0)">e</text><text xml:space="preserve" font-family="Avenir-Book" font-size="31.0" fill="#324763" transform="matrix(1.00, 0.00, -0.00, -1.00, 499.2, 34.0)"> </text><text xml:space="preserve" font-family="Avenir-Book" font-size="31.0" fill="#324763" transform="matrix(1.00, 0.00, -0.00, -1.00, 507.8, 34.0)">G</text><text xml:space="preserve" font-family="Avenir-Book" font-size="31.0" fill="#324763" transform="matrix(1.00, 0.00, -0.00, -1.00, 531.9, 34.0)">T</text><text xml:space="preserve" font-family="Avenir-Book" font-size="31.0" fill="#324763" transform="matrix(1.00, 0.00, -0.00, -1.00, 549.7, 34.0)">X</text><text xml:space="preserve" font-family="Avenir-Book" font-size="31.0" fill="#324763" transform="matrix(1.00, 0.00, -0.00, -1.00, 569.2, 34.0)"> </text><text xml:space="preserve" font-family="Avenir-Book" font-size="31.0" fill="#324763" transform="matrix(1.00, 0.00, -0.00, -1.00, 577.8, 34.0)">1</text><text xml:space="preserve" font-family="Avenir-Book" font-size="31.0" fill="#324763" transform="matrix(1.00, 0.00, -0.00, -1.00, 595.1, 34.0)">0</text><text xml:space="preserve" font-family="Avenir-Book" font-size="31.0" fill="#324763" transform="matrix(1.00, 0.00, -0.00, -1.00, 612.3, 34.0)">7</text><text xml:space="preserve" font-family="Avenir-Book" font-size="31.0" fill="#324763" transform="matrix(1.00, 0.00, -0.00, -1.00, 629.6, 34.0)">0</text></g></g></g></svg>