<?xml version="1.0" encoding="UTF-8" standalone="no"?><svg xmlns="http://www.w3.org/2000/svg" xmlns:xlink="http://www.w3.org/1999/xlink" clip-rule="evenodd" stroke-miterlimit="4.00" viewBox="0 0 1317 89"><desc>SVG generated by Keynote</desc><defs></defs><g transform="matrix(1.00, 0.00, -0.00, -1.00, 0.0, 89.0)"><g><clipPath id="clip-4466"><path d="M 0.9 0.9 L 1316.6 0.9 L 1316.6 88.6 L 0.9 88.6 Z M 0.9 0.9 "></path></clipPath><g clip-path="url(#clip-4466)"><path d="M 1.9 87.6 L 1315.6 87.6 L 1315.6 1.9 L 1.9 1.9 Z M 1.9 87.6 " fill="#FEFFFE"></path></g></g><g><clipPath id="clip-4467"><path d="M 19.4 23.1 L 133.9 23.1 L 133.9 66.4 L 19.4 66.4 Z M 19.4 23.1 "></path></clipPath><g clip-path="url(#clip-4467)"><text xml:space="preserve" font-family="Avenir-Heavy" font-weight="bold" font-size="21.0" fill="#324763" transform="matrix(1.00, 0.00, -0.00, -1.00, 27.0, 38.0)">S</text><text xml:space="preserve" font-family="Avenir-Heavy" font-weight="bold" font-size="21.0" fill="#324763" transform="matrix(1.00, 0.00, -0.00, -1.00, 39.1, 38.0)">T</text><text xml:space="preserve" font-family="Avenir-Heavy" font-weight="bold" font-size="21.0" fill="#324763" transform="matrix(1.00, 0.00, -0.00, -1.00, 51.1, 38.0)">O</text><text xml:space="preserve" font-family="Avenir-Heavy" font-weight="bold" font-size="21.0" fill="#324763" transform="matrix(1.00, 0.00, -0.00, -1.00, 68.6, 38.0)">R</text><text xml:space="preserve" font-family="Avenir-Heavy" font-weight="bold" font-size="21.0" fill="#324763" transform="matrix(1.00, 0.00, -0.00, -1.00, 81.8, 38.0)">A</text><text xml:space="preserve" font-family="Avenir-Heavy" font-weight="bold" font-size="21.0" fill="#324763" transform="matrix(1.00, 0.00, -0.00, -1.00, 97.0, 38.0)">G</text><text xml:space="preserve" font-family="Avenir-Heavy" font-weight="bold" font-size="21.0" fill="#324763" transform="matrix(1.00, 0.00, -0.00, -1.00, 113.3, 38.0)">E</text></g></g><g><clipPath id="clip-4468"><path d="M 257.8 13.2 L 675.1 13.2 L 675.1 76.3 L 257.8 76.3 Z M 257.8 13.2 "></path></clipPath><g clip-path="url(#clip-4468)"><text xml:space="preserve" font-family="Avenir-Book" font-size="31.0" fill="#324763" transform="matrix(1.00, 0.00, -0.00, -1.00, 268.0, 35.0)">C</text><text xml:space="preserve" font-family="Avenir-Book" font-size="31.0" fill="#324763" transform="matrix(1.00, 0.00, -0.00, -1.00, 289.8, 35.0)">o</text><text xml:space="preserve" font-family="Avenir-Book" font-size="31.0" fill="#324763" transform="matrix(1.00, 0.00, -0.00, -1.00, 308.2, 35.0)">r</text><text xml:space="preserve" font-family="Avenir-Book" font-size="31.0" fill="#324763" transform="matrix(1.00, 0.00, -0.00, -1.00, 318.5, 35.0)">s</text><text xml:space="preserve" font-family="Avenir-Book" font-size="31.0" fill="#324763" transform="matrix(1.00, 0.00, -0.00, -1.00, 331.7, 35.0)">a</text><text xml:space="preserve" font-family="Avenir-Book" font-size="31.0" fill="#324763" transform="matrix(1.00, 0.00, -0.00, -1.00, 347.8, 35.0)">i</text><text xml:space="preserve" font-family="Avenir-Book" font-size="31.0" fill="#324763" transform="matrix(1.00, 0.00, -0.00, -1.00, 355.2, 35.0)">r</text><text xml:space="preserve" font-family="Avenir-Book" font-size="31.0" fill="#324763" transform="matrix(1.00, 0.00, -0.00, -1.00, 365.5, 35.0)"> </text><text xml:space="preserve" font-family="Avenir-Book" font-size="31.0" fill="#324763" transform="matrix(1.00, 0.00, -0.00, -1.00, 374.1, 35.0)">S</text><text xml:space="preserve" font-family="Avenir-Book" font-size="31.0" fill="#324763" transform="matrix(1.00, 0.00, -0.00, -1.00, 391.4, 35.0)">S</text><text xml:space="preserve" font-family="Avenir-Book" font-size="31.0" fill="#324763" transform="matrix(1.00, 0.00, -0.00, -1.00, 408.6, 35.0)">D</text><text xml:space="preserve" font-family="Avenir-Book" font-size="31.0" fill="#324763" transform="matrix(1.00, 0.00, -0.00, -1.00, 431.6, 35.0)"> </text><text xml:space="preserve" font-family="Avenir-Book" font-size="31.0" fill="#324763" transform="matrix(1.00, 0.00, -0.00, -1.00, 440.2, 35.0)">F</text><text xml:space="preserve" font-family="Avenir-Book" font-size="31.0" fill="#324763" transform="matrix(1.00, 0.00, -0.00, -1.00, 457.4, 35.0)">o</text><text xml:space="preserve" font-family="Avenir-Book" font-size="31.0" fill="#324763" transform="matrix(1.00, 0.00, -0.00, -1.00, 475.8, 35.0)">r</text><text xml:space="preserve" font-family="Avenir-Book" font-size="31.0" fill="#324763" transform="matrix(1.00, 0.00, -0.00, -1.00, 485.6, 35.0)">c</text><text xml:space="preserve" font-family="Avenir-Book" font-size="31.0" fill="#324763" transform="matrix(1.00, 0.00, -0.00, -1.00, 500.5, 35.0)">e</text><text xml:space="preserve" font-family="Avenir-Book" font-size="31.0" fill="#324763" transform="matrix(1.00, 0.00, -0.00, -1.00, 517.7, 35.0)"> </text><text xml:space="preserve" font-family="Avenir-Book" font-size="31.0" fill="#324763" transform="matrix(1.00, 0.00, -0.00, -1.00, 526.4, 35.0)">L</text><text xml:space="preserve" font-family="Avenir-Book" font-size="31.0" fill="#324763" transform="matrix(1.00, 0.00, -0.00, -1.00, 541.9, 35.0)">S</text><text xml:space="preserve" font-family="Avenir-Book" font-size="31.0" fill="#324763" transform="matrix(1.00, 0.00, -0.00, -1.00, 559.1, 35.0)"> </text><text xml:space="preserve" font-family="Avenir-Book" font-size="31.0" fill="#324763" transform="matrix(1.00, 0.00, -0.00, -1.00, 567.7, 35.0)">9</text><text xml:space="preserve" font-family="Avenir-Book" font-size="31.0" fill="#324763" transform="matrix(1.00, 0.00, -0.00, -1.00, 584.9, 35.0)">6</text><text xml:space="preserve" font-family="Avenir-Book" font-size="31.0" fill="#324763" transform="matrix(1.00, 0.00, -0.00, -1.00, 602.2, 35.0)">0</text><text xml:space="preserve" font-family="Avenir-Book" font-size="31.0" fill="#324763" transform="matrix(1.00, 0.00, -0.00, -1.00, 619.4, 35.0)">G</text><text xml:space="preserve" font-family="Avenir-Book" font-size="31.0" fill="#324763" transform="matrix(1.00, 0.00, -0.00, -1.00, 643.5, 35.0)">B</text></g></g></g></svg>