<?xml version="1.0" encoding="UTF-8" standalone="no"?><svg xmlns="http://www.w3.org/2000/svg" xmlns:xlink="http://www.w3.org/1999/xlink" clip-rule="evenodd" stroke-miterlimit="4.00" viewBox="0 0 372 565"><desc>SVG generated by Keynote</desc><defs></defs><g transform="matrix(1.00, 0.00, -0.00, -1.00, 0.0, 565.0)"><g><clipPath id="clip-3804"><path d="M 0.1 0.3 L 371.1 0.3 L 371.1 564.8 L 0.1 564.8 Z M 0.1 0.3 "></path></clipPath><g clip-path="url(#clip-3804)"><path d="M 1.1 563.8 L 370.1 563.8 L 370.1 1.3 L 1.1 1.3 Z M 1.1 563.8 " fill="#FEFFFE" fill-opacity="0.60"></path></g></g><g><clipPath id="clip-3805"><path d="M 213.7 220.3 L 278.7 220.3 L 278.7 271.4 L 213.7 271.4 Z M 213.7 220.3 "></path></clipPath><g clip-path="url(#clip-3805)"><text xml:space="preserve" font-family="AvenirNextCondensed-DemiBold" font-weight="bold" font-size="25.0" fill="#324763" transform="matrix(1.00, 0.00, -0.00, -1.00, 223.0, 238.0)">C</text><text xml:space="preserve" font-family="AvenirNextCondensed-DemiBold" font-weight="bold" font-size="25.0" fill="#324763" transform="matrix(1.00, 0.00, -0.00, -1.00, 235.1, 238.0)">A</text><text xml:space="preserve" font-family="AvenirNextCondensed-DemiBold" font-weight="bold" font-size="25.0" fill="#324763" transform="matrix(1.00, 0.00, -0.00, -1.00, 247.8, 238.0)">S</text><text xml:space="preserve" font-family="AvenirNextCondensed-DemiBold" font-weight="bold" font-size="25.0" fill="#324763" transform="matrix(1.00, 0.00, -0.00, -1.00, 259.0, 238.0)">E</text></g></g><g><clipPath id="clip-3806"><path d="M 164.3 471.4 L 328.0 471.4 L 328.0 522.5 L 164.3 522.5 Z M 164.3 471.4 "></path></clipPath><g clip-path="url(#clip-3806)"><text xml:space="preserve" font-family="AvenirNextCondensed-DemiBold" font-weight="bold" font-size="25.0" fill="#324763" transform="matrix(1.00, 0.00, -0.00, -1.00, 173.0, 489.0)">P</text><text xml:space="preserve" font-family="AvenirNextCondensed-DemiBold" font-weight="bold" font-size="25.0" fill="#324763" transform="matrix(1.00, 0.00, -0.00, -1.00, 185.4, 489.0)">O</text><text xml:space="preserve" font-family="AvenirNextCondensed-DemiBold" font-weight="bold" font-size="25.0" fill="#324763" transform="matrix(1.00, 0.00, -0.00, -1.00, 200.2, 489.0)">W</text><text xml:space="preserve" font-family="AvenirNextCondensed-DemiBold" font-weight="bold" font-size="25.0" fill="#324763" transform="matrix(1.00, 0.00, -0.00, -1.00, 219.4, 489.0)">E</text><text xml:space="preserve" font-family="AvenirNextCondensed-DemiBold" font-weight="bold" font-size="25.0" fill="#324763" transform="matrix(1.00, 0.00, -0.00, -1.00, 230.3, 489.0)">R</text><text xml:space="preserve" font-family="AvenirNextCondensed-DemiBold" font-weight="bold" font-size="25.0" fill="#324763" transform="matrix(1.00, 0.00, -0.00, -1.00, 243.1, 489.0)"> </text><text xml:space="preserve" font-family="AvenirNextCondensed-DemiBold" font-weight="bold" font-size="25.0" fill="#324763" transform="matrix(1.00, 0.00, -0.00, -1.00, 248.0, 489.0)">S</text><text xml:space="preserve" font-family="AvenirNextCondensed-DemiBold" font-weight="bold" font-size="25.0" fill="#324763" transform="matrix(1.00, 0.00, -0.00, -1.00, 259.2, 489.0)">U</text><text xml:space="preserve" font-family="AvenirNextCondensed-DemiBold" font-weight="bold" font-size="25.0" fill="#324763" transform="matrix(1.00, 0.00, -0.00, -1.00, 273.4, 489.0)">P</text><text xml:space="preserve" font-family="AvenirNextCondensed-DemiBold" font-weight="bold" font-size="25.0" fill="#324763" transform="matrix(1.00, 0.00, -0.00, -1.00, 285.8, 489.0)">P</text><text xml:space="preserve" font-family="AvenirNextCondensed-DemiBold" font-weight="bold" font-size="25.0" fill="#324763" transform="matrix(1.00, 0.00, -0.00, -1.00, 298.1, 489.0)">L</text><text xml:space="preserve" font-family="AvenirNextCondensed-DemiBold" font-weight="bold" font-size="25.0" fill="#324763" transform="matrix(1.00, 0.00, -0.00, -1.00, 307.1, 489.0)">Y</text></g></g></g></svg>